<?xml version="1.0" encoding="UTF-8"?>
<svg width="1259px" height="448px" viewBox="0 0 1259 448" version="1.1" xmlns="http://www.w3.org/2000/svg" xmlns:xlink="http://www.w3.org/1999/xlink">
    <!-- Generator: Sketch 59.1 (86144) - https://sketch.com -->
    <title>Group 5</title>
    <desc>Created with Sketch.</desc>
    <g id="Page-1" stroke="none" stroke-width="1" fill="none" fill-rule="evenodd">
        <g id="Group-5" fill="#FFFFFF">
            <path d="M567.056,49.024 C566.192,47.296 563.024,45.28 560.144,45.28 L501.392,45.28 C498.512,45.28 495.344,47.296 494.48,49.024 L429.392,240.256 C428.528,241.984 429.68,244 431.984,244 L489.008,244 C491.6,244 493.904,242.56 495.056,240.256 L503.696,210.016 L557.84,210.016 L566.48,240.256 C567.632,242.56 569.936,244 572.528,244 L629.552,244 C631.856,244 633.008,241.984 632.144,240.256 L567.056,49.024 Z M546.32,168.832 L515.216,168.832 L530.768,114.112 L546.32,168.832 Z M656.936,45.28 C654.92,45.28 652.904,47.296 652.904,49.6 L652.904,239.968 C652.904,241.984 654.92,244 656.936,244 L707.912,244 C710.504,244 712.232,241.984 712.232,239.968 L712.232,49.6 C712.232,47.296 710.504,45.28 707.912,45.28 L656.936,45.28 Z M746.1,45.28 C744.084,45.28 742.068,47.296 742.068,49.6 L742.068,239.68 C742.068,241.984 744.084,244 746.1,244 L812.916,244 C873.972,244 914.58,203.968 914.58,144.64 C914.58,84.736 873.972,45.28 812.916,45.28 L746.1,45.28 Z M801.396,192.16 L801.396,97.12 L816.372,97.12 C838.548,97.12 853.524,116.128 853.524,144.64 C853.524,173.152 838.548,192.16 816.372,192.16 L801.396,192.16 Z M1049.276,49.024 C1048.412,47.296 1045.244,45.28 1042.364,45.28 L983.612,45.28 C980.732,45.28 977.564,47.296 976.7,49.024 L911.612,240.256 C910.748,241.984 911.9,244 914.204,244 L971.228,244 C973.82,244 976.124,242.56 977.276,240.256 L985.916,210.016 L1040.06,210.016 L1048.7,240.256 C1049.852,242.56 1052.156,244 1054.748,244 L1111.772,244 C1114.076,244 1115.228,241.984 1114.364,240.256 L1049.276,49.024 Z M1028.54,168.832 L997.436,168.832 L1012.988,114.112 L1028.54,168.832 Z" id="AIDA" fill-rule="nonzero"></path>
            <path d="M458.5,334 L469.471,334 L452.083,287.08 L441.112,287.08 L423.724,334 L434.695,334 L438.214,323.995 L454.981,323.995 L458.5,334 Z M446.632,299.914 L451.807,314.542 L441.457,314.542 L446.632,299.914 Z M505.560064,321.166 C503.076064,323.374 499.212064,324.961 494.865064,324.961 C486.792064,324.961 480.789064,318.544 480.789064,310.54 C480.789064,302.605 486.861064,296.119 494.865064,296.119 C499.212064,296.119 502.938064,297.706 505.560064,299.983 L505.560064,288.736 C502.386064,287.218 498.729064,286.321 494.865064,286.321 C481.134064,286.321 470.715064,296.809 470.715064,310.54 C470.715064,324.271 481.134064,334.759 494.865064,334.759 C498.729064,334.759 502.386064,333.862 505.560064,332.344 L505.560064,321.166 Z M521.846127,334 L531.644127,334 L531.644127,296.533 L543.029127,296.533 L543.029127,287.08 L510.461127,287.08 L510.461127,296.533 L521.846127,296.533 L521.846127,334 Z M550.069191,334 L559.867191,334 L559.867191,287.08 L550.069191,287.08 L550.069191,334 Z M582.639255,334 L593.610255,334 L610.998255,287.08 L600.027255,287.08 L588.159255,322.615 L576.222255,287.08 L565.251255,287.08 L582.639255,334 Z M643.154318,334 L643.154318,324.547 L626.249318,324.547 L626.249318,315.094 L641.774318,315.094 L641.774318,305.641 L626.249318,305.641 L626.249318,296.533 L643.154318,296.533 L643.154318,287.08 L616.451318,287.08 L616.451318,334 L643.154318,334 Z M668.412445,334 L678.210445,334 L678.210445,287.08 L668.412445,287.08 L668.412445,334 Z M718.232509,334 L728.030509,334 L728.030509,287.08 L718.232509,287.08 L718.232509,316.957 L697.670509,287.08 L686.078509,287.08 L686.078509,287.77 L689.321509,292.945 L689.321509,334 L699.119509,334 L699.119509,306.883 L718.232509,334 Z M746.455573,334 L756.253573,334 L756.253573,296.533 L767.638573,296.533 L767.638573,287.08 L735.070573,287.08 L735.070573,296.533 L746.455573,296.533 L746.455573,334 Z M801.381636,334 L801.381636,324.547 L784.476636,324.547 L784.476636,315.094 L800.001636,315.094 L800.001636,305.641 L784.476636,305.641 L784.476636,296.533 L801.381636,296.533 L801.381636,287.08 L774.678636,287.08 L774.678636,334 L801.381636,334 Z M810.9057,334 L820.7037,334 L820.7037,316.819 L826.9137,316.819 C836.0907,316.819 842.3697,311.23 842.3697,301.915 C842.3697,292.669 836.0907,287.08 826.9137,287.08 L810.9057,287.08 L810.9057,334 Z M832.2957,301.984 C832.2957,305.572 829.9497,307.366 826.7757,307.366 L820.7037,307.366 L820.7037,296.533 L826.7757,296.533 C829.9497,296.533 832.2957,298.327 832.2957,301.984 Z M850.030764,334 L859.828764,334 L859.828764,316.543 L862.243764,316.543 C867.970764,316.543 871.972764,323.788 873.628764,334 L883.771764,334 C882.667764,323.926 879.148764,315.646 873.283764,312.61 C877.906764,311.299 881.770764,307.435 881.770764,300.742 C881.770764,292.048 875.422764,287.08 866.245764,287.08 L850.030764,287.08 L850.030764,334 Z M871.696764,301.846 C871.696764,305.227 869.350764,307.09 866.245764,307.09 L859.828764,307.09 L859.828764,296.533 L866.245764,296.533 C869.350764,296.533 871.696764,298.396 871.696764,301.846 Z M918.135827,334 L918.135827,324.547 L901.230827,324.547 L901.230827,315.094 L916.755827,315.094 L916.755827,305.641 L901.230827,305.641 L901.230827,296.533 L918.135827,296.533 L918.135827,287.08 L891.432827,287.08 L891.432827,334 L918.135827,334 Z M935.249891,334 L945.047891,334 L945.047891,296.533 L956.432891,296.533 L956.432891,287.08 L923.864891,287.08 L923.864891,296.533 L935.249891,296.533 L935.249891,334 Z M989.830954,334 L1000.80195,334 L983.413954,287.08 L972.442954,287.08 L955.054954,334 L966.025954,334 L969.544954,323.995 L986.311954,323.995 L989.830954,334 Z M977.962954,299.914 L983.137954,314.542 L972.787954,314.542 L977.962954,299.914 Z M1010.87802,334 L1020.67602,334 L1020.67602,296.533 L1032.06102,296.533 L1032.06102,287.08 L999.493018,287.08 L999.493018,296.533 L1010.87802,296.533 L1010.87802,334 Z M1039.10108,334 L1048.89908,334 L1048.89908,287.08 L1039.10108,287.08 L1039.10108,334 Z M1056.83615,310.54 C1056.83615,324.271 1067.25515,334.759 1080.98615,334.759 C1094.71715,334.759 1105.13615,324.271 1105.13615,310.54 C1105.13615,296.809 1094.71715,286.321 1080.98615,286.321 C1067.25515,286.321 1056.83615,296.809 1056.83615,310.54 Z M1066.91015,310.54 C1066.91015,302.605 1072.98215,296.119 1080.98615,296.119 C1088.92115,296.119 1094.99315,302.605 1094.99315,310.54 C1094.99315,318.544 1088.92115,324.961 1080.98615,324.961 C1072.98215,324.961 1066.91015,318.544 1066.91015,310.54 Z M1142.26021,334 L1152.05821,334 L1152.05821,287.08 L1142.26021,287.08 L1142.26021,316.957 L1121.69821,287.08 L1110.10621,287.08 L1110.10621,287.77 L1113.34921,292.945 L1113.34921,334 L1123.14721,334 L1123.14721,306.883 L1142.26021,334 Z M1175.72934,310.54 C1175.72934,324.271 1186.14834,334.759 1199.87934,334.759 C1213.61034,334.759 1224.02934,324.271 1224.02934,310.54 C1224.02934,296.809 1213.61034,286.321 1199.87934,286.321 C1186.14834,286.321 1175.72934,296.809 1175.72934,310.54 Z M1185.80334,310.54 C1185.80334,302.605 1191.87534,296.119 1199.87934,296.119 C1207.81434,296.119 1213.88634,302.605 1213.88634,310.54 C1213.88634,318.544 1207.81434,324.961 1199.87934,324.961 C1191.87534,324.961 1185.80334,318.544 1185.80334,310.54 Z M1257.2894,317.095 L1257.2894,307.642 L1241.7644,307.642 L1241.7644,296.533 L1258.6694,296.533 L1258.6694,287.08 L1231.9664,287.08 L1231.9664,334 L1241.7644,334 L1241.7644,317.095 L1257.2894,317.095 Z M429.175,415 L446.563,415 C460.846,415 469.747,405.271 469.747,391.54 C469.747,377.809 460.846,368.08 446.563,368.08 L429.175,368.08 L429.175,415 Z M446.494,377.533 C454.981,377.533 459.604,383.605 459.604,391.54 C459.604,399.544 454.981,405.547 446.494,405.547 L438.973,405.547 L438.973,377.533 L446.494,377.533 Z M477.822064,415 L487.620064,415 L487.620064,368.08 L477.822064,368.08 L477.822064,415 Z M522.536127,369.46 C519.638127,368.149 515.981127,367.321 512.462127,367.321 C500.318127,367.321 496.109127,374.428 496.109127,380.983 C496.109127,386.193827 497.967534,390.143592 503.897588,393.678534 L510.668127,397.681 C513.290127,399.199 514.394127,400.648 514.394127,402.235 C514.394127,404.788 512.324127,406.582 508.598127,406.582 C504.251127,406.582 499.697127,404.512 497.144127,402.511 L497.144127,413.344 C500.111127,414.586 504.389127,415.759 509.012127,415.759 C519.914127,415.759 524.813127,409.066 524.813127,401.683 C524.813127,396.439 522.398127,392.368 516.326127,388.711 L510.116127,384.985 C507.839127,383.674 506.597127,382.225 506.597127,380.707 C506.597127,378.292 508.460127,376.498 512.393127,376.498 C515.981127,376.498 520.121127,378.154 522.536127,379.879 L522.536127,369.46 Z M532.888191,415 L542.686191,415 L542.686191,397.819 L548.896191,397.819 C558.073191,397.819 564.352191,392.23 564.352191,382.915 C564.352191,373.669 558.073191,368.08 548.896191,368.08 L532.888191,368.08 L532.888191,415 Z M554.278191,382.984 C554.278191,386.572 551.932191,388.366 548.758191,388.366 L542.686191,388.366 L542.686191,377.533 L548.758191,377.533 C551.932191,377.533 554.278191,379.327 554.278191,382.984 Z M597.612255,415 L608.583255,415 L591.195255,368.08 L580.224255,368.08 L562.836255,415 L573.807255,415 L577.326255,404.995 L594.093255,404.995 L597.612255,415 Z M585.744255,380.914 L590.919255,395.542 L580.569255,395.542 L585.744255,380.914 Z M614.036318,415 L623.834318,415 L623.834318,397.543 L626.249318,397.543 C631.976318,397.543 635.978318,404.788 637.634318,415 L647.777318,415 C646.673318,404.926 643.154318,396.646 637.289318,393.61 C641.912318,392.299 645.776318,388.435 645.776318,381.742 C645.776318,373.048 639.428318,368.08 630.251318,368.08 L614.036318,368.08 L614.036318,415 Z M635.702318,382.846 C635.702318,386.227 633.356318,388.09 630.251318,388.09 L623.834318,388.09 L623.834318,377.533 L630.251318,377.533 C633.356318,377.533 635.702318,379.396 635.702318,382.846 Z M684.763382,415 L695.734382,415 L678.346382,368.08 L667.375382,368.08 L649.987382,415 L660.958382,415 L664.477382,404.995 L681.244382,404.995 L684.763382,415 Z M672.895382,380.914 L678.070382,395.542 L667.720382,395.542 L672.895382,380.914 Z M705.810445,415 L715.608445,415 L715.608445,377.533 L726.993445,377.533 L726.993445,368.08 L694.425445,368.08 L694.425445,377.533 L705.810445,377.533 L705.810445,415 Z M760.736509,415 L760.736509,405.547 L743.831509,405.547 L743.831509,396.094 L759.356509,396.094 L759.356509,386.641 L743.831509,386.641 L743.831509,377.533 L760.736509,377.533 L760.736509,368.08 L734.033509,368.08 L734.033509,415 L760.736509,415 Z M813.318636,415 L824.289636,415 L806.901636,368.08 L795.930636,368.08 L778.542636,415 L789.513636,415 L793.032636,404.995 L809.799636,404.995 L813.318636,415 Z M801.450636,380.914 L806.625636,395.542 L796.275636,395.542 L801.450636,380.914 Z M856.4457,415 L856.4457,405.547 L839.5407,405.547 L839.5407,368.08 L829.7427,368.08 L829.7427,415 L856.4457,415 Z M867.694764,415 L877.492764,415 L877.492764,377.533 L888.877764,377.533 L888.877764,368.08 L856.309764,368.08 L856.309764,377.533 L867.694764,377.533 L867.694764,415 Z M922.620827,415 L922.620827,405.547 L905.715827,405.547 L905.715827,396.094 L921.240827,396.094 L921.240827,386.641 L905.715827,386.641 L905.715827,377.533 L922.620827,377.533 L922.620827,368.08 L895.917827,368.08 L895.917827,415 L922.620827,415 Z M932.144891,415 L941.942891,415 L941.942891,397.543 L944.357891,397.543 C950.084891,397.543 954.086891,404.788 955.742891,415 L965.885891,415 C964.781891,404.926 961.262891,396.646 955.397891,393.61 C960.020891,392.299 963.884891,388.435 963.884891,381.742 C963.884891,373.048 957.536891,368.08 948.359891,368.08 L932.144891,368.08 L932.144891,415 Z M953.810891,382.846 C953.810891,386.227 951.464891,388.09 948.359891,388.09 L941.942891,388.09 L941.942891,377.533 L948.359891,377.533 C951.464891,377.533 953.810891,379.396 953.810891,382.846 Z M1002.73395,415 L1012.53195,415 L1012.53195,368.08 L1002.73395,368.08 L1002.73395,397.957 L982.171954,368.08 L970.579954,368.08 L970.579954,368.77 L973.822954,373.945 L973.822954,415 L983.620954,415 L983.620954,387.883 L1002.73395,415 Z M1052.69202,415 L1063.66302,415 L1046.27502,368.08 L1035.30402,368.08 L1017.91602,415 L1028.88702,415 L1032.40602,404.995 L1049.17302,404.995 L1052.69202,415 Z M1040.82402,380.914 L1045.99902,395.542 L1035.64902,395.542 L1040.82402,380.914 Z M1073.73908,415 L1083.53708,415 L1083.53708,377.533 L1094.92208,377.533 L1094.92208,368.08 L1062.35408,368.08 L1062.35408,377.533 L1073.73908,377.533 L1073.73908,415 Z M1101.96215,415 L1111.76015,415 L1111.76015,368.08 L1101.96215,368.08 L1101.96215,415 Z M1134.53221,415 L1145.50321,415 L1162.89121,368.08 L1151.92021,368.08 L1140.05221,403.615 L1128.11521,368.08 L1117.14421,368.08 L1134.53221,415 Z M1195.04727,415 L1195.04727,405.547 L1178.14227,405.547 L1178.14227,396.094 L1193.66727,396.094 L1193.66727,386.641 L1178.14227,386.641 L1178.14227,377.533 L1195.04727,377.533 L1195.04727,368.08 L1168.34427,368.08 L1168.34427,415 L1195.04727,415 Z M1228.44534,369.46 L1228.44534,379.879 C1226.03034,378.154 1221.89034,376.498 1218.30234,376.498 C1214.36934,376.498 1212.50634,378.292 1212.50634,380.707 C1212.50634,382.225 1213.74834,383.674 1216.02534,384.985 L1222.23534,388.711 C1228.30734,392.368 1230.72234,396.439 1230.72234,401.683 C1230.72234,409.066 1225.82334,415.759 1214.92134,415.759 C1210.29834,415.759 1206.02034,414.586 1203.05334,413.344 L1203.05334,402.511 C1205.60634,404.512 1210.16034,406.582 1214.50734,406.582 C1218.23334,406.582 1220.30334,404.788 1220.30334,402.235 C1220.30334,400.704679 1219.27679,399.302676 1216.85248,397.843388 L1210.16034,393.886 C1203.95034,390.298 1202.01834,386.296 1202.01834,380.983 C1202.01834,374.428 1206.22734,367.321 1218.37134,367.321 C1221.89034,367.321 1225.54734,368.149 1228.44534,369.46 Z" id="ACTIVEINTEPRETATIONOFDISPARATEALTERNATIVES" fill-rule="nonzero"></path>
            <path d="M219.768878,3.82901081 C234.982944,8.19350221 239.991461,15.8433572 250.93534,34.6989522 C261.879218,53.5545472 288.075905,50.8633727 307.132498,57.2045664 C317.153269,59.0250255 313.228189,72.5390762 317.000598,78.8522478 C371.127379,110.237551 394.73611,128.686812 387.826793,134.200032 L387.608078,134.36314 L373.467845,132.293098 C356.67868,130.179117 354.50464,134.510581 366.945724,145.28749 C385.60735,161.452854 381.483354,160.476986 377.032966,167.449528 C372.582577,174.42207 348.556664,190.834398 334.410705,193.135897 C320.264746,195.437396 307.24799,173.587667 303.065586,163.329063 C298.883183,153.070458 290.137925,154.891382 283.835689,151.346367 C277.533454,147.801352 290.137925,135.448348 290.137925,131.579642 C290.137925,127.710936 263.088588,118.573262 239.991461,110.985707 C216.894335,103.398152 218.983198,69.675521 213.08651,79.1996133 C164.056747,167.449528 276.802788,193.980376 276.802788,241.75204 C242.579907,216.215769 220.053861,223.414169 219.768878,223.850734 C257.586381,248.024574 341.423612,296.401794 286.311796,380.422143 C290.137925,349.611516 272.705308,318.213292 264.130791,320.225851 C267.647645,365.759628 265.884452,417.40279 239.991461,447.679252 C213.08651,280.631122 110.793111,376.87142 94.7114028,250.851156 C71.0045673,274.725876 64.1772006,323.091918 105.949565,368.971877 C64.2079595,358.870316 9.27934613,292.558514 4.53921294,230.026225 C-0.200920257,167.493937 30.8195081,137.232975 39.7294468,129.902357 C48.6393855,122.571739 47.4696439,119.121905 41.9424969,120.089262 C15.6387088,124.287653 6.88516085,141.089099 -5.68434189e-14,145.28749 C16.3001488,57.7278997 98.2260911,55.8119916 105.949565,50.0622819 C113.673039,44.3125723 79.0450054,41.6300306 67.2795149,45.1506259 C123.152805,-11.5098099 204.554813,-0.53548058 219.768878,3.82901081 Z M313.631925,193.549752 C317.67692,199.805627 327.932891,207.52399 343.865358,198.320459 C356.63859,190.941888 323.413618,225.705566 317.721369,223.596127 C315.439194,222.750397 309.58693,187.293878 313.631925,193.549752 Z M299.90725,68.3403451 C278.482291,63.8082341 262.179875,65.065107 251,72.1109637 C259.902145,74.50427 270.604122,79.0852999 283.105933,85.8540532 C301.858649,96.0071832 306.644986,92.1190667 307,91.0778391 C290.808084,75.6447285 296.985323,73.213959 299.90725,68.3403451 Z" id="Combined-Shape" transform="translate(194.500000, 223.839626) rotate(-360.000000) translate(-194.500000, -223.839626) "></path>
        </g>
    </g>
</svg>