<?xml version="1.0" encoding="UTF-8"?>
<svg width="1404px" height="550px" viewBox="0 0 1404 550" version="1.1" xmlns="http://www.w3.org/2000/svg" xmlns:xlink="http://www.w3.org/1999/xlink">
    <!-- Generator: Sketch 59.1 (86144) - https://sketch.com -->
    <title>Group 5</title>
    <desc>Created with Sketch.</desc>
    <g id="Page-1" stroke="none" stroke-width="1" fill="none" fill-rule="evenodd">
        <g id="Group-5">
            <path d="" id="Path-4-Copy-9" fill="#868686"></path>
            <g id="Group-4">
                <circle id="Oval-Copy-7" fill="#F25347" cx="275" cy="275" r="275"></circle>
                <path d="M318.093483,46.0225343 C334.950198,50.6386372 328.903136,59.268909 341.028616,79.2115228 C353.154095,99.1541366 382.179216,96.3078168 403.293333,103.014578 C414.396038,104.939986 410.047171,119.233117 414.226883,125.910241 C474.197687,159.104896 500.355433,178.617751 492.700122,184.448807 L492.457793,184.621318 L476.790851,182.431939 C458.188975,180.196087 455.780205,184.777259 469.564543,196.175453 C490.241049,213.272745 485.671788,212.240618 480.740895,219.615125 C475.810002,226.989632 449.190032,244.348125 433.516745,246.782305 C417.843459,249.216485 403.421294,226.107126 398.787321,215.257116 C394.153347,204.407107 384.46387,206.333006 377.481188,202.583622 C370.498505,198.834238 384.46387,185.769088 384.46387,181.677352 C384.46387,177.585617 354.49404,167.921158 328.903136,159.896184 C303.312232,151.871209 305.626628,116.204479 299.093279,126.277632 C244.769815,219.615125 369.68895,247.675467 369.68895,298.201152 C331.771053,271.192724 306.81289,278.806109 306.497138,279.267841 C348.397764,304.835296 441.286829,356.001446 380.224637,444.86554 C384.46387,412.278691 365.149069,379.07037 355.648769,381.198952 C359.545334,429.357737 357.591771,483.97811 328.903136,516 C299.093279,339.3216 185.755349,441.110119 167.937313,307.824829 C141.67087,333.075918 134.106359,384.230247 180.38885,432.755171 C134.140438,422.071257 73.2812293,351.936603 68.0293079,285.799348 C62.7773866,219.662094 97.1470643,187.656598 107.019002,179.903372 C116.890939,172.150146 115.594901,168.501431 109.470993,169.524556 C80.3272069,173.964983 70.6285458,191.735026 63,196.175453 C81.060062,103.568082 171.831479,101.541722 180.38885,95.4605434 C188.94622,89.3793649 150.579428,86.5421756 137.543627,90.265732 C205.355461,18.8385117 301.236768,41.4064315 318.093483,46.0225343 Z M410.494498,247.220019 C414.976228,253.836542 426.339528,261.999867 443.992209,252.265755 C458.144556,244.461812 421.332312,281.229604 415.025475,278.998557 C412.496896,278.104071 406.012768,240.603495 410.494498,247.220019 Z M396.527281,118.858211 C373.954557,113.990388 356.778797,115.340362 345,122.908134 C354.379045,125.478723 365.654343,130.399088 378.825894,137.66923 C398.58322,148.574444 403.625968,144.398319 404,143.279963 C386.94066,126.703659 393.448822,124.092833 396.527281,118.858211 Z" id="Combined-Shape" fill="#FFFFFF" transform="translate(278.500000, 277.500000) rotate(-360.000000) translate(-278.500000, -277.500000) "></path>
            </g>
            <path d="M747.852,97.758 C746.814,95.682 743.008,93.26 739.548,93.26 L668.964,93.26 C665.504,93.26 661.698,95.682 660.66,97.758 L582.464,327.502 C581.426,329.578 582.81,332 585.578,332 L654.086,332 C657.2,332 659.968,330.27 661.352,327.502 L671.732,291.172 L736.78,291.172 L747.16,327.502 C748.544,330.27 751.312,332 754.426,332 L822.934,332 C825.702,332 827.086,329.578 826.048,327.502 L747.852,97.758 Z M722.94,241.694 L685.572,241.694 L704.256,175.954 L722.94,241.694 Z M849.825889,93.26 C847.403889,93.26 844.981889,95.682 844.981889,98.45 L844.981889,327.156 C844.981889,329.578 847.403889,332 849.825889,332 L911.067889,332 C914.181889,332 916.257889,329.578 916.257889,327.156 L916.257889,98.45 C916.257889,95.682 914.181889,93.26 911.067889,93.26 L849.825889,93.26 Z M958.027778,93.26 C955.605778,93.26 953.183778,95.682 953.183778,98.45 L953.183778,326.81 C953.183778,329.578 955.605778,332 958.027778,332 L1038.29978,332 C1111.65178,332 1160.43778,283.906 1160.43778,212.63 C1160.43778,140.662 1111.65178,93.26 1038.29978,93.26 L958.027778,93.26 Z M1024.45978,269.72 L1024.45978,155.54 L1042.45178,155.54 C1069.09378,155.54 1087.08578,178.376 1087.08578,212.63 C1087.08578,246.884 1069.09378,269.72 1042.45178,269.72 L1024.45978,269.72 Z M1325.38367,97.758 C1324.34567,95.682 1320.53967,93.26 1317.07967,93.26 L1246.49567,93.26 C1243.03567,93.26 1239.22967,95.682 1238.19167,97.758 L1159.99567,327.502 C1158.95767,329.578 1160.34167,332 1163.10967,332 L1231.61767,332 C1234.73167,332 1237.49967,330.27 1238.88367,327.502 L1249.26367,291.172 L1314.31167,291.172 L1324.69167,327.502 C1326.07567,330.27 1328.84367,332 1331.95767,332 L1400.46567,332 C1403.23367,332 1404.61767,329.578 1403.57967,327.502 L1325.38367,97.758 Z M1300.47167,241.694 L1263.10367,241.694 L1281.78767,175.954 L1300.47167,241.694 Z" id="AIDA" fill="#FFFFFF" fill-rule="nonzero"></path>
            <path d="M608.5,419 L618.835,419 L602.455,374.8 L592.12,374.8 L575.74,419 L586.075,419 L589.39,409.575 L605.185,409.575 L608.5,419 Z M597.32,386.89 L602.195,400.67 L592.445,400.67 L597.32,386.89 Z M652.831944,406.91 C650.491944,408.99 646.851944,410.485 642.756944,410.485 C635.151944,410.485 629.496944,404.44 629.496944,396.9 C629.496944,389.425 635.216944,383.315 642.756944,383.315 C646.851944,383.315 650.361944,384.81 652.831944,386.955 L652.831944,376.36 C649.841944,374.93 646.396944,374.085 642.756944,374.085 C629.821944,374.085 620.006944,383.965 620.006944,396.9 C620.006944,409.835 629.821944,419.715 642.756944,419.715 C646.396944,419.715 649.841944,418.87 652.831944,417.44 L652.831944,406.91 Z M668.173888,419 L677.403888,419 L677.403888,383.705 L688.128888,383.705 L688.128888,374.8 L657.448888,374.8 L657.448888,383.705 L668.173888,383.705 L668.173888,419 Z M694.760832,419 L703.990832,419 L703.990832,374.8 L694.760832,374.8 L694.760832,419 Z M725.442776,419 L735.777776,419 L752.157776,374.8 L741.822776,374.8 L730.642776,408.275 L719.397776,374.8 L709.062776,374.8 L725.442776,419 Z M782.44972,419 L782.44972,410.095 L766.52472,410.095 L766.52472,401.19 L781.14972,401.19 L781.14972,392.285 L766.52472,392.285 L766.52472,383.705 L782.44972,383.705 L782.44972,374.8 L757.29472,374.8 L757.29472,419 L782.44972,419 Z M805.853608,419 L815.083608,419 L815.083608,374.8 L805.853608,374.8 L805.853608,419 Z M852.785552,419 L862.015552,419 L862.015552,374.8 L852.785552,374.8 L852.785552,402.945 L833.415552,374.8 L822.495552,374.8 L822.495552,375.45 L825.550552,380.325 L825.550552,419 L834.780552,419 L834.780552,393.455 L852.785552,419 Z M879.372496,419 L888.602496,419 L888.602496,383.705 L899.327496,383.705 L899.327496,374.8 L868.647496,374.8 L868.647496,383.705 L879.372496,383.705 L879.372496,419 Z M931.11444,419 L931.11444,410.095 L915.18944,410.095 L915.18944,401.19 L929.81444,401.19 L929.81444,392.285 L915.18944,392.285 L915.18944,383.705 L931.11444,383.705 L931.11444,374.8 L905.95944,374.8 L905.95944,419 L931.11444,419 Z M940.086384,419 L949.316384,419 L949.316384,402.555 L951.591384,402.555 C956.986384,402.555 960.756384,409.38 962.316384,419 L971.871384,419 C970.831384,409.51 967.516384,401.71 961.991384,398.85 C966.346384,397.615 969.986384,393.975 969.986384,387.67 C969.986384,379.48 964.006384,374.8 955.361384,374.8 L940.086384,374.8 L940.086384,419 Z M960.496384,388.71 C960.496384,391.895 958.286384,393.65 955.361384,393.65 L949.316384,393.65 L949.316384,383.705 L955.361384,383.705 C958.286384,383.705 960.496384,385.46 960.496384,388.71 Z M979.088328,419 L988.318328,419 L988.318328,402.815 L994.168328,402.815 C1002.81333,402.815 1008.72833,397.55 1008.72833,388.775 C1008.72833,380.065 1002.81333,374.8 994.168328,374.8 L979.088328,374.8 L979.088328,419 Z M999.238328,388.84 C999.238328,392.22 997.028328,393.91 994.038328,393.91 L988.318328,393.91 L988.318328,383.705 L994.038328,383.705 C997.028328,383.705 999.238328,385.395 999.238328,388.84 Z M1015.88027,419 L1025.11027,419 L1025.11027,402.555 L1027.38527,402.555 C1032.78027,402.555 1036.55027,409.38 1038.11027,419 L1047.66527,419 C1046.62527,409.51 1043.31027,401.71 1037.78527,398.85 C1042.14027,397.615 1045.78027,393.975 1045.78027,387.67 C1045.78027,379.48 1039.80027,374.8 1031.15527,374.8 L1015.88027,374.8 L1015.88027,419 Z M1036.29027,388.71 C1036.29027,391.895 1034.08027,393.65 1031.15527,393.65 L1025.11027,393.65 L1025.11027,383.705 L1031.15527,383.705 C1034.08027,383.705 1036.29027,385.46 1036.29027,388.71 Z M1080.03722,419 L1080.03722,410.095 L1064.11222,410.095 L1064.11222,401.19 L1078.73722,401.19 L1078.73722,392.285 L1064.11222,392.285 L1064.11222,383.705 L1080.03722,383.705 L1080.03722,374.8 L1054.88222,374.8 L1054.88222,419 L1080.03722,419 Z M1096.15916,419 L1105.38916,419 L1105.38916,383.705 L1116.11416,383.705 L1116.11416,374.8 L1085.43416,374.8 L1085.43416,383.705 L1096.15916,383.705 L1096.15916,419 Z M1147.5761,419 L1157.9111,419 L1141.5311,374.8 L1131.1961,374.8 L1114.8161,419 L1125.1511,419 L1128.4661,409.575 L1144.2611,409.575 L1147.5761,419 Z M1136.3961,386.89 L1141.2711,400.67 L1131.5211,400.67 L1136.3961,386.89 Z M1167.40305,419 L1176.63305,419 L1176.63305,383.705 L1187.35805,383.705 L1187.35805,374.8 L1156.67805,374.8 L1156.67805,383.705 L1167.40305,383.705 L1167.40305,419 Z M1193.98999,419 L1203.21999,419 L1203.21999,374.8 L1193.98999,374.8 L1193.98999,419 Z M1210.69694,396.9 C1210.69694,409.835 1220.51194,419.715 1233.44694,419.715 C1246.38194,419.715 1256.19694,409.835 1256.19694,396.9 C1256.19694,383.965 1246.38194,374.085 1233.44694,374.085 C1220.51194,374.085 1210.69694,383.965 1210.69694,396.9 Z M1220.18694,396.9 C1220.18694,389.425 1225.90694,383.315 1233.44694,383.315 C1240.92194,383.315 1246.64194,389.425 1246.64194,396.9 C1246.64194,404.44 1240.92194,410.485 1233.44694,410.485 C1225.90694,410.485 1220.18694,404.44 1220.18694,396.9 Z M1291.16888,419 L1300.39888,419 L1300.39888,374.8 L1291.16888,374.8 L1291.16888,402.945 L1271.79888,374.8 L1260.87888,374.8 L1260.87888,375.45 L1263.93388,380.325 L1263.93388,419 L1273.16388,419 L1273.16388,393.455 L1291.16888,419 Z M1322.30777,396.9 C1322.30777,409.835 1332.12277,419.715 1345.05777,419.715 C1357.99277,419.715 1367.80777,409.835 1367.80777,396.9 C1367.80777,383.965 1357.99277,374.085 1345.05777,374.085 C1332.12277,374.085 1322.30777,383.965 1322.30777,396.9 Z M1331.79777,396.9 C1331.79777,389.425 1337.51777,383.315 1345.05777,383.315 C1352.53277,383.315 1358.25277,389.425 1358.25277,396.9 C1358.25277,404.44 1352.53277,410.485 1345.05777,410.485 C1337.51777,410.485 1331.79777,404.44 1331.79777,396.9 Z M1399.13971,403.075 L1399.13971,394.17 L1384.51471,394.17 L1384.51471,383.705 L1400.43971,383.705 L1400.43971,374.8 L1375.28471,374.8 L1375.28471,419 L1384.51471,419 L1384.51471,403.075 L1399.13971,403.075 Z M580.875,500 L597.255,500 C610.71,500 619.095,490.835 619.095,477.9 C619.095,464.965 610.71,455.8 597.255,455.8 L580.875,455.8 L580.875,500 Z M597.19,464.705 C605.185,464.705 609.54,470.425 609.54,477.9 C609.54,485.44 605.185,491.095 597.19,491.095 L590.105,491.095 L590.105,464.705 L597.19,464.705 Z M626.701944,500 L635.931944,500 L635.931944,455.8 L626.701944,455.8 L626.701944,500 Z M668.823888,457.1 C666.093888,455.865 662.648888,455.085 659.333888,455.085 C647.893888,455.085 643.928888,461.78 643.928888,467.955 C643.928888,472.8599 645.676816,476.578706 651.252706,479.906725 L657.643888,483.685 C660.113888,485.115 661.153888,486.48 661.153888,487.975 C661.153888,490.38 659.203888,492.07 655.693888,492.07 C651.598888,492.07 647.308888,490.12 644.903888,488.235 L644.903888,498.44 C647.698888,499.61 651.728888,500.715 656.083888,500.715 C666.353888,500.715 670.968888,494.41 670.968888,487.455 C670.968888,482.515 668.693888,478.68 662.973888,475.235 L657.123888,471.725 C654.978888,470.49 653.808888,469.125 653.808888,467.695 C653.808888,465.42 655.563888,463.73 659.268888,463.73 C662.648888,463.73 666.548888,465.29 668.823888,466.915 L668.823888,457.1 Z M678.575832,500 L687.805832,500 L687.805832,483.815 L693.655832,483.815 C702.300832,483.815 708.215832,478.55 708.215832,469.775 C708.215832,461.065 702.300832,455.8 693.655832,455.8 L678.575832,455.8 L678.575832,500 Z M698.725832,469.84 C698.725832,473.22 696.515832,474.91 693.525832,474.91 L687.805832,474.91 L687.805832,464.705 L693.525832,464.705 C696.515832,464.705 698.725832,466.395 698.725832,469.84 Z M739.547776,500 L749.882776,500 L733.502776,455.8 L723.167776,455.8 L706.787776,500 L717.122776,500 L720.437776,490.575 L736.232776,490.575 L739.547776,500 Z M728.367776,467.89 L733.242776,481.67 L723.492776,481.67 L728.367776,467.89 Z M755.01972,500 L764.24972,500 L764.24972,483.555 L766.52472,483.555 C771.91972,483.555 775.68972,490.38 777.24972,500 L786.80472,500 C785.76472,490.51 782.44972,482.71 776.92472,479.85 C781.27972,478.615 784.91972,474.975 784.91972,468.67 C784.91972,460.48 778.93972,455.8 770.29472,455.8 L755.01972,455.8 L755.01972,500 Z M775.42972,469.71 C775.42972,472.895 773.21972,474.65 770.29472,474.65 L764.24972,474.65 L764.24972,464.705 L770.29472,464.705 C773.21972,464.705 775.42972,466.46 775.42972,469.71 Z M821.646664,500 L831.981664,500 L815.601664,455.8 L805.266664,455.8 L788.886664,500 L799.221664,500 L802.536664,490.575 L818.331664,490.575 L821.646664,500 Z M810.466664,467.89 L815.341664,481.67 L805.591664,481.67 L810.466664,467.89 Z M841.473608,500 L850.703608,500 L850.703608,464.705 L861.428608,464.705 L861.428608,455.8 L830.748608,455.8 L830.748608,464.705 L841.473608,464.705 L841.473608,500 Z M893.215552,500 L893.215552,491.095 L877.290552,491.095 L877.290552,482.19 L891.915552,482.19 L891.915552,473.285 L877.290552,473.285 L877.290552,464.705 L893.215552,464.705 L893.215552,455.8 L868.060552,455.8 L868.060552,500 L893.215552,500 Z M942.35944,500 L952.69444,500 L936.31444,455.8 L925.97944,455.8 L909.59944,500 L919.93444,500 L923.24944,490.575 L939.04444,490.575 L942.35944,500 Z M931.17944,467.89 L936.05444,481.67 L926.30444,481.67 L931.17944,467.89 Z M982.986384,500 L982.986384,491.095 L967.061384,491.095 L967.061384,455.8 L957.831384,455.8 L957.831384,500 L982.986384,500 Z M993.583328,500 L1002.81333,500 L1002.81333,464.705 L1013.53833,464.705 L1013.53833,455.8 L982.858328,455.8 L982.858328,464.705 L993.583328,464.705 L993.583328,500 Z M1045.32527,500 L1045.32527,491.095 L1029.40027,491.095 L1029.40027,482.19 L1044.02527,482.19 L1044.02527,473.285 L1029.40027,473.285 L1029.40027,464.705 L1045.32527,464.705 L1045.32527,455.8 L1020.17027,455.8 L1020.17027,500 L1045.32527,500 Z M1054.29722,500 L1063.52722,500 L1063.52722,483.555 L1065.80222,483.555 C1071.19722,483.555 1074.96722,490.38 1076.52722,500 L1086.08222,500 C1085.04222,490.51 1081.72722,482.71 1076.20222,479.85 C1080.55722,478.615 1084.19722,474.975 1084.19722,468.67 C1084.19722,460.48 1078.21722,455.8 1069.57222,455.8 L1054.29722,455.8 L1054.29722,500 Z M1074.70722,469.71 C1074.70722,472.895 1072.49722,474.65 1069.57222,474.65 L1063.52722,474.65 L1063.52722,464.705 L1069.57222,464.705 C1072.49722,464.705 1074.70722,466.46 1074.70722,469.71 Z M1120.79416,500 L1130.02416,500 L1130.02416,455.8 L1120.79416,455.8 L1120.79416,483.945 L1101.42416,455.8 L1090.50416,455.8 L1090.50416,456.45 L1093.55916,461.325 L1093.55916,500 L1102.78916,500 L1102.78916,474.455 L1120.79416,500 Z M1167.8561,500 L1178.1911,500 L1161.8111,455.8 L1151.4761,455.8 L1135.0961,500 L1145.4311,500 L1148.7461,490.575 L1164.5411,490.575 L1167.8561,500 Z M1156.6761,467.89 L1161.5511,481.67 L1151.8011,481.67 L1156.6761,467.89 Z M1187.68305,500 L1196.91305,500 L1196.91305,464.705 L1207.63805,464.705 L1207.63805,455.8 L1176.95805,455.8 L1176.95805,464.705 L1187.68305,464.705 L1187.68305,500 Z M1214.26999,500 L1223.49999,500 L1223.49999,455.8 L1214.26999,455.8 L1214.26999,500 Z M1244.95194,500 L1255.28694,500 L1271.66694,455.8 L1261.33194,455.8 L1250.15194,489.275 L1238.90694,455.8 L1228.57194,455.8 L1244.95194,500 Z M1301.95888,500 L1301.95888,491.095 L1286.03388,491.095 L1286.03388,482.19 L1300.65888,482.19 L1300.65888,473.285 L1286.03388,473.285 L1286.03388,464.705 L1301.95888,464.705 L1301.95888,455.8 L1276.80388,455.8 L1276.80388,500 L1301.95888,500 Z M1333.42082,457.1 L1333.42082,466.915 C1331.14582,465.29 1327.24582,463.73 1323.86582,463.73 C1320.16082,463.73 1318.40582,465.42 1318.40582,467.695 C1318.40582,469.125 1319.57582,470.49 1321.72082,471.725 L1327.57082,475.235 C1333.29082,478.68 1335.56582,482.515 1335.56582,487.455 C1335.56582,494.41 1330.95082,500.715 1320.68082,500.715 C1316.32582,500.715 1312.29582,499.61 1309.50082,498.44 L1309.50082,488.235 C1311.90582,490.12 1316.19582,492.07 1320.29082,492.07 C1323.80082,492.07 1325.75082,490.38 1325.75082,487.975 C1325.75082,486.53537 1324.78643,485.216289 1322.5094,483.843631 L1316.19582,480.11 C1310.34582,476.73 1308.52582,472.96 1308.52582,467.955 C1308.52582,461.78 1312.49082,455.085 1323.93082,455.085 C1327.24582,455.085 1330.69082,455.865 1333.42082,457.1 Z" id="ACTIVEINTERPRETATIONOFDISPARATEALTERNATIVES" fill="#FFFFFF" fill-rule="nonzero"></path>
        </g>
    </g>
</svg>