<?xml version="1.0" encoding="UTF-8"?>
<svg width="1609px" height="550px" viewBox="0 0 1609 550" version="1.1" xmlns="http://www.w3.org/2000/svg" xmlns:xlink="http://www.w3.org/1999/xlink">
    <!-- Generator: Sketch 59.1 (86144) - https://sketch.com -->
    <title>Group 4</title>
    <desc>Created with Sketch.</desc>
    <g id="Page-1" stroke="none" stroke-width="1" fill="none" fill-rule="evenodd">
        <g id="Group-4">
            <g id="Group">
                <circle id="Oval-Copy-7" fill="#F25347" cx="275" cy="275" r="275"></circle>
                <path d="M300.768878,65.1497584 C315.982944,69.5142498 320.991461,77.1641047 331.93534,96.0196998 C342.879218,114.875295 369.075905,112.18412 388.132498,118.525314 C398.153269,120.345773 394.228189,133.859824 398.000598,140.172995 C452.127379,171.558298 475.73611,190.00756 468.826793,195.52078 L468.608078,195.683887 L454.467845,193.613846 C437.67868,191.499865 435.50464,195.831328 447.945724,206.608238 C466.60735,222.773602 462.483354,221.797733 458.032966,228.770275 C453.582577,235.742817 429.556664,252.155146 415.410705,254.456645 C401.264746,256.758144 388.24799,234.908414 384.065586,224.64981 C379.883183,214.391206 371.137925,216.21213 364.835689,212.667115 C358.533454,209.1221 371.137925,196.769095 371.137925,192.90039 C371.137925,189.031684 344.088588,179.894009 320.991461,172.306454 C297.894335,164.7189 299.983198,130.996269 294.08651,140.520361 C245.056747,228.770275 357.802788,255.301123 357.802788,303.072787 C323.579907,277.536517 301.053861,284.734916 300.768878,285.171481 C338.586381,309.345321 422.423612,357.722541 367.311796,441.74289 C371.137925,410.932264 353.705308,379.53404 345.130791,381.546598 C348.647645,427.080376 346.884452,478.723538 320.991461,509 C294.08651,341.951869 191.793111,438.192167 175.711403,312.171903 C152.004567,336.046623 145.177201,384.412665 186.949565,430.292625 C145.207959,420.191063 90.2793461,353.879262 85.5392129,291.346973 C80.7990797,228.814684 111.819508,198.553723 120.729447,191.223104 C129.639386,183.892486 128.469644,180.442653 122.942497,181.41001 C96.6387088,185.608401 87.8851609,202.409847 81,206.608238 C97.3001488,119.048647 179.226091,117.132739 186.949565,111.38303 C194.673039,105.63332 160.045005,102.950778 148.279515,106.471373 C204.152805,49.8109377 285.554813,60.785267 300.768878,65.1497584 Z M394.631925,254.8705 C398.67692,261.126374 408.932891,268.844738 424.865358,259.641207 C437.63859,252.262636 404.413618,287.026313 398.721369,284.916875 C396.439194,284.071144 390.58693,248.614626 394.631925,254.8705 Z M380.90725,129.661093 C359.482291,125.128982 343.179875,126.385855 332,133.431711 C340.902145,135.825018 351.604122,140.406047 364.105933,147.174801 C382.858649,157.327931 387.644986,153.439814 388,152.398587 C371.808084,136.965476 377.985323,134.534707 380.90725,129.661093 Z" id="Combined-Shape" fill="#FFFFFF" transform="translate(275.500000, 285.160374) rotate(-360.000000) translate(-275.500000, -285.160374) "></path>
            </g>
            <path d="M788.934037,132.614493 C787.637989,130.023188 782.885811,127 778.565649,127 L690.434351,127 C686.114189,127 681.362011,130.023188 680.065963,132.614493 L582.430309,419.385507 C581.13426,421.976812 582.862325,425 586.318454,425 L671.857656,425 C675.745801,425 679.20193,422.84058 680.929995,419.385507 L693.89048,374.037681 L775.10952,374.037681 L788.070005,419.385507 C789.79807,422.84058 793.254199,425 797.142344,425 L882.681546,425 C886.137675,425 887.86574,421.976812 886.569691,419.385507 L788.934037,132.614493 Z M758,312 L712,312 L735,230 L758,312 Z M917.048544,127 C914.024272,127 911,130.023188 911,133.478261 L911,418.953623 C911,421.976812 914.024272,425 917.048544,425 L993.519417,425 C997.407767,425 1000,421.976812 1000,418.953623 L1000,133.478261 C1000,130.023188 997.407767,127 993.519417,127 L917.048544,127 Z M1052.03005,127 C1049.01503,127 1046,130.023188 1046,133.478261 L1046,418.521739 C1046,421.976812 1049.01503,425 1052.03005,425 L1151.95659,425 C1243.26878,425 1304,364.968116 1304,276 C1304,186.168116 1243.26878,127 1151.95659,127 L1052.03005,127 Z M1135,347 L1135,205 L1157.40884,205 C1190.59116,205 1213,233.4 1213,276 C1213,318.6 1190.59116,347 1157.40884,347 L1135,347 Z M1510.93404,132.614493 C1509.63799,130.023188 1504.88581,127 1500.56565,127 L1412.43435,127 C1408.11419,127 1403.36201,130.023188 1402.06596,132.614493 L1304.43031,419.385507 C1303.13426,421.976812 1304.86232,425 1308.31845,425 L1393.85766,425 C1397.7458,425 1401.20193,422.84058 1402.93,419.385507 L1415.89048,374.037681 L1497.10952,374.037681 L1510.07,419.385507 C1511.79807,422.84058 1515.2542,425 1519.14234,425 L1604.68155,425 C1608.13768,425 1609.86574,421.976812 1608.56969,419.385507 L1510.93404,132.614493 Z M1479,312 L1433,312 L1456,230 L1479,312 Z" id="AIDA" fill="#FFFFFF" fill-rule="nonzero"></path>
        </g>
    </g>
</svg>