<?xml version="1.0" encoding="utf-8"?>
<!-- Generator: Adobe Illustrator 23.0.3, SVG Export Plug-In . SVG Version: 6.00 Build 0)  -->
<svg version="1.1" id="Layer_1" xmlns="http://www.w3.org/2000/svg" xmlns:xlink="http://www.w3.org/1999/xlink" x="0px" y="0px"
	 viewBox="0 0 344.4 94.1" style="enable-background:new 0 0 344.4 94.1;" xml:space="preserve">
<style type="text/css">
	.st0{fill:#D2242A;}
	.st1{fill:#FFFFFF;}
</style>
<g>
	<g>
		<path class="st0" d="M319.2,60.9l0.5,11h24.8v-1c-5-3.1-5-7.1-5-10V21.7h-25.3v1c5,3.1,5,5,5,7.1v30.3c-1.8,1.1-4,1.9-7.1,1.9
			c-4,0-5-1.9-5-5.5V21.7h-25.3v1c5,3.1,5,5,5,7.1V58c0,10,5.5,15.1,14.6,15.1c3.6,0,6.6-1.3,8.6-2.4l8.9-9.7
			C318.8,60.9,319.2,60.9,319.2,60.9z M271.5,22.7h9.7v-1h-9.7V11.5h-1l-19.1,9.1l-4.4,1v1h4.4v38.4c0,8.6,4.7,12.1,12.8,12.1
			c5.3,0,12.1-1.5,17.2-4v-1c-6.8,0.2-9.7-0.3-9.7-7.1V22.7H271.5z"/>
	</g>
	<g>
		<path class="st1" d="M243.1,21.7h-25.3v1c5,3.1,5,7.1,5,10V64c0,1.9,0,4-5,7.1v1h30.3v-1c-5-3.1-5-5-5-7.1L243.1,21.7L243.1,21.7z
			 M223.5,8.6c0,5.5,2.9,8.6,8.4,8.6c5.3,0,10.7-3.1,10.7-8.6c0-5.3-4.2-8.6-9.6-8.6C227.7,0.2,223.5,3.4,223.5,8.6 M187,21.7
			c-5.8,0-7.6,5.2-7.6,25.1c0,18.9,1.8,25.1,7.6,25.1s7.6-6.3,7.6-25.1C194.6,26.9,192.9,21.7,187,21.7 M187,73
			c-18,0-28.3-10.4-28.3-26.2s10.4-26.2,28.3-26.2s28.3,10.4,28.3,26.2S205,73,187,73 M138.3,65.1c0,4.5-3.4,7-7.6,7
			c-9.6,0-15.2-10-18.9-16.7l-0.3,0.2l1.5,15.5c4.9,1.3,13.8,1.9,18,1.9c19.9,0,24.6-9.7,24.6-17.2c0-18.1-25.7-16.5-25.7-27.9
			c0-4.7,3.9-6.3,7.3-6.3c5.8,0,8.9,4.9,12.1,16.4l0.6-0.2l4.4-14.2c-3.7-1.5-9.7-3.1-18.5-3.1c-17.5,0-24,7.9-24,15.7
			C111.6,54.4,138.3,53.4,138.3,65.1"/>
	</g>
	<g>
		<path class="st0" d="M82.7,21.7c-5.8,0-7.6,5.2-7.6,25.1c0,18.9,1.8,25.1,7.6,25.1c5.8,0,7.6-6.3,7.6-25.1
			C90.2,26.9,88.6,21.7,82.7,21.7 M82.7,73c-18,0-28.3-10.4-28.3-26.2s10.4-26.2,28.3-26.2s28.3,10.4,28.3,26.2S100.7,73,82.7,73
			 M59.6,21.7H40.8v1c8.6,1.1,10.5,4.4,10.5,7.3c0,1.5-0.3,2.8-0.8,4l-10,30L28,30.8c-0.6-1.5-1-2.8-1-3.9c0-1.8,1.1-3.1,4.4-4.2v-1
			H0v1c3.6,2.1,5.5,6.6,7.1,10.8l14.7,39h15.1c-5,8.7-19.8,17.3-31.9,20.6v1h20.2C30.6,87,37.6,75,43.9,56.7l8.7-24.9
			c1.1-3.6,3.6-7.1,7.1-9.1v-1L59.6,21.7z"/>
	</g>
	<path class="st1" d="M308.1,18.5l-1-1l6.2-11c2.4-4.4,5.5-6.2,8.9-6.2c4.5,0,7.8,3.4,7.8,7.3c0,3.7-1.5,8.3-7.6,9.1
		C322.4,16.7,308.1,18.5,308.1,18.5z"/>
</g>
</svg>
