<?xml version="1.0" encoding="utf-8"?>
<!-- Generator: Adobe Illustrator 23.0.2, SVG Export Plug-In . SVG Version: 6.00 Build 0)  -->
<svg version="1.1" id="Layer_1" xmlns="http://www.w3.org/2000/svg" xmlns:xlink="http://www.w3.org/1999/xlink" x="0px" y="0px"
	 viewBox="0 0 625 78.8" style="enable-background:new 0 0 625 78.8;" xml:space="preserve">
<style type="text/css">
	.st0{fill:#E5580A;}
	.st1{fill:#BABCBE;}
	.st2{fill:#2F57B2;}
	.st3{fill:#FFFFFF;}
</style>
<g>
	<g>
		<path class="st0" d="M418.7,77.2c-6.5,0-11.9-5.2-11.9-12.1c-0.2-6.8,5.4-12.1,12-12.1c6.7,0,12.1,5.3,12.1,12.1
			c0,6.7-5.3,12.1-12.1,12.1H418.7z"/>
	</g>
</g>
<g>
	<path class="st1" d="M483.7,75.9c-2.9,1.4-8.8,3-15.7,3c-17.3,0-28.6-11.2-28.6-28.4c0-16.6,11.4-29.6,30.9-29.6
		c5.1,0,10.4,1.1,13.6,2.6l-2.5,10.5c-2.3-1-5.6-2.2-10.6-2.2c-10.7,0-17.1,7.9-17,18c0,11.4,7.4,17.9,17,17.9c4.9,0,8.3-1,11-2.2
		L483.7,75.9z"/>
	<path class="st1" d="M538.8,49.3c0,20.4-14.3,29.5-28.5,29.5c-15.7,0-27.8-10.8-27.8-28.6c0-18.2,12-29.4,28.7-29.4
		C527.8,20.8,538.8,32.5,538.8,49.3z M497,49.9c0,10.7,5.2,18.8,13.8,18.8c8,0,13.6-7.9,13.6-19c0-8.7-3.9-18.6-13.4-18.6
		C501,31.1,497,40.7,497,49.9z"/>
	<path class="st1" d="M543.2,38.6c0-6.4-0.1-11.7-0.5-16.5h12.1l0.6,8.2h0.3c2.7-4.3,7.8-9.5,17.1-9.5c7.3,0,13,4.1,15.4,10.3h0.2
		c1.9-3.1,4.2-5.4,6.8-7c3.1-2.1,6.6-3.3,11.2-3.3c9.2,0,18.6,6.3,18.6,24.1v32.7h-13.7V46.9c0-9.2-3.2-14.7-9.9-14.7
		c-4.8,0-8.3,3.4-9.8,7.4c-0.3,1.4-0.7,3.1-0.7,4.7v33.3h-13.7V45.4c0-7.8-3.1-13.2-9.6-13.2c-5.2,0-8.8,4.1-10,8
		c-0.6,1.4-0.8,3-0.8,4.6v32.8h-13.7L543.2,38.6L543.2,38.6z"/>
</g>
<path class="st2" d="M36.9,59.7c0,2.7-0.5,5.2-1.5,7.3c-1,2.1-2.5,3.8-4.4,5.2c-1.9,1.4-4.1,2.5-6.7,3.2c-2.6,0.7-5.4,1.1-8.3,1.1
	c-1.8,0-3.5-0.1-5.2-0.4c-1.6-0.3-3.1-0.6-4.4-1c-1.3-0.4-2.4-0.8-3.3-1.3c-0.9-0.4-1.5-0.8-1.9-1.2c-0.4-0.4-0.7-1-0.9-1.8
	c-0.2-0.8-0.3-2-0.3-3.6c0-1,0-1.9,0.1-2.5s0.2-1.1,0.3-1.5c0.1-0.4,0.3-0.6,0.6-0.8c0.2-0.1,0.5-0.2,0.8-0.2c0.4,0,1,0.2,1.8,0.7
	c0.8,0.5,1.8,1,2.9,1.5c1.2,0.5,2.5,1.1,4,1.5c1.5,0.5,3.3,0.7,5.2,0.7c1.2,0,2.3-0.1,3.3-0.4c1-0.2,1.8-0.6,2.5-1.1
	s1.2-1.1,1.6-1.8c0.4-0.7,0.5-1.5,0.5-2.5c0-1.1-0.3-2-1-2.8c-0.7-0.8-1.6-1.5-2.7-2c-1.1-0.6-2.3-1.1-3.7-1.6
	c-1.4-0.5-2.8-1.1-4.3-1.7c-1.5-0.6-2.9-1.3-4.3-2.1S5,48.8,3.9,47.6c-1.1-1.2-2-2.5-2.7-4.2c-0.7-1.6-1-3.6-1-5.8
	c0-2.3,0.4-4.4,1.4-6.4c0.9-1.9,2.2-3.6,3.9-5c1.7-1.4,3.8-2.4,6.2-3.2c2.4-0.8,5.2-1.1,8.2-1.1c1.5,0,3,0.1,4.4,0.3
	c1.4,0.2,2.7,0.5,3.9,0.8c1.1,0.3,2.1,0.7,2.9,1c0.8,0.4,1.4,0.7,1.7,1c0.3,0.3,0.6,0.5,0.7,0.8c0.1,0.3,0.2,0.6,0.3,1
	s0.1,0.8,0.2,1.4c0.1,0.6,0.1,1.2,0.1,2.1c0,1,0,1.8-0.1,2.4c0,0.6-0.1,1.1-0.3,1.5c-0.1,0.4-0.3,0.6-0.5,0.7
	c-0.2,0.1-0.5,0.2-0.8,0.2c-0.3,0-0.8-0.2-1.5-0.6c-0.7-0.4-1.5-0.8-2.6-1.2c-1-0.4-2.2-0.8-3.6-1.2c-1.4-0.4-2.9-0.6-4.6-0.6
	c-1.2,0-2.3,0.1-3.2,0.4c-0.9,0.3-1.6,0.6-2.2,1.1c-0.6,0.5-1,1-1.3,1.7c-0.3,0.6-0.4,1.3-0.4,2c0,1.1,0.3,2,1,2.8
	c0.7,0.8,1.6,1.4,2.7,2s2.4,1.1,3.8,1.6c1.4,0.5,2.9,1.1,4.3,1.7c1.5,0.6,2.9,1.3,4.3,2.1c1.4,0.8,2.7,1.8,3.8,2.9
	c1.1,1.2,2,2.5,2.7,4.1C36.5,55.6,36.9,57.5,36.9,59.7z"/>
<path class="st2" d="M86.5,73.4c0,0.4-0.1,0.7-0.3,0.9c-0.2,0.3-0.5,0.5-0.9,0.7c-0.4,0.2-1.1,0.3-1.8,0.4c-0.8,0.1-1.7,0.1-2.8,0.1
	c-1.2,0-2.2,0-2.9-0.1S76.4,75.2,76,75c-0.4-0.2-0.7-0.4-0.9-0.7c-0.2-0.3-0.3-0.6-0.3-0.9v-5.6c-2.7,2.9-5.4,5.1-8.2,6.5
	c-2.8,1.4-5.6,2.2-8.6,2.2c-3.3,0-6.1-0.5-8.4-1.6c-2.3-1.1-4.1-2.6-5.5-4.4c-1.4-1.9-2.4-4.1-3-6.5c-0.6-2.5-0.9-5.5-0.9-9.2V25.1
	c0-0.4,0.1-0.7,0.3-0.9c0.2-0.3,0.6-0.5,1.1-0.7s1.2-0.3,2.1-0.4c0.9-0.1,2-0.1,3.3-0.1c1.3,0,2.4,0,3.3,0.1
	c0.9,0.1,1.5,0.2,2.1,0.4c0.5,0.2,0.9,0.4,1.1,0.7s0.3,0.6,0.3,1v27.3c0,2.5,0.2,4.5,0.5,5.8c0.3,1.3,0.8,2.5,1.5,3.4
	c0.7,1,1.5,1.7,2.5,2.2s2.2,0.8,3.6,0.8c1.7,0,3.5-0.6,5.2-1.9c1.8-1.3,3.6-3.1,5.6-5.5V25.1c0-0.4,0.1-0.7,0.3-0.9
	c0.2-0.3,0.6-0.5,1.1-0.7s1.2-0.3,2.1-0.4c0.9-0.1,2-0.1,3.3-0.1c1.3,0,2.4,0,3.3,0.1c0.9,0.1,1.6,0.2,2.1,0.4
	c0.5,0.2,0.9,0.4,1.1,0.7c0.2,0.3,0.3,0.6,0.3,0.9C86.5,25.1,86.5,73.4,86.5,73.4z"/>
<path class="st3" d="M169.5,73.4c0,0.4-0.1,0.7-0.3,0.9c-0.2,0.3-0.6,0.5-1.1,0.7c-0.5,0.2-1.2,0.3-2.1,0.4c-0.9,0.1-2,0.1-3.3,0.1
	c-1.4,0-2.5,0-3.4-0.1s-1.6-0.2-2.1-0.4c-0.5-0.2-0.9-0.4-1.1-0.7s-0.3-0.6-0.3-0.9V44.7c0-1.6-0.1-3.1-0.5-4.4
	c-0.3-1.3-0.8-2.5-1.4-3.4c-0.6-1-1.4-1.7-2.4-2.2c-1-0.5-2.1-0.8-3.4-0.8c-1.6,0-3.3,0.6-4.9,1.9c-1.7,1.3-3.5,3.1-5.4,5.5v32.1
	c0,0.4-0.1,0.7-0.3,0.9c-0.2,0.3-0.6,0.5-1.1,0.7c-0.5,0.2-1.2,0.3-2.1,0.4c-0.9,0.1-1.9,0.1-3.2,0.1c-1.3,0-2.4,0-3.3-0.1
	c-0.9-0.1-1.6-0.2-2.1-0.4c-0.5-0.2-0.9-0.4-1.1-0.7s-0.3-0.6-0.3-0.9V44.7c0-1.6-0.2-3.1-0.5-4.4c-0.3-1.3-0.8-2.5-1.4-3.4
	c-0.6-1-1.4-1.7-2.4-2.2c-1-0.5-2.1-0.8-3.4-0.8c-1.7,0-3.3,0.6-5,1.9c-1.7,1.3-3.5,3.1-5.4,5.5v32.1c0,0.4-0.1,0.7-0.3,0.9
	c-0.2,0.3-0.6,0.5-1.1,0.7c-0.5,0.2-1.2,0.3-2.1,0.4c-0.9,0.1-2,0.1-3.3,0.1c-1.3,0-2.4,0-3.3-0.1c-0.9-0.1-1.6-0.2-2.1-0.4
	c-0.5-0.2-0.9-0.4-1.1-0.7c-0.2-0.3-0.3-0.6-0.3-0.9V25.1c0-0.4,0.1-0.7,0.3-0.9c0.2-0.3,0.5-0.5,1-0.7s1.1-0.3,1.8-0.4
	c0.7-0.1,1.7-0.1,2.8-0.1c1.2,0,2.1,0,2.9,0.1c0.8,0.1,1.3,0.2,1.8,0.4c0.4,0.2,0.7,0.4,0.9,0.7c0.2,0.3,0.3,0.6,0.3,0.9v5.6
	c2.7-2.9,5.3-5.1,8-6.5c2.7-1.4,5.4-2.2,8.3-2.2c2,0,3.8,0.2,5.4,0.6c1.6,0.4,3,1,4.3,1.8s2.3,1.7,3.2,2.8c0.9,1.1,1.7,2.3,2.3,3.6
	c1.4-1.5,2.9-2.9,4.2-4s2.8-2,4.1-2.7c1.4-0.7,2.7-1.2,4.1-1.6c1.4-0.3,2.7-0.5,4.1-0.5c3.2,0,5.9,0.5,8.1,1.6
	c2.2,1.1,4,2.6,5.3,4.4c1.4,1.9,2.3,4,2.9,6.5c0.6,2.5,0.9,5.1,0.9,7.9L169.5,73.4L169.5,73.4z"/>
<path class="st3" d="M222,47.8c0,1.7-0.4,2.9-1.1,3.7c-0.7,0.8-1.8,1.2-3.1,1.2h-29.4c0,2.1,0.2,3.9,0.7,5.6
	c0.5,1.7,1.3,3.1,2.3,4.3c1.1,1.2,2.4,2.1,4.1,2.7c1.7,0.6,3.7,0.9,6,0.9c2.4,0,4.5-0.2,6.3-0.5c1.8-0.3,3.4-0.7,4.7-1.1
	c1.3-0.4,2.4-0.8,3.3-1.1c0.9-0.3,1.6-0.5,2.1-0.5c0.3,0,0.6,0.1,0.8,0.2c0.2,0.1,0.4,0.3,0.5,0.7c0.1,0.3,0.2,0.8,0.3,1.4
	c0.1,0.6,0.1,1.3,0.1,2.2c0,0.8,0,1.5-0.1,2c0,0.6-0.1,1-0.2,1.4c-0.1,0.4-0.2,0.7-0.3,1c-0.1,0.3-0.3,0.5-0.6,0.8
	c-0.2,0.3-0.9,0.6-1.9,1c-1,0.4-2.4,0.8-4,1.2c-1.6,0.4-3.5,0.8-5.6,1.1c-2.1,0.3-4.3,0.5-6.7,0.5c-4.3,0-8-0.5-11.3-1.6
	c-3.2-1.1-5.9-2.7-8.1-4.9c-2.2-2.2-3.8-5-4.8-8.3c-1.1-3.4-1.6-7.3-1.6-11.8c0-4.3,0.6-8.2,1.7-11.6c1.1-3.4,2.8-6.4,4.9-8.8
	c2.1-2.4,4.7-4.2,7.8-5.5c3.1-1.3,6.5-1.9,10.3-1.9c4,0,7.5,0.6,10.4,1.8s5.2,2.8,7.1,5c1.8,2.1,3.2,4.6,4.1,7.5
	c0.9,2.9,1.3,6,1.3,9.4L222,47.8L222,47.8z M208.8,43.9c0.1-3.8-0.6-6.8-2.3-9s-4.2-3.3-7.6-3.3c-1.7,0-3.2,0.3-4.5,1
	c-1.3,0.7-2.3,1.5-3.2,2.6c-0.8,1.1-1.5,2.4-1.9,3.9c-0.4,1.5-0.7,3.1-0.8,4.8L208.8,43.9L208.8,43.9z"/>
<path class="st3" d="M275.8,73.4c0,0.4-0.1,0.7-0.3,1c-0.2,0.3-0.5,0.5-0.9,0.7c-0.4,0.2-1,0.3-1.8,0.4c-0.7,0.1-1.7,0.1-2.7,0.1
	c-1.1,0-2.1,0-2.8-0.1c-0.7-0.1-1.3-0.2-1.8-0.4c-0.5-0.2-0.8-0.4-1-0.7s-0.3-0.6-0.3-1V68c-2.5,2.7-5.1,4.7-7.8,6.2
	c-2.7,1.5-5.8,2.2-9.1,2.2c-3.7,0-6.8-0.7-9.4-2.1c-2.5-1.4-4.6-3.3-6.2-5.8c-1.6-2.4-2.8-5.2-3.5-8.5c-0.7-3.2-1.1-6.6-1.1-10.2
	c0-4.3,0.5-8.2,1.4-11.6c0.9-3.4,2.3-6.4,4-8.8c1.8-2.4,4-4.3,6.6-5.6c2.6-1.3,5.7-2,9.1-2c2.7,0,5.2,0.5,7.4,1.6
	c2.2,1.1,4.4,2.7,6.5,4.9V2.3c0-0.4,0.1-0.7,0.3-1c0.2-0.3,0.6-0.5,1.1-0.7c0.5-0.2,1.2-0.3,2.1-0.5c0.9-0.1,2-0.2,3.3-0.2
	c1.3,0,2.4,0.1,3.3,0.2c0.9,0.1,1.6,0.3,2.1,0.5c0.5,0.2,0.9,0.4,1.1,0.7c0.2,0.3,0.3,0.6,0.3,1L275.8,73.4L275.8,73.4z M262.2,41.1
	c-2-2.5-3.8-4.3-5.6-5.6s-3.6-2-5.6-2c-1.8,0-3.3,0.5-4.6,1.3c-1.3,0.9-2.3,2.1-3.1,3.5c-0.8,1.5-1.4,3.1-1.7,5
	c-0.4,1.8-0.6,3.7-0.6,5.6c0,2,0.2,4,0.5,5.9c0.3,1.9,0.9,3.6,1.6,5.1c0.7,1.5,1.7,2.7,2.9,3.6c1.2,0.9,2.8,1.3,4.6,1.3
	c0.9,0,1.9-0.1,2.7-0.4c0.9-0.3,1.8-0.7,2.7-1.3c0.9-0.6,1.9-1.4,2.8-2.4s2-2.2,3.2-3.7L262.2,41.1L262.2,41.1z"/>
<path class="st3" d="M298.7,8.8c0,2.8-0.5,4.6-1.7,5.7c-1.1,1.1-3.2,1.6-6.2,1.6c-3.1,0-5.1-0.5-6.2-1.5c-1.1-1-1.6-2.8-1.6-5.5
	c0-2.7,0.5-4.6,1.6-5.7c1.1-1.1,3.2-1.6,6.2-1.6c3,0,5.1,0.5,6.2,1.5C298.1,4.3,298.7,6.1,298.7,8.8z M297.7,73.4
	c0,0.4-0.1,0.7-0.3,0.9c-0.2,0.3-0.6,0.5-1.1,0.7c-0.5,0.2-1.2,0.3-2.1,0.4c-0.9,0.1-2,0.1-3.3,0.1c-1.3,0-2.4,0-3.3-0.1
	s-1.6-0.2-2.1-0.4s-0.9-0.4-1.1-0.7s-0.3-0.6-0.3-0.9V25.2c0-0.4,0.1-0.7,0.3-1s0.6-0.5,1.1-0.7c0.5-0.2,1.2-0.4,2.1-0.5
	c0.9-0.1,2-0.2,3.3-0.2s2.4,0,3.3,0.2c0.9,0.1,1.6,0.3,2.1,0.5c0.5,0.2,0.9,0.4,1.1,0.7c0.2,0.3,0.3,0.6,0.3,1V73.4z"/>
<path class="st3" d="M343.4,65.7c0,0.9,0,1.7-0.1,2.3c0,0.6-0.1,1.2-0.2,1.6c-0.1,0.4-0.2,0.8-0.3,1.1c-0.1,0.3-0.4,0.6-0.8,1
	c-0.4,0.4-1.2,0.9-2.2,1.5c-1,0.6-2.2,1.1-3.6,1.6c-1.3,0.5-2.8,0.9-4.4,1.2c-1.6,0.3-3.2,0.4-4.8,0.4c-3.7,0-7-0.6-9.9-1.7
	c-2.9-1.2-5.3-2.8-7.2-5.1c-1.9-2.2-3.4-5-4.4-8.2c-1-3.2-1.5-7-1.5-11.2c0-4.8,0.6-9,1.8-12.5c1.2-3.5,2.9-6.4,5.1-8.7
	c2.2-2.3,4.7-4,7.7-5.1c3-1.1,6.2-1.7,9.7-1.7c1.4,0,2.9,0.1,4.2,0.4c1.4,0.2,2.7,0.6,3.9,1c1.2,0.4,2.3,0.9,3.2,1.5
	c1,0.5,1.6,1,2,1.4s0.7,0.7,0.8,1c0.2,0.3,0.3,0.6,0.4,1c0.1,0.4,0.2,1,0.2,1.6c0,0.6,0.1,1.4,0.1,2.3c0,2.1-0.2,3.6-0.5,4.4
	c-0.4,0.8-0.8,1.3-1.4,1.3c-0.6,0-1.3-0.2-2-0.8c-0.7-0.5-1.5-1.1-2.4-1.7s-2.1-1.2-3.4-1.7c-1.3-0.5-2.9-0.8-4.7-0.8
	c-3.5,0-6.2,1.4-8.1,4.1c-1.9,2.7-2.8,6.7-2.8,12c0,2.6,0.2,4.9,0.7,6.9s1.2,3.6,2.1,5c0.9,1.3,2.1,2.3,3.5,3c1.4,0.7,3,1,4.8,1
	c1.9,0,3.5-0.3,4.8-0.8c1.4-0.5,2.5-1.2,3.5-1.9c1-0.7,1.9-1.3,2.5-1.9c0.7-0.6,1.3-0.8,1.7-0.8c0.3,0,0.6,0.1,0.8,0.3
	s0.4,0.5,0.5,1c0.1,0.5,0.2,1.1,0.3,1.9C343.4,63.5,343.4,64.5,343.4,65.7z"/>
<path class="st3" d="M399.4,48.7c0,4.1-0.5,7.9-1.6,11.3c-1.1,3.4-2.7,6.3-4.9,8.8c-2.2,2.4-5,4.3-8.3,5.7c-3.3,1.3-7.2,2-11.6,2
	c-4.3,0-8-0.6-11.2-1.8s-5.8-2.9-7.9-5.2c-2.1-2.3-3.6-5.1-4.7-8.4c-1-3.3-1.5-7.1-1.5-11.4c0-4.1,0.5-7.9,1.7-11.3
	c1.1-3.4,2.8-6.3,5-8.8s5-4.3,8.3-5.7c3.3-1.3,7.2-2,11.6-2c4.3,0,8.1,0.6,11.3,1.8c3.2,1.2,5.8,2.9,7.9,5.2s3.6,5.1,4.6,8.4
	C398.9,40.6,399.4,44.5,399.4,48.7z M385.4,49.3c0-2.4-0.2-4.6-0.6-6.6c-0.4-2-1-3.8-1.9-5.2c-0.9-1.5-2.1-2.6-3.6-3.5
	c-1.5-0.8-3.4-1.2-5.7-1.2c-2,0-3.8,0.4-5.3,1.1c-1.5,0.7-2.8,1.8-3.7,3.2c-1,1.4-1.7,3.1-2.2,5.1c-0.5,2-0.7,4.3-0.7,6.8
	c0,2.4,0.2,4.6,0.6,6.6c0.4,2,1,3.8,1.9,5.2c0.9,1.5,2.1,2.6,3.6,3.4c1.5,0.8,3.4,1.2,5.6,1.2c2.1,0,3.8-0.4,5.4-1.1
	c1.5-0.7,2.8-1.8,3.7-3.2s1.7-3.1,2.2-5.1C385.1,54.1,385.4,51.9,385.4,49.3z"/>
<rect x="185.9" y="7.2" class="st0" width="29.5" height="8.7"/>
</svg>
