<svg xmlns="http://www.w3.org/2000/svg" xmlns:xlink="http://www.w3.org/1999/xlink" id="Capa_1" x="0px" y="0px" width="595.279px" height="841.891px" viewBox="0 0 595.279 841.891" xml:space="preserve">
<path fill="#FFFFFF" d="M297.64,159.021c-144.516,0-261.923,117.408-261.923,261.924c0,131.189,96.763,239.759,222.788,258.69  l13.673,2.07V475.311h-61.877v-41.902h61.877v-55.644c0-34.266,8.223-56.833,21.835-70.992c13.612-14.159,33.725-21.3,61.714-21.3  c22.38,0,31.087,1.356,39.367,2.372v34.298h-29.136c-16.532,0-30.096,9.224-37.136,21.509c-7.04,12.286-9.231,26.955-9.231,41.902  v47.832h72.898l-6.487,41.901h-66.411v206.744l13.51-1.837c127.816-17.335,226.462-126.777,226.462-259.249  C559.563,276.43,442.156,159.021,297.64,159.021z M297.64,182.833c131.647,0,238.112,106.465,238.112,238.112  c0,115.839-82.913,211.107-192.35,232.555V499.099h63.016l13.836-89.524h-76.852v-24.021c0-12.352,2.26-23.419,6.068-30.066  c3.81-6.647,7.481-9.534,16.487-9.534h52.946v-79.665l-10.324-1.395c-7.141-0.967-23.443-3.232-52.854-3.232  c-32.183,0-59.807,8.767-78.875,28.602c-19.068,19.834-28.485,49.369-28.485,87.501v31.833H186.49v89.524h61.876v153.634  C140.689,629.945,59.528,535.529,59.528,420.945C59.528,289.298,165.993,182.833,297.64,182.833z"></path>
</svg>