<?xml version="1.0" encoding="UTF-8" standalone="no"?>
<svg
   xmlns:dc="http://purl.org/dc/elements/1.1/"
   xmlns:cc="http://creativecommons.org/ns#"
   xmlns:rdf="http://www.w3.org/1999/02/22-rdf-syntax-ns#"
   xmlns:svg="http://www.w3.org/2000/svg"
   xmlns="http://www.w3.org/2000/svg"
   viewBox="0 0 933.06665 204.64"
   height="204.64"
   width="933.06665"
   xml:space="preserve"
   id="svg2"
   version="1.1"><metadata
     id="metadata8"><rdf:RDF><cc:Work
         rdf:about=""><dc:format>image/svg+xml</dc:format><dc:type
           rdf:resource="http://purl.org/dc/dcmitype/StillImage" /></cc:Work></rdf:RDF></metadata><defs
     id="defs6"><clipPath
       id="clipPath28"
       clipPathUnits="userSpaceOnUse"><path
         id="path26"
         d="M 6.47656,37.6914 H 2229.7266 v 186.938 H 6.47656 Z" /></clipPath><clipPath
       id="clipPath58"
       clipPathUnits="userSpaceOnUse"><path
         id="path56"
         d="M 3971.52,0 H 6655.47 V 270.141 H 3971.52 Z" /></clipPath><clipPath
       id="clipPath104"
       clipPathUnits="userSpaceOnUse"><path
         id="path102"
         d="m 6588,1074 v 411 h 410 v -411 z" /></clipPath><clipPath
       id="clipPath114"
       clipPathUnits="userSpaceOnUse"><path
         id="path112"
         d="m 6660.16,1206.25 h 258.969 v 135.277 H 6660.16 Z" /></clipPath></defs><g
     transform="matrix(1.3333333,0,0,-1.3333333,0,204.64)"
     id="g10"><g
       transform="scale(0.1)"
       id="g12"><path
         id="path14"
         style="fill:#374063;fill-opacity:1;fill-rule:nonzero;stroke:none"
         d="M 124.758,482.988 C 74.1563,494.961 32.5977,511.051 0.0976563,531.289 L 70.0156,689.531 c 30.6604,-17.793 65.0004,-32.051 103.0434,-42.773 38.015,-10.742 74.519,-16.106 109.476,-16.106 30.043,0 51.524,2.911 64.399,8.743 12.879,5.82 19.32,14.562 19.32,26.218 0,13.489 -8.438,23.606 -25.297,30.364 -16.879,6.738 -44.617,14.101 -83.262,22.078 -49.675,10.422 -91.078,21.613 -124.199,33.586 -33.121,11.953 -61.9647,31.582 -86.4804,58.875 -24.539,27.285 -36.8008,64.246 -36.8008,110.867 0,40.476 11.3438,77.277 34.043,110.397 22.6758,33.12 56.5782,59.18 101.6602,78.2 45.078,19.01 99.82,28.52 164.219,28.52 44.16,0 87.539,-4.76 130.179,-14.26 42.618,-9.52 80.18,-23.46 112.704,-41.86 L 487.695,925.059 c -63.179,31.89 -122.976,47.839 -179.398,47.839 -55.82,0 -83.723,-13.488 -83.723,-40.476 0,-12.879 8.281,-22.539 24.84,-28.984 16.563,-6.434 43.844,-13.34 81.879,-20.7 49.062,-9.199 90.465,-19.777 124.203,-31.738 33.719,-11.961 63.02,-31.441 87.859,-58.422 24.836,-26.992 37.258,-63.789 37.258,-110.41 0,-40.469 -11.355,-77.129 -34.035,-109.934 -22.699,-32.808 -56.582,-58.875 -101.66,-78.203 -45.082,-19.312 -99.82,-28.972 -164.227,-28.972 -53.355,0 -105.336,5.972 -155.933,17.929" /><path
         id="path16"
         style="fill:#374063;fill-opacity:1;fill-rule:nonzero;stroke:none"
         d="m 1220.01,479.781 -1.84,293.481 -139.84,-235.528 H 982.656 L 842.813,763.145 V 479.781 H 645.016 v 643.999 h 178.48 L 1033.26,780.613 1237.5,1123.78 h 178.47 l 1.85,-643.999 h -197.81" /><path
         id="path18"
         style="fill:#374063;fill-opacity:1;fill-rule:nonzero;stroke:none"
         d="m 1933.47,660.555 c 21.75,13.183 39.1,31.886 51.96,56.125 12.89,24.218 19.34,52.578 19.34,85.101 0,32.5 -6.45,60.86 -19.34,85.102 -12.86,24.219 -30.21,42.922 -51.96,56.121 -21.79,13.176 -46.17,19.777 -73.14,19.777 -27,0 -51.38,-6.601 -73.14,-19.777 -21.78,-13.199 -39.1,-31.902 -51.98,-56.121 -12.89,-24.242 -19.32,-52.602 -19.32,-85.102 0,-32.523 6.43,-60.883 19.32,-85.101 12.88,-24.239 30.2,-42.942 51.98,-56.125 21.76,-13.192 46.14,-19.774 73.14,-19.774 26.97,0 51.35,6.582 73.14,19.774 M 1673.56,508.301 c -55.21,28.816 -98.43,68.836 -129.71,120.058 -31.28,51.192 -46.92,109.024 -46.92,173.422 0,64.399 15.64,122.203 46.92,173.422 31.28,51.197 74.5,91.227 129.71,120.057 55.19,28.82 117.45,43.24 186.77,43.24 69.3,0 131.55,-14.42 186.75,-43.24 55.21,-28.83 98.45,-68.86 129.73,-120.057 31.28,-51.219 46.91,-109.023 46.91,-173.422 0,-64.398 -15.63,-122.23 -46.91,-173.422 -31.28,-51.222 -74.52,-91.242 -129.73,-120.058 -55.2,-28.832 -117.45,-43.242 -186.75,-43.242 -69.32,0 -131.58,14.41 -186.77,43.242" /><path
         id="path20"
         style="fill:#374063;fill-opacity:1;fill-rule:nonzero;stroke:none"
         d="m 2302.84,1123.78 h 217.12 V 648.133 h 290.72 V 479.781 h -507.84 v 643.999" /><g
         id="g22"><g
           clip-path="url(#clipPath28)"
           id="g24"><path
             id="path30"
             style="fill:#646484;fill-opacity:1;fill-rule:nonzero;stroke:none"
             d="M 163.773,39.7813 H 138.297 V 179.922 L 30.3945,39.7813 H 6.47656 V 221.781 H 32.2188 V 81.3789 L 139.852,221.781 h 23.921 V 39.7813" /><path
             id="path32"
             style="fill:#646484;fill-opacity:1;fill-rule:nonzero;stroke:none"
             d="m 269.336,37.6914 v 0 c -12.137,0 -24.18,1.8203 -36.145,5.4688 -11.957,3.6406 -22.875,9.1093 -32.757,16.3789 l 9.101,19.2422 c 7.969,-6.2422 16.903,-10.9219 26.778,-14.0313 9.882,-3.1289 19.843,-4.6914 29.902,-4.6914 14.562,0 26.781,3.0703 36.66,9.2422 9.879,6.1406 14.82,14.5898 14.82,25.3398 0,9.1794 -3.73,16.2504 -11.179,21.1874 -7.457,4.934 -17.942,7.41 -31.461,7.41 h -40.559 v 21.063 h 38.742 c 11.606,0 20.668,2.379 27.168,7.14 6.5,4.77 9.75,11.387 9.75,19.899 0,9.531 -4.25,17.07 -12.738,22.629 -8.504,5.519 -19.242,8.32 -32.242,8.32 -8.5,0 -17.117,-1.23 -25.871,-3.66 -8.746,-2.418 -17.032,-6.059 -24.828,-10.918 l -8.321,21.328 c 9.192,5.199 18.887,9.109 29.117,11.699 9.743,2.481 19.485,3.774 29.231,3.891 h 2.918 c 12.25,-0.149 23.555,-2.141 33.891,-5.981 10.742,-3.976 19.285,-9.789 25.613,-17.41 6.332,-7.629 9.492,-16.558 9.492,-26.789 0,-9.179 -2.559,-17.238 -7.676,-24.179 -5.113,-6.93 -12.176,-12.129 -21.187,-15.59 11.441,-3.121 20.359,-8.551 26.781,-16.25 6.41,-7.711 9.617,-16.95 9.617,-27.6917 0,-10.75 -3.426,-20.1485 -10.265,-28.207 -6.852,-8.0625 -15.954,-14.2227 -27.301,-18.4727 -11.364,-4.2383 -23.711,-6.3672 -37.051,-6.3672" /><path
             id="path34"
             style="fill:#646484;fill-opacity:1;fill-rule:nonzero;stroke:none"
             d="m 538.691,37.6914 v 0 c -18.199,0 -34.621,4.0391 -49.265,12.0899 -14.653,8.0703 -26.129,19.1484 -34.449,33.289 -8.321,14.1289 -12.481,30.0317 -12.481,47.7107 0,17.68 4.16,33.571 12.481,47.707 8.32,14.133 19.847,25.223 34.578,33.282 14.726,8.05 31.199,12.089 49.398,12.089 14.211,0 27.207,-2.39 39,-7.148 11.793,-4.781 21.844,-11.832 30.16,-21.191 l -16.898,-16.379 c -13.692,14.39 -30.77,21.578 -51.219,21.578 -13.523,0 -25.742,-3.039 -36.66,-9.098 -10.926,-6.07 -19.465,-14.43 -25.609,-25.101 -6.157,-10.649 -9.231,-22.579 -9.231,-35.739 0,-13.172 3.074,-25.101 9.231,-35.7497 6.144,-10.6602 14.683,-19.0196 25.609,-25.0899 10.918,-6.0703 23.137,-9.1016 36.66,-9.1016 20.277,0 37.348,7.2696 51.219,21.8399 L 608.113,66.3008 C 599.797,56.9297 589.691,49.8203 577.82,44.9805 565.949,40.1289 552.906,37.6914 538.691,37.6914" /><path
             id="path36"
             style="fill:#646484;fill-opacity:1;fill-rule:nonzero;stroke:none"
             d="M 837.691,39.7695 H 812.73 L 812.469,172.379 746.688,61.8711 H 734.73 L 668.949,171.602 V 39.7695 H 643.988 V 221.781 h 21.321 L 741.23,93.8594 816.109,221.781 h 21.321 l 0.261,-182.0115" /><path
             id="path38"
             style="fill:#646484;fill-opacity:1;fill-rule:nonzero;stroke:none"
             d="m 976.27,37.6914 v 0 c -18.368,0 -34.926,4.0391 -49.657,12.0899 -14.742,8.0703 -26.3,19.1992 -34.715,33.4179 -8.406,14.1992 -12.605,30.0628 -12.605,47.5818 0,17.5 4.199,33.36 12.605,47.578 8.415,14.211 19.973,25.352 34.715,33.411 14.731,8.05 31.289,12.089 49.657,12.089 18.203,0 34.67,-4.039 49.4,-12.089 14.73,-8.059 26.26,-19.149 34.58,-33.282 8.32,-14.136 12.48,-30.027 12.48,-47.707 0,-17.672 -4.16,-33.5818 -12.48,-47.7107 -8.32,-14.1211 -19.85,-25.2187 -34.58,-33.289 -14.73,-8.0508 -31.197,-12.0899 -49.4,-12.0899 m 0,163.0276 c -13.348,0 -25.438,-3.039 -36.27,-9.098 -10.84,-6.07 -19.328,-14.43 -25.477,-25.101 -6.164,-10.649 -9.23,-22.579 -9.23,-35.739 0,-13.172 3.066,-25.101 9.23,-35.7497 C 920.672,84.3711 929.16,76 940,69.9414 c 10.832,-6.0703 22.922,-9.1016 36.27,-9.1016 13.339,0 25.35,3.0313 36.01,9.1016 10.66,6.0586 19.07,14.4297 25.22,25.0899 6.15,10.6487 9.23,22.5777 9.23,35.7497 0,13.16 -3.08,25.09 -9.23,35.739 -6.15,10.671 -14.56,19.031 -25.22,25.101 -10.66,6.059 -22.671,9.098 -36.01,9.098" /><path
             id="path40"
             style="fill:#646484;fill-opacity:1;fill-rule:nonzero;stroke:none"
             d="m 1101.07,37.6914 v 0 c -5.38,0 -10.83,0.6992 -16.38,2.0899 l 1.82,23.1406 c 2.77,-0.7031 5.55,-1.0508 8.32,-1.0508 7.45,0 13.43,2.9883 17.94,8.9805 4.51,5.9882 7.89,14.9492 10.14,26.8984 2.25,11.969 3.73,27.738 4.42,47.332 l 2.86,76.699 h 128.18 V 39.7813 h -25.48 V 199.16 h -80.6 l -1.82,-53.301 c -0.87,-25.14 -2.91,-45.507 -6.11,-61.0895 -3.21,-15.6093 -8.28,-27.3711 -15.21,-35.2382 -6.94,-7.8907 -16.3,-11.8399 -28.08,-11.8399" /><path
             id="path42"
             style="fill:#646484;fill-opacity:1;fill-rule:nonzero;stroke:none"
             d="M 1447.13,39.7813 H 1315.05 V 221.781 h 128.44 V 199.16 h -102.44 v -55.898 h 91.26 v -22.114 h -91.26 V 62.3984 h 106.08 V 39.7813" /><path
             id="path44"
             style="fill:#646484;fill-opacity:1;fill-rule:nonzero;stroke:none"
             d="m 1644.47,39.7813 h -26.01 V 120.898 H 1513.94 V 39.7813 h -25.99 V 221.781 h 25.99 V 143.52 h 104.52 v 78.261 h 26.01 V 39.7813" /><path
             id="path46"
             style="fill:#646484;fill-opacity:1;fill-rule:nonzero;stroke:none"
             d="m 1782.52,37.6914 v 0 c -18.2,0 -34.62,4.0391 -49.27,12.0899 -14.65,8.0703 -26.13,19.1484 -34.45,33.289 -8.32,14.1289 -12.48,30.0317 -12.48,47.7107 0,17.68 4.16,33.571 12.48,47.707 8.32,14.133 19.85,25.223 34.58,33.282 14.73,8.05 31.2,12.089 49.4,12.089 14.21,0 27.21,-2.39 39.01,-7.148 11.77,-4.781 21.83,-11.832 30.15,-21.191 l -16.9,-16.379 c -13.69,14.39 -30.76,21.578 -51.22,21.578 -13.52,0 -25.74,-3.039 -36.66,-9.098 -10.92,-6.07 -19.46,-14.43 -25.61,-25.101 -6.15,-10.649 -9.23,-22.579 -9.23,-35.739 0,-13.172 3.08,-25.101 9.23,-35.7497 6.15,-10.6602 14.69,-19.0196 25.61,-25.0899 10.92,-6.0703 23.14,-9.1016 36.66,-9.1016 20.28,0 37.35,7.2696 51.22,21.8399 l 16.9,-16.3789 c -8.32,-9.3711 -18.42,-16.4805 -30.29,-21.3203 -11.88,-4.8516 -24.92,-7.2891 -39.13,-7.2891" /><path
             id="path48"
             style="fill:#646484;fill-opacity:1;fill-rule:nonzero;stroke:none"
             d="m 2038.88,39.7695 h -28.6 l -59.02,80.0825 H 1913.3 V 39.7695 h -25.48 V 221.781 h 25.48 V 142.73 h 38.49 l 57.19,79.051 h 27.83 l -65,-88.152 67.47,-92.9688 -0.4,-0.8907" /><path
             id="path50"
             style="fill:#646484;fill-opacity:1;fill-rule:nonzero;stroke:none"
             d="m 2229.73,39.7695 h -27.31 l -20.02,45.5 h -96.72 l -20.02,-45.5 h -26.78 l 0.4,0.8907 82.02,181.1208 h 25.74 l 82.69,-181.9919 v -0.0196 m -95.69,155.4805 -39.26,-89.18 h 78.52 l -39.26,89.18" /></g></g><g
         id="g52"><g
           clip-path="url(#clipPath58)"
           id="g54"><path
             id="path60"
             style="fill:#646484;fill-opacity:1;fill-rule:nonzero;stroke:none"
             d="m 4169.9,0 h -24.18 V 39.7813 H 3995.96 L 3995.7,0 h -24.18 l 0.25,62.3984 h 8.85 c 11.45,0.6914 19.5,9.75 24.18,27.1719 4.68,17.4177 7.54,41.9887 8.57,73.7107 l 1.83,58.5 h 127.92 V 62.3984 h 26.78 V 0 m -132.35,199.16 -1.29,-38.219 c -0.87,-25.671 -2.9,-46.902 -6.11,-63.7027 -3.21,-16.8164 -8.36,-28.4297 -15.47,-34.8399 h 102.7 V 199.16 h -79.83" /><path
             id="path62"
             style="fill:#646484;fill-opacity:1;fill-rule:nonzero;stroke:none"
             d="m 4196.95,37.6914 c -5.39,0 -10.84,0.6992 -16.39,2.0899 l 1.82,23.1406 c 2.77,-0.7031 5.54,-1.0508 8.32,-1.0508 7.45,0 13.43,2.9883 17.93,8.9805 4.51,5.9882 7.89,14.9492 10.15,26.8984 2.25,11.969 3.73,27.738 4.42,47.332 l 2.86,76.699 h 128.17 V 39.7813 h -25.47 V 199.16 h -80.6 l -1.82,-53.301 c -0.88,-25.14 -2.91,-45.507 -6.11,-61.0895 -3.21,-15.6093 -8.28,-27.3711 -15.22,-35.2382 -6.93,-7.8907 -16.29,-11.8399 -28.06,-11.8399" /><path
             id="path64"
             style="fill:#646484;fill-opacity:1;fill-rule:nonzero;stroke:none"
             d="m 4544.29,39.7695 h -25.48 v 53.0391 h -50.18 c -3.11,0 -5.45,0.1016 -7.01,0.2734 l -36.41,-53.3125 h -27.56 l 40.3,57.7305 c -12.99,4.332 -22.97,11.559 -29.9,21.699 -6.93,10.153 -10.4,22.5 -10.4,37.051 0,20.629 6.62,36.699 19.89,48.238 13.27,11.524 31.16,17.293 53.69,17.293 h 73.06 V 39.7695 M 4472.28,199.16 c -15.61,0 -27.57,-3.64 -35.89,-10.922 -8.32,-7.277 -12.48,-17.847 -12.48,-31.718 0,-13.532 3.94,-23.879 11.83,-31.071 7.89,-7.187 19.55,-10.801 34.98,-10.801 h 48.09 v 84.512 h -46.53" /><path
             id="path66"
             style="fill:#646484;fill-opacity:1;fill-rule:nonzero;stroke:none"
             d="m 4754.11,39.7695 h -83.2 V 221.781 h 78.27 c 19.92,0 35.48,-4.043 46.65,-12.09 11.19,-8.07 16.78,-19.632 16.78,-34.711 0,-9.878 -2.48,-18.3 -7.41,-25.218 -4.94,-6.934 -11.92,-12.133 -20.93,-15.602 12.31,-2.949 21.62,-8.191 27.95,-15.738 6.33,-7.543 9.49,-17.192 9.49,-28.9923 0,-15.7578 -5.77,-27.9805 -17.29,-36.6602 -11.53,-8.6679 -28.3,-13 -50.31,-13 M 4696.65,121.93 V 60.3086 h 56.94 c 27.91,0 41.85,10.4102 41.85,31.2031 0,10.3983 -3.5,18.0783 -10.52,23.0193 -7.02,4.938 -17.46,7.399 -31.33,7.399 h -56.94 m 0,79.3 v -59.531 h 50.7 c 12.65,0 22.31,2.5 28.99,7.539 6.66,5.024 10,12.383 10,22.094 0,9.707 -3.38,17.129 -10.13,22.227 -6.76,5.113 -16.38,7.671 -28.86,7.671 h -50.7" /><path
             id="path68"
             style="fill:#646484;fill-opacity:1;fill-rule:nonzero;stroke:none"
             d="m 4946.51,37.6914 c -18.21,0 -34.62,4.0391 -49.27,12.0899 -14.65,8.0703 -26.13,19.1484 -34.45,33.289 -8.32,14.1289 -12.48,30.0317 -12.48,47.7107 0,17.68 4.16,33.571 12.48,47.707 8.32,14.133 19.84,25.223 34.58,33.282 14.73,8.05 31.2,12.089 49.4,12.089 14.2,0 27.21,-2.39 39.01,-7.148 11.77,-4.781 21.83,-11.832 30.15,-21.191 l -16.9,-16.379 c -13.7,14.39 -30.77,21.578 -51.22,21.578 -13.52,0 -25.75,-3.039 -36.66,-9.098 -10.92,-6.07 -19.46,-14.43 -25.61,-25.101 -6.15,-10.649 -9.24,-22.579 -9.24,-35.739 0,-13.172 3.09,-25.101 9.24,-35.7497 6.15,-10.6602 14.69,-19.0196 25.61,-25.0899 10.91,-6.0703 23.14,-9.1016 36.66,-9.1016 20.27,0 37.34,7.2696 51.22,21.8399 l 16.9,-16.3789 c -8.32,-9.3711 -18.42,-16.4805 -30.29,-21.3203 -11.87,-4.8516 -24.92,-7.2891 -39.13,-7.2891" /><path
             id="path70"
             style="fill:#646484;fill-opacity:1;fill-rule:nonzero;stroke:none"
             d="M 5183.88,39.7813 H 5051.81 V 221.781 h 128.44 V 199.16 h -102.44 v -55.898 h 91.26 v -22.114 h -91.26 V 62.3984 h 106.07 V 39.7813" /><path
             id="path72"
             style="fill:#646484;fill-opacity:1;fill-rule:nonzero;stroke:none"
             d="m 5382.01,39.7695 h -25.49 V 179.922 L 5248.63,39.7695 H 5224.7 V 221.781 h 25.74 V 81.3789 l 107.64,140.4021 h 23.93 V 39.7695 m -79.05,194.7425 c -14.22,0 -25.17,3.09 -32.89,9.238 -7.71,6.148 -11.66,14.941 -11.83,26.391 h 18.46 c 0.17,-6.762 2.55,-12.012 7.15,-15.731 4.59,-3.73 10.97,-5.59 19.11,-5.59 7.81,0 14.09,1.86 18.85,5.59 4.77,3.719 7.24,8.969 7.41,15.731 h 18.21 c -0.18,-11.27 -4.12,-20.02 -11.84,-26.262 -7.71,-6.238 -18.58,-9.367 -32.63,-9.367" /><path
             id="path74"
             style="fill:#646484;fill-opacity:1;fill-rule:nonzero;stroke:none"
             d="m 5534.61,39.7813 h -25.99 V 221.781 h 70.98 c 23.57,0 42.11,-5.633 55.64,-16.902 13.52,-11.27 20.28,-26.77 20.28,-46.539 0,-19.77 -6.76,-35.281 -20.28,-46.539 -13.53,-11.27 -32.07,-16.9026 -55.64,-16.9026 h -44.99 V 39.7813 m 0,159.3787 v -81.64 h 44.19 c 16.49,0 29.05,3.519 37.72,10.531 8.66,7.019 13,17.109 13,30.289 0,13.16 -4.34,23.262 -13,30.289 -8.67,7.012 -21.23,10.531 -37.72,10.531 h -44.19" /><path
             id="path76"
             style="fill:#646484;fill-opacity:1;fill-rule:nonzero;stroke:none"
             d="m 5776.17,37.6914 c -18.38,0 -34.93,4.0391 -49.67,12.0899 -14.73,8.0703 -26.3,19.1992 -34.71,33.4179 -8.41,14.1992 -12.61,30.0628 -12.61,47.5818 0,17.5 4.2,33.36 12.61,47.578 8.41,14.211 19.98,25.352 34.71,33.411 14.74,8.05 31.29,12.089 49.67,12.089 18.19,0 34.65,-4.039 49.39,-12.089 14.75,-8.059 26.26,-19.149 34.58,-33.282 8.32,-14.136 12.48,-30.027 12.48,-47.707 0,-17.672 -4.16,-33.5818 -12.48,-47.7107 -8.32,-14.1211 -19.83,-25.2187 -34.58,-33.289 -14.74,-8.0508 -31.2,-12.0899 -49.39,-12.0899 m 0,163.0276 c -13.36,0 -25.45,-3.039 -36.27,-9.098 -10.84,-6.07 -19.34,-14.43 -25.49,-25.101 -6.15,-10.649 -9.23,-22.579 -9.23,-35.739 0,-13.172 3.08,-25.101 9.23,-35.7497 6.15,-10.6602 14.65,-19.0313 25.49,-25.0899 10.82,-6.0703 22.91,-9.1016 36.27,-9.1016 13.34,0 25.34,3.0313 36,9.1016 10.67,6.0586 19.06,14.4297 25.23,25.0899 6.14,10.6487 9.22,22.5777 9.22,35.7497 0,13.16 -3.08,25.09 -9.22,35.739 -6.17,10.671 -14.56,19.031 -25.23,25.101 -10.66,6.059 -22.66,9.098 -36,9.098" /><path
             id="path78"
             style="fill:#646484;fill-opacity:1;fill-rule:nonzero;stroke:none"
             d="m 5996.12,37.6914 c -18.2,0 -34.62,4.0391 -49.27,12.0899 -14.65,8.0703 -26.13,19.1484 -34.45,33.289 -8.32,14.1289 -12.48,30.0317 -12.48,47.7107 0,17.68 4.16,33.571 12.48,47.707 8.32,14.133 19.85,25.223 34.58,33.282 14.73,8.05 31.2,12.089 49.4,12.089 14.21,0 27.21,-2.39 39,-7.148 11.78,-4.781 21.84,-11.832 30.16,-21.191 l -16.9,-16.379 c -13.69,14.39 -30.76,21.578 -51.22,21.578 -13.52,0 -25.74,-3.039 -36.66,-9.098 -10.92,-6.07 -19.46,-14.43 -25.61,-25.101 -6.15,-10.649 -9.23,-22.579 -9.23,-35.739 0,-13.172 3.08,-25.101 9.23,-35.7497 6.15,-10.6602 14.69,-19.0196 25.61,-25.0899 10.92,-6.0703 23.14,-9.1016 36.66,-9.1016 20.28,0 37.35,7.2696 51.22,21.8399 l 16.9,-16.3789 c -8.32,-9.3711 -18.42,-16.4805 -30.29,-21.3203 -11.88,-4.8516 -24.92,-7.2891 -39.13,-7.2891" /><path
             id="path80"
             style="fill:#646484;fill-opacity:1;fill-rule:nonzero;stroke:none"
             d="m 6178.89,37.6914 c -18.19,0 -34.62,4.0391 -49.27,12.0899 -14.64,8.0703 -26.13,19.1484 -34.45,33.289 -8.32,14.1289 -12.48,30.0317 -12.48,47.7107 0,17.68 4.16,33.571 12.48,47.707 8.32,14.133 19.86,25.223 34.58,33.282 14.74,8.05 31.2,12.089 49.41,12.089 14.2,0 27.2,-2.39 39,-7.148 11.78,-4.781 21.84,-11.832 30.16,-21.191 l -16.91,-16.379 c -13.69,14.39 -30.76,21.578 -51.22,21.578 -13.52,0 -25.74,-3.039 -36.66,-9.098 -10.92,-6.07 -19.45,-14.43 -25.61,-25.101 -6.15,-10.649 -9.22,-22.579 -9.22,-35.739 0,-13.172 3.07,-25.101 9.22,-35.7497 6.16,-10.6602 14.69,-19.0196 25.61,-25.0899 10.92,-6.0703 23.14,-9.1016 36.66,-9.1016 20.28,0 37.35,7.2696 51.22,21.8399 l 16.91,-16.3789 c -8.32,-9.3711 -18.42,-16.4805 -30.3,-21.3203 -11.87,-4.8516 -24.92,-7.2891 -39.13,-7.2891" /><path
             id="path82"
             style="fill:#646484;fill-opacity:1;fill-rule:nonzero;stroke:none"
             d="m 6441.5,39.7813 h -25.49 V 179.922 L 6308.11,39.7813 h -23.92 V 221.781 h 25.75 V 81.3789 l 107.63,140.4021 h 23.93 V 39.7813" /><path
             id="path84"
             style="fill:#646484;fill-opacity:1;fill-rule:nonzero;stroke:none"
             d="m 6655.46,39.7813 h -25.47 V 179.922 L 6522.08,39.7813 h -23.91 V 221.781 h 25.74 V 81.3789 l 107.64,140.4021 h 23.91 V 39.7813" /></g></g><path
         id="path86"
         style="fill:#374063;fill-opacity:1;fill-rule:nonzero;stroke:none"
         d="m 4149.62,748.418 -62.55,161.926 -62.56,-161.926 z m 59.79,-156.406 H 3964.7 l -43.24,-112.231 h -220.8 l 281.52,643.999 h 213.44 l 281.52,-643.999 h -224.48 l -43.25,112.231" /><path
         id="path88"
         style="fill:#374063;fill-opacity:1;fill-rule:nonzero;stroke:none"
         d="m 4874.58,936.563 c -14.72,13.183 -36.8,19.781 -66.25,19.781 h -79.12 V 805.465 h 79.12 c 29.45,0 51.53,6.582 66.25,19.777 14.71,13.18 22.08,31.738 22.08,55.66 0,23.922 -7.37,42.461 -22.08,55.661 M 4788.1,641.699 h -58.89 V 479.781 H 4512.1 v 644.009 h 310.04 c 59.48,0 111.31,-9.83 155.47,-29.45 44.16,-19.64 78.21,-47.84 102.13,-84.64 23.93,-36.794 35.88,-79.735 35.88,-128.798 0,-46 -10.43,-86.175 -31.29,-120.519 -20.86,-34.367 -50.91,-61.645 -90.16,-81.887 L 5129.41,479.781 H 4897.57 L 4788.1,641.699" /><path
         id="path90"
         style="fill:#374063;fill-opacity:1;fill-rule:nonzero;stroke:none"
         d="m 5608.28,660.555 c 21.75,13.183 39.1,31.886 51.97,56.125 12.88,24.218 19.33,52.578 19.33,85.101 0,32.5 -6.45,60.86 -19.33,85.102 -12.87,24.219 -30.22,42.922 -51.97,56.121 -21.78,13.176 -46.17,19.777 -73.15,19.777 -26.99,0 -51.38,-6.601 -73.13,-19.777 -21.78,-13.199 -39.1,-31.902 -51.99,-56.121 -12.88,-24.242 -19.31,-52.602 -19.31,-85.102 0,-32.523 6.43,-60.883 19.31,-85.101 12.89,-24.239 30.21,-42.942 51.99,-56.125 21.75,-13.192 46.14,-19.774 73.13,-19.774 26.98,0 51.37,6.582 73.15,19.774 M 5348.37,508.301 c -55.2,28.816 -98.43,68.836 -129.71,120.058 -31.28,51.192 -46.93,109.024 -46.93,173.422 0,64.399 15.65,122.203 46.93,173.422 31.28,51.197 74.51,91.227 129.71,120.057 55.2,28.82 117.45,43.24 186.76,43.24 69.31,0 131.56,-14.42 186.76,-43.24 55.2,-28.83 98.45,-68.86 129.73,-120.057 31.28,-51.219 46.91,-109.023 46.91,-173.422 0,-64.398 -15.63,-122.23 -46.91,-173.422 -31.28,-51.222 -74.53,-91.242 -129.73,-120.058 -55.2,-28.832 -117.45,-43.242 -186.76,-43.242 -69.31,0 -131.56,14.41 -186.76,43.242" /><path
         id="path92"
         style="fill:#374063;fill-opacity:1;fill-rule:nonzero;stroke:none"
         d="m 6285.85,649.063 c 46.61,0 83.86,13.339 111.78,40.019 27.9,26.68 41.86,64.238 41.86,112.699 0,48.442 -13.96,86.02 -41.86,112.699 -27.92,26.68 -65.17,40.024 -111.78,40.024 h -91.08 V 649.063 Z m -308.2,474.727 h 317.4 c 71.76,0 135.08,-13.05 189.98,-39.11 54.89,-26.08 97.52,-63.34 127.88,-111.774 30.36,-48.465 45.54,-105.504 45.54,-171.125 0,-65.648 -15.18,-122.679 -45.54,-171.117 -30.36,-48.469 -72.99,-85.723 -127.88,-111.773 -54.9,-26.102 -118.22,-39.11 -189.98,-39.11 h -317.4 v 644.009" /><path
         id="path94"
         style="fill:#e3225e;fill-opacity:1;fill-rule:nonzero;stroke:none"
         d="m 3628.13,34.7813 h -700 V 1534.78 h 700 V 34.7813" /><path
         id="path96"
         style="fill:#ffffff;fill-opacity:1;fill-rule:nonzero;stroke:none"
         d="M 3595.38,1123.78 V 479.781 H 3416.89 L 3172.17,772.336 V 479.781 h -211.59 v 643.999 h 178.47 l 244.73,-292.561 v 292.561 h 211.6" /><g
         id="g98"><g
           clip-path="url(#clipPath104)"
           id="g100"><path
             id="path106"
             style="fill:#646484;fill-opacity:1;fill-rule:nonzero;stroke:none"
             d="m 6793.14,1074.78 v 0 c -113.22,0 -205,91.78 -205,205 0,113.22 91.78,205 205,205 113.22,0 205,-91.78 205,-205 v 0 c 0,-113.22 -91.78,-205 -205,-205 m 0,390 c -102.17,0 -185,-82.83 -185,-185 0,-102.17 82.83,-185 185,-185 102.17,0 185,82.83 185,185 0,102.17 -82.83,185 -185,185" /></g></g><g
         id="g108"><g
           clip-path="url(#clipPath114)"
           id="g110"><path
             id="path116"
             style="fill:#646484;fill-opacity:1;fill-rule:nonzero;stroke:none"
             d="m 6777.96,1208.54 h -33.06 l -25.65,37.05 h -28.31 v -37.05 h -30.78 v 132.98 h 57.57 c 11.78,0 22.01,-1.95 30.68,-5.88 8.67,-3.93 15.36,-9.5 20.05,-16.71 4.68,-7.23 7.03,-15.77 7.03,-25.65 0,-9.9 -2.38,-18.42 -7.13,-25.57 -4.74,-7.15 -11.49,-12.64 -20.22,-16.42 l 29.82,-42.75 m -87.02,107.92 v -46.38 h 25.08 c 9.25,0 16.27,2.03 21.09,6.1 4.81,4.04 7.22,9.74 7.22,17.1 0,7.46 -2.41,13.19 -7.22,17.18 -4.82,3.99 -11.84,6 -21.09,6 h -25.08" /><path
             id="path118"
             style="fill:#646484;fill-opacity:1;fill-rule:nonzero;stroke:none"
             d="m 6858.9,1206.25 c -19,0 -33.79,5.25 -44.37,15.77 -10.57,10.51 -15.86,25.52 -15.86,45.03 v 74.48 h 30.78 v -73.34 c 0,-23.81 9.87,-35.72 29.64,-35.72 9.63,0 16.97,2.88 22.04,8.64 5.07,5.78 7.59,14.79 7.59,27.08 v 73.34 h 30.41 v -74.48 c 0,-19.51 -5.3,-34.52 -15.86,-45.03 -10.6,-10.52 -25.38,-15.77 -44.37,-15.77" /></g></g></g></g></svg>