<svg viewBox="0 0 711.239 154.818" xmlns="http://www.w3.org/2000/svg"><path d="M70.146 7.92c-16.071 0-31.404 1.668-42.369 20.666V11.544H0v135.355h29.583V77.281c0-25.588 13.123-39.68 36.951-39.68a53.263 53.263 0 019.325.756l1.466.267V7.92z" fill="#f36c34"/><path d="M102.476 85.478c1.047 27.202 14.125 42.114 36.882 42.114 14.65 0 30.344-9.343 30.344-24.939h28.513c0 27.998-29.297 46.65-57.549 46.65-43.683 0-65.657-24.327-65.657-73.244 0-41.327 23.282-68.271 63.565-68.271 40.806 0 61.47 26.418 61.47 77.69zm69.58-17.528c-1.046-25.112-14.649-38.19-34.267-38.19s-33.483 14.126-34.528 38.19zm125.319 77.69c-.787-2.355-2.996-14.91-2.996-18.31-7.584 12.816-24.325 21.974-45.514 21.974-31.389 0-45.254-15.174-45.254-37.147 0-36.36 24.329-41.853 60.166-46.037 20.664-2.616 28.773-5.232 29.557-14.125 0-14.386-9.416-22.757-29.034-22.757-20.928 0-29.56 9.416-30.87 25.896h-25.373c.787-27.728 14.91-47.346 57.288-47.346 41.853 0 55.978 19.096 55.978 53.1 0 0-.565 59.392 0 65.255a177.38 177.38 0 003.257 19.666zm-3.257-66.311c-4.187 4.448-13.6 5.493-30.083 7.848-23.018 3.664-32.96 6.149-32.96 22.103 0 13.341 7.852 20.141 23.806 20.141 20.664 0 37.927-13.864 38.714-33.744zm123.186-27.334c-1.833-16.218-9.942-23.282-30.87-23.282-18.309 0-27.986 4.448-27.986 16.218 0 12.296 8.368 15.174 29.034 19.357 42.115 9.68 59.904 14.91 59.904 43.947 0 23.28-19.618 41.069-57.81 41.069-38.453 0-61.733-18.312-62.52-46.824h28.25c0 12.58 13.342 22.887 34.006 22.887 22.76 0 31.653-8.526 31.653-16.087 0-12.816-13.864-17.003-31.39-20.664-46.823-9.154-57.548-20.402-57.548-43.685 0-20.663 16.741-37.143 55.194-37.143 39.237 0 54.933 16.74 56.24 44.207zm33.212 26.68c0-42.637 25.895-70.887 67.487-70.887 40.805 0 66.442 27.989 66.442 70.887 0 42.375-25.896 70.629-66.442 70.629-42.378 0-67.487-29.038-67.487-70.63zm106.46 0c0-30.866-13.6-47.608-38.973-47.608s-39.237 16.742-39.237 47.608c0 30.605 13.864 47.607 39.237 47.607 25.109 0 38.973-17.002 38.973-47.607zM660.753 7.788c-7.437 0-14.818.941-21.693 3.992-10.046 3.975-17.88 11.25-22.475 23.343V11.449h-26.154v134.19h27.946V76.584c0-24.101 9.548-41.33 35.706-41.33 14.127 0 27.64 9.656 27.64 27.728v82.657h27.2V54.35c0-46.213-48.17-46.562-48.17-46.562z" fill="#fff"/></svg>