<svg xmlns="http://www.w3.org/2000/svg" xmlns:xlink="http://www.w3.org/1999/xlink" id="Capa_1" x="0px" y="0px" width="595.279px" height="841.891px" viewBox="0 0 595.279 841.891" xml:space="preserve">
<path fill="#FFFFFF" d="M190.49,159.021c-85.333,0-154.772,69.439-154.772,154.773v214.301c0,85.333,69.439,154.772,154.772,154.772  H404.79c85.334,0,154.772-69.439,154.772-154.772V313.794c0-85.333-69.438-154.773-154.772-154.773H190.49z M190.49,182.833H404.79  c72.463,0,130.962,58.499,130.962,130.961v214.301c0,72.463-58.499,130.962-130.962,130.962H190.49  c-72.463,0-130.962-58.499-130.962-130.962V313.794C59.528,241.332,118.027,182.833,190.49,182.833z M440.507,254.267  c-13.15,0-23.812,10.661-23.812,23.811c0,13.151,10.661,23.812,23.812,23.812s23.812-10.661,23.812-23.812  C464.319,264.927,453.657,254.267,440.507,254.267z M297.64,289.983c-72.187,0-130.962,58.774-130.962,130.962  s58.775,130.961,130.962,130.961c72.188,0,130.962-58.773,130.962-130.961S369.827,289.983,297.64,289.983z M297.64,313.794  c59.318,0,107.15,47.832,107.15,107.151c0,59.318-47.832,107.15-107.15,107.15s-107.15-47.832-107.15-107.15  C190.49,361.626,238.322,313.794,297.64,313.794z"></path>
</svg>