<?xml version="1.0" encoding="utf-8"?>
<!-- Generator: Adobe Illustrator 21.0.1, SVG Export Plug-In . SVG Version: 6.00 Build 0)  -->
<svg version="1.1" id="Layer_1" xmlns="http://www.w3.org/2000/svg" xmlns:xlink="http://www.w3.org/1999/xlink" x="0px" y="0px"
	 viewBox="0 0 907.8 287.9" style="enable-background:new 0 0 907.8 287.9;" xml:space="preserve">
<style type="text/css">
	.st0{fill:#231F20;}
	.st1{enable-background:new    ;}
</style>
<title>Artboard 1</title>
<path class="st0" d="M846,166.2c4.1,0,9.6-0.6,14-4.4s8-11.3,8-25.6s-3.6-22-8-25.9s-9.9-4.1-14-4.1V166.2z M869.4,279L854,193.7h-8
	V279h-29.7V76.7H846c35.5,0,50.6,20.1,50.6,58.3c0,20.1-5.2,38.2-16.5,46l19,98L869.4,279z M730.4,76.7h68v30.6h-38.2v53.1h27.5
	v32.5h-27.5v55.6h38.2V279h-68V76.7z M651.7,173.6l-2.5-9.4h-1.7V279h-27.2V76.7h26.4l28.9,105.4l2.5,9.4h1.7V76.7H707V279h-26.4
	L651.7,173.6z M567.2,76.7H597V279h-29.8V76.7z M484.7,76.7h29.7v174.8h39.3V279h-69.1V76.7z M413.7,166.2c4.1,0,9.6-0.6,14-4.4
	s8-11.3,8-25.6s-3.6-22-8-25.9s-9.9-4.1-14-4.1V166.2z M437.1,279l-15.4-85.3h-8V279H384V76.7h29.7c35.5,0,50.6,20.1,50.6,58.3
	c0,20.1-5.2,38.2-16.5,46l19,98L437.1,279z M298.1,76.7h68v30.6h-38.3v53.1h27.5v32.5h-27.5v55.6h38.2V279h-68L298.1,76.7z
	 M226.3,249.6c2.5,0,8.3,0.6,13.2-3s8.8-11.6,8.8-28.1s-3.9-24.5-8.8-28.1s-10.7-3-13.2-3V249.6z M226.3,160.1c2.5,0,8.3,0.3,13.2-3
	s8.8-9.9,8.8-23.9s-3.9-20.6-8.8-23.9s-10.7-3-13.2-3V160.1z M196.6,279V76.7h26.1c17.6,0,31.4,3.3,40.5,11.8s13.8,21.7,13.8,41.8
	c0,9.6-0.8,16.8-3.9,23.4s-7.7,12.1-14.6,18.4c7.4,4.1,12.9,11.8,17.3,24.8c2.2,6.3,3.3,14.6,3.3,24.8c0,15.1-2.8,28.6-9.6,39.1
	c-6.9,10.5-18.7,17.3-36.3,18.2H196.6z M116.5,279H87.3L120,172.8l-32.2-96H117l16.2,51.2l0.8,2.5h1.1l0.8-2.5l16.2-51.2h29.2
	l-32.2,96L182,279h-29.2l-17.1-60.3l-0.6-2.5h-1.1l-0.6,2.5L116.5,279z M10.2,76.7h68v30.6H40v53.1h27.5v32.5H40v55.6h38.2V279h-68
	L10.2,76.7z"/>
<g class="st1">
	<path class="st0" d="M9.5,46.1l2.1-0.4c1.6-0.2,2.2-0.5,2.3-0.9l5.4-28.3c0.1-0.5-0.2-0.6-2.3-0.9l-1.6-0.3l-0.1-0.8h14.2
		c8.1,0,11.6,3.2,11.6,7.2c0,4.4-3.9,7.1-10.3,7.7l0.1,0.2c5.5,1,8.8,4,8.8,8.1c0,5.8-5.1,9.3-14.9,9.3H9.4L9.5,46.1z M24.8,45.9
		c4.9-0.1,7.9-4.1,7.9-8.6c0-4.5-3.3-7.5-8-7.5h-1.2l-2.9,15.1l2.6,0.9H24.8z M34.3,21.3c0-3.5-2.3-5.7-6.4-5.8h-1.7l-2.5,13.1
		c0.7,0.2,2.7,0.3,3.1,0.3C31.7,28.9,34.3,25.5,34.3,21.3z"/>
</g>
<g class="st1">
	<path class="st0" d="M42.5,39.5c0-7.5,6.4-16,13.8-16c3.5,0,5.9,1.9,5.9,4.5c0,3.6-4.7,5.5-13.5,7.9c-0.2,1-0.4,2.2-0.4,3.2
		c0,3.2,1.6,5.1,4.3,5.1c2.1,0,4.2-1.2,6.8-4.8l0.5,0.5c-2.7,4.8-6.1,7.7-10,7.7C45.7,47.6,42.5,44.1,42.5,39.5z M57.6,27.7
		c0-1.7-1.2-2.8-2.5-2.8c-0.8,0-1.5,0.4-2.1,0.9c-1.6,1.6-3.4,5.2-4.1,9.1L49,35C54.5,33.2,57.6,31.2,57.6,27.7z"/>
</g>
<g class="st1">
	<path class="st0" d="M65.2,46.8l2.6-8.3l3-11.3L68.6,27l-3.4,4.9l-0.5-0.5c2.1-4.6,5.1-8,7.3-8c1,0,4.4,1.9,4.4,3.4
		c0,1.5-1.6,6.2-3.2,10.6h0.3c2.6-5.3,4.9-10.1,6.5-11.6c1.3-1.7,2.3-2.4,4-2.4c2.2,0.1,4,1.8,3.9,4.1c-0.1,2.2-1.7,3.9-3.5,3.9
		c-2.7-0.1-3.7-3.1-1.7-4.9c0,0-1.3-0.5-1.3-0.5c-1.5,0.8-4,5.2-8.3,13.5L71,47L65.2,46.8z"/>
	<path class="st0" d="M86.4,44.7l7.9-28.8c0.2-0.7,0.1-1.3-0.4-1.3l-3.8-0.5l0.2-0.7l10.5-1.4l-9,31.8l2.2,0.4l3.6-4.6l0.5,0.4
		c-2.3,4.5-5.5,7.6-7.5,7.6C89.6,47.6,86.2,45.7,86.4,44.7z"/>
	<path class="st0" d="M100.6,44.8c0-0.8,5.4-16.1,5.9-17.5l-2.7-0.3l-3.3,4.9l-0.5-0.5c2.1-4.6,5.1-7.9,7.4-7.9
		c1.2,0,4.6,1.8,4.5,3.3c0,1.2-5.3,15.7-5.8,17.1l2.4,0.4l3.6-4.6l0.5,0.4c-2.3,4.5-5.5,7.6-7.5,7.6
		C103.9,47.6,100.5,45.8,100.6,44.8z M108.6,16.7c0-2.3,1.6-4.1,3.3-4.1c2,0,3.3,1.5,3.2,3.2c0,2.4-1.6,4.1-3.3,4.1
		C109.8,19.9,108.6,18.4,108.6,16.7z"/>
	<path class="st0" d="M128.1,44.7c0-1.1,1.5-4.8,3.1-9.1c1-2.7,2.1-5.3,2.1-6.3c0-0.8-1.4-1.7-2.4-1.7c-1.5,0-4.5,4.5-8.9,13.6
		l-1.8,5.8l-5.9-0.2l2.7-8.4l3-11.3l-2.2-0.3l-3.4,4.9l-0.5-0.5c2.1-4.6,5.2-8,7.4-8c1,0,4.3,1.9,4.3,3.4c0,1.5-1.7,7.3-3.4,11.5
		l0.3,0.1c2.7-5.5,5.8-10.9,7.6-12.7c1.2-1.2,3-2.2,4.2-2.2c2.7,0,4.7,1.9,4.7,3.6c0,1.7-1.1,5.1-2.4,8.8c-1,2.5-3,7.8-3.1,8
		l2.3,0.4l3.6-4.6l0.5,0.4c-2.3,4.6-5.5,7.6-7.5,7.6C131.3,47.6,128.1,45.8,128.1,44.7z"/>
	<path class="st0" d="M151.6,44.8c0-0.8,5.4-16.1,5.9-17.5l-2.7-0.3l-3.3,4.9l-0.5-0.5c2.1-4.6,5.1-7.9,7.4-7.9
		c1.2,0,4.6,1.8,4.5,3.3c0,1.2-5.3,15.7-5.8,17.1l2.4,0.4l3.6-4.6l0.5,0.4c-2.3,4.5-5.5,7.6-7.5,7.6
		C154.9,47.6,151.5,45.8,151.6,44.8z M159.6,16.7c0-2.3,1.6-4.1,3.3-4.1c2,0,3.3,1.5,3.2,3.2c0,2.4-1.6,4.1-3.3,4.1
		C160.8,19.9,159.6,18.4,159.6,16.7z"/>
	<path class="st0" d="M179.1,44.7c0-1.1,1.5-4.8,3.1-9.1c1-2.7,2.1-5.3,2.1-6.3c0-0.8-1.4-1.7-2.4-1.7c-1.5,0-4.5,4.5-8.9,13.6
		l-1.8,5.8l-5.9-0.2l2.7-8.4l3-11.3l-2.2-0.3l-3.4,4.9l-0.5-0.5c2.1-4.6,5.2-8,7.4-8c1,0,4.3,1.9,4.3,3.4c0,1.5-1.7,7.3-3.4,11.5
		l0.3,0.1c2.7-5.5,5.8-10.9,7.6-12.7c1.2-1.2,3-2.2,4.2-2.2c2.7,0,4.7,1.9,4.7,3.6c0,1.7-1.1,5.1-2.4,8.8c-1,2.5-3,7.8-3.1,8
		l2.3,0.4l3.6-4.6l0.5,0.4c-2.3,4.6-5.5,7.6-7.5,7.6C182.3,47.6,179.1,45.8,179.1,44.7z"/>
	<path class="st0" d="M200.4,46.1l2.1-0.4c1.6-0.2,2.2-0.5,2.3-0.9l5.4-28.3c0.1-0.5-0.2-0.6-2.3-0.9l-1.6-0.3l-0.1-0.8h25.6
		l-0.2,10.6h-1.3l-0.3-1.7c-1.5-6-3.7-7.9-10.6-7.8h-2.3l-2.7,14.3l1.9-0.1c4.1-0.2,6-1.1,7.2-3.8l0.8-1.7h1.1l-2.7,12.4l-1.1-0.1
		l0.1-1.6c0.2-3.1-1-3.9-5.9-4.1l-1.5-0.1l-2.9,14.8l4.3,0.2c7.2-0.1,10.6-2.8,13.3-8l0.8-1.6h1.3l-3.2,10.6h-27.6L200.4,46.1z"/>
	<path class="st0" d="M247.3,44.7c0-1.1,1.5-4.8,3.1-9.1c1-2.7,2.1-5.3,2.1-6.3c0-0.8-1.4-1.7-2.4-1.7c-1.5,0-4.5,4.5-8.9,13.6
		l-1.8,5.8l-5.9-0.2l2.7-8.4l3-11.3l-2.2-0.3l-3.4,4.9l-0.5-0.5c2.1-4.6,5.2-8,7.4-8c1,0,4.3,1.9,4.3,3.4c0,1.5-1.7,7.3-3.4,11.5
		l0.3,0.1c2.7-5.5,5.8-10.9,7.6-12.7c1.2-1.2,3-2.2,4.2-2.2c2.7,0,4.7,1.9,4.7,3.6c0,1.7-1.1,5.1-2.4,8.8c-1,2.5-3,7.8-3.1,8
		l2.3,0.4l3.6-4.6l0.5,0.4c-2.3,4.6-5.5,7.6-7.5,7.6C250.5,47.6,247.3,45.8,247.3,44.7z"/>
	<path class="st0" d="M255.5,53.7c0-2.7,3.6-5,7.7-6.1v-0.2c-1.7-0.9-3.1-2.2-3.1-3.9c0-2.3,2.9-4.1,5.4-4.8v-0.2
		c-2.1-1.3-3.5-3.7-3.5-6.2c0-4.9,4.9-9,10-8.9c2,0.1,4.1,0.8,5.4,1.7l6.7-0.8l-0.8,3.8l-5.8-1.8l-0.1,0.3c1.6,1.5,2.4,3.3,2.4,5.2
		c0,4.6-4.9,8.2-9.6,8.1c-1.3,0-2.7-0.4-3.8-0.8c-1.3,0.3-2,1.3-2,2.3c0,1.2,1.3,1.6,4.9,2.7l1.8,0.5c4.5,1.3,8.3,3.2,8.3,7.2
		c0,4-5.5,7.9-12.9,7.9C260,59.8,255.5,57.5,255.5,53.7z M275.1,54.3c0-2.1-2.5-3.4-5.8-4.5c-1.7-0.6-3.6-1.1-5.1-1.7
		c-2.3,0.7-3.8,2.5-3.8,4.9c0,3.3,3.1,5.6,8.2,5.6C272.3,58.6,275.1,56.6,275.1,54.3z M271.8,37.8c2.2-2.2,3.2-7,3.2-9.5
		c0.1-2-1.1-3.5-2.7-3.5c-0.8,0-1.4,0.4-2,0.9c-2,2.1-3.2,6.8-3.3,9.4c0,1.3,0.4,2.7,0.9,3.3c0.4,0.3,0.9,0.6,1.4,0.6
		C270.2,39,271.1,38.5,271.8,37.8z"/>
	<path class="st0" d="M282.1,44.7l7.9-28.8c0.2-0.7,0.1-1.3-0.4-1.3l-3.8-0.5l0.2-0.7l10.5-1.4l-9,31.8l2.2,0.4l3.6-4.6l0.5,0.4
		c-2.3,4.5-5.5,7.6-7.5,7.6C285.3,47.6,281.9,45.7,282.1,44.7z"/>
	<path class="st0" d="M296.3,44.8c0-0.8,5.4-16.1,5.9-17.5l-2.7-0.3l-3.3,4.9l-0.5-0.5c2.1-4.6,5.1-7.9,7.4-7.9
		c1.2,0,4.6,1.8,4.5,3.3c0,1.2-5.3,15.7-5.8,17.1l2.4,0.4l3.6-4.6l0.5,0.4c-2.3,4.5-5.5,7.6-7.5,7.6
		C299.6,47.6,296.3,45.8,296.3,44.8z M304.3,16.7c0-2.3,1.6-4.1,3.3-4.1c2,0,3.3,1.5,3.2,3.2c0,2.4-1.6,4.1-3.3,4.1
		C305.5,19.9,304.3,18.4,304.3,16.7z"/>
	<path class="st0" d="M308.7,42.8c0-1.9,1.2-3.4,3.1-3.4c1.5,0,2.5,1.2,2.5,2.6c0,0.9-0.5,1.9-1.3,2.5c0.6,0.6,2.6,1.9,4.5,2
		c2.1-0.2,3.4-2.2,3.4-3.8c0-2-2.4-3.7-4.5-5.6c-2.5-2.3-4.4-4.1-4.4-6.7c0-4.1,4.2-6.9,8.5-6.9c3.5,0,6.9,1.4,6.9,4.4
		c0,2-1.2,3.3-3,3.3c-1.6,0-2.7-1.3-2.7-2.8c0-0.9,0.7-1.8,1.3-2.2c-0.6-0.5-1.7-1.6-3.5-1.6c-1.9,0.2-3.2,2.2-3.2,3.7
		c-0.1,1.9,2.4,3.7,4.3,5.3c2.1,2,4.6,4.3,4.6,7c-0.1,4-4.5,7.1-9.1,7.1C312.3,47.6,308.7,46,308.7,42.8z"/>
	<path class="st0" d="M341.1,44.7c0-1.1,1.5-4.7,3.1-9.1c1-2.7,2.2-5.3,2.2-6.3c0-0.8-1.4-1.7-2.5-1.7c-1.4,0-4.5,4.4-8.8,13.6
		l-1.8,5.8l-5.9-0.2c0.1-0.2,2.3-7.2,2.7-8.3c1-3.1,6.4-22.7,6.4-22.7c0.2-0.7,0.1-1.3-0.4-1.3l-3.8-0.5l0.2-0.7l10.6-1.4l-1.6,5.9
		c-2.4,8.3-4.9,16.8-6.4,20.5l0.4,0.1c2.7-5.6,5.8-10.9,7.6-12.8c1.2-1.2,3-2.1,4.2-2.1c2.7,0,4.7,1.9,4.7,3.6
		c0,1.7-1.1,5.1-2.5,8.7l-3.1,8l2.3,0.4l3.6-4.6l0.5,0.4c-2.3,4.5-5.6,7.6-7.6,7.6C344.2,47.6,341.1,45.8,341.1,44.7z"/>
	<path class="st0" d="M362.8,42.8c0-1.9,1.2-3.4,3.1-3.4c1.5,0,2.5,1.2,2.5,2.6c0,0.9-0.5,1.9-1.3,2.5c0.6,0.6,2.6,1.9,4.5,2
		c2.1-0.2,3.4-2.2,3.4-3.8c0-2-2.4-3.7-4.5-5.6c-2.5-2.3-4.4-4.1-4.4-6.7c0-4.1,4.2-6.9,8.5-6.9c3.5,0,7,1.4,7,4.4
		c0,2-1.2,3.3-3,3.3c-1.6,0-2.7-1.3-2.7-2.8c0-0.9,0.7-1.8,1.3-2.2c-0.6-0.5-1.7-1.6-3.5-1.6c-1.9,0.2-3.2,2.2-3.2,3.7
		c-0.1,1.9,2.4,3.7,4.3,5.3c2.1,2,4.6,4.3,4.6,7c-0.1,4-4.5,7.1-9.1,7.1C366.4,47.6,362.8,46,362.8,42.8z"/>
	<path class="st0" d="M383.3,44.8c0-0.8,5.4-16.1,5.9-17.5l-2.7-0.3l-3.3,4.9l-0.5-0.5c2.1-4.6,5.1-7.9,7.4-7.9
		c1.2,0,4.6,1.8,4.5,3.3c0,1.2-5.3,15.7-5.8,17.1l2.4,0.4l3.6-4.6l0.5,0.4c-2.3,4.5-5.5,7.6-7.5,7.6
		C386.6,47.6,383.2,45.8,383.3,44.8z M391.3,16.7c0-2.3,1.6-4.1,3.3-4.1c2,0,3.3,1.5,3.2,3.2c0,2.4-1.6,4.1-3.3,4.1
		C392.5,19.9,391.3,18.4,391.3,16.7z"/>
	<path class="st0" d="M410.8,44.7c0-1.1,1.5-4.8,3.1-9.1c1-2.7,2.1-5.3,2.1-6.3c0-0.8-1.4-1.7-2.4-1.7c-1.5,0-4.5,4.5-8.9,13.6
		l-1.8,5.8l-5.9-0.2l2.7-8.4l3-11.3l-2.2-0.3l-3.4,4.9l-0.5-0.5c2.1-4.6,5.2-8,7.4-8c1,0,4.3,1.9,4.3,3.4c0,1.5-1.7,7.3-3.4,11.5
		l0.3,0.1c2.7-5.5,5.8-10.9,7.6-12.7c1.2-1.2,3-2.2,4.2-2.2c2.7,0,4.7,1.9,4.7,3.6c0,1.7-1.1,5.1-2.4,8.8c-1,2.5-3,7.8-3.1,8
		l2.3,0.4l3.6-4.6l0.5,0.4c-2.3,4.6-5.5,7.6-7.5,7.6C414,47.6,410.8,45.8,410.8,44.7z"/>
	<path class="st0" d="M424.2,39.5c0-7.4,6.2-16,14.1-16c3.1,0,5.8,1.8,5.8,4.4c0,2.1-1.5,3.7-3.2,3.7c-1.7,0-3-1.2-3-2.7
		c0-1.2,0.8-2.5,1.8-3c-0.7-0.5-1.6-1.1-2.6-1.1c-0.8,0-1.6,0.6-2.5,1.4c-2.2,2.2-4.5,7.9-4.5,12.7c0,3.4,1.5,5.3,4,5.3
		c2.1,0,3.9-1.2,6.5-4.8l0.5,0.5c-2.7,4.8-5.8,7.7-9.6,7.7C427.3,47.6,424.2,44.1,424.2,39.5z"/>
	<path class="st0" d="M444.1,39.5c0-7.5,6.4-16,13.8-16c3.5,0,5.9,1.9,5.9,4.5c0,3.6-4.7,5.5-13.5,7.9c-0.2,1-0.4,2.2-0.4,3.2
		c0,3.2,1.6,5.1,4.3,5.1c2.1,0,4.2-1.2,6.8-4.8l0.5,0.5c-2.7,4.8-6.1,7.7-10,7.7C447.2,47.6,444.1,44.1,444.1,39.5z M459.1,27.7
		c0-1.7-1.2-2.8-2.5-2.8c-0.8,0-1.5,0.4-2.1,0.9c-1.6,1.6-3.4,5.2-4.1,9.1l0.2,0.1C456,33.2,459.1,31.2,459.1,27.7z"/>
	<path class="st0" d="M472.4,44.8c11.4-7.4,15.4-10.4,15.4-14.6c0.1-3.1-1.9-5.1-5.1-5.2c-2.2,0-4.2,1.1-6.1,3.3l-0.4-0.6
		c2.7-3.8,6.4-6.3,10.6-6.3c4.4,0.1,7.5,2.8,7.4,6.5c-0.1,5.2-6.1,8.1-16.2,14.3l-0.1,0.2h9.8c3.3,0,4.8-1.3,7.3-5.2l0.6-1l0.9,0.1
		l-4.4,10.7h-19.8L472.4,44.8z"/>
	<path class="st0" d="M499.2,36.2c0-8,6-14.8,13.5-14.8c6.7,0,11.2,4.7,11.2,11.4c0,8.1-6,14.8-13.4,14.8
		C503.7,47.6,499.2,42.9,499.2,36.2z M518,29.2c0-4.3-1.8-6.7-4.8-6.7c-4.8,0-8.2,9.7-8.2,17.5c0,4.3,1.6,6.4,4.7,6.4
		C514.5,46.5,518,37,518,29.2z"/>
	<path class="st0" d="M527.3,36.2c0-8,6-14.8,13.5-14.8c6.7,0,11.2,4.7,11.2,11.4c0,8.1-6,14.8-13.4,14.8
		C531.8,47.6,527.3,42.9,527.3,36.2z M546.1,29.2c0-4.3-1.8-6.7-4.8-6.7c-4.8,0-8.2,9.7-8.2,17.5c0,4.3,1.6,6.4,4.7,6.4
		C542.6,46.5,546.1,37,546.1,29.2z"/>
	<path class="st0" d="M552.1,44.8c11.4-7.4,15.4-10.4,15.4-14.6c0.1-3.1-1.9-5.1-5.1-5.2c-2.2,0-4.2,1.1-6.1,3.3l-0.4-0.6
		c2.7-3.8,6.4-6.3,10.6-6.3c4.4,0.1,7.5,2.8,7.4,6.5c-0.1,5.2-6.1,8.1-16.2,14.3l-0.1,0.2h9.8c3.3,0,4.8-1.3,7.3-5.2l0.6-1l0.9,0.1
		l-4.4,10.7H552L552.1,44.8z"/>
</g>
</svg>
