<?xml version="1.0" encoding="utf-8"?>
<!-- Generator: Adobe Illustrator 25.2.1, SVG Export Plug-In . SVG Version: 6.00 Build 0)  -->
<svg version="1.1" id="Layer_1" xmlns="http://www.w3.org/2000/svg" xmlns:xlink="http://www.w3.org/1999/xlink" x="0px" y="0px"
	 width="118.7px" height="88px" viewBox="0 0 118.7 88" style="enable-background:new 0 0 118.7 88;" xml:space="preserve">
<g>
	<rect x="-100.7" y="183.4" style="fill:#FFFFFF;" width="56.5" height="19.3"/>
	<path style="fill:#1376A4;" d="M-43.6,149.3H-101l0,54h57.4L-43.6,149.3z M-100.1,202.3l0-17.6h55.6v17.6H-100.1z"/>
	<g>
		<path style="fill:#1376A4;" d="M-94,199.8l-2.7-11.6h1.5l1.6,7.5c0.3,1.4,0.3,1.6,0.4,2.3c0-0.2,0-0.3,0.1-0.4l0.1-0.6
			c0.1-0.4,0.2-1.1,0.2-1.3l1.7-7.5h1.9l1.7,7.2c0.1,0.6,0.4,2,0.4,2.5c0.1-1,0.3-2,0.4-2.5l1.6-7.2h1.5l-2.7,11.6h-1.6l-1.8-7.8
			c-0.2-1.1-0.4-1.7-0.4-2.3c-0.1,0.7-0.2,1.3-0.4,2.3l-1.8,7.8H-94z"/>
		<path style="fill:#1376A4;" d="M-75.7,199.8l-2.5-6.9c-0.3-0.9-0.5-1.6-0.7-2.4c0,0.9,0.1,1.8,0.1,2.5v6.8h-1.4v-11.6h1.9l2.6,7.4
			c0.3,1,0.4,1.1,0.6,2c0.3-1,0.4-1.4,0.6-2l2.6-7.4h1.9v11.5h-1.4V193c0-0.8,0-1.6,0.1-2.5c-0.3,0.9-0.4,1.6-0.8,2.5l-2.4,6.8
			H-75.7z"/>
		<path style="fill:#1376A4;" d="M-58.4,189.6h-5.6v3.5h4.7v1.4h-4.7v5.3h-1.5v-11.6h7.2V189.6z"/>
		<path style="fill:#1376A4;" d="M-52.3,199.8l-3.7-11.6h1.6l2.3,7.5c0.3,1,0.4,1.2,0.7,2.5c0.3-1.2,0.4-1.7,0.7-2.5l2.2-7.5h1.6
			l-3.7,11.6H-52.3z"/>
	</g>
	<g>
		<rect x="-167.7" y="183.4" style="fill:#FFFFFF;" width="56.5" height="19.3"/>
		<path style="fill:#1376A4;" d="M-110.5,149.3h-57.4l0,54h57.4L-110.5,149.3z M-167,202.3l0-17.6h55.6v17.6H-167z"/>
		<path style="fill:#FFFFFF;" d="M-158.5,175.2c0.3,0.5,0.9,0.8,1.7,0.8c0.7,0,1.2-0.2,1.6-0.5c0.4-0.3,0.7-0.7,0.9-1.3
			c0.2-0.6,0.4-1.2,0.4-2c0.1-0.8,0.1-1.6,0.1-2.5v-1.2h-0.1c-0.4,0.6-1,1.1-1.8,1.5c-0.8,0.4-1.7,0.6-2.8,0.6c-1.1,0-2-0.2-2.7-0.6
			c-0.7-0.4-1.4-0.9-1.8-1.6c-0.5-0.7-0.8-1.5-1-2.4c-0.2-0.9-0.3-2-0.3-3.1c0-2.9,0.6-5,1.9-6.5c1.2-1.5,3.2-2.3,5.9-2.3
			c1.7,0,3,0.3,4,1c1,0.6,1.8,1.5,2.3,2.5c0.5,1.1,0.9,2.3,1,3.7c0.2,1.4,0.2,2.8,0.2,4.4c0,1.8-0.1,3.5-0.2,5.1
			c-0.1,1.6-0.4,3.1-0.9,4.3c-0.5,1.3-1.3,2.2-2.4,3c-1.1,0.7-2.6,1.1-4.6,1.1c-0.9,0-1.7-0.1-2.5-0.3c-0.8-0.2-1.5-0.5-2.1-1
			c-0.6-0.5-1.1-1.1-1.5-1.9c-0.4-0.8-0.6-1.8-0.6-3h4.7C-159,174-158.8,174.7-158.5,175.2 M-158.7,165.9c0.4,0.7,1.1,1.1,2,1.1
			c1,0,1.7-0.4,2.1-1.1c0.4-0.7,0.6-1.9,0.6-3.6c0-0.7,0-1.3-0.1-2c-0.1-0.6-0.2-1.1-0.4-1.6c-0.2-0.4-0.5-0.8-0.8-1
			c-0.4-0.2-0.8-0.4-1.4-0.4c-0.6,0-1.1,0.1-1.4,0.4c-0.4,0.2-0.6,0.6-0.8,1c-0.2,0.4-0.3,1-0.4,1.5c-0.1,0.6-0.1,1.2-0.1,1.9
			C-159.4,164-159.1,165.2-158.7,165.9"/>
		<path style="fill:#FFFFFF;" d="M-114.8,158.5c-1,1.4-1.9,3-2.7,4.6c-0.8,1.6-1.5,3.3-2.1,5.1c-0.6,1.7-1.1,3.5-1.5,5.3
			c-0.4,1.8-0.7,3.6-0.9,5.3h-5.1c0.2-1.5,0.5-3,0.8-4.7c0.4-1.6,0.8-3.3,1.4-5c0.6-1.7,1.3-3.4,2.2-5.1c0.9-1.7,1.9-3.4,3.1-5.1
			h-10.1v-4.3h14.8V158.5z"/>
		<polygon style="fill:#1376A4;stroke:#1376A4;stroke-width:0.5;" points="-154.1,197.1 -156.3,188 -158,188 -160.1,197.1 
			-162.3,188 -163.9,188 -163.9,188.3 -161,199.5 -159.2,199.5 -157.1,190.5 -155.1,199.5 -153.2,199.5 -150.3,188 -152,188 		"/>
		<polygon style="fill:#1376A4;stroke:#1376A4;stroke-width:0.5;" points="-141.3,197.4 -144.4,188 -146.8,188 -146.8,188.3 
			-146.8,199.5 -145.2,199.5 -145.2,190.4 -142.1,199.5 -140.8,199.5 -140.7,199.5 -137.5,190.4 -137.5,199.5 -135.9,199.5 
			-135.9,188 -138.2,188 		"/>
		<polygon style="fill:#1376A4;stroke:#1376A4;stroke-width:0.5;" points="-131.5,188.3 -131.5,199.5 -129.9,199.5 -129.9,194.1 
			-124.9,194.1 -124.9,193.1 -124.9,192.9 -129.9,192.9 -129.9,189.3 -124.5,189.3 -124.5,188.3 -124.5,188 -131.5,188 		"/>
		<polygon style="fill:#1376A4;stroke:#1376A4;stroke-width:0.5;" points="-119.4,198.2 -119.4,194.1 -114.3,194.1 -114.3,193.1 
			-114.3,192.9 -119.4,192.9 -119.4,189.3 -113.9,189.3 -113.9,188.3 -113.9,188 -121,188 -121,188.3 -121,199.5 -113.8,199.5 
			-113.8,198.4 -113.8,198.2 		"/>
		<path style="fill:#FFFFFF;" d="M-128.3,176.8c0,1.2-1,2.3-2.2,2.3c-1.2,0-2.2-1-2.2-2.3c0-1.2,1-2.3,2.2-2.3
			C-129.3,174.5-128.3,175.5-128.3,176.8"/>
		<path style="fill:#FFFFFF;" d="M-133.4,160.6c-0.2-1.5-0.6-2.8-1.2-3.7c-0.6-1-1.3-1.6-2.3-2.1c-1-0.4-2.2-0.6-3.7-0.6
			c-1.8,0-3.2,0.4-4.2,1.1c-1,0.7-1.8,1.7-2.3,2.9c-0.5,1.2-0.8,2.6-0.9,4.2c-0.1,1.6-0.2,3.2-0.2,4.9c0,2.2,0.1,4,0.4,5.6
			c0.2,1.5,0.6,2.8,1.2,3.7c0.6,1,1.4,1.6,2.3,2c1,0.4,2.2,0.6,3.6,0.6c1.8,0,3.2-0.3,4.2-1c1-0.7,1.8-1.7,2.3-2.9
			c0.5-1.2,0.8-2.6,0.9-4.2c0.1-1.6,0.2-3.2,0.2-4.9C-133,163.9-133.1,162.1-133.4,160.6z M-137.9,167.7c0,1.6,0,2.9-0.1,4
			c-0.1,1.1-0.2,1.9-0.4,2.6c-0.2,0.6-0.5,1.1-0.8,1.4c-0.3,0.3-0.8,0.4-1.3,0.4c-0.5,0-1-0.1-1.3-0.3c-0.3-0.2-0.6-0.6-0.8-1.2
			c-0.2-0.6-0.3-1.3-0.4-2.3c-0.1-1-0.1-2.3-0.1-3.8v-2.7c0-1.6,0-2.9,0.1-4c0.1-1.1,0.2-1.9,0.4-2.6c0.2-0.6,0.5-1.1,0.8-1.4
			c0.3-0.3,0.8-0.4,1.3-0.4c0.5,0,1,0.1,1.3,0.3c0.3,0.2,0.6,0.6,0.8,1.2c0.2,0.6,0.3,1.3,0.4,2.3c0.1,1,0.1,2.3,0.1,3.8V167.7z"/>
	</g>
	<g>
		<path style="fill:#FFFFFF;" d="M-75.5,175.2c0.3,0.5,0.9,0.8,1.7,0.8c0.7,0,1.2-0.2,1.6-0.5c0.4-0.3,0.7-0.7,0.9-1.3
			c0.2-0.6,0.4-1.2,0.4-2c0.1-0.8,0.1-1.6,0.1-2.5v-1.2h-0.1c-0.4,0.6-1,1.1-1.8,1.5c-0.8,0.4-1.7,0.6-2.8,0.6c-1.1,0-2-0.2-2.7-0.6
			c-0.7-0.4-1.4-0.9-1.8-1.6c-0.5-0.7-0.8-1.5-1-2.4c-0.2-0.9-0.3-2-0.3-3.1c0-2.9,0.6-5,1.9-6.5c1.2-1.5,3.2-2.3,5.9-2.3
			c1.7,0,3,0.3,4,1c1,0.6,1.8,1.5,2.3,2.5c0.5,1.1,0.9,2.3,1,3.7c0.2,1.4,0.2,2.8,0.2,4.4c0,1.8-0.1,3.5-0.2,5.1
			c-0.1,1.6-0.4,3.1-0.9,4.3c-0.5,1.3-1.3,2.2-2.4,3c-1.1,0.7-2.6,1.1-4.6,1.1c-0.9,0-1.7-0.1-2.5-0.3c-0.8-0.2-1.5-0.5-2.1-1
			c-0.6-0.5-1.1-1.1-1.5-1.9c-0.4-0.8-0.6-1.8-0.6-3h4.7C-76,174-75.9,174.7-75.5,175.2 M-75.8,165.9c0.4,0.7,1.1,1.1,2,1.1
			c1,0,1.7-0.4,2.1-1.1c0.4-0.7,0.6-1.9,0.6-3.6c0-0.7,0-1.3-0.1-2c-0.1-0.6-0.2-1.1-0.4-1.6c-0.2-0.4-0.5-0.8-0.8-1
			c-0.4-0.2-0.8-0.4-1.4-0.4c-0.6,0-1.1,0.1-1.4,0.4c-0.4,0.2-0.6,0.6-0.8,1c-0.2,0.4-0.3,1-0.4,1.5c-0.1,0.6-0.1,1.2-0.1,1.9
			C-76.4,164-76.2,165.2-75.8,165.9"/>
		<path style="fill:#FFFFFF;" d="M-62,176.8c0,1.2-1,2.3-2.2,2.3c-1.2,0-2.2-1-2.2-2.3c0-1.2,1-2.3,2.2-2.3
			C-63,174.5-62,175.5-62,176.8"/>
		<path style="fill:#FFFFFF;" d="M-81.9,171.7c0,4.5-3.1,7.5-7.7,7.5c-4.6,0-7.8-3.1-7.8-7.5c0-2.8,1.2-4.8,3.6-6.1c-2-1-3-2.7-3-5
			c0-3.8,2.9-6.4,7.1-6.4c4.1,0,7.1,2.7,7.1,6.4c0,2.3-1,4-3,5C-83.2,166.9-81.9,168.9-81.9,171.7z M-93,171.4
			c0,2.2,1.4,3.8,3.3,3.8c1.9,0,3.3-1.6,3.3-3.7c0-2.2-1.3-3.8-3.3-3.8C-91.6,167.7-93,169.2-93,171.4z M-92.3,161
			c0,1.7,1.1,2.9,2.6,2.9c1.5,0,2.6-1.2,2.6-2.8c0-1.8-1-2.9-2.6-2.9C-91.3,158.2-92.3,159.3-92.3,161z"/>
		<path style="fill:#FFFFFF;" d="M-57,163.1c1.2-0.5,2.2-0.7,3.5-0.7c4.5,0,7.4,3.2,7.4,8.2c0,5.3-3.2,8.7-8.2,8.7
			c-4.6,0-7.4-2.7-7.9-7.5h4.9c0.2,2,1.3,3.1,3,3.1c2,0,3.3-1.7,3.3-4.3c0-2.5-1.2-4-3.2-4c-1,0-1.8,0.4-2.6,1.2h-4.7l1.4-13.6h12.9
			v4.4h-9.3L-57,163.1z"/>
	</g>
</g>
<g>
	<polygon style="fill:#DA242B;" points="-118.2,234.7 -118.2,211 -142.9,211 -142.9,234.7 -118.2,234.7 	"/>
	<polygon points="-93,234.7 -93,211 -118.2,211 -118.2,234.7 -93,234.7 	"/>
	<polygon style="fill:#1F7FC2;" points="-68.7,234.7 -68.7,211 -93,211 -93,234.7 -68.7,234.7 	"/>
	<path style="fill:#FFFFFF;" d="M-128.1,229.4V222c0-1.1-0.2-1.9-0.6-2.4c-0.4-0.5-1.1-0.8-2.1-0.8c-0.4,0-0.9,0.1-1.4,0.4
		c-0.5,0.2-0.9,0.6-1.2,0.9v9.3h-3v-12.9h2.2l0.6,1.2c0.8-0.9,2-1.4,3.6-1.4c1.5,0,2.7,0.5,3.6,1.4c0.9,0.9,1.3,2.2,1.3,3.8v7.9
		H-128.1L-128.1,229.4z"/>
	<path style="fill:#FFFFFF;" d="M-105.9,229.7c2,0,3.5-0.6,4.7-1.7c1.1-1.1,1.7-2.8,1.7-4.9c0-4.5-2.1-6.8-6.2-6.8
		c-1.1,0-2,0.4-2.8,1.1v-0.9h-3v16.3h3v-3.7C-107.7,229.5-106.8,229.7-105.9,229.7L-105.9,229.7z M-106.5,218.9c1.4,0,2.4,0.3,3,0.9
		c0.6,0.6,0.9,1.7,0.9,3.2c0,1.4-0.3,2.5-0.9,3.1c-0.6,0.7-1.6,1-3,1c-0.7,0-1.4-0.2-1.9-0.7v-6.8
		C-107.9,219.2-107.3,218.9-106.5,218.9L-106.5,218.9z"/>
	<path style="fill:#FFFFFF;" d="M-77.1,219.4c-0.5-0.3-1.1-0.5-1.8-0.5c-0.7,0-1.3,0.3-1.9,0.9c-0.5,0.6-0.8,1.4-0.8,2.3v7.3h-3
		v-12.9h3v1.2c0.8-1,2-1.4,3.3-1.4c1,0,1.8,0.2,2.3,0.5L-77.1,219.4L-77.1,219.4z"/>
	<path style="fill:#FFFFFF;" d="M-144.4,209.4v26.8h77.3v-26.8H-144.4z M-142.8,234.7V211h74.1v23.7H-142.8z"/>
</g>
<g>
	<g>
		<rect x="0.3" y="32.6" style="fill:#FFFFFF;" width="53.9" height="18.4"/>
		<path style="fill:#1376A4;" d="M54.8,0H0v51.5h54.8V0z M0.9,50.7V33.9h53.1v16.8H0.9z"/>
		<path style="fill:#FFFFFF;" d="M9,24.8c0.3,0.5,0.9,0.7,1.6,0.7c0.6,0,1.1-0.2,1.5-0.4c0.4-0.3,0.7-0.7,0.9-1.2
			c0.2-0.5,0.3-1.2,0.4-1.9c0.1-0.7,0.1-1.5,0.1-2.4v-1.1h-0.1c-0.4,0.6-0.9,1.1-1.7,1.4s-1.6,0.5-2.6,0.5c-1,0-1.9-0.2-2.6-0.5
			c-0.7-0.4-1.3-0.9-1.7-1.5c-0.4-0.7-0.8-1.4-1-2.3c-0.2-0.9-0.3-1.9-0.3-2.9c0-2.7,0.6-4.8,1.8-6.2C6.5,5.4,8.4,4.7,11,4.7
			c1.6,0,2.9,0.3,3.8,0.9C15.7,6.2,16.5,7,17,8s0.8,2.2,1,3.5c0.2,1.3,0.2,2.7,0.2,4.2c0,1.7,0,3.3-0.1,4.9
			c-0.1,1.6-0.4,2.9-0.9,4.1c-0.5,1.2-1.3,2.1-2.3,2.8c-1,0.7-2.5,1-4.4,1c-0.8,0-1.6-0.1-2.4-0.3c-0.8-0.2-1.4-0.5-2-0.9
			S5,26.3,4.6,25.6c-0.4-0.8-0.5-1.7-0.6-2.8h4.5C8.6,23.6,8.7,24.3,9,24.8 M8.8,15.9c0.4,0.7,1,1,1.9,1c0.9,0,1.6-0.3,2-1
			c0.4-0.7,0.6-1.8,0.6-3.4c0-0.7,0-1.3-0.1-1.9C13.1,10,13,9.5,12.8,9.1c-0.2-0.4-0.4-0.7-0.8-1c-0.3-0.2-0.8-0.3-1.3-0.3
			c-0.6,0-1,0.1-1.3,0.3c-0.3,0.2-0.6,0.6-0.8,1c-0.2,0.4-0.3,0.9-0.3,1.5c-0.1,0.6-0.1,1.2-0.1,1.8C8.2,14.1,8.4,15.2,8.8,15.9"/>
		<path style="fill:#FFFFFF;" d="M50.7,8.8c-1,1.4-1.8,2.8-2.6,4.4c-0.7,1.6-1.4,3.2-2,4.9c-0.6,1.7-1,3.4-1.4,5.1
			c-0.4,1.7-0.6,3.4-0.8,5.1h-4.9c0.2-1.4,0.4-2.9,0.8-4.5c0.3-1.6,0.8-3.2,1.4-4.8c0.6-1.6,1.3-3.2,2.1-4.9s1.8-3.2,2.9-4.8h-9.7
			V5.2h14.2C50.7,5.2,50.7,8.8,50.7,8.8z"/>
		<polygon style="fill:#1376A4;stroke:#1376A4;stroke-width:0.5;" points="13.2,45.7 11.1,37 9.5,37 7.5,45.7 5.4,37 3.8,37 
			3.9,37.3 6.6,47.9 8.4,47.9 10.3,39.4 12.3,47.9 14,47.9 16.8,37 15.3,37 		"/>
		<polygon style="fill:#1376A4;stroke:#1376A4;stroke-width:0.5;" points="25.4,45.9 22.5,37 20.1,37 20.1,37.3 20.1,47.9 
			21.7,47.9 21.7,39.2 24.7,47.9 25.9,47.9 26,47.9 29,39.3 29,47.9 30.5,47.9 30.5,37 28.3,37 		"/>
		<polygon style="fill:#1376A4;stroke:#1376A4;stroke-width:0.5;" points="34.7,37.3 34.7,47.9 36.3,47.9 36.3,42.9 41.1,42.9 
			41.1,41.9 41.1,41.6 36.3,41.6 36.3,38.3 41.4,38.3 41.4,37.3 41.4,37 34.7,37 		"/>
		<polygon style="fill:#1376A4;stroke:#1376A4;stroke-width:0.5;" points="46.4,46.7 46.4,42.9 51.2,42.9 51.2,41.9 51.2,41.6 
			46.4,41.6 46.4,38.3 51.5,38.3 51.5,37.3 51.5,37 44.8,37 44.8,37.3 44.8,47.9 51.7,47.9 51.7,46.9 51.7,46.7 		"/>
		<path style="fill:#FFFFFF;" d="M37.8,26.3c0,1.2-0.9,2.2-2.1,2.2c-1.2,0-2.1-1-2.1-2.2s0.9-2.2,2.1-2.2
			C36.9,24.1,37.8,25.1,37.8,26.3"/>
		<path style="fill:#FFFFFF;" d="M33,10.8c-0.2-1.5-0.6-2.6-1.2-3.5c-0.6-0.9-1.3-1.6-2.2-2s-2.1-0.6-3.5-0.6c-1.7,0-3,0.3-4,1
			c-1,0.7-1.7,1.6-2.2,2.8c-0.5,1.2-0.8,2.5-0.9,4c-0.1,1.5-0.2,3.1-0.2,4.7c0,2.1,0.1,3.8,0.3,5.3c0.2,1.5,0.6,2.6,1.2,3.5
			c0.6,0.9,1.3,1.5,2.2,1.9c0.9,0.4,2.1,0.6,3.5,0.6c1.7,0,3-0.3,4-1s1.7-1.6,2.2-2.7s0.8-2.5,0.9-4c0.1-1.5,0.2-3.1,0.2-4.7
			C33.3,14,33.2,12.3,33,10.8z M28.7,17.7c0,1.5,0,2.8-0.1,3.8c-0.1,1-0.2,1.8-0.4,2.4c-0.2,0.6-0.4,1-0.8,1.3
			c-0.3,0.3-0.7,0.4-1.3,0.4c-0.5,0-0.9-0.1-1.2-0.3c-0.3-0.2-0.6-0.6-0.8-1.1c-0.2-0.5-0.3-1.3-0.4-2.2c-0.1-0.9-0.1-2.2-0.1-3.6
			v-2.6c0-1.5,0-2.8,0.1-3.8c0.1-1,0.2-1.8,0.4-2.4s0.4-1,0.8-1.3c0.3-0.3,0.7-0.4,1.3-0.4c0.5,0,0.9,0.1,1.2,0.3
			c0.3,0.2,0.6,0.6,0.8,1.1c0.2,0.5,0.3,1.3,0.4,2.2c0.1,0.9,0.1,2.2,0.1,3.6V17.7z"/>
	</g>
	<g>
		<rect x="64.2" y="32.6" style="fill:#FFFFFF;" width="53.9" height="18.4"/>
		<path style="fill:#1376A4;" d="M118.6,0H63.9v51.5h54.8V0z M64.7,50.7V33.9h53.1v16.8H64.7z"/>
		<g>
			<path style="fill:#1376A4;" d="M77.3,44c0,0.2-0.1,0.5-0.1,0.8C77.1,44.5,77,44.2,77,44l-1.7-7.1h-2.2l-1.6,7.3l-0.1,0.4
				c0,0.1,0,0.1,0,0.2c0-0.2-0.1-0.3-0.1-0.6l-1.6-7.3h-2l2.7,11.6h1.9l1.8-7.7c0.1-0.3,0.1-0.5,0.1-0.7c0,0.1,0,0.2,0.1,0.3
				l1.9,8.1h1.9l2.7-11.6h-2L77.3,44z"/>
			<path style="fill:#1376A4;" d="M91.5,37l-2.6,7.2c-0.1,0.4-0.2,0.6-0.3,1.1c-0.1-0.2-0.1-0.4-0.2-0.7l-2.7-7.7h-2.2v11.6h1.9
				v-6.8c0-0.1,0-0.2,0-0.3c0,0.1,0.1,0.2,0.1,0.2l2.4,6.8h1.5l2.4-6.7c0-0.1,0.1-0.3,0.1-0.4c0,0.1,0,0.2,0,0.3v6.8h1.9V37h-1.2
				H91.5z"/>
			<polygon style="fill:#1376A4;" points="97.4,48.5 99.4,48.5 99.4,43.5 103.9,43.5 103.9,41.6 99.4,41.6 99.4,38.8 104.8,38.8 
				104.8,36.9 97.4,36.9 			"/>
			<path style="fill:#1376A4;" d="M113.7,36.9l-2.2,7.4l0,0.1c-0.1,0.4-0.2,0.8-0.3,1.2c-0.1-0.5-0.2-0.8-0.4-1.3l-2.2-7.4h-2.1
				l3.7,11.4l0.1,0.2h2l3.7-11.6H113.7z"/>
		</g>
		<g>
			<path style="fill:#FFFFFF;" d="M88.2,24.8c0.3,0.5,0.9,0.7,1.6,0.7c0.6,0,1.1-0.2,1.5-0.4c0.4-0.3,0.7-0.7,0.9-1.2
				c0.2-0.5,0.3-1.2,0.4-1.9c0.1-0.7,0.1-1.5,0.1-2.4v-1.1h-0.1c-0.4,0.6-0.9,1.1-1.7,1.4c-0.7,0.4-1.6,0.5-2.6,0.5
				c-1,0-1.9-0.2-2.6-0.5C85,19.5,84.4,19,84,18.4c-0.4-0.7-0.8-1.4-1-2.3c-0.2-0.9-0.3-1.9-0.3-2.9c0-2.7,0.6-4.8,1.8-6.2
				c1.2-1.4,3.1-2.2,5.7-2.2C91.7,4.7,93,5,94,5.6C94.9,6.2,95.6,7,96.1,8c0.5,1,0.8,2.2,1,3.5c0.2,1.3,0.2,2.7,0.2,4.2
				c0,1.7,0,3.3-0.1,4.9c-0.1,1.6-0.4,2.9-0.9,4.1c-0.5,1.2-1.3,2.1-2.3,2.8c-1,0.7-2.5,1-4.4,1c-0.8,0-1.6-0.1-2.4-0.3
				c-0.8-0.2-1.4-0.5-2-0.9s-1.1-1.1-1.4-1.8c-0.4-0.8-0.5-1.7-0.6-2.8h4.5C87.7,23.6,87.9,24.3,88.2,24.8 M87.9,15.9
				c0.4,0.7,1,1,1.9,1c0.9,0,1.6-0.3,2-1c0.4-0.7,0.6-1.8,0.6-3.4c0-0.7,0-1.3-0.1-1.9C92.3,10,92.2,9.5,92,9.1
				c-0.2-0.4-0.4-0.7-0.8-1c-0.3-0.2-0.8-0.3-1.3-0.3c-0.6,0-1,0.1-1.3,0.3c-0.3,0.2-0.6,0.6-0.8,1c-0.2,0.4-0.3,0.9-0.3,1.5
				c-0.1,0.6-0.1,1.2-0.1,1.8C87.4,14.1,87.6,15.2,87.9,15.9"/>
			<path style="fill:#FFFFFF;" d="M101.1,26.3c0,1.2-0.9,2.2-2.1,2.2c-1.2,0-2.1-1-2.1-2.2s0.9-2.2,2.1-2.2
				C100.2,24.1,101.1,25.1,101.1,26.3"/>
			<path style="fill:#FFFFFF;" d="M82.1,21.5c0,4.3-3,7.2-7.4,7.2c-4.4,0-7.4-2.9-7.4-7.2c0-2.7,1.1-4.6,3.5-5.8
				c-1.9-1-2.8-2.6-2.8-4.8c0-3.6,2.8-6.1,6.8-6.1c4,0,6.7,2.5,6.7,6.1c0,2.2-1,3.8-2.8,4.8C80.9,16.9,82.1,18.8,82.1,21.5z
				 M71.6,21.2c0,2.1,1.3,3.6,3.2,3.6c1.8,0,3.1-1.5,3.1-3.5c0-2.1-1.3-3.6-3.2-3.6C72.9,17.6,71.6,19.1,71.6,21.2z M72.2,11.3
				c0,1.6,1,2.7,2.5,2.7c1.5,0,2.5-1.1,2.5-2.7c0-1.7-1-2.8-2.5-2.8C73.2,8.5,72.2,9.6,72.2,11.3z"/>
			<path style="fill:#FFFFFF;" d="M105.8,13.2c1.2-0.5,2.1-0.6,3.3-0.6c4.3,0,7.1,3.1,7.1,7.8c0,5-3,8.3-7.8,8.3
				c-4.4,0-7.1-2.6-7.5-7.1h4.7c0.2,1.9,1.3,3,2.9,3c1.9,0,3.2-1.6,3.2-4.1c0-2.3-1.2-3.8-3.1-3.8c-1,0-1.7,0.4-2.5,1.1h-4.5l1.3-13
				h12.3v4.2h-8.9L105.8,13.2z"/>
		</g>
	</g>
</g>
<line style="display:none;fill:none;stroke:#E6E6E6;stroke-width:2;stroke-miterlimit:10;" x1="4.8" y1="54.5" x2="113.8" y2="54.5"/>
<g>
	<path style="fill:#FFFFFF;" d="M16.5,58.3v29.1h85.7V58.3C102.2,58.3,16.5,58.3,16.5,58.3z M17.3,86.6V59.1h84.1v27.5H17.3z"/>
	<polygon style="fill:#DA242B;" points="45.4,86.6 45.4,59.2 17.3,59.2 17.3,86.6 	"/>
	<polygon points="73.6,86.6 73.6,59.2 45.4,59.2 45.4,86.6 	"/>
	<polygon style="fill:#1F7FC2;" points="101.4,86.6 101.4,59.1 73.6,59.1 73.6,86.6 	"/>
	<path style="fill:#FFFFFF;" d="M34.3,80.3V72c0-1.2-0.2-2.1-0.7-2.7c-0.5-0.6-1.2-0.9-2.3-0.9c-0.5,0-1,0.1-1.6,0.4
		c-0.6,0.3-1,0.6-1.3,1v10.4H25V65.9h2.4l0.6,1.4c0.9-1.1,2.3-1.6,4.1-1.6c1.7,0,3.1,0.5,4.1,1.5s1.5,2.5,1.5,4.3v8.9L34.3,80.3
		L34.3,80.3z"/>
	<path style="fill:#FFFFFF;" d="M59.2,80.6c2.2,0,3.9-0.6,5.2-1.9c1.3-1.3,1.9-3.1,1.9-5.5c0-5.1-2.3-7.6-6.9-7.6
		c-1.2,0-2.3,0.4-3.1,1.2v-1h-3.4v18.3h3.4V80C57.2,80.4,58.2,80.6,59.2,80.6L59.2,80.6z M58.5,68.5c1.6,0,2.7,0.3,3.3,1
		c0.7,0.7,1,1.9,1,3.6c0,1.6-0.3,2.8-1,3.5c-0.7,0.7-1.8,1.1-3.3,1.1c-0.8,0-1.5-0.2-2.1-0.7v-7.6C56.9,68.8,57.7,68.5,58.5,68.5
		L58.5,68.5z"/>
	<path style="fill:#FFFFFF;" d="M91.4,69c-0.6-0.4-1.3-0.6-2-0.6c-0.8,0-1.5,0.4-2.1,1.1c-0.6,0.7-0.9,1.6-0.9,2.6v8.2h-3.4V65.9
		h3.4v1.4c0.9-1.1,2.2-1.6,3.8-1.6c1.1,0,2,0.2,2.6,0.5L91.4,69L91.4,69z"/>
</g>
</svg>
