<svg id="Layer_1" data-name="Layer 1" xmlns="http://www.w3.org/2000/svg" xmlns:xlink="http://www.w3.org/1999/xlink" viewBox="0 0 2882.83 350.3"><defs><style>.cls-1{fill:#da202d;}.cls-2{fill:#fff;}.cls-3{fill:url(#radial-gradient);}</style><radialGradient id="radial-gradient" cx="2383.94" cy="-1368.94" r="148.87" gradientTransform="matrix(0.77, 0, 0, 0.82, -1663.11, 1269.91)" gradientUnits="userSpaceOnUse"><stop offset="0" stop-color="#ea3326"/><stop offset="1" stop-color="#bd382f"/></radialGradient></defs><title>BlackPressMedia_HORZ_RedWhite</title><path class="cls-1" d="M2043.07,103.37h73.25l54.29,173h.65l54.29-173h73.25V331.63H2255V143.26h-.65l-61.48,188.37H2149l-61.48-188.37-.65.66V331.63h-43.82Z" transform="translate(-52.69 -40.55)"/><path class="cls-1" d="M2476.38,322.15c-16,8.83-34.34,13.41-57.89,13.41-55.59,0-88-32.05-88-87.32,0-48.73,25.83-89,78.16-89,62.46,0,80.12,42.84,80.12,101.71H2372.38c2,27.14,20.93,42.51,48.07,42.51,21.26,0,39.57-7.85,55.93-17Zm-29.44-91.24c-1.31-21.26-11.12-39.57-35.64-39.57s-37,17-38.92,39.57Z" transform="translate(-52.69 -40.55)"/><path class="cls-1" d="M2628.77,312.67h-.65c-13.09,16.35-31.07,22.89-51.67,22.89-51.68,0-70.64-42.52-70.64-88.63,0-46.44,19-87.64,70.64-87.64,21.91,0,37.28,7.52,50.36,23.54h.65V86.36h43.82V331.63h-42.51Zm-40.22-11.12c29.1,0,38.58-30.74,38.58-54.62,0-23.54-11.11-53.63-39.24-53.63-28.45,0-36.3,31.07-36.3,53.63C2551.59,270.15,2559.77,301.55,2588.55,301.55Z" transform="translate(-52.69 -40.55)"/><path class="cls-1" d="M2710.85,90.61h43.82v41.86h-43.82Zm0,72.6h43.82V331.63h-43.82Z" transform="translate(-52.69 -40.55)"/><path class="cls-1" d="M2801.76,172c17-7.85,39.9-12.75,58.54-12.75,51.35,0,72.6,21.26,72.6,71v21.59c0,17,.33,29.76.66,42.19.32,12.75,1,24.52,2,37.6h-38.59c-1.64-8.83-1.64-19.94-2-25.18h-.66c-10.14,18.64-32,29.11-52,29.11-29.75,0-58.86-18-58.86-50,0-25.18,12.1-39.9,28.78-48.07s38.26-9.81,56.57-9.81H2893c0-27.15-12.1-36.3-37.93-36.3-18.64,0-37.28,7.19-52,18.31Zm51.35,131.47c13.41,0,23.87-5.89,30.74-15C2891,279,2893,266.88,2893,253.8h-19c-19.62,0-48.73,3.27-48.73,29.11C2825.31,297.3,2837.41,303.51,2853.11,303.51Z" transform="translate(-52.69 -40.55)"/><path class="cls-2" d="M364.78,103.37h79.79c29.44,0,73.58,8.5,73.58,58.53,0,27.15-18.31,46.12-45.45,51v.66c31.07,2.94,52.32,23.87,52.32,52,0,57.56-51.67,66.06-80.45,66.06H364.78Zm45.78,92.22H429.2c19.3,0,43.17-4.25,43.17-27.8,0-26.49-23.22-28.45-44.15-28.45H410.56Zm0,100.07h21.59c21.25,0,47.09-5.23,47.09-31.72,0-29.76-24.2-34.34-47.09-34.34H410.56Z" transform="translate(-52.69 -40.55)"/><path class="cls-2" d="M555.1,86.36h43.83V331.63H555.1Z" transform="translate(-52.69 -40.55)"/><path class="cls-2" d="M646,172c17-7.85,39.9-12.75,58.54-12.75,51.34,0,72.6,21.26,72.6,71v21.59c0,17,.32,29.76.65,42.19.33,12.75,1,24.52,2,37.6H741.18c-1.63-8.83-1.63-19.94-2-25.18h-.65c-10.14,18.64-32.05,29.11-52,29.11-29.76,0-58.87-18-58.87-50,0-25.18,12.1-39.9,28.78-48.07s38.27-9.81,56.58-9.81h24.2c0-27.15-12.1-36.3-37.94-36.3-18.64,0-37.28,7.19-52,18.31Zm51.34,131.47c13.41,0,23.88-5.89,30.74-15,7.2-9.49,9.16-21.59,9.16-34.67h-19c-19.62,0-48.73,3.27-48.73,29.11C669.56,297.3,681.66,303.51,697.36,303.51Z" transform="translate(-52.69 -40.55)"/><path class="cls-2" d="M923,199.51c-7.85-3.59-16.35-6.21-29.76-6.21-27.14,0-44.47,21.58-44.47,53.31,0,31.06,14.71,54.94,45.45,54.94,12.43,0,26.17-4.58,33.69-7.85l2,36.3c-12.75,3.92-25.84,5.56-43.82,5.56C830.79,335.56,803,298,803,246.61c0-48.73,28.78-87.32,81.43-87.32,17.66,0,30.42,2,42.52,5.56Z" transform="translate(-52.69 -40.55)"/><path class="cls-2" d="M953.42,86.36h43.82V230.58h.66l52.32-67.37h51.67l-62.79,75.22,70.64,93.2h-55.6L997.9,249.88h-.66v81.75H953.42Z" transform="translate(-52.69 -40.55)"/><path class="cls-2" d="M1212.1,103.37H1270c49.71,0,95.17,14.39,95.17,69,0,53.31-38.92,72.6-88,72.6h-19.3v86.66H1212.1ZM1257.88,209h16c22.89,0,43.49-7.52,43.49-34s-20-35.65-43.49-35.65h-16Z" transform="translate(-52.69 -40.55)"/><path class="cls-2" d="M1388.37,163.21h38.91v38.27h.66c2-15.7,19.94-42.19,46.11-42.19,4.25,0,8.83,0,13.41,1.31v44.15c-3.93-2.29-11.78-3.6-19.63-3.6-35.64,0-35.64,44.47-35.64,68.68v61.8h-43.82Z" transform="translate(-52.69 -40.55)"/><path class="cls-2" d="M1637.24,322.15c-16,8.83-34.34,13.41-57.89,13.41-55.59,0-88-32.05-88-87.32,0-48.73,25.84-89,78.16-89,62.46,0,80.12,42.84,80.12,101.71H1533.24c2,27.14,20.93,42.51,48.07,42.51,21.26,0,39.57-7.85,55.93-17Zm-29.44-91.24c-1.31-21.26-11.12-39.57-35.64-39.57s-37,17-38.92,39.57Z" transform="translate(-52.69 -40.55)"/><path class="cls-2" d="M1777.53,198.53c-13.41-4.58-23.22-7.19-39.24-7.19-11.78,0-25.84,4.25-25.84,18.64,0,26.81,76.2,9.81,76.2,70.64,0,39.24-35,54.94-70.64,54.94-16.68,0-33.68-2.94-49.71-7.2l2.62-36c13.73,6.87,28.12,11.12,43.17,11.12,11.12,0,28.78-4.25,28.78-20.6,0-33-76.2-10.47-76.2-71.3,0-36.3,31.72-52.32,66.06-52.32,20.6,0,34,3.27,47.74,6.21Z" transform="translate(-52.69 -40.55)"/><path class="cls-2" d="M1916.19,198.53c-13.41-4.58-23.22-7.19-39.25-7.19-11.77,0-25.83,4.25-25.83,18.64,0,26.81,76.2,9.81,76.2,70.64,0,39.24-35,54.94-70.64,54.94-16.68,0-33.69-2.94-49.71-7.2l2.61-36c13.74,6.87,28.13,11.12,43.17,11.12,11.12,0,28.78-4.25,28.78-20.6,0-33-76.2-10.47-76.2-71.3,0-36.3,31.72-52.32,66.06-52.32,20.61,0,34,3.27,47.75,6.21Z" transform="translate(-52.69 -40.55)"/><path class="cls-2" d="M52.77,230.17,53,316.59c52.62,7.09,149.72-6.74,149.72-6.74l4-.38c15.31-11.83,30.93-23.79,46.69-35.25l.37-.28C211,272.07,133.32,263.67,52.77,230.17Z" transform="translate(-52.69 -40.55)"/><path class="cls-3" d="M278.58,254.67c22.65-16.6,28.45-23,28.42-35.16,0-13.22-10-22.28-32.39-37.63-3.45-2.53-6.51-4.71-9.51-6.9-3.9-2.78-7.8-5.61-11.56-8.41-31.44-23.7-62.27-46.85-93.47-69.27-4.4-3.16-8.94-6.4-13.39-9.64C135.43,79.42,123.62,71,112.31,63.3c-3.69-2.44-7.54-5.34-11.32-8.38C93,48.61,82.68,40.7,75.92,40.71c-1.46,0-3.51-.36-5.12,0-16.7,4-18,16.17-18,23l.36,139.81c35.42,18.13,68,29.54,96.87,36.49C209.88,257.38,255.87,256.73,278.58,254.67Z" transform="translate(-52.69 -40.55)"/><path class="cls-2" d="M52.69,333.58l.07,27.95c0,12.27,16.07,28.11,27.36,29.23.51.05,3.68.09,4.19.09,11.13,0,26.12-11.47,38.15-20.61,3.26-2.52,6.45-4.93,9.45-7.07,14.76-10.58,29.51-21.7,44.06-32.86C112.44,336.4,70.84,334.88,52.69,333.58Z" transform="translate(-52.69 -40.55)"/></svg>