<?xml version="1.0" standalone="no"?>
<!DOCTYPE svg PUBLIC "-//W3C//DTD SVG 20010904//EN"
 "http://www.w3.org/TR/2001/REC-SVG-20010904/DTD/svg10.dtd">
<svg version="1.0" xmlns="http://www.w3.org/2000/svg"
 width="700.000000pt" height="700.000000pt" viewBox="0 0 700.000000 700.000000"
 preserveAspectRatio="xMidYMid meet">
<metadata>
Created by potrace 1.11, written by Peter Selinger 2001-2013
</metadata>
<g transform="translate(0.000000,700.000000) scale(0.100000,-0.100000)"
fill="#000000" stroke="none">
<path d="M0 3500 l0 -3500 3500 0 3500 0 0 3500 0 3500 -3500 0 -3500 0 0
-3500z m3345 2430 c999 -63 1701 -436 2101 -1116 242 -412 369 -966 336 -1467
-55 -821 -395 -1462 -981 -1846 -307 -201 -670 -333 -1096 -397 -266 -40 -398
-44 -1403 -44 l-973 0 -23 23 -23 24 -8 2381 c-7 2222 -6 2383 9 2407 10 15
27 30 39 35 31 12 1826 12 2022 0z"/>
<path d="M2467 3983 c-4 -801 -7 -1674 -7 -1941 l0 -484 223 5 c307 7 499 46
761 153 675 276 1078 809 1157 1530 14 135 6 459 -16 599 -73 464 -276 836
-610 1115 -380 316 -857 480 -1401 480 l-101 0 -6 -1457z"/>
</g>
</svg>
