<svg xmlns="http://www.w3.org/2000/svg" xmlns:xlink="http://www.w3.org/1999/xlink" id="Capa_1" x="0px" y="0px" width="595.279px" height="841.891px" viewBox="0 0 595.279 841.891" xml:space="preserve">
<g id="surface1">
	<path fill="#FFFFFF" d="M297.64,197.715c-75.863,0-143.007,7.848-183.845,13.952c-33.427,4.941-60.022,31.101-66.126,64.673   c-5.232,29.357-10.464,72.23-10.464,126.003c0,53.772,5.231,96.646,10.464,126.003c6.104,33.571,32.699,59.586,66.126,64.672   c40.983,6.104,108.418,13.953,183.845,13.953c75.428,0,142.716-7.849,183.7-13.953h0.145c33.427-4.94,60.022-31.101,66.127-64.672   c5.231-29.502,10.464-72.375,10.464-126.003c0-53.773-5.232-96.646-10.609-126.003c-5.959-33.572-32.555-59.731-65.981-64.673   C440.647,205.563,373.503,197.715,297.64,197.715z M297.64,234.92c73.248,0,138.792,7.557,178.322,13.516   c17.44,2.616,31.537,16.277,34.88,34.443c4.941,27.468,10.028,68.161,10.028,119.463c0,51.302-5.087,91.995-9.883,119.317   c-3.343,18.312-17.44,31.973-35.025,34.589c-39.82,5.813-105.511,13.517-178.322,13.517s-138.646-7.703-178.322-13.517   c-17.439-2.616-31.683-16.276-35.025-34.589c-4.796-27.468-9.882-68.016-9.882-119.317c0-51.448,5.086-91.996,9.882-119.463   c3.343-18.167,17.44-31.828,34.88-34.298h0.146C158.848,242.623,224.393,234.92,297.64,234.92z M223.23,309.33v186.025   l186.025-93.013L223.23,309.33z"></path>
</g>
</svg>