<svg version="1" xmlns="http://www.w3.org/2000/svg" width="413.333" height="413.333" viewBox="0 0 310.000000 310.000000"><path d="M0 155v155h310V0H0v155zm162.5-90.3c40.8 6.2 69.3 27.9 79.3 60.3 4.4 14.3 5.3 36.7 1.9 49.5l-1.3 5-37 .7c-20.3.4-45.7.7-56.4.5l-19.5-.2-.3-58c-.1-31.9 0-58.6.3-59.4.6-1.7 17.1-.9 33 1.6zM119 127v64h59.5c32.7 0 59.5.2 59.5.5 0 1.4-4.6 9.6-8.5 15-11.7 16.5-31.9 30.4-55 38-7.6 2.5-8.3 2.5-38 2.5-16.6 0-32.7-.5-35.6-1-13.3-2.5-26-12.6-32.2-25.7-4.2-9.1-4.5-15-4.6-94.1L64 63h55v64z"/></svg>