<svg xmlns="http://www.w3.org/2000/svg" viewBox="0 0 476.2 108"><defs><style>.cls-1{fill:#c5144a;}</style></defs><g id="Layer_2" data-name="Layer 2"><g id="Layer_2-2" data-name="Layer 2"><path class="cls-1" d="M259.64,20.86A54,54,0,0,0,192.77,5.73l-.88,68.13,26,.15,7.93,11-46-.26.56-70.48A54,54,0,1,0,266,31.25L235.81,87.11,205.07,40.93l14,.08L234.93,67.1Z"></path><path d="M1.74,32.23H7c.46,0,.9,0,1.34,0a1.21,1.21,0,0,1,1,.47,1.91,1.91,0,0,1,.31,1.15V63.55c0,.34,0,.66,0,1a2.71,2.71,0,0,0,.09.9V66a7.63,7.63,0,0,0,0,.84,2.4,2.4,0,0,0,.15.71,1.79,1.79,0,0,0,1.74.81H26.23l1.24,0c.5,0,1,0,1.43,0a7.11,7.11,0,0,1,1.27.16,1.23,1.23,0,0,1,.78.37,1.39,1.39,0,0,1,.31.93v4q0,.5,0,.93a1.76,1.76,0,0,1-.09.75,1.44,1.44,0,0,1-.62.68,1.47,1.47,0,0,1-.94.25H2.73a11.3,11.3,0,0,1-1.52-.09,1.29,1.29,0,0,1-1-.59,1.68,1.68,0,0,1-.25-1V34.9q0-.55,0-1.11a1.78,1.78,0,0,1,.22-.87,1.51,1.51,0,0,1,1-.63.37.37,0,0,1,.25,0A.32.32,0,0,0,1.74,32.23Z"></path><path d="M40.08,32.23H68.73c.5,0,1,0,1.43.06a1.33,1.33,0,0,1,1,.5,1,1,0,0,1,.15.44,1.56,1.56,0,0,0,.16.49v.69a4.72,4.72,0,0,1,0,.93q0,.49,0,.93c0,.33,0,.65,0,1a4.47,4.47,0,0,1,0,.9,5.28,5.28,0,0,0-.06.93,1.51,1.51,0,0,1-.62,1,1.63,1.63,0,0,1-.94.25H53.14l-1.15,0c-.44,0-.87,0-1.31,0a10.77,10.77,0,0,0-1.21.12,2.15,2.15,0,0,0-.81.28,1.31,1.31,0,0,0-.53.91A8.78,8.78,0,0,0,48,42.92v5.35a6.68,6.68,0,0,0,.25.84,1,1,0,0,0,.43.52,1.69,1.69,0,0,0,.87.28c.33,0,.69,0,1.06,0h14l1.09,0c.44,0,.86,0,1.28,0s.79.06,1.15.1a1.62,1.62,0,0,1,.77.24,1.15,1.15,0,0,1,.44.75,7.41,7.41,0,0,1,.15,1.21c0,.44,0,.88,0,1.34s0,.85,0,1.18v.87a2.11,2.11,0,0,1-.12.75,1.49,1.49,0,0,1-.5.8,2,2,0,0,1-.84.25,10.43,10.43,0,0,1-1.18.06c-.43,0-.87,0-1.3,0l-1.09,0H52.39c-.5,0-1,0-1.43,0a6.48,6.48,0,0,0-1.27.06,2.43,2.43,0,0,0-1,.38,1.58,1.58,0,0,0-.59.83,3.52,3.52,0,0,0-.06.66v6.49a9,9,0,0,0,.09,1.34,1.31,1.31,0,0,0,.53.9.8.8,0,0,0,.47.22,2.44,2.44,0,0,1,.59.15h.62a2.51,2.51,0,0,0,.68,0l.69,0H70.26a1.79,1.79,0,0,1,.84.19,1.09,1.09,0,0,1,.68.68,2.62,2.62,0,0,1,.15.75A9.11,9.11,0,0,1,72,71v2.86c0,.5,0,1-.07,1.4a1.18,1.18,0,0,1-.56,1,1.42,1.42,0,0,1-1,.31H41.14a11.19,11.19,0,0,1-1.52-.09,1.29,1.29,0,0,1-1-.59,1.76,1.76,0,0,1-.24-1v-41a1.37,1.37,0,0,1,.24-.87,1.49,1.49,0,0,1,.94-.63.36.36,0,0,1,.25,0A.29.29,0,0,0,40.08,32.23Z"></path><path d="M81.91,32.29h26.78c.46,0,.89,0,1.31.07a1.32,1.32,0,0,1,.93.43,1.79,1.79,0,0,1,.34.84,6.11,6.11,0,0,1,.1,1.18c0,.44,0,.87,0,1.31s0,.84,0,1.21a8.44,8.44,0,0,0,0,.87,3.06,3.06,0,0,1,0,.81c-.08.2-.15.4-.21.59a1,1,0,0,1-.34.46,2.77,2.77,0,0,1-1.71.34l-2.09,0H95l-2.39,0a4,4,0,0,0-2,.34,1.82,1.82,0,0,0-.62.94,3.33,3.33,0,0,0-.1,1.11c0,.46,0,.86,0,1.19v3c0,.21,0,.46,0,.74a2.94,2.94,0,0,0,0,.75v.68a6.82,6.82,0,0,0,.28.94,1.11,1.11,0,0,0,.66.56,2.48,2.48,0,0,0,.74.15q.43,0,.93,0h11l1.15,0c.44,0,.87,0,1.31,0s.83.05,1.18.09a1.48,1.48,0,0,1,1.37,1.9c0,.81,0,1.54,0,2.21q0,.49,0,1.08a3.46,3.46,0,0,1-.1,1.09,1.6,1.6,0,0,1-.68.93,3.57,3.57,0,0,1-1.68.22l-2,0H93.78c-.79,0-1.55,0-2.3.06a1.44,1.44,0,0,0-1.43.87.75.75,0,0,0-.12.41,1.29,1.29,0,0,1-.07.4v12c0,.59,0,1.3,0,2.15a3.77,3.77,0,0,1-.27,1.83.94.94,0,0,1-.5.41,6.45,6.45,0,0,0-.62.21,2.24,2.24,0,0,1-.94.07,6.59,6.59,0,0,0-1-.07H83c-.46,0-.89,0-1.28,0a1.57,1.57,0,0,1-1-.34,1.18,1.18,0,0,1-.47-1c0-.44,0-.88,0-1.34V36.71c0-.58,0-1.27,0-2.05A3.15,3.15,0,0,1,80.48,33a1.42,1.42,0,0,1,.93-.62.37.37,0,0,1,.25,0A.32.32,0,0,0,81.91,32.29Z"></path><path d="M141.76,32.23h6.34c.53,0,1.06,0,1.58,0a2.61,2.61,0,0,1,1.27.35.68.68,0,0,1,.28.4,3.65,3.65,0,0,1,.16.59v.31a2.4,2.4,0,0,1,.06.56v3c0,.3,0,.57,0,.84a2,2,0,0,1-.09.78,1.35,1.35,0,0,1-1.24,1.12c-.63,0-1.37.06-2.24.06h-6.34c-.83,0-1.54,0-2.14.09a1.41,1.41,0,0,0-1.22,1.15,1.32,1.32,0,0,0,0,.56.93.93,0,0,1-.06.56,3.79,3.79,0,0,0,0,.84q0,.47,0,.84V73.62a13.79,13.79,0,0,1-.09,1.71,1.24,1.24,0,0,1-.78,1,3.73,3.73,0,0,1-1,.12H131a12.59,12.59,0,0,1-1.27-.06,1.3,1.3,0,0,1-.9-.44,2.32,2.32,0,0,1-.31-1.27V44.35q0-.43,0-.9a2.26,2.26,0,0,0-.09-.84,1.06,1.06,0,0,1,0-.56.69.69,0,0,0-.07-.5,1.42,1.42,0,0,0-1.27-1.15c-.64-.06-1.4-.09-2.27-.09h-5.78l-1.52,0a5.16,5.16,0,0,1-1.34-.09,1.48,1.48,0,0,1-.74-.56,1.72,1.72,0,0,1-.22-.81q0-.5,0-1v-3a10.13,10.13,0,0,1,.09-1.43,1.27,1.27,0,0,1,.59-.93,2.78,2.78,0,0,1,.69-.25h25.17Z"></path><path d="M284.48,32.81h6.35a1.91,1.91,0,0,1,1.13.3,1.55,1.55,0,0,1,.74,1,13.21,13.21,0,0,0,.43,1.35c.28.78.54,1.56.76,2.33s.48,1.58.77,2.39c.82,2.54,1.63,5.07,2.42,7.61s1.61,5.07,2.43,7.6c.2.69.41,1.39.64,2.08s.44,1.39.64,2.09c.13.37.25.73.37,1.1a3.6,3.6,0,0,0,.49,1,.26.26,0,0,0,.15.16.54.54,0,0,1,.22.15.86.86,0,0,0,.89-.58c.14-.39.27-.75.4-1.08.32-.85.61-1.73.86-2.63s.52-1.82.85-2.76q1.35-4.05,2.61-8.06c.84-2.68,1.7-5.37,2.6-8.07.21-.65.41-1.29.62-1.93s.41-1.27.61-1.93a6.31,6.31,0,0,0,.4-1,1.42,1.42,0,0,1,.64-.8,1.72,1.72,0,0,1,1-.3H320a1.75,1.75,0,0,1,1,.24.9.9,0,0,1,.43,1.14q-.18.83-.36,1.38-.55,1.41-1,2.91c-.3,1-.62,2-.95,3a3.68,3.68,0,0,0-.27.74c-.06.24-.14.49-.22.73-.32.86-.62,1.74-.89,2.64s-.56,1.8-.88,2.7q-1.67,5-3.31,10t-3.32,10c-.36.94-.69,1.89-1,2.85s-.59,1.91-.92,2.86c-.2.57-.41,1.09-.61,1.56a1.69,1.69,0,0,1-1.23,1,3.8,3.8,0,0,1-1.1.09l-1.16,0h-4.42l-1.44,0a2.15,2.15,0,0,1-1.26-.28,1.74,1.74,0,0,1-.88-1.13c-.15-.51-.3-1-.46-1.5-.29-.86-.57-1.73-.83-2.61s-.55-1.74-.83-2.6c-.9-2.58-1.76-5.17-2.58-7.79s-1.67-5.23-2.57-7.85c-.37-1.18-.73-2.36-1.07-3.52s-.73-2.32-1.14-3.47a6.47,6.47,0,0,1-.37-1.1,5.66,5.66,0,0,0-.36-1.1c-.37-1.15-.73-2.28-1.08-3.41s-.72-2.25-1.13-3.4a7.73,7.73,0,0,0-.31-1.07l-.36-1.07A4.44,4.44,0,0,1,283,34a.92.92,0,0,1,.1-.55,1,1,0,0,1,.79-.55.44.44,0,0,1,.28,0A.41.41,0,0,0,284.48,32.81Z"></path><path d="M368.29,53.16a4.63,4.63,0,0,1,.16,1.26,4.15,4.15,0,0,1-.09,1.26v.79a6,6,0,0,0-.13,1.29,7.7,7.7,0,0,1-.12,1.35,6.58,6.58,0,0,0-.18.86c-.05.28-.11.57-.19.86-.2.73-.4,1.45-.58,2.14a13.8,13.8,0,0,1-.71,2,20.26,20.26,0,0,1-5,7.15,21.28,21.28,0,0,1-7.73,4.38,8.48,8.48,0,0,1-1.35.37l-1.34.24a1.61,1.61,0,0,1-.65.13,3.31,3.31,0,0,0-.64.06l-2,.18a3.38,3.38,0,0,1-.85,0,3.85,3.85,0,0,1-.8-.09,1.93,1.93,0,0,0-.58,0,2,2,0,0,1-.59,0h-.67a5.49,5.49,0,0,0-.92-.15,5.56,5.56,0,0,1-.92-.16c-.33-.08-.65-.15-1-.21s-.65-.13-1-.22l-1.38-.49a13.67,13.67,0,0,1-1.38-.55,18.69,18.69,0,0,1-6.22-4.26A21.27,21.27,0,0,1,327.34,65a11.54,11.54,0,0,1-.61-1.8c-.17-.64-.35-1.28-.56-1.93a1.52,1.52,0,0,1-.12-.53,2,2,0,0,0-.06-.46,6.23,6.23,0,0,1-.18-.88c-.05-.31-.11-.63-.19-1a1.9,1.9,0,0,1,0-.58.94.94,0,0,0-.09-.52,2.42,2.42,0,0,1,0-.76,2.48,2.48,0,0,0,0-.77,2.8,2.8,0,0,1-.12-.95,2.76,2.76,0,0,1,.12-1,1.41,1.41,0,0,0,0-.58,1.46,1.46,0,0,1,0-.59v-.36a2.43,2.43,0,0,0,.09-.83,2,2,0,0,1,.09-.77,1.74,1.74,0,0,0,.13-.64,1.78,1.78,0,0,1,.12-.65,20.25,20.25,0,0,0,.49-2,11.77,11.77,0,0,1,.55-2c.33-.7.63-1.39.92-2.09a11.46,11.46,0,0,1,1-2,20,20,0,0,1,4.23-4.9A22.8,22.8,0,0,1,339,33.11a12.17,12.17,0,0,1,1.68-.49c.59-.12,1.18-.26,1.75-.43a1.63,1.63,0,0,1,.58-.12,3.11,3.11,0,0,0,.59-.06l1.83-.18a.49.49,0,0,1,.34,0,.49.49,0,0,0,.34,0,22.54,22.54,0,0,1,7.54.89,20.17,20.17,0,0,1,5.7,2.79c.53.36,1.08.78,1.66,1.25a8.64,8.64,0,0,1,1.41,1.44c.2.21.41.42.61.65s.39.44.55.64c.45.65.9,1.32,1.35,2a13.36,13.36,0,0,1,1.17,2.18c.24.57.46,1.12.64,1.65s.38,1.11.58,1.72a10.53,10.53,0,0,1,.31,1.26c.08.43.18.87.31,1.32a3,3,0,0,1,.12.82,2.48,2.48,0,0,0,.12.77,2,2,0,0,1,.09.77,2.62,2.62,0,0,0,0,.7Zm-9.5,2.58a2.57,2.57,0,0,0,.12-.89,2.53,2.53,0,0,0-.12-.89v-1a1.23,1.23,0,0,1,0-.46.78.78,0,0,0-.09-.46,5.71,5.71,0,0,1-.16-1,4.24,4.24,0,0,0-.15-.89,2.22,2.22,0,0,0-.12-.68c-.12-.45-.25-.89-.37-1.35a9.47,9.47,0,0,0-.49-1.34,12.4,12.4,0,0,0-3.89-5.06,11.48,11.48,0,0,0-7.08-1.93.45.45,0,0,1-.28,0,.45.45,0,0,0-.28,0,1.34,1.34,0,0,1-.49,0,1.15,1.15,0,0,0-.55.09c-.45.08-.89.17-1.32.28a6.16,6.16,0,0,0-1.19.4,9.83,9.83,0,0,0-4.08,3.06,16,16,0,0,0-2.42,4.72,11.13,11.13,0,0,0-.28,1.32,11.05,11.05,0,0,1-.27,1.32,1.88,1.88,0,0,0-.06.46,1.61,1.61,0,0,1-.07.46,1.25,1.25,0,0,0-.06.67,1.94,1.94,0,0,1,0,.68,3.92,3.92,0,0,0-.15,1.13,3.22,3.22,0,0,0,.09,1.13v.68a2.18,2.18,0,0,1,.06.52,17.51,17.51,0,0,1,.1,1,3.33,3.33,0,0,1,0,.46,10.75,10.75,0,0,1,.27,1.35,5.57,5.57,0,0,0,.34,1.29,20.47,20.47,0,0,0,1.65,3.64,8.55,8.55,0,0,0,2.46,2.73,2.6,2.6,0,0,0,.64.49c.22.13.46.25.71.37a6.33,6.33,0,0,0,1.44.68l1.62.49a1.23,1.23,0,0,0,.58.09,2,2,0,0,1,.59,0,2.33,2.33,0,0,0,.73.12h1.29a1.76,1.76,0,0,1,.55,0,1.13,1.13,0,0,0,.55-.09l1.23-.22a4.43,4.43,0,0,0,1.16-.33,11,11,0,0,0,4.14-2.7,14,14,0,0,0,2.55-4.29,7.22,7.22,0,0,0,.46-1.47,13.36,13.36,0,0,1,.4-1.6l.18-1.47a2.18,2.18,0,0,0,.06-.52V55.74Z"></path><path d="M378.1,32.87h5.28c.45,0,.88,0,1.28,0a1.11,1.11,0,0,1,.92.46,2,2,0,0,1,.34,1.1q0,.67,0,1.47V72.6c0,.53,0,1.12,0,1.78a2.72,2.72,0,0,1-.27,1.47,1.82,1.82,0,0,1-1.11.67,2.32,2.32,0,0,1-.92.06,8.06,8.06,0,0,0-1-.06h-3.62a12.18,12.18,0,0,1-1.25-.06,1.66,1.66,0,0,1-.95-.37,1.42,1.42,0,0,1-.37-.92c0-.41-.06-.83-.06-1.28V37.22c0-.57,0-1.24,0-2a3.21,3.21,0,0,1,.27-1.66,1.85,1.85,0,0,1,.8-.61,1.79,1.79,0,0,0,.34,0Z"></path><path d="M414.89,31.77A20.7,20.7,0,0,1,425.5,34a18.42,18.42,0,0,1,6.62,6.19,12.6,12.6,0,0,1,1.1,2.12c.29.72.55,1.5.8,2.36.08.29.16.61.24,1a1.82,1.82,0,0,1-.06,1,.63.63,0,0,1-.46.46l-.76.22h-.5a2.16,2.16,0,0,1-.82.09l-.89,0-1.32,0q-.76,0-1.5,0a13,13,0,0,1-1.35-.12,1.69,1.69,0,0,1-1.66-1.44,5.13,5.13,0,0,0-.61-1.29,8.93,8.93,0,0,0-3.06-3.19,12.49,12.49,0,0,0-2.89-1.29,8,8,0,0,0-2.6-.36,11.06,11.06,0,0,0-2.73.3l-.89.22a5,5,0,0,0-.83.27,10.66,10.66,0,0,0-5.88,5.89A14.55,14.55,0,0,0,404.9,48c-.17.53-.35,1.08-.56,1.66,0,.28-.08.55-.12.79s-.08.51-.12.8A2,2,0,0,0,404,52a2.15,2.15,0,0,1-.1.82,3.47,3.47,0,0,0-.09,1c0,.34,0,.68,0,1a4.15,4.15,0,0,1,0,.49,1.35,1.35,0,0,0,0,.49v.55a1.33,1.33,0,0,1,.1.61,1.12,1.12,0,0,0,.09.62,5.44,5.44,0,0,0,.12,1c.08.45.16.87.24,1.25s.19.77.31,1.14a15.23,15.23,0,0,0,2.21,4.38,10.42,10.42,0,0,0,3.55,3,12.4,12.4,0,0,0,1.41.52l1.6.46.58.09a5.49,5.49,0,0,0,.58,0h.49a1.92,1.92,0,0,0,.8.09,6.42,6.42,0,0,0,.8-.09,1.9,1.9,0,0,0,.55-.06c.49-.08,1-.16,1.38-.25a4.59,4.59,0,0,0,1.26-.43,7.73,7.73,0,0,0,2.42-1.62,13.41,13.41,0,0,0,1.81-2.3,6.93,6.93,0,0,0,.61-1.35c.16-.49.35-1,.55-1.47s.25-.86.37-1.23a1.52,1.52,0,0,1,.8-.86,3,3,0,0,1,.92-.12h5.91a1.62,1.62,0,0,1,.95.25,1.17,1.17,0,0,1,.46,1,3.94,3.94,0,0,1-.15,1.29l-.37,1.65c-.2.61-.4,1.21-.58,1.78a10,10,0,0,1-.71,1.65,7.86,7.86,0,0,0-.49,1,3.7,3.7,0,0,1-.49.89,17.66,17.66,0,0,1-9.81,7.36,8.48,8.48,0,0,1-1.35.37l-1.34.24a1.15,1.15,0,0,1-.59.1,1.21,1.21,0,0,0-.58.09c-.29,0-.56,0-.83,0l-.82.09h-2.09a4.36,4.36,0,0,1-1-.12,2.19,2.19,0,0,0-.61-.06l-.86-.13-.92-.12q-.61-.18-1.2-.3c-.39-.09-.79-.19-1.19-.31s-.74-.26-1.11-.4-.71-.3-1-.46a18.69,18.69,0,0,1-6.22-4.26,21.27,21.27,0,0,1-4.14-6.35,14.16,14.16,0,0,1-.61-1.84c-.17-.61-.35-1.24-.56-1.9a1.42,1.42,0,0,1-.12-.52,2,2,0,0,0-.06-.46,10.06,10.06,0,0,1-.18-1.16,10.21,10.21,0,0,0-.19-1.17,1,1,0,0,1-.09-.52,1.23,1.23,0,0,0,0-.46V55.74a2.69,2.69,0,0,1-.12-.92,2.65,2.65,0,0,1,.12-.92.89.89,0,0,0,0-.4,2.61,2.61,0,0,1,0-.34v-.55a5.66,5.66,0,0,0,.15-1c0-.37.05-.74.1-1.11a8.33,8.33,0,0,0,.18-1,9.24,9.24,0,0,1,.18-.95c.17-.57.31-1.13.43-1.68a10.66,10.66,0,0,1,.49-1.57c.21-.53.42-1.06.65-1.59a10.15,10.15,0,0,1,.76-1.47,27.24,27.24,0,0,1,2-3.07,6.35,6.35,0,0,1,.67-.79l.74-.74a18.45,18.45,0,0,1,3.22-2.6,23.21,23.21,0,0,1,3.83-1.94,14.47,14.47,0,0,1,1.53-.52c.53-.14,1.08-.27,1.65-.4a2.39,2.39,0,0,1,.74-.12,1.87,1.87,0,0,0,.68-.12l.95-.09.95-.09a.32.32,0,0,1,.3,0A.41.41,0,0,0,414.89,31.77Z"></path><path d="M444.75,32.81H473q.74,0,1.41.06a1.25,1.25,0,0,1,1,.49,1.16,1.16,0,0,1,.16.43,1.54,1.54,0,0,0,.15.49V35a4.64,4.64,0,0,1,0,.92c0,.33,0,.64,0,.92s0,.65,0,1a4.34,4.34,0,0,1,0,.89,5.23,5.23,0,0,0-.06.92,1.48,1.48,0,0,1-.62,1,1.56,1.56,0,0,1-.92.25H457.62l-1.13,0q-.64,0-1.29,0a10.59,10.59,0,0,0-1.2.12,1.75,1.75,0,0,0-.79.28,1.26,1.26,0,0,0-.52.88,8.66,8.66,0,0,0-.1,1.32v5.28c.09.32.17.6.25.82a.92.92,0,0,0,.43.52,1.63,1.63,0,0,0,.86.28c.32,0,.67,0,1,0H469l1.07,0q.64,0,1.26,0c.4,0,.78,0,1.13.09a1.55,1.55,0,0,1,.77.25,1.1,1.1,0,0,1,.43.73,7.28,7.28,0,0,1,.15,1.2q0,.65,0,1.32c0,.45,0,.83,0,1.16v.86a2,2,0,0,1-.12.74,1.55,1.55,0,0,1-.49.79,2,2,0,0,1-.83.25,10.37,10.37,0,0,1-1.17.06l-1.29,0-1.07,0H456.89q-.74,0-1.41,0a6.42,6.42,0,0,0-1.26.06,2.21,2.21,0,0,0-1,.37,1.52,1.52,0,0,0-.58.82,2.76,2.76,0,0,0-.07.65v6.4a8.56,8.56,0,0,0,.1,1.32,1.26,1.26,0,0,0,.52.89.74.74,0,0,0,.46.22,2.37,2.37,0,0,1,.58.15h.61a2.51,2.51,0,0,0,.68,0l.67,0h18.3a1.84,1.84,0,0,1,.83.18,1.14,1.14,0,0,1,.68.68,2.48,2.48,0,0,1,.15.73c0,.29,0,.6,0,.92v2.82q0,.74-.06,1.38a1.19,1.19,0,0,1-.55,1,1.43,1.43,0,0,1-.95.31H445.79a11,11,0,0,1-1.5-.09,1.27,1.27,0,0,1-1-.58,1.66,1.66,0,0,1-.25-1V34.34a1.32,1.32,0,0,1,.25-.86,1.42,1.42,0,0,1,.92-.61.34.34,0,0,1,.24,0A.37.37,0,0,0,444.75,32.81Z"></path></g></g></svg>