<svg xmlns="http://www.w3.org/2000/svg" width="197" height="51"><path d="M0 48V2h13v2H9.7c-1.6 0-2.6.2-3 .7A4.2 4.2 0 0 0 6 7.5V43a4.3 4.3 0 0 0 .4 2.3c.3.4 1 .6 2.2.6H13v2zM197 2v46h-13v-2h3.3c1.6 0 2.6-.2 3-.7a4.2 4.2 0 0 0 .7-2.8V7a4.3 4.3 0 0 0-.4-2.3c-.3-.4-1-.6-2.2-.6H184V2z" fill="#3ba7de"/><path d="M12.2 31.1h1.6a8.8 8.8 0 0 0 3.1 5.7 7.7 7.7 0 0 0 4.6 1.7 4.4 4.4 0 0 0 3.2-1 3.3 3.3 0 0 0 1-2.6 3.6 3.6 0 0 0-1.1-2.6 6.2 6.2 0 0 0-1.9-1.2l-4.1-2a13 13 0 0 1-4.7-3.5 6.8 6.8 0 0 1-1.4-4.4 7.9 7.9 0 0 1 2.3-5.6 8.2 8.2 0 0 1 6.3-2.4 13.6 13.6 0 0 1 3.8.6 12.8 12.8 0 0 0 2.5.6 1.3 1.3 0 0 0 1-.3 2.2 2.2 0 0 0 .5-.8h1.2v8.1h-1.4a10 10 0 0 0-2.6-4.6 6 6 0 0 0-4.2-1.7 3.6 3.6 0 0 0-2.8 1 3.3 3.3 0 0 0-.9 2.2 3.4 3.4 0 0 0 .8 2 7.7 7.7 0 0 0 3 2.1l3.1 1.5a15.3 15.3 0 0 1 4.1 2.6 7.2 7.2 0 0 1 2.2 5.4 8.9 8.9 0 0 1-2.3 5.8c-1.5 1.8-3.8 2.7-6.8 2.7a19.5 19.5 0 0 1-2.3-.2 25.5 25.5 0 0 1-2.8-.8l-1-.3-.6-.2h-.3a1 1 0 0 0-.8.4 8.1 8.1 0 0 0-.8 1.2h-1.3v-9.4zM31.6 38.2a10.2 10.2 0 0 0 2.8-.9 3.5 3.5 0 0 0 .6-2.4V6.4c0-1.2-.2-2-.6-2.3a10.2 10.2 0 0 0-2.8-.9V1.9l10.3-.2v24.1l7.3-6.9a4.7 4.7 0 0 0 .9-1.2 2.3 2.3 0 0 0 .3-.9 1 1 0 0 0-.8-1.1 10.9 10.9 0 0 0-2.6-.4V14h12v1.3a8.3 8.3 0 0 0-2.7.6 11 11 0 0 0-3.5 2.4l-4.3 4.2 10.8 14.9a1.7 1.7 0 0 0 .6.6 1.9 1.9 0 0 0 .8.2v1.3h-13v-1.3a4.2 4.2 0 0 0 1.8-.3c.4-.2.6-.4.6-.8a4.5 4.5 0 0 0-.2-.8l-1.1-1.8-5.3-7.5-1.4 1.2v6.3a4.4 4.4 0 0 0 .5 2.5 4.4 4.4 0 0 0 2.6 1.1v1.3H31.6v-1.2z" fill="#222"/><path d="M81 32.4a18.2 18.2 0 0 1-2.7 2.5 6.3 6.3 0 0 1-3.7 1.2c-2.8 0-4.7-1.5-5.8-4.6a19.3 19.3 0 0 1-1.1-5.8H82l-.2-2.2a15.7 15.7 0 0 0-1.4-5 9.5 9.5 0 0 0-3.7-4 11 11 0 0 0-13.5 2.2q-3.5 3.6-3.3 9.9c0 4.8 1.2 8.2 3.6 10.4a11.6 11.6 0 0 0 7.7 3.2 12 12 0 0 0 5.1-1.1 14.7 14.7 0 0 0 6-5.9zM68.5 17.2a3 3 0 0 1 3-2.3 2.8 2.8 0 0 1 2.8 2 21.3 21.3 0 0 1 .8 6.9h-7.5a24.8 24.8 0 0 1 .9-6.6zM107.8 16.4a9.3 9.3 0 0 0-7.3-3.3 7.5 7.5 0 0 0-5 1.6 11.8 11.8 0 0 0-2.2 2.8v-3.7H82.6v1.3a6.6 6.6 0 0 1 2.9 1.1 3.5 3.5 0 0 1 .6 2.4v28.1a3.4 3.4 0 0 1-.7 2.4 7 7 0 0 1-3 .6h.1V51h15.3v-1.1a7.5 7.5 0 0 1-3.6-.9 4.2 4.2 0 0 1-1-3 32.7 32.7 0 0 1-.2-4.2v-4.7a13.4 13.4 0 0 0 2.7 1.9 7.5 7.5 0 0 0 4.3 1.3 9.3 9.3 0 0 0 7.6-4 15.8 15.8 0 0 0 3.1-10.1c0-4.3-1-7.6-2.9-9.8zm-6 16.8c-.7 2.7-2.1 4-4 3.9a4.1 4.1 0 0 1-3-1.3 3.6 3.6 0 0 1-1.4-2.1V20.1c0-.5.5-1.2 1.4-2.3a4 4 0 0 1 3.2-1.6c1.7 0 2.9 1 3.5 2.9a26.6 26.6 0 0 1 .9 7.7 26 26 0 0 1-.6 6.4zM111.2 16.3v-1.6l1.8-1.6a23.7 23.7 0 0 0 2.7-2.8 45.4 45.4 0 0 0 4.6-6h1.4v9.4h5.3v2.5h-5.3V33a4.2 4.2 0 0 0 .4 2 2 2 0 0 0 1.8 1.2 2.5 2.5 0 0 0 1.8-.8 9.5 9.5 0 0 0 1.5-2.1l1.3.7a13 13 0 0 1-2.3 3.7 7.8 7.8 0 0 1-5.9 2.5 7.1 7.1 0 0 1-3.4-.7c-1.9-.9-2.8-2.7-2.8-5.2V16.2h-2.9z" fill="#222"/><path d="M128.4 38.2a4.4 4.4 0 0 0 2-.7 3.7 3.7 0 0 0 .8-2.6V18.5a3.3 3.3 0 0 0-.6-2.3 4.2 4.2 0 0 0-2.3-.9V14H139v21.2a3.7 3.7 0 0 0 .5 2.3 4.8 4.8 0 0 0 2 .8v1.3h-13.3v-1.4zM132.1 2.2a4.4 4.4 0 0 1 3.1-1.3 3.8 3.8 0 0 1 3 1.3 4.6 4.6 0 0 1 1.3 3.1 4.2 4.2 0 0 1-1.3 3.1 4.1 4.1 0 0 1-3 1.3 4.2 4.2 0 0 1-3.1-1.3 4.3 4.3 0 0 1 0-6.2zM161.5 14.8a5.1 5.1 0 0 1 2.6 4.4 3.3 3.3 0 0 1-1 2.5 3.6 3.6 0 0 1-2.6 1.1 4.1 4.1 0 0 1-1.9-.5 3.4 3.4 0 0 1-1.5-3.2v-1.7c0-1-.2-1.7-.7-2a2.4 2.4 0 0 0-1.6-.5 3.9 3.9 0 0 0-3.7 2.9 18.8 18.8 0 0 0-1.1 6.5 17.1 17.1 0 0 0 2.1 8.8c1.4 2.4 3.2 3.5 5.6 3.5a6.7 6.7 0 0 0 3.8-1 13.2 13.2 0 0 0 2.3-2.1l1 1a13.8 13.8 0 0 1-6.4 5.2 12.2 12.2 0 0 1-12.9-3.1 13.6 13.6 0 0 1-3.4-9.4 14.4 14.4 0 0 1 3.6-9.9 12.2 12.2 0 0 1 9.6-4.1 10.3 10.3 0 0 1 6.2 1.6zM166 31.1h1.6a8.8 8.8 0 0 0 3.1 5.7 7.7 7.7 0 0 0 4.6 1.7 4.4 4.4 0 0 0 3.2-1 3.3 3.3 0 0 0 1-2.6 3.6 3.6 0 0 0-1.1-2.6 6.2 6.2 0 0 0-1.9-1.2l-4.1-2a13 13 0 0 1-4.7-3.5 6.8 6.8 0 0 1-1.4-4.4 7.9 7.9 0 0 1 2.3-5.6 8.2 8.2 0 0 1 6.3-2.4 13.6 13.6 0 0 1 3.8.6 12.8 12.8 0 0 0 2.5.6 1.3 1.3 0 0 0 1-.3 2.2 2.2 0 0 0 .5-.8h1.2v8.1h-1.4a10 10 0 0 0-2.6-4.6 6 6 0 0 0-4.2-1.7 3.6 3.6 0 0 0-2.8 1 3.3 3.3 0 0 0-.9 2.2 3.4 3.4 0 0 0 .8 2 7.7 7.7 0 0 0 3 2.1l3.1 1.5a15.3 15.3 0 0 1 4.1 2.6 7.2 7.2 0 0 1 2.2 5.4 8.9 8.9 0 0 1-2.3 5.8c-1.5 1.8-3.8 2.7-6.8 2.7a19.5 19.5 0 0 1-2.3-.2 25.5 25.5 0 0 1-2.8-.8l-1-.3-.6-.2h-.3a1 1 0 0 0-.8.4 8.1 8.1 0 0 0-.8 1.2h-1.3v-9.4z" fill="#222"/></svg>