<svg xmlns="http://www.w3.org/2000/svg" viewBox="0 0 225 90"><title>friend of hungaryArtboard 54 copy 3ldpi</title><polygon points="105.56 22.99 112.6 22.99 112.6 22.14 105.56 22.14 105.56 16.05 112.9 16.05 112.9 15.16 104.43 15.16 104.43 30.32 105.56 30.32 105.56 22.99" style="fill:#58595b"/><path d="M116.1,30.32h1v-7.5c.37-.7,1.13-2.67,2.58-2.67a3,3,0,0,1,1.82.59l.37-.85a3.93,3.93,0,0,0-2-.51c-1.56,0-2.37,1.4-2.84,2.25l-.32-2h-.81a20.26,20.26,0,0,1,.2,2.39Z" style="fill:#58595b"/><polygon points="125.03 30.32 125.13 19.61 124.12 19.61 124.03 30.32 125.03 30.32" style="fill:#58595b"/><rect x="123.93" y="15.16" width="1.18" height="1.59" style="fill:#58595b"/><path d="M132.47,20.15c2.46,0,3.45,1.45,3.45,4.27h-6.8c.15-2.58,1.18-4.27,3.35-4.27m.05,10.41a9.44,9.44,0,0,0,4-.87l-.29-.87a7.26,7.26,0,0,1-3.47,1c-2.76,0-3.57-2-3.57-4.6h7.75c0-3.19-.79-5.81-4.43-5.81-3.42,0-4.43,3.21-4.43,5.69,0,3,1.21,5.49,4.48,5.49" style="fill:#58595b"/><path d="M140,30.32h1V22.54a3.64,3.64,0,0,1,3.13-2.39c2.46,0,2.86,1.67,2.86,3.61v6.56h1V23.57c0-2.46-.91-4.19-3.72-4.19a4.05,4.05,0,0,0-3.35,1.92l-.32-1.69h-.81c.05.89.2,1.39.2,2.28Z" style="fill:#58595b"/><path d="M155.34,20.15a3.53,3.53,0,0,1,3.25,2.42V28a3.59,3.59,0,0,1-3.05,1.79c-2.61,0-3.52-2-3.52-4.83,0-3.28,1.33-4.81,3.32-4.81m-.05,10.41h.05a4.27,4.27,0,0,0,3.28-1.6l.32,1.36h.81a24.07,24.07,0,0,1-.2-3.28V14.92h-1V21.3a3.81,3.81,0,0,0-3.3-1.92c-2.83,0-4.3,2.51-4.3,5.53s1.13,5.6,4.35,5.65" style="fill:#58595b"/><path d="M165.86,25.14c1.52.45,2.93.85,2.93,2.35s-1.09,2.3-2.64,2.3a7.09,7.09,0,0,1-3.35-.73l-.37.84a8.79,8.79,0,0,0,3.62.66c2.12,0,3.82-1.06,3.82-3.1,0-2.27-2-2.76-3.79-3.28-1.38-.4-2.59-.77-2.59-2,0-1.54,1.31-2.06,2.78-2.06a6.54,6.54,0,0,1,3,.78l.37-.85a10.11,10.11,0,0,0-3.17-.7c-2.29,0-4.09.8-4.09,2.9,0,1.79,1.75,2.37,3.45,2.86" style="fill:#58595b"/><path d="M182.62,29.79c-2.88,0-3.59-2.25-3.59-4.88s.91-4.76,3.59-4.76c2.86,0,3.57,2.13,3.57,4.76s-.59,4.88-3.57,4.88m4.66-4.88c0-3.07-1.06-5.53-4.66-5.53s-4.68,2.58-4.68,5.53c0,3.12,1.09,5.65,4.68,5.65s4.66-2.53,4.66-5.65" style="fill:#58595b"/><path d="M194.76,15.42l-.25-.85c-2.48.19-3.79,1.43-3.79,3.54v1.5h-1.87v.78h1.87v9.93h1V20.39h2.32v-.78h-2.32V18c0-1.38.45-2.39,3-2.62" style="fill:#58595b"/><polygon points="113.73 42.69 105.56 42.69 105.56 35.79 104.43 35.79 104.43 50.96 105.56 50.96 105.56 43.58 113.73 43.58 113.73 50.96 114.87 50.96 114.87 35.79 113.73 35.79 113.73 42.69" style="fill:#58595b"/><path d="M126.93,40.25h-1V48a3.47,3.47,0,0,1-3,2.39c-2.41,0-2.78-1.66-2.78-3.61V40.25h-1V47c0,2.46.84,4.2,3.52,4.2A3.85,3.85,0,0,0,126,49.27l.32,1.69h.81c0-.89-.2-1.38-.2-2.27Z" style="fill:#58595b"/><path d="M134.76,40a4.05,4.05,0,0,0-3.35,1.93l-.32-1.69h-.81c.05.89.2,1.38.2,2.27V51h1V43.18a3.61,3.61,0,0,1,3.12-2.39c2.46,0,2.86,1.66,2.86,3.61V51h1V44.21c0-2.46-.91-4.2-3.72-4.2" style="fill:#58595b"/><path d="M144.63,50.59c3.72.3,5.35.63,5.35,2s-1.16,2.25-3.8,2.25c-2.9,0-3.89-.91-3.89-2.15,0-.82.77-1.76,2.34-2.06M142.86,44A2.93,2.93,0,0,1,146,40.79a2.84,2.84,0,0,1,3.15,3.12c0,1.78-.81,3.25-3.13,3.25a2.91,2.91,0,0,1-3.2-3.18m-1.65,8.67c0,1.8,1.33,2.93,5,2.93,2.69,0,4.88-1,4.88-3,0-1.19-.89-2.29-4.63-2.67-2.88-.3-3.35-.65-3.35-1.33a1.73,1.73,0,0,1,.64-1.15,5.75,5.75,0,0,0,2.32.54c3.12,0,4.23-2,4.23-4.08a3.66,3.66,0,0,0-1.43-2.93h1.73l.37-.84c-1.19,0-2.17.16-3.08.23A4.58,4.58,0,0,0,146,40a3.89,3.89,0,0,0-4.21,3.92,4,4,0,0,0,1.3,3,2.29,2.29,0,0,0-1,1.67c0,.86.79,1.38,1.57,1.68-1,.22-2.46,1-2.46,2.35" style="fill:#58595b"/><path d="M160.19,48.71a3.52,3.52,0,0,1-3.2,1.71c-1.87,0-2.85-.94-2.85-2.3,0-2,1.23-2.76,5.22-2.76h.83Zm1-5.25c0-2.34-1.41-3.45-3.62-3.45a10.43,10.43,0,0,0-4,.85l.36.84a8.1,8.1,0,0,1,3.67-.91c1.87,0,2.59,1,2.59,2.79v1H159c-4.78,0-6,1.41-6,3.59s2,3,3.94,3a3.8,3.8,0,0,0,3.28-1.59c0,.38.37,1.1.39,1.36h.81c-.15-1.36-.29-2.44-.29-3.28Z" style="fill:#58595b"/><path d="M165.81,42.26l-.32-2h-.82a20.06,20.06,0,0,1,.2,2.39V51h1v-7.5c.37-.7,1.13-2.67,2.58-2.67a3,3,0,0,1,1.83.58l.37-.84a3.88,3.88,0,0,0-2-.52c-1.55,0-2.37,1.41-2.83,2.25" style="fill:#58595b"/><path d="M177,49.41l-3.94-9.19-1.08,0,4.51,10.27-1,2.48c-.25.63-.81,1.17-2.17,1.52l.3.89c1.8-.63,2.39-1.14,3-2.74l4.71-12.42h-1Z" style="fill:#58595b"/><polygon points="104.43 71.6 105.56 71.6 105.56 64.26 112.6 64.26 112.6 63.42 105.56 63.42 105.56 57.32 112.9 57.32 112.9 56.43 104.43 56.43 104.43 71.6" style="fill:#58595b"/><path d="M120.21,71.06c-2.88,0-3.59-2.25-3.59-4.88s.91-4.76,3.59-4.76c2.86,0,3.57,2.14,3.57,4.76s-.59,4.88-3.57,4.88m0-10.41c-3.59,0-4.68,2.58-4.68,5.53,0,3.12,1.09,5.65,4.68,5.65s4.65-2.53,4.65-5.65-1.06-5.53-4.65-5.53" style="fill:#58595b"/><path d="M135.67,60.88h-1v7.79a3.47,3.47,0,0,1-3,2.39c-2.41,0-2.78-1.67-2.78-3.61V60.88h-1v6.76c0,2.46.84,4.19,3.52,4.19a3.84,3.84,0,0,0,3.38-1.92l.32,1.69h.81c-.05-.89-.2-1.39-.2-2.28Z" style="fill:#58595b"/><path d="M143.5,60.65a4.07,4.07,0,0,0-3.35,1.92l-.32-1.69H139c0,.9.2,1.39.2,2.28V71.6h1V63.82a3.61,3.61,0,0,1,3.12-2.4c2.46,0,2.86,1.67,2.86,3.61V71.6h1V64.85c0-2.47-.91-4.2-3.72-4.2" style="fill:#58595b"/><path d="M157.85,69.28a3.59,3.59,0,0,1-3,1.78c-2.61,0-3.52-2-3.52-4.83,0-3.28,1.33-4.81,3.32-4.81a3.54,3.54,0,0,1,3.25,2.42Zm1-13.08h-1v6.37a3.83,3.83,0,0,0-3.29-1.92c-2.84,0-4.31,2.51-4.31,5.53s1.13,5.61,4.36,5.65h0a4.29,4.29,0,0,0,3.28-1.59l.32,1.36H159a24.17,24.17,0,0,1-.2-3.28Z" style="fill:#58595b"/><path d="M168.93,69.35a3.52,3.52,0,0,1-3.2,1.71c-1.87,0-2.85-.94-2.85-2.3,0-2,1.23-2.77,5.22-2.77h.83Zm1-5.25c0-2.35-1.41-3.45-3.62-3.45a10.62,10.62,0,0,0-4,.84l.36.85a8.1,8.1,0,0,1,3.67-.92c1.87,0,2.59,1,2.59,2.79v1h-1.16c-4.78,0-6,1.4-6,3.59s2,3,3.94,3A3.8,3.8,0,0,0,169,70.24c.05.37.37,1.1.39,1.36h.81c-.14-1.36-.29-2.44-.29-3.28Z" style="fill:#58595b"/><path d="M174.92,69V61.66h2.56v-.77h-2.56V58.21h-1v2.68h-1.7v.77h1.7V69c0,2,1.25,3.14,3.76,3.58l.27-.89c-2.16-.35-3-1.17-3-2.69" style="fill:#58595b"/><rect x="180.04" y="56.43" width="1.18" height="1.59" style="fill:#58595b"/><polygon points="180.13 71.6 181.15 71.6 181.24 60.88 180.23 60.88 180.13 71.6" style="fill:#58595b"/><path d="M188.83,71.06c-2.88,0-3.6-2.25-3.6-4.88s.91-4.76,3.6-4.76c2.85,0,3.57,2.14,3.57,4.76s-.6,4.88-3.57,4.88m0-10.41c-3.6,0-4.68,2.58-4.68,5.53,0,3.12,1.08,5.65,4.68,5.65s4.65-2.53,4.65-5.65-1.06-5.53-4.65-5.53" style="fill:#58595b"/><path d="M200.74,60.65a4.07,4.07,0,0,0-3.35,1.92l-.32-1.69h-.81c.05.9.2,1.39.2,2.28V71.6h1V63.82a3.61,3.61,0,0,1,3.12-2.4c2.47,0,2.86,1.67,2.86,3.61V71.6h1V64.85c0-2.47-.91-4.2-3.72-4.2" style="fill:#58595b"/><path d="M52.26,50.91a14.92,14.92,0,1,1,.13-11.82A14.35,14.35,0,0,0,54,39,16.44,16.44,0,1,0,41,61.11,16.39,16.39,0,0,0,53.87,51a14.35,14.35,0,0,0-1.61-.07" style="fill:#fff"/><path d="M53.49,46.16c.5,0,1,.08,1.5.14a15.87,15.87,0,0,0,0-2.58q-.75.09-1.5.12a13.8,13.8,0,0,1,0,2.32" style="fill:#fff"/><path d="M51.85,46.15c.55,0,1.1,0,1.64,0a13.8,13.8,0,0,0,0-2.32c-.54,0-1.09,0-1.64,0a12.62,12.62,0,0,1,0,2.3" style="fill:#008651"/><path d="M67.27,62a14.93,14.93,0,1,1-29.53,4.4,14.72,14.72,0,0,1-.11-3.5q-.77,0-1.5-.15a16.44,16.44,0,1,0,27-11.06,13.59,13.59,0,0,0-.57,1.5A14.87,14.87,0,0,1,67.27,62" style="fill:#fff"/><path d="M50.08,48A16.41,16.41,0,0,0,37.25,58.09a14.35,14.35,0,0,0,1.61.06,14.91,14.91,0,0,1,19.61-7.62c.19-.47.39-.93.62-1.39a16.39,16.39,0,0,0-9-1.19" style="fill:#fff"/><path d="M40.84,31.74a13.4,13.4,0,0,1,9.67,7.16,13.34,13.34,0,0,1-9.67-7.16m9.52,19.35A13.3,13.3,0,0,1,40.76,58a13.27,13.27,0,0,1,9.6-6.89m8.11-.57a14.93,14.93,0,0,0-19.61,7.63,14.35,14.35,0,0,1-1.61-.06,12.92,12.92,0,0,1-1.65-.28,13.3,13.3,0,0,1,.11-25.93c.31-.07.62-.13.94-.18l.71-.08A14.17,14.17,0,0,1,39,31.56a15,15,0,0,0,19.42,8.06c-.19-.51-.34-1-.48-1.57a13.86,13.86,0,0,1-2.26.72c-.31.07-.62.13-.94.17s-.47.07-.7.09a14.35,14.35,0,0,1-1.6.06,14.95,14.95,0,1,0-.13,11.82,12.32,12.32,0,0,1,1.61.07,12.92,12.92,0,0,1,1.65.28,13.39,13.39,0,0,1,2.41.81c.16-.52.34-1,.54-1.55" style="fill:#008651"/><path d="M43,39a16.38,16.38,0,0,0,12.21,3,16.84,16.84,0,0,0,3.76-1c-.2-.46-.39-.92-.55-1.4A14.94,14.94,0,0,1,39,31.56a14.26,14.26,0,0,0-1.6.06A16.32,16.32,0,0,0,43,39" style="fill:#fff"/><path d="M50.52,11a14.93,14.93,0,0,1,12,26,13.23,13.23,0,0,0,.51,1.54A16.44,16.44,0,1,0,36.33,26.93c.5-.06,1-.1,1.5-.13A15,15,0,0,1,50.52,11" style="fill:#fff"/><path d="M62.07,47.39a16.43,16.43,0,0,0,2.55,22.29,13.08,13.08,0,0,0,.58-1.51,14.9,14.9,0,0,1-1.31-20.65c-.39-.32-.77-.66-1.12-1-.24.29-.48.58-.7.88" style="fill:#fff"/><path d="M85.06,44a16.44,16.44,0,0,0-18.69-.61,13.2,13.2,0,0,0,1.23,1,14.94,14.94,0,1,1,1.72,26.49c-.19.47-.39.93-.62,1.38A16.43,16.43,0,0,0,85.06,44" style="fill:#fff"/><path d="M65.64,66.31a13.28,13.28,0,0,1-3.49-11.25,13.29,13.29,0,0,1,3.49,11.25m-1-18.19c-.26-.19-.52-.39-.77-.6A14.9,14.9,0,0,0,65.2,68.17a13.08,13.08,0,0,1-.58,1.51,12.88,12.88,0,0,1-.78,1.47,13.29,13.29,0,0,1-24.57-8.23c-.55,0-1.1,0-1.64,0a14.79,14.79,0,0,0,.11,3.51A14.93,14.93,0,1,0,62.59,53.2a13.59,13.59,0,0,1,.57-1.5A14,14,0,0,1,64,50.22a12.28,12.28,0,0,1,1.25-1.71l-.54-.39" style="fill:#008651"/><path d="M65.94,24.27A13.28,13.28,0,0,1,62.2,35.12a13.28,13.28,0,0,1,3.74-10.85M77.37,46.75a13.2,13.2,0,0,1-8.19-1.4,13.26,13.26,0,0,1,12.33.07,13.39,13.39,0,0,1-4.14,1.33m.12,25.18A14.93,14.93,0,1,0,67.6,44.36a13.23,13.23,0,0,1-2.38-2.22,13,13,0,0,1-1.42-2.06,12.65,12.65,0,0,1-1.24-3A14.93,14.93,0,1,0,37.83,26.8c.55,0,1.09,0,1.64,0a13.3,13.3,0,0,1,24.87-7.49,13.08,13.08,0,0,1,.72,1.51,11.61,11.61,0,0,1,.52,1.54,14.93,14.93,0,0,0,17.51,24,13.2,13.2,0,0,1,1.23,1,14.45,14.45,0,0,1,1.15,1.2A13.29,13.29,0,0,1,69.85,69.3c-.15.52-.33,1-.53,1.55a14.81,14.81,0,0,0,8.17,1.08" style="fill:#008651"/><path d="M73.2,18.83A14.92,14.92,0,0,1,86.8,43.24c.39.33.77.66,1.12,1,.24-.28.48-.57.7-.87A16.44,16.44,0,0,0,73,17.34a17.08,17.08,0,0,0-3.77,1c.21.46.39.92.56,1.4a15,15,0,0,1,3.43-.94" style="fill:#fff"/><path d="M62.2,23.82a16.44,16.44,0,0,0,22.12,23.6,13.2,13.2,0,0,0-1.23-1,14.93,14.93,0,0,1-17.51-24,11.61,11.61,0,0,0-.52-1.54,16.64,16.64,0,0,0-2.86,3" style="fill:#fff"/><path d="M59.88,47.71a17.26,17.26,0,0,0-3.27-1.11,18.62,18.62,0,0,0,0-3.17,16.66,16.66,0,0,0,3-1,18,18,0,0,0,2,2.83c-.31.36-.6.72-.88,1.1s-.6.86-.88,1.3m1-24.86a17.92,17.92,0,0,0-3.34,13.42c.09.6.21,1.19.35,1.78s.3,1.06.48,1.57.35.94.55,1.4a17,17,0,0,1-3.76,1,16.45,16.45,0,0,1-17.8-10.43l-.71.08c-.32.05-.63.11-.94.18a18.14,18.14,0,0,0,16.17,12c.54,0,1.09,0,1.63,0s1-.06,1.5-.12a15.87,15.87,0,0,1,0,2.58c-.49-.06-1-.11-1.5-.14s-1.09,0-1.64,0a19.51,19.51,0,0,0-2,.19A18.1,18.1,0,0,0,35.6,57.81a12.92,12.92,0,0,0,1.65.28,16.45,16.45,0,0,1,21.84-9c-.23.46-.44.92-.62,1.39s-.38,1-.54,1.54a18.09,18.09,0,0,0-.52,7.76,17.91,17.91,0,0,0,6.43,11.32,12.88,12.88,0,0,0,.78-1.47,16.43,16.43,0,0,1-2.55-22.29c.22-.3.45-.6.69-.88.36.35.74.69,1.13,1s.5.41.77.6l.54.39a18.11,18.11,0,0,0,20.27.11,13,13,0,0,0-1.15-1.2,16.45,16.45,0,0,1-19.26-26.6,13.08,13.08,0,0,0-.72-1.51,18.15,18.15,0,0,0-3.46,3.54" style="fill:#cd2129"/><path d="M88.49,67A16.45,16.45,0,0,1,68.7,72.23c.23-.45.43-.91.62-1.38s.38-1,.53-1.55A18.09,18.09,0,0,0,64,50.22a14,14,0,0,0-.79,1.48A16.43,16.43,0,1,1,36.25,66.64a16.84,16.84,0,0,1-.12-3.88q.75.1,1.5.15c.54,0,1.09,0,1.64,0a19.51,19.51,0,0,0,2-.19,17.93,17.93,0,0,0,11.86-7.12,18.29,18.29,0,0,0,2.38-4.35A12.92,12.92,0,0,0,53.87,51a16.14,16.14,0,0,1-2,3.66A16.41,16.41,0,1,1,54,39c.23,0,.47-.05.7-.09s.63-.1.94-.17a18.07,18.07,0,0,0-16.16-12c-.54,0-1.09,0-1.64,0s-1,.07-1.5.13A16.43,16.43,0,1,1,63.07,38.57a13.14,13.14,0,0,0,.73,1.51,18.14,18.14,0,0,0,6.8-17c-.09-.6-.21-1.19-.35-1.78s-.3-1.05-.48-1.57-.35-.94-.56-1.4a17.08,17.08,0,0,1,3.77-1,16.44,16.44,0,0,1,15.64,26c-.22.3-.46.59-.7.87-.35-.35-.73-.69-1.12-1s-.5-.4-.77-.6-.35-.26-.54-.38a17.94,17.94,0,0,0-12.88-3,18.16,18.16,0,0,0-7.39,2.85,13.15,13.15,0,0,0,1.15,1.21A16.44,16.44,0,0,1,88.49,67m4.79-36a18.07,18.07,0,0,0-20.54-15.2,18.25,18.25,0,0,0-4.27,1.18,18.08,18.08,0,0,0-33.76,10.3,18.08,18.08,0,0,0-.2,35.25,18.2,18.2,0,0,0,.12,4.42A18.07,18.07,0,0,0,67,75q.47-.63.87-1.29A18.08,18.08,0,0,0,89.05,45.45c.31-.35.6-.72.88-1.1a18,18,0,0,0,3.35-13.42" style="fill:#cd2129"/><path d="M88.56,31.64a13.27,13.27,0,0,1-3.07,10.62l.54.38.77.6a14.93,14.93,0,0,0-17-23.47c.18.52.34,1,.47,1.57a13.33,13.33,0,0,1,18.32,10.3" style="fill:#008651"/></svg>