<?xml version="1.0" encoding="utf-8"?>
<!-- Generator: Adobe Illustrator 16.0.3, SVG Export Plug-In . SVG Version: 6.00 Build 0)  -->
<!DOCTYPE svg PUBLIC "-//W3C//DTD SVG 1.1//EN" "http://www.w3.org/Graphics/SVG/1.1/DTD/svg11.dtd">
<svg version="1.1" xmlns="http://www.w3.org/2000/svg" xmlns:xlink="http://www.w3.org/1999/xlink" x="0px" y="0px" width="1400px"
	 height="1198px" viewBox="0 0 1400 1198" enable-background="new 0 0 1400 1198" xml:space="preserve">
<g id="Capa_1">
</g>
<g id="Capa_2">
	<path fill-rule="evenodd" clip-rule="evenodd" fill="none" stroke="#FFFFFF" stroke-width="38" stroke-miterlimit="10" d="
		M1013.719,731.499c36.93-50.349,69.697-103.276,98.053-158.908c21.002-41.204,39.549-83.49,54.564-127.256
		c7.707-22.465,15.133-45.009,17.42-68.921c1.25-13.063-0.064-25.795-2.969-38.388c-2.494-10.81-7.65-20.514-14.365-29.367
		c-16.777-22.12-39.988-34.934-65.408-43.903c-19.736-6.963-109.527-29.195-134.428-33.562
		c-64.551-11.318-165.027-27.157-259.998-29.474c-46.154-1.126-92.277-0.097-138.316,3.731
		c-18.416,1.531-97.865,14.137-118.967,19.645c-35.384,9.235-69.617,21.443-101.835,38.857
		c-27.067,14.63-51.966,32.186-72.722,55.217c-6.778,7.521-13.006,15.411-18.603,23.827c-19.544,29.388-29.98,61.784-31.787,96.956
		c-0.959,18.679,0.299,37.252,3.184,55.748c3.128,20.06,5.942,40.177,10.133,60.046c7.114,33.728,16.571,66.795,28.283,99.236
		c23.932,66.29,55.865,128.594,93.777,187.859c16.984,26.55,36.615,51.175,57.927,74.422c19.786,21.583,41.563,40.969,66.147,56.861
		c35.364,22.862,73.811,37.1,116.284,39.39c23.145,1.249,45.859-1.166,68.33-6.537c0.797-0.244,47.326-13.904,68.697-23.648
		c46.711-21.298,88.416-50.219,127.076-83.732c36.225-31.401,68.842-66.276,99.025-103.455
		C975.484,781.04,1010.395,736.03,1013.719,731.499z"/>
	<linearGradient id="SVGID_1_" gradientUnits="userSpaceOnUse" x1="224.0396" y1="607.5649" x2="1184.228" y2="607.5649">
		<stop  offset="0" style="stop-color:#E66621"/>
		<stop  offset="0.1033" style="stop-color:#E87120"/>
		<stop  offset="0.3597" style="stop-color:#EE881C"/>
		<stop  offset="0.5122" style="stop-color:#F09019"/>
		<stop  offset="0.5655" style="stop-color:#F19718"/>
		<stop  offset="0.7044" style="stop-color:#F4A614"/>
		<stop  offset="0.8475" style="stop-color:#F6AF11"/>
		<stop  offset="1" style="stop-color:#F6B20F"/>
	</linearGradient>
	<path fill-rule="evenodd" clip-rule="evenodd" fill="url(#SVGID_1_)" d="M1013.719,731.499
		c36.93-50.349,69.697-103.276,98.053-158.908c21.002-41.204,39.549-83.49,54.564-127.256c7.707-22.465,15.133-45.009,17.42-68.921
		c1.25-13.063-0.064-25.795-2.969-38.388c-2.494-10.81-7.65-20.514-14.365-29.367c-16.777-22.12-39.988-34.934-65.408-43.903
		c-19.736-6.963-109.527-29.195-134.428-33.562c-64.551-11.318-165.027-27.157-259.998-29.474
		c-46.154-1.126-92.277-0.097-138.316,3.731c-18.416,1.531-97.865,14.137-118.967,19.645
		c-35.384,9.235-69.617,21.443-101.835,38.857c-27.067,14.63-51.966,32.186-72.722,55.217c-6.778,7.521-13.006,15.411-18.603,23.827
		c-19.544,29.388-29.98,61.784-31.787,96.956c-0.959,18.679,0.299,37.252,3.184,55.748c3.128,20.06,5.942,40.177,10.133,60.046
		c7.114,33.728,16.571,66.795,28.283,99.236c23.932,66.29,55.865,128.594,93.777,187.859c16.984,26.55,36.615,51.175,57.927,74.422
		c19.786,21.583,41.563,40.969,66.147,56.861c35.364,22.862,73.811,37.1,116.284,39.39c23.145,1.249,45.859-1.166,68.33-6.537
		c0.797-0.244,47.326-13.904,68.697-23.648c46.711-21.298,88.416-50.219,127.076-83.732c36.225-31.401,68.842-66.276,99.025-103.455
		C975.484,781.04,1010.395,736.03,1013.719,731.499z"/>
	<path fill-rule="evenodd" clip-rule="evenodd" fill="#010202" d="M1002.02,508.576c-4.383-0.259-10.045,0.007-15.621-1.352
		c-9.254-2.255-15.572-7.731-19.301-16.482c-3.641-8.548-4.752-17.604-5.891-26.679c-1.906-15.186-3.75-30.378-5.768-45.548
		c-1.133-8.537-2.145-17.086-3.182-25.631c-0.902-7.426-1.164-14.811-0.801-22.225c0.268-5.456,2.125-10.426,5-15.191
		c3.631-6.02,9.18-9.08,15.416-11.055c12.725-4.027,25.908-5.743,39.125-7.313c8.115-0.963,16.236-1.651,24.395-1.925
		c4.496-0.15,8.986-0.08,13.451,0.712c10.748,1.906,18.027,8.036,22.178,18.018c2.836,6.822,4.037,14.048,4.947,21.31
		c3.387,27.077,6.848,54.148,9.922,81.262c0.801,7.063,0.873,14.255-0.52,21.396c-1.771,9.077-7.018,15.244-15.045,19.315
		c-6.902,3.502-14.385,5.393-21.922,6.506C1033.438,505.903,1018.463,508.283,1002.02,508.576z M1048.375,448.54
		c-0.135-2.492-0.102-5.008-0.438-7.474c-1.84-13.513-3.719-27.021-5.703-40.514c-0.676-4.595-0.99-9.266-2.324-13.747
		c-2.273-7.635-6.854-10.969-14.729-10.699c-6.83,0.233-13.604,1.131-20.344,2.16c-5.787,0.885-9.674,5.611-9.816,11.495
		c-0.088,3.663,0.09,7.314,0.543,10.966c1.6,12.867,3.035,25.756,4.68,38.617c0.781,6.098,1.391,12.238,2.904,18.218
		c1.904,7.515,6.248,10.933,14.041,10.642c5.309-0.198,10.643-0.641,15.891-1.459
		C1045.777,464.767,1048.334,461.561,1048.375,448.54z"/>
	<path fill-rule="evenodd" clip-rule="evenodd" fill="#010202" d="M952.885,515.831c-0.467-0.475-0.883-0.997-1.322-1.497
		c-14.6-16.649-28.578-33.841-43.736-50.001c-1.49-1.588-3.477-3.51-2.924-5.509c0.574-2.08,3.426-1.245,5.244-1.497
		c15.139-2.097,25.75-16.98,27.018-27.314c0.588-4.786,1.109-9.603,0.857-13.695c-0.057-15.607-2.162-29.036-5.928-38.511
		c-6.164-15.515-20.947-25.104-36.82-23.454c-14.377,1.493-28.713,3.376-43.063,5.129c-12.98,1.586-25.949,3.258-38.932,4.826
		c-3.959,0.479-4.809,1.364-4.322,5.434c1.4,11.728,2.854,23.448,4.277,35.173c1.563,12.87,3.111,25.742,4.676,38.612
		c2.086,17.175,4.186,34.348,6.271,51.521c1.125,9.249,2.148,18.511,3.383,27.745c0.557,4.164,1.268,4.541,5.609,4.395
		c7.367-0.248,14.602-1.755,21.971-2.208c6.697-0.411,7.711-2.089,6.92-8.412c-1.814-14.513-3.779-29.007-5.686-43.508
		c-0.717-5.444-1.461-10.887-2.145-16.336c-0.072-0.584,0.188-1.209,0.293-1.815c0.799,0.14,0.998,0.868,1.234,1.433
		c1.24,2.952,3.154,5.458,5.086,7.962c14.627,18.949,29.24,37.908,43.885,56.844c0.902,1.166,1.881,2.324,3.723,1.948
		c6.734-1.376,13.551-2.179,20.387-2.839c7.781-0.751,15.553-1.588,23.334-2.338C954.158,517.727,954.053,517.017,952.885,515.831z
		 M903.254,407.519c-0.037,2.649,0.047,5.274-0.707,7.908c-2.047,7.152-5.701,10.097-13.008,10.825
		c-7.102,0.707-14.221,1.532-21.227,2.864c-6.619,1.258-12.258,4.263-14.236,11.53c-0.109,0.405-0.523,1.01-0.826,1.028
		c-0.984,0.063-0.777-0.832-0.832-1.414c-1.346-14.398-3.268-28.728-5.1-43.068c-0.643-5.042-0.469-5.157,4.582-5.807
		c12.857-1.655,25.73-3.178,38.584-4.856c3.055-0.398,5.121,1.169,7.027,3.025c3.9,3.801,5.293,8.718,5.725,13.971
		C903.346,404.849,903.254,406.188,903.254,407.519z"/>
	<path fill-rule="evenodd" clip-rule="evenodd" fill="#010202" d="M719.904,543.607c-19.32-2.097-32.688-12.193-39.779-30.218
		c-2.883-7.322-2.785-15.326-3.775-23.054c-3.023-23.584-5.936-47.183-8.842-70.782c-1.156-9.403-2.277-18.813-3.229-28.238
		c-0.502-4.963,0.275-5.563,5.352-6.156c7.102-0.829,14.193-1.752,21.277-2.726c6.695-0.92,7.396-0.285,8.195,6.289
		c2.488,20.465,5.146,40.909,7.664,61.37c1.523,12.373,2.811,24.775,4.4,37.139c0.631,4.904,0.725,9.954,3.211,14.503
		c4.098,7.502,9.137,10.301,17.504,9.312c6.936-0.82,13.842-1.916,20.787-2.629c3.811-0.391,6.563-2.217,8.727-5.134
		c3.488-4.703,5.434-10.02,4.801-15.871c-1.309-12.066-2.936-24.099-4.406-36.148c-1.529-12.538-3.01-25.083-4.547-37.621
		c-1.131-9.244-2.328-18.481-3.469-27.725c-0.287-2.31-0.408-4.64-0.723-6.943c-0.418-3.052,1.232-4.264,3.91-4.591
		c8.422-1.03,16.836-2.12,25.271-3.01c4.391-0.463,5.008,0.164,5.672,5.413c1.48,11.713,2.809,23.446,4.266,35.163
		c2.912,23.43,6.131,46.824,8.705,70.291c1.387,12.653,1.307,25.307-6.543,36.508c-2.117,3.019-4.473,5.771-6.924,8.479
		c-7.902,5.584-16.268,10.425-25.949,11.809C747.668,541.008,733.873,543.168,719.904,543.607z"/>
	<path fill-rule="evenodd" clip-rule="evenodd" fill="#010202" d="M449.419,577.251c-21.065,1.171-38.982-15.037-43.701-31.498
		c-2.069-7.217-2.327-14.759-3.354-22.155c-1.829-13.169-3.309-26.387-4.91-39.587c-1.762-14.528-3.481-29.063-5.249-43.591
		c-0.603-4.953-1.378-9.887-1.92-14.846c-0.54-4.937,0.398-5.896,5.132-6.423c6.771-0.755,13.524-1.677,20.287-2.509
		c1.485-0.183,2.977-0.378,4.468-0.413c3.585-0.085,4.355,0.5,4.863,4.12c0.787,5.604,1.416,11.229,2.11,16.847
		c2.223,17.988,4.464,35.974,6.66,53.965c1.471,12.048,2.904,24.1,4.298,36.156c0.637,5.504,2.881,10.194,6.822,14.056
		c2.867,2.81,6.229,4.377,10.374,3.863c8.419-1.045,16.856-1.96,25.259-3.126c3.332-0.462,5.569-2.876,7.443-5.482
		c4.236-5.89,4.933-12.49,4.016-19.514c-1.745-13.35-3.275-26.729-4.936-40.09c-1.723-13.858-3.502-27.709-5.242-41.565
		c-0.89-7.091-1.823-14.179-2.593-21.283c-0.481-4.442,0.417-5.502,4.573-5.928c7.445-0.764,14.885-1.568,22.268-2.827
		c0.815-0.14,1.66-0.128,2.492-0.153c4.165-0.131,4.977,0.526,5.49,4.57c1.006,7.916,2.004,15.832,2.966,23.753
		c1.905,15.684,3.806,31.369,5.668,47.059c1.726,14.535,3.826,29.044,4.985,43.626c1.34,16.857-5.834,34.897-25.665,43.963
		c-7.039,3.218-14.35,4.994-22.017,5.96c-8.855,1.116-17.703,2.253-26.595,3.036C452.092,577.352,450.751,577.251,449.419,577.251z"
		/>
	<path fill-rule="evenodd" clip-rule="evenodd" fill="#010202" d="M267.366,461.873c0.087-14.177,9.268-25.15,24.371-28.827
		c9.067-2.207,18.418-2.611,27.641-3.826c15.152-1.997,30.326-3.83,45.492-5.726c3.294-0.411,6.586-0.863,9.89-1.176
		c3.62-0.343,4.801,0.576,5.292,4.25c1.011,7.578,1.905,15.172,2.869,22.757c0.31,2.437-0.718,3.811-3.129,4.187
		c-3.121,0.487-6.23,1.072-9.364,1.456c-19.143,2.347-38.293,4.626-57.436,6.977c-7.204,0.885-9.153,3.181-8.948,10.473
		c0.206,7.334,1.701,14.537,2.384,21.825c0.198,2.119,1.072,3.007,3.624,2.674c18.302-2.385,36.64-4.49,54.946-6.844
		c3.466-0.445,6.927-0.874,10.404-1.2c3.717-0.35,4.763,0.115,5.226,3.494c1.06,7.739,1.849,15.516,2.751,23.276
		c0.343,2.954-1.106,4.208-3.936,4.537c-16.849,1.96-33.692,3.976-50.532,6.01c-4.771,0.577-9.514,1.427-14.296,1.867
		c-2.831,0.261-3.806,1.529-3.479,4.198c0.766,6.263,1.473,12.533,2.243,18.795c1.236,10.063,2.562,20.116,3.724,30.188
		c0.361,3.128,1.103,6.19,1.186,9.379c0.078,2.972-1.113,4.254-3.932,4.581c-8.587,0.996-17.155,2.173-25.752,3.075
		c-3.923,0.412-4.727-0.363-5.207-4.214c-1.42-11.384-2.748-22.778-4.149-34.164c-1.522-12.37-3.102-24.733-4.631-37.103
		c-2.427-19.639-4.836-39.279-7.239-58.921C267.296,463.215,267.366,462.54,267.366,461.873z"/>
	<path fill-rule="evenodd" clip-rule="evenodd" fill="#010202" d="M597.482,557.961c-6.004,0.031-6.131,0.047-6.756-4.959
		c-1.914-15.343-3.676-30.705-5.584-46.049c-2.133-17.151-4.389-34.287-6.537-51.437c-1.014-8.082-1.846-16.187-2.861-24.269
		c-0.551-4.386-0.641-4.348-4.949-3.795c-10.55,1.353-21.102,2.697-31.657,4.006c-3.953,0.49-5.173-0.395-5.648-4.27
		c-0.89-7.261-1.75-14.526-2.448-21.807c-0.4-4.175,0.313-4.712,4.58-5.246c17.443-2.185,34.855-4.632,52.324-6.576
		c9.215-1.025,18.398-2.275,27.609-3.312c8.885-1,17.754-2.13,26.629-3.193c4.42-0.529,4.934-0.318,5.521,3.938
		c1.045,7.578,1.816,15.193,2.74,22.789c0.365,3.002-1.041,4.117-3.912,4.444c-10.57,1.202-21.113,2.643-31.684,3.856
		c-4.84,0.557-5.037,0.779-4.445,5.445c2.285,17.973,4.465,35.959,6.713,53.937c1.547,12.373,3.176,24.736,4.705,37.111
		c1.307,10.56,2.551,21.127,3.764,31.698c0.354,3.091-0.738,4.212-4.32,4.667c-5.77,0.735-11.533,1.55-17.322,2.079
		C601.51,557.243,599.34,559.451,597.482,557.961z"/>
	<path fill-rule="evenodd" clip-rule="evenodd" fill="#FFFFFF" d="M521.23,683.892c0.372,5.255-0.695,9.932-2.975,14.272
		c-0.878,1.671-1.202,2.386,1.009,3.146c6.81,2.341,11.654,7.104,14.527,13.578c5.454,12.288,10.187,24.877,13.563,37.901
		c3.106,11.986-1.581,28.177-18.071,33.774c-19.647,6.67-38.898,14.494-58.812,20.456c-6.793,2.034-13.872,3.368-20.627,2.782
		c-9.961-0.864-17.946-6.097-22.857-15.51c-5.208-9.982-8.195-20.63-10.728-31.479c-0.793-3.396-1.679-6.751-2.145-10.233
		c-0.804-6.002,0.132-11.577,3.291-16.73c0.89-1.451,1.654-2.521-0.727-3.255c-9.891-3.048-15.305-10.46-19.343-19.468
		c-4.88-10.886-7.365-22.455-9.664-33.989c-2.745-13.774,3.425-24.269,16.822-29.745c8.911-3.643,18.082-6.665,27.196-9.792
		c13.022-4.468,26.095-8.792,39.155-13.149c7.099-2.369,14.233-3.203,21.5-0.577c7.544,2.726,12.502,8.132,15.496,15.296
		c4.546,10.876,8.581,21.955,12.097,33.215C520.936,677.577,521.514,680.839,521.23,683.892z M427.862,721.661
		c3.309-0.135,6.573-0.45,9.842-1.328c20.595-5.532,40.393-13.343,60.312-20.819c8.818-3.31,12.619-9.973,10.536-19.165
		c-0.624-2.752-1.525-5.448-2.408-8.134c-2.959-9.004-6.169-17.924-10.01-26.587c-3.101-6.996-7.578-9.444-15.131-8.743
		c-1.477,0.137-2.97,0.446-4.38,0.909c-13.417,4.406-26.847,8.777-40.213,13.335c-9.128,3.111-18.412,5.835-27.227,9.787
		c-8.435,3.781-11.016,8.063-9.074,17.026c2.383,11.004,4.713,22.063,9.625,32.393C413.457,718.161,419.145,722.149,427.862,721.661
		z M454.797,797.146c2.627,0.179,5.607-0.339,8.484-1.112c21.988-5.91,43.161-14.198,64.396-22.299
		c4.453-1.699,6.727-5.185,7.598-9.749c0.603-3.159,0.707-6.355-0.195-9.405c-3.437-11.62-7.417-23.074-12.426-34.103
		c-3.262-7.184-9.171-9.681-16.891-8.048c-1.619,0.343-3.221,0.813-4.791,1.34c-17.153,5.762-34.331,11.454-51.429,17.376
		c-5.934,2.056-12.101,3.633-17.448,7.172c-4.47,2.958-6.733,7.165-5.649,12.355c2.506,12,4.881,24.025,10.233,35.273
		C440.359,793.681,446.063,797.251,454.797,797.146z"/>
	<path fill-rule="evenodd" clip-rule="evenodd" fill="#FFFFFF" d="M591.973,763.347c-13.857,0.512-23.465-5.512-29.428-17.481
		c-6.625-13.299-9.629-27.667-11.87-42.178c-0.681-4.403,0.472-8.979,2.893-12.897c1.223-1.978,1.059-2.852-1.198-3.515
		c-8.768-2.578-14.127-8.765-18.007-16.735c-5.811-11.938-8.623-24.764-11.041-37.624c-2.312-12.29,3.257-22.156,14.717-27.655
		c10.052-4.823,20.785-7.863,31.312-11.418c13.982-4.722,27.773-10.086,42.088-13.734c14.438-3.679,26.801,2.563,32.4,16.261
		c4.271,10.445,8.191,21.033,11.566,31.822c2.426,7.755,2.449,15.368-0.465,22.899c-0.869,2.248-1.145,3.293,1.621,4.324
		c7.238,2.7,12.01,8.119,14.924,15.178c4.5,10.902,8.656,21.948,12.051,33.24c3.035,10.093,1.859,19.731-4.766,28.299
		c-2.492,3.224-5.754,5.484-9.533,6.988c-12.145,4.835-24.402,9.405-36.631,13.995c-9.25,3.472-18.895,6.102-28.373,9.016
		C600.5,763.278,595.912,763.968,591.973,763.347z M672.479,712.527c-0.051-0.463,0.002-1.845-0.373-3.1
		c-3.652-12.263-7.789-24.364-13.156-35.987c-2.389-5.173-6.813-7.538-12.549-7.416c-2.867,0.062-5.609,0.693-8.305,1.587
		c-11.529,3.824-23.076,7.604-34.574,11.521c-9.758,3.322-19.563,6.542-29.156,10.294c-10.486,4.101-12.866,9.096-10.338,19.92
		c1.324,5.663,2.699,11.316,4.168,16.944c1.475,5.656,3.982,10.919,6.65,16.08c2.357,4.555,6.184,7.138,11.279,8.215
		c5.254,1.11,10.268,0.294,15.26-1.051c20.742-5.586,40.641-13.612,60.797-20.912C669.516,725.966,672.615,720.323,672.479,712.527z
		 M563.523,676.454c2.639-0.135,5.27-0.174,7.902-0.842c22.461-5.699,43.869-14.45,65.508-22.524
		c4.156-1.551,6.539-4.984,7.295-9.426c0.682-4.006,0.539-7.953-0.781-11.832c-1.77-5.193-3.414-10.433-5.295-15.586
		c-1.934-5.297-3.867-10.613-6.199-15.74c-3.223-7.09-7.379-9.295-15.133-8.785c-2.525,0.166-4.939,0.822-7.295,1.618
		c-19.979,6.75-39.943,13.538-59.895,20.37c-3.146,1.077-6.212,2.395-8.951,4.357c-4.17,2.988-6.349,7.086-5.271,12.086
		c2.552,11.842,4.883,23.743,10.084,34.872C549.159,672.867,554.796,676.913,563.523,676.454z"/>
	<path fill-rule="evenodd" clip-rule="evenodd" fill="#FFFFFF" d="M719.904,543.607c13.969-0.439,27.764-2.6,41.557-4.571
		c9.682-1.384,18.047-6.225,25.949-11.809c2.189,1.392,4.811,1.105,7.182,1.848c8.363,2.621,14.006,8.05,16.998,16.225
		c9.584,26.188,19.17,52.378,28.664,78.6c2.656,7.332,5.932,14.469,7.4,22.196c2.99,15.723-4.271,31.906-17.939,40.26
		c-3.605,2.203-7.639,3.254-11.557,4.543c-23.762,7.815-47.566,15.499-71.363,23.204c-3.285,1.064-6.551,2.358-9.93,2.927
		c-4.766,0.8-6.902-0.527-7.725-3.905c-0.951-3.909,0.756-6.521,5.322-8.043c6.455-2.154,12.914-4.304,19.387-6.406
		c21.186-6.882,42.256-14.158,63.617-20.444c11.545-3.396,22.094-17.817,17.168-33.047c-2.604-8.049-5.764-15.915-8.512-23.919
		c-0.971-2.827-2.398-2.275-4.576-1.517c-19.607,6.835-73.691,25.349-81.406,26.711c-14.773,2.609-29.973-5.482-35.992-19.146
		c-4.691-10.648-8.662-21.573-12.34-32.61c-5.322-15.978-1.283-29.718,9.711-41.9c3.602-3.991,8.25-6.032,13.27-7.427
		C716.533,544.891,718.316,544.54,719.904,543.607z M736.334,634.495c2.439,0.168,6.566-1.271,10.684-2.551
		c17.584-5.462,64.555-21.939,70.709-23.96c2.508-0.823,3.104-1.978,1.941-4.387c-1.004-2.083-1.627-4.35-2.426-6.532
		c-5.691-15.577-11.488-31.117-17.031-46.748c-2.307-6.507-6.902-9.479-13.432-10.097c-5.197-0.491-10.311,0.205-15.316,1.509
		c-18.807,4.898-37.324,10.79-55.898,16.483c-1.469,0.45-2.816,1.021-3.902,2.104c-7.994,7.977-11.861,17.35-8.547,28.553
		c3.295,11.143,7.271,22.097,12.111,32.664C718.879,629.509,725.139,634.327,736.334,634.495z"/>
	<path fill-rule="evenodd" clip-rule="evenodd" fill="#FFFFFF" d="M947.898,654.245c-2.107-0.252-4.195-1.374-4.98-4.151
		c-1.186-4.195-2.779-8.287-4.102-12.414c-1.49-4.654-2.4-9.397-3.662-14.07c-1.961-7.266-4.805-14.242-6.467-21.627
		c-1.822-8.087-4.518-15.976-6.811-23.956c-1.789-6.217-3.947-12.328-5.207-18.694c-0.773-3.907,0.23-6.444,3.252-7.957
		c2.584-1.293,5.406-0.593,7.918,2.257c7.797,8.851,15.52,17.769,23.283,26.649c10.844,12.406,21.697,24.806,32.553,37.2
		c0.506,0.575,0.729,1.699,1.807,1.351c1.025-0.332,0.609-1.391,0.73-2.125c4.037-24.433,8.055-48.867,12.063-73.305
		c0.564-3.442,0.951-6.918,1.637-10.335c0.662-3.309,3.307-5.42,6.264-5.339c2.654,0.072,5.102,2.264,5.971,5.194
		c3.818,12.888,7.641,25.775,11.512,38.647c4.385,14.573,8.844,29.125,13.207,43.705c0.418,1.4,0.988,2.83,0.766,4.374
		c-0.418,2.887-2.787,5.286-5.549,5.597c-3.037,0.342-5.789-1.425-6.801-4.691c-2.064-6.661-3.99-13.365-5.961-20.055
		c-3.424-11.623-6.842-23.247-10.254-34.874c-0.23-0.782-0.305-1.859-1.363-1.711c-0.643,0.09-0.441,1.072-0.541,1.687
		c-3.057,18.864-6.117,37.727-9.186,56.589c-0.586,3.602-1.393,7.18-1.742,10.803c-0.322,3.328-1.58,5.818-4.832,6.828
		c-3.133,0.974-5.283-0.637-7.307-2.962c-14.314-16.444-28.707-32.82-43.1-49.197c-1.074-1.225-2.727-3.719-3.371-3.198
		c-1.52,1.227,0.072,3.238,0.535,4.855c5.406,18.827,10.904,37.627,16.318,56.45C955.867,650.593,953.082,654.421,947.898,654.245z"
		/>
	<path fill-rule="evenodd" clip-rule="evenodd" fill="#FFFFFF" d="M846.307,588.255c0.549-7.741,4.352-13.405,10.867-17.431
		c4.033-2.491,8.58-3.558,13.021-4.939c10.139-3.156,20.275-6.32,30.414-9.473c0.635-0.197,1.293-0.314,1.936-0.486
		c4.072-1.089,7.277,0.392,8.416,3.892c1.088,3.345-0.848,6.738-4.809,8.024c-6.639,2.156-31.43,9.634-37.141,11.368
		c-2.229,0.678-4.463,1.406-6.326,2.872c-2.824,2.222-4.471,5.037-3.445,8.709c1.918,6.866,4.027,13.679,5.99,20.533
		c0.604,2.109,1.756,1.816,3.408,1.281c11.219-3.63,40.602-13.142,44.121-14.084c4.68-1.252,8.201,1.7,8.361,6.491
		c0.07,2.131-0.795,3.316-2.502,4.296c-2.486,1.428-32.555,10.801-44.859,14.773c-4.217,1.361-4.186,1.392-2.863,5.805
		c3.236,10.814,6.408,21.649,9.729,32.438c0.508,1.646,0.926,3.209,0.52,4.861c-0.609,2.476-3.379,4.657-5.838,4.743
		c-2.664,0.094-5.189-1.754-6.166-4.859c-2.641-8.388-5.199-16.802-7.734-25.223c-4.447-14.783-8.867-29.574-13.262-44.373
		C847.25,594.467,846.199,591.473,846.307,588.255z"/>
	<path fill-rule="evenodd" clip-rule="evenodd" fill="#FFFFFF" d="M722.072,717.329c-0.027,5.616-4.158,9.813-9.701,9.857
		c-5.787,0.046-10.135-4.344-9.994-10.089c0.137-5.556,4.451-9.719,9.988-9.639C717.914,707.54,722.1,711.797,722.072,717.329z"/>
</g>
</svg>
