<?xml version="1.0" encoding="utf-8"?>
<!-- Generator: Adobe Illustrator 16.0.0, SVG Export Plug-In . SVG Version: 6.00 Build 0)  -->
<!DOCTYPE svg PUBLIC "-//W3C//DTD SVG 1.1//EN" "http://www.w3.org/Graphics/SVG/1.1/DTD/svg11.dtd">
<svg version="1.1" id="Capa_1" xmlns="http://www.w3.org/2000/svg" xmlns:xlink="http://www.w3.org/1999/xlink" x="0px" y="0px"
	 width="463px" height="411px" viewBox="0 0 463 411" enable-background="new 0 0 463 411" xml:space="preserve">
<rect x="0" fill="#F5F5F5" width="463" height="411"/>
<path fill="none" d="z"/>
<g>
	<path fill="#E1E1E1" d="M208.424,207.729c0,14.137-6.133,23.286-16.945,23.286c-10.915,0-17.048-9.149-17.048-23.286
		c0-14.138,6.134-22.767,17.048-22.767C202.29,184.962,208.424,193.59,208.424,207.729 M251.564,169.265h-17.049l-5.314,37.822
		c-0.294-27.703-19.362-39.277-37.723-39.277c-18.608,0-37.839,11.747-37.839,39.918c0,28.171,19.231,39.918,37.839,39.918
		c14.729,0,29.907-7.454,35.493-24.698l-3.268,23.243h17.049L251.564,169.265z"/>
	<path fill="#E1E1E1" d="M286.908,212.512h-17.05c1.871-5.616,5.303-8.734,9.772-8.734
		C285.66,203.778,287.116,207.208,286.908,212.512 M280.776,189.432c-9.67,0-32.539,4.99-32.539,33.994
		c0,16.943,11.954,23.908,27.236,23.908c11.955,0,20.167-2.91,25.885-7.275l-7.485-11.852c-3.95,2.6-9.148,5.095-15.385,5.095
		c-5.613,0-10.083-1.562-10.188-9.046h34.722l0.519-3.118C307.281,198.788,297.511,189.432,280.776,189.432"/>
	<polygon fill="#E1E1E1" points="284.413,184.65 303.54,165.835 283.79,165.835 270.795,184.65 	"/>
</g>
</svg>
