<svg xmlns="http://www.w3.org/2000/svg" xmlns:xlink="http://www.w3.org/1999/xlink" width="300" height="230" viewBox="0 0 300 230">
  <defs>
    <clipPath id="clip-path">
      <path id="screen" d="M81.212,268.848H9.7a9.689,9.689,0,0,1-9.7-9.7V81.7A9.689,9.689,0,0,1,9.7,72H21.333a1.214,1.214,0,0,1,1.212,1.19v.749a5.329,5.329,0,0,0,5.333,5.333H63.515a4.845,4.845,0,0,0,4.848-4.849V73.212A1.214,1.214,0,0,1,69.574,72H81.212a9.689,9.689,0,0,1,9.7,9.7V259.151a9.689,9.689,0,0,1-9.7,9.7Z" transform="translate(0 -72)" fill="#424256"/>
    </clipPath>
    <clipPath id="clip-app-box-RU_300x230">
      <rect width="300" height="230"/>
    </clipPath>
  </defs>
  <g id="app-box-RU_300x230" data-name="app-box-RU 300x230" clip-path="url(#clip-app-box-RU_300x230)">
    <rect width="300" height="230" fill="#fff"/>
    <g id="Group_4231" data-name="Group 4231">
      <g id="banner-border" transform="translate(20)" fill="#fff" stroke="#ddd" stroke-width="2">
        <rect width="280" height="230" rx="5" stroke="none"/>
        <rect x="1" y="1" width="278" height="228" rx="4" fill="none"/>
      </g>
      <path id="Path_3212" data-name="Path 3212" d="M4.573,8.823l2.29-5.776H8.388L4.867,11.339A4.322,4.322,0,0,1,4.2,12.463a2.071,2.071,0,0,1-.721.506,2.678,2.678,0,0,1-1.036.174,2.329,2.329,0,0,1-.69-.062L1.8,12.043l.622.027a1.131,1.131,0,0,0,1.066-.69l.171-.355.26-.608L.526,3.047H2Zm7.69,3.281a1.822,1.822,0,0,0,1.183-.41,1.443,1.443,0,0,0,.561-1.025h1.2a2.293,2.293,0,0,1-.437,1.21,2.881,2.881,0,0,1-1.077.916,3.107,3.107,0,0,1-1.425.342,3.047,3.047,0,0,1-2.4-1.008A4.016,4.016,0,0,1,8.969,9.37V9.158a4.453,4.453,0,0,1,.4-1.921A3.02,3.02,0,0,1,10.5,5.932a3.233,3.233,0,0,1,1.753-.465,2.966,2.966,0,0,1,2.068.745A2.663,2.663,0,0,1,15.2,8.146h-1.2a1.743,1.743,0,0,0-.543-1.179,1.691,1.691,0,0,0-1.207-.461,1.77,1.77,0,0,0-1.494.694,3.259,3.259,0,0,0-.53,2.006v.239a3.194,3.194,0,0,0,.526,1.969A1.779,1.779,0,0,0,12.264,12.1Zm9.857-5.476H19.64V13H18.375V6.629H15.941V5.6h6.18ZM27.809,13a2.657,2.657,0,0,1-.178-.779,2.822,2.822,0,0,1-2.105.916,2.611,2.611,0,0,1-1.794-.619,2,2,0,0,1-.7-1.569,2.091,2.091,0,0,1,.878-1.794,4.142,4.142,0,0,1,2.471-.639h1.23V7.935a1.42,1.42,0,0,0-.4-1.056,1.593,1.593,0,0,0-1.169-.393,1.844,1.844,0,0,0-1.135.342,1.007,1.007,0,0,0-.458.827H23.181a1.745,1.745,0,0,1,.393-1.07,2.683,2.683,0,0,1,1.066-.817,3.588,3.588,0,0,1,1.48-.3,2.924,2.924,0,0,1,2,.639,2.306,2.306,0,0,1,.752,1.76v3.4a4.162,4.162,0,0,0,.26,1.62V13Zm-2.1-.964a2.223,2.223,0,0,0,1.128-.308,1.861,1.861,0,0,0,.772-.8V9.411h-.991q-2.324,0-2.324,1.36a1.151,1.151,0,0,0,.4.93A1.524,1.524,0,0,0,25.71,12.036ZM36.9,13H35.636V9.842h-3.4V13H30.967V5.6h1.271V8.81h3.4V5.6H36.9Zm1.7-3.767a4.369,4.369,0,0,1,.427-1.955,3.187,3.187,0,0,1,1.189-1.34,3.238,3.238,0,0,1,1.74-.472A3.119,3.119,0,0,1,44.4,6.513a4.024,4.024,0,0,1,.933,2.782v.089a4.407,4.407,0,0,1-.414,1.938,3.14,3.14,0,0,1-1.183,1.336,3.275,3.275,0,0,1-1.767.479,3.111,3.111,0,0,1-2.437-1.046A4,4,0,0,1,38.6,9.322Zm1.271.15a3.164,3.164,0,0,0,.571,1.976,1.934,1.934,0,0,0,3.059-.01,3.46,3.46,0,0,0,.567-2.116,3.159,3.159,0,0,0-.578-1.972,1.836,1.836,0,0,0-1.535-.755,1.816,1.816,0,0,0-1.511.745A3.435,3.435,0,0,0,39.867,9.384ZM47.031,13V5.6h2.885a4.144,4.144,0,0,1,2.266.516,1.7,1.7,0,0,1,.79,1.514,1.514,1.514,0,0,1-.308.926,1.906,1.906,0,0,1-.909.632,2.01,2.01,0,0,1,1.077.615,1.592,1.592,0,0,1,.407,1.094,1.8,1.8,0,0,1-.749,1.559,3.571,3.571,0,0,1-2.116.54ZM48.3,9.753v2.229h2.092a1.973,1.973,0,0,0,1.186-.294.973.973,0,0,0,.393-.827q0-1.107-1.627-1.107Zm0-1.012H49.93q1.777,0,1.777-1.039T50.025,6.629H48.3ZM59.7,5.6h1.265V13H59.7V7.606L56.287,13H55.022V5.6h1.265V11Zm8.791,1.025H66.008V13H64.743V6.629H62.31V5.6h6.18Zm3.753,6.508a3.232,3.232,0,0,1-2.447-.988,3.666,3.666,0,0,1-.943-2.642V9.274a4.438,4.438,0,0,1,.42-1.965,3.28,3.28,0,0,1,1.176-1.354,2.956,2.956,0,0,1,1.637-.489,2.77,2.77,0,0,1,2.242.95,4.114,4.114,0,0,1,.8,2.721v.526H70.116a2.629,2.629,0,0,0,.639,1.767,2.009,2.009,0,0,0,1.555.673,2.2,2.2,0,0,0,1.135-.273,2.851,2.851,0,0,0,.813-.725l.772.6A3.106,3.106,0,0,1,72.242,13.137Zm-.157-6.631a1.687,1.687,0,0,0-1.285.557,2.708,2.708,0,0,0-.643,1.562h3.705v-.1a2.409,2.409,0,0,0-.52-1.494A1.588,1.588,0,0,0,72.085,6.506ZM83.3,6.027a2.852,2.852,0,0,1,2.232.933,3.54,3.54,0,0,1,.837,2.458v.116a4.2,4.2,0,0,1-.4,1.87,2.989,2.989,0,0,1-1.159,1.278,3.308,3.308,0,0,1-1.74.455,3.1,3.1,0,0,1-2.4-.995,3.8,3.8,0,0,1-.909-2.669V8.857a6.9,6.9,0,0,1,.865-3.705A3.623,3.623,0,0,1,83.18,3.478a3.391,3.391,0,0,0,1.292-.417.794.794,0,0,0,.335-.677h1.039a2.068,2.068,0,0,1-.386,1.333,2.158,2.158,0,0,1-1.234.677l-.943.212a3.175,3.175,0,0,0-1.692.9,3.252,3.252,0,0,0-.735,1.685A3.119,3.119,0,0,1,83.3,6.027Zm-.246,1.039a1.862,1.862,0,0,0-1.477.625,2.545,2.545,0,0,0-.547,1.733v.109a2.95,2.95,0,0,0,.55,1.883,1.941,1.941,0,0,0,2.977,0,3.249,3.249,0,0,0,.547-2.037,2.466,2.466,0,0,0-.55-1.678A1.886,1.886,0,0,0,83.057,7.066Zm7.807,6.07a3.232,3.232,0,0,1-2.447-.988,3.666,3.666,0,0,1-.943-2.642V9.274a4.438,4.438,0,0,1,.42-1.965,3.28,3.28,0,0,1,1.176-1.354,2.956,2.956,0,0,1,1.637-.489,2.77,2.77,0,0,1,2.242.95,4.114,4.114,0,0,1,.8,2.721v.526H88.737a2.629,2.629,0,0,0,.639,1.767,2.009,2.009,0,0,0,1.555.673,2.2,2.2,0,0,0,1.135-.273,2.851,2.851,0,0,0,.813-.725l.772.6A3.106,3.106,0,0,1,90.863,13.137Zm-.157-6.631a1.687,1.687,0,0,0-1.285.557,2.708,2.708,0,0,0-.643,1.562h3.705v-.1a2.409,2.409,0,0,0-.52-1.494A1.588,1.588,0,0,0,90.706,6.506Zm7.472,5.6a1.822,1.822,0,0,0,1.183-.41,1.443,1.443,0,0,0,.561-1.025h1.2a2.293,2.293,0,0,1-.437,1.21,2.882,2.882,0,0,1-1.077.916,3.107,3.107,0,0,1-1.425.342,3.047,3.047,0,0,1-2.4-1.008,4.016,4.016,0,0,1-.892-2.758V9.158a4.453,4.453,0,0,1,.4-1.921,3.02,3.02,0,0,1,1.138-1.306,3.233,3.233,0,0,1,1.753-.465,2.966,2.966,0,0,1,2.068.745,2.663,2.663,0,0,1,.878,1.935h-1.2a1.743,1.743,0,0,0-.543-1.179,1.691,1.691,0,0,0-1.207-.461,1.77,1.77,0,0,0-1.494.694,3.259,3.259,0,0,0-.53,2.006v.239a3.194,3.194,0,0,0,.526,1.969A1.779,1.779,0,0,0,98.178,12.1Zm10.411.9h-1.265V6.649h-3.4V13h-1.271V5.6h5.94Zm8.094-7.4V13h-1.271V6.649H112.9l-.15,2.769a6.119,6.119,0,0,1-.639,2.728,1.865,1.865,0,0,1-1.637.854h-.506V11.886l.362-.027a1.045,1.045,0,0,0,.882-.711,8.015,8.015,0,0,0,.342-2.379l.137-3.165Zm6.6,7.4a2.657,2.657,0,0,1-.178-.779,2.822,2.822,0,0,1-2.105.916,2.611,2.611,0,0,1-1.794-.619,2,2,0,0,1-.7-1.569,2.091,2.091,0,0,1,.878-1.794,4.141,4.141,0,0,1,2.471-.639h1.23V7.935a1.42,1.42,0,0,0-.4-1.056,1.593,1.593,0,0,0-1.169-.393,1.844,1.844,0,0,0-1.135.342,1.007,1.007,0,0,0-.458.827h-1.271a1.745,1.745,0,0,1,.393-1.07,2.683,2.683,0,0,1,1.066-.817,3.588,3.588,0,0,1,1.48-.3,2.924,2.924,0,0,1,2,.639,2.306,2.306,0,0,1,.752,1.76v3.4a4.162,4.162,0,0,0,.26,1.62V13Zm-2.1-.964a2.223,2.223,0,0,0,1.128-.308,1.861,1.861,0,0,0,.772-.8V9.411h-.991q-2.324,0-2.324,1.36a1.151,1.151,0,0,0,.4.93A1.524,1.524,0,0,0,121.181,12.036Zm10.534-5.407h-2.481V13h-1.265V6.629h-2.434V5.6h6.18ZM138.988,13h-1.265V9.842h-3.4V13h-1.271V5.6h1.271V8.81h3.4V5.6h1.265Zm1.7-3.767a4.369,4.369,0,0,1,.427-1.955,3.187,3.187,0,0,1,1.189-1.34,3.238,3.238,0,0,1,1.74-.472,3.119,3.119,0,0,1,2.444,1.046,4.024,4.024,0,0,1,.933,2.782v.089A4.407,4.407,0,0,1,147,11.322a3.14,3.14,0,0,1-1.183,1.336,3.275,3.275,0,0,1-1.767.479,3.111,3.111,0,0,1-2.437-1.046,4,4,0,0,1-.933-2.769Zm1.271.15a3.164,3.164,0,0,0,.571,1.976,1.934,1.934,0,0,0,3.059-.01,3.46,3.46,0,0,0,.567-2.116,3.159,3.159,0,0,0-.578-1.972,1.836,1.836,0,0,0-1.535-.755,1.816,1.816,0,0,0-1.511.745A3.435,3.435,0,0,0,141.955,9.384Zm10.117,3.753a3.232,3.232,0,0,1-2.447-.988,3.666,3.666,0,0,1-.943-2.642V9.274a4.438,4.438,0,0,1,.42-1.965,3.279,3.279,0,0,1,1.176-1.354,2.956,2.956,0,0,1,1.637-.489,2.77,2.77,0,0,1,2.242.95,4.114,4.114,0,0,1,.8,2.721v.526h-5.011a2.629,2.629,0,0,0,.639,1.767,2.009,2.009,0,0,0,1.555.673,2.2,2.2,0,0,0,1.135-.273,2.851,2.851,0,0,0,.813-.725l.772.6A3.106,3.106,0,0,1,152.072,13.137Zm-.157-6.631a1.687,1.687,0,0,0-1.285.557,2.708,2.708,0,0,0-.643,1.562h3.705v-.1a2.409,2.409,0,0,0-.52-1.494A1.588,1.588,0,0,0,151.915,6.506ZM5.216,29.325,7.731,23.6H9.311V31H8.046V25.62L5.653,31H4.778l-2.44-5.5V31H1.073V23.6H2.714Zm5.79-2.092a4.369,4.369,0,0,1,.427-1.955,3.187,3.187,0,0,1,1.189-1.34,3.238,3.238,0,0,1,1.74-.472,3.119,3.119,0,0,1,2.444,1.046,4.024,4.024,0,0,1,.933,2.782v.089a4.407,4.407,0,0,1-.414,1.938,3.14,3.14,0,0,1-1.183,1.336,3.275,3.275,0,0,1-1.767.479,3.111,3.111,0,0,1-2.437-1.046,4,4,0,0,1-.933-2.769Zm1.271.15a3.164,3.164,0,0,0,.571,1.976,1.934,1.934,0,0,0,3.059-.01,3.46,3.46,0,0,0,.567-2.116,3.159,3.159,0,0,0-.578-1.972,1.836,1.836,0,0,0-1.535-.755,1.816,1.816,0,0,0-1.511.745A3.434,3.434,0,0,0,12.277,27.384Zm10.295-3.356a2.852,2.852,0,0,1,2.232.933,3.54,3.54,0,0,1,.837,2.458v.116a4.2,4.2,0,0,1-.4,1.87,2.989,2.989,0,0,1-1.159,1.278,3.308,3.308,0,0,1-1.74.455,3.1,3.1,0,0,1-2.4-.995,3.8,3.8,0,0,1-.909-2.669v-.615a6.9,6.9,0,0,1,.865-3.705,3.623,3.623,0,0,1,2.553-1.675,3.391,3.391,0,0,0,1.292-.417.794.794,0,0,0,.335-.677h1.039a2.068,2.068,0,0,1-.386,1.333,2.158,2.158,0,0,1-1.234.677l-.943.212a3.175,3.175,0,0,0-1.692.9,3.252,3.252,0,0,0-.735,1.685A3.119,3.119,0,0,1,22.572,24.027Zm-.246,1.039a1.862,1.862,0,0,0-1.477.625,2.545,2.545,0,0,0-.547,1.733v.109a2.95,2.95,0,0,0,.55,1.883,1.941,1.941,0,0,0,2.977,0,3.249,3.249,0,0,0,.547-2.037,2.466,2.466,0,0,0-.55-1.678A1.886,1.886,0,0,0,22.326,25.066ZM31.732,23.6H33V31H31.732V25.606L28.321,31H27.057V23.6h1.265V29Zm9.358,0V31H39.819V24.649H37.3l-.15,2.769a6.12,6.12,0,0,1-.639,2.728A1.865,1.865,0,0,1,34.877,31h-.506V29.886l.362-.027a1.045,1.045,0,0,0,.882-.711,8.015,8.015,0,0,0,.342-2.379l.137-3.165Zm3.411,2.55h1.921a2.96,2.96,0,0,1,1.989.656,2.2,2.2,0,0,1,.731,1.743,2.264,2.264,0,0,1-.752,1.777,2.93,2.93,0,0,1-2.023.67H43.237V23.6H44.5Zm0,1.032v2.782h1.88a1.547,1.547,0,0,0,1.1-.366,1.307,1.307,0,0,0,.39-1,1.392,1.392,0,0,0-.379-1.008,1.451,1.451,0,0,0-1.063-.407ZM56.766,31H55.5V27.842H52.1V31H50.832V23.6H52.1V26.81h3.4V23.6h1.265Zm1.7-3.767a4.369,4.369,0,0,1,.427-1.955,3.187,3.187,0,0,1,1.189-1.34,3.238,3.238,0,0,1,1.74-.472,3.119,3.119,0,0,1,2.444,1.046,4.024,4.024,0,0,1,.933,2.782v.089a4.407,4.407,0,0,1-.414,1.938A3.14,3.14,0,0,1,63.6,30.658a3.275,3.275,0,0,1-1.767.479,3.111,3.111,0,0,1-2.437-1.046,4,4,0,0,1-.933-2.769Zm1.271.15a3.164,3.164,0,0,0,.571,1.976,1.934,1.934,0,0,0,3.059-.01,3.46,3.46,0,0,0,.567-2.116,3.159,3.159,0,0,0-.578-1.972,1.836,1.836,0,0,0-1.535-.755,1.816,1.816,0,0,0-1.511.745A3.434,3.434,0,0,0,59.732,27.384ZM69.85,31.137a3.232,3.232,0,0,1-2.447-.988,3.666,3.666,0,0,1-.943-2.642v-.232a4.438,4.438,0,0,1,.42-1.965,3.28,3.28,0,0,1,1.176-1.354,2.956,2.956,0,0,1,1.637-.489,2.77,2.77,0,0,1,2.242.95,4.114,4.114,0,0,1,.8,2.721v.526H67.724a2.629,2.629,0,0,0,.639,1.767,2.009,2.009,0,0,0,1.555.673,2.2,2.2,0,0,0,1.135-.273,2.851,2.851,0,0,0,.813-.725l.772.6A3.106,3.106,0,0,1,69.85,31.137Zm-.157-6.631a1.687,1.687,0,0,0-1.285.557,2.708,2.708,0,0,0-.643,1.562H71.47v-.1a2.409,2.409,0,0,0-.52-1.494A1.588,1.588,0,0,0,69.692,24.506ZM83.713,31H82.448V24.649h-3.4V31H77.772V23.6h5.94Zm8.278-3.616a4.429,4.429,0,0,1-.772,2.721,2.476,2.476,0,0,1-2.092,1.032,2.713,2.713,0,0,1-2.119-.854v3.562H85.743V23.6H86.9l.062.82a2.605,2.605,0,0,1,2.146-.957,2.522,2.522,0,0,1,2.109,1,4.477,4.477,0,0,1,.776,2.8Zm-1.265-.144a3.268,3.268,0,0,0-.533-1.976,1.718,1.718,0,0,0-1.463-.725,1.859,1.859,0,0,0-1.723,1.019v3.534A1.863,1.863,0,0,0,88.744,30.1a1.71,1.71,0,0,0,1.446-.721A3.567,3.567,0,0,0,90.727,27.24ZM98.383,23.6h1.265V31H98.383V25.606L94.972,31H93.707V23.6h1.265V29Zm9.358,0V31H106.47V24.649h-2.516l-.15,2.769a6.119,6.119,0,0,1-.639,2.728,1.865,1.865,0,0,1-1.637.854h-.506V29.886l.362-.027a1.045,1.045,0,0,0,.882-.711,8.015,8.015,0,0,0,.342-2.379l.137-3.165Zm1.7,3.63a4.369,4.369,0,0,1,.427-1.955,3.187,3.187,0,0,1,1.189-1.34,3.238,3.238,0,0,1,1.74-.472,3.119,3.119,0,0,1,2.444,1.046,4.024,4.024,0,0,1,.933,2.782v.089a4.407,4.407,0,0,1-.414,1.938,3.14,3.14,0,0,1-1.183,1.336,3.275,3.275,0,0,1-1.767.479,3.111,3.111,0,0,1-2.437-1.046,4,4,0,0,1-.933-2.769Zm1.271.15a3.164,3.164,0,0,0,.571,1.976,1.934,1.934,0,0,0,3.059-.01,3.46,3.46,0,0,0,.567-2.116,3.159,3.159,0,0,0-.578-1.972,1.836,1.836,0,0,0-1.535-.755,1.816,1.816,0,0,0-1.511.745A3.434,3.434,0,0,0,110.708,27.384Zm12.8.4h-.889V31h-1.265V27.787h-.889L118.4,31h-1.6l2.646-3.828L117.052,23.6h1.531l1.907,3.063h.868V23.6h1.265v3.063h.861l1.921-3.062h1.531l-2.4,3.575L127.183,31h-1.6Zm7.752,3.35a3.232,3.232,0,0,1-2.447-.988,3.666,3.666,0,0,1-.943-2.642v-.232a4.438,4.438,0,0,1,.42-1.965,3.279,3.279,0,0,1,1.176-1.354,2.956,2.956,0,0,1,1.637-.489,2.77,2.77,0,0,1,2.242.95,4.114,4.114,0,0,1,.8,2.721v.526h-5.011a2.629,2.629,0,0,0,.639,1.767,2.009,2.009,0,0,0,1.555.673,2.2,2.2,0,0,0,1.135-.273,2.851,2.851,0,0,0,.813-.725l.772.6A3.106,3.106,0,0,1,131.264,31.137Zm-.157-6.631a1.687,1.687,0,0,0-1.285.557,2.708,2.708,0,0,0-.643,1.562h3.705v-.1a2.409,2.409,0,0,0-.52-1.494A1.588,1.588,0,0,0,131.106,24.506ZM141.654,31H140.39V27.842h-3.4V31h-1.271V23.6h1.271V26.81h3.4V23.6h1.265Zm6.815-7.4h1.265V31H148.47V25.606L145.059,31h-1.265V23.6h1.265V29Zm6.364,7.533a3.232,3.232,0,0,1-2.447-.988,3.666,3.666,0,0,1-.943-2.642v-.232a4.438,4.438,0,0,1,.42-1.965,3.279,3.279,0,0,1,1.176-1.354,2.956,2.956,0,0,1,1.637-.489,2.77,2.77,0,0,1,2.242.95,4.114,4.114,0,0,1,.8,2.721v.526h-5.011a2.629,2.629,0,0,0,.639,1.767,2.009,2.009,0,0,0,1.555.673,2.2,2.2,0,0,0,1.135-.273,2.851,2.851,0,0,0,.813-.725l.772.6A3.106,3.106,0,0,1,154.834,31.137Zm-.157-6.631a1.687,1.687,0,0,0-1.285.557,2.708,2.708,0,0,0-.643,1.562h3.705v-.1a2.409,2.409,0,0,0-.52-1.494A1.588,1.588,0,0,0,154.677,24.506ZM6.781,44.4H2.468v3.527H7.479V49H1.155V39.047H7.41V40.12H2.468v3.206H6.781Zm4.026-5.353,3.254,8.121,3.254-8.121h1.7V49H17.705V45.124l.123-4.184L14.561,49h-1l-3.261-8.039.13,4.163V49H9.112V39.047ZM22.647,45.1V49H21.335V39.047h3.671a3.688,3.688,0,0,1,2.56.834,2.827,2.827,0,0,1,.926,2.208,2.79,2.79,0,0,1-.906,2.232,3.853,3.853,0,0,1-2.594.783Zm0-1.073h2.358a2.358,2.358,0,0,0,1.613-.5A1.815,1.815,0,0,0,27.18,42.1a1.876,1.876,0,0,0-.561-1.424,2.209,2.209,0,0,0-1.538-.555H22.647Zm13.146.369H31.479v3.527H36.49V49H30.167V39.047h6.255V40.12H31.479v3.206h4.313Zm9.98,4.6H44.454l-5.011-7.67V49H38.124V39.047h1.319l5.024,7.7v-7.7h1.306ZM48.1,49V39.047h2.81a4.523,4.523,0,0,1,2.3.574,3.884,3.884,0,0,1,1.542,1.634,5.318,5.318,0,0,1,.55,2.434v.636a5.336,5.336,0,0,1-.543,2.468,3.823,3.823,0,0,1-1.552,1.627A4.811,4.811,0,0,1,50.859,49Zm1.313-8.88v7.807H50.8a3,3,0,0,0,2.362-.944A3.9,3.9,0,0,0,54,44.294v-.582a3.963,3.963,0,0,0-.8-2.637,2.834,2.834,0,0,0-2.259-.954ZM58.693,49H57.381V39.047h1.313ZM68.1,39.047v6.768a3.175,3.175,0,0,1-.885,2.3,3.567,3.567,0,0,1-2.382,1l-.349.014a3.725,3.725,0,0,1-2.6-.882,3.154,3.154,0,0,1-.984-2.427V39.047h1.3v6.74a2.076,2.076,0,0,0,2.29,2.276,2.3,2.3,0,0,0,1.706-.595,2.272,2.272,0,0,0,.591-1.675V39.047Zm3.767,0,3.254,8.121,3.254-8.121h1.7V49H78.764V45.124l.123-4.184L75.619,49h-1l-3.261-8.039.13,4.163V49H70.171V39.047ZM91.7,49H90.439V45.842h-3.4V49H85.771V41.6h1.271V44.81h3.4V41.6H91.7Zm6.6,0a2.657,2.657,0,0,1-.178-.779,2.822,2.822,0,0,1-2.105.916,2.611,2.611,0,0,1-1.794-.619,2,2,0,0,1-.7-1.569,2.091,2.091,0,0,1,.878-1.794,4.142,4.142,0,0,1,2.471-.639H98.1v-.581a1.42,1.42,0,0,0-.4-1.056,1.593,1.593,0,0,0-1.169-.393,1.844,1.844,0,0,0-1.135.342,1.007,1.007,0,0,0-.458.827H93.673a1.745,1.745,0,0,1,.393-1.07,2.683,2.683,0,0,1,1.066-.817,3.588,3.588,0,0,1,1.48-.3,2.924,2.924,0,0,1,2,.639,2.306,2.306,0,0,1,.752,1.76v3.4a4.162,4.162,0,0,0,.26,1.62V49Zm-2.1-.964a2.223,2.223,0,0,0,1.128-.308,1.861,1.861,0,0,0,.772-.8V45.411h-.991q-2.324,0-2.324,1.36a1.151,1.151,0,0,0,.4.93A1.524,1.524,0,0,0,96.2,48.036Zm11.58.068a1.822,1.822,0,0,0,1.183-.41,1.443,1.443,0,0,0,.561-1.025h1.2a2.293,2.293,0,0,1-.437,1.21,2.881,2.881,0,0,1-1.077.916,3.107,3.107,0,0,1-1.425.342,3.047,3.047,0,0,1-2.4-1.008,4.016,4.016,0,0,1-.892-2.758v-.212a4.453,4.453,0,0,1,.4-1.921,3.02,3.02,0,0,1,1.138-1.306,3.233,3.233,0,0,1,1.753-.465,2.966,2.966,0,0,1,2.068.745,2.663,2.663,0,0,1,.878,1.935h-1.2a1.743,1.743,0,0,0-.543-1.179,1.691,1.691,0,0,0-1.207-.461,1.77,1.77,0,0,0-1.494.694,3.259,3.259,0,0,0-.53,2.006v.239a3.194,3.194,0,0,0,.526,1.969A1.779,1.779,0,0,0,107.782,48.1Zm4.478.9V41.6h2.885a4.144,4.144,0,0,1,2.266.516,1.7,1.7,0,0,1,.79,1.514,1.514,1.514,0,0,1-.308.926,1.906,1.906,0,0,1-.909.632,2.01,2.01,0,0,1,1.077.615,1.592,1.592,0,0,1,.407,1.094,1.8,1.8,0,0,1-.749,1.559A3.571,3.571,0,0,1,115.6,49Zm1.265-3.247v2.229h2.092a1.973,1.973,0,0,0,1.186-.294.973.973,0,0,0,.393-.827q0-1.107-1.627-1.107Zm0-1.012h1.634q1.777,0,1.777-1.039t-1.682-1.073h-1.729Zm6.282.492a4.369,4.369,0,0,1,.427-1.955,3.187,3.187,0,0,1,1.189-1.34,3.238,3.238,0,0,1,1.74-.472,3.119,3.119,0,0,1,2.444,1.046,4.024,4.024,0,0,1,.933,2.782v.089a4.407,4.407,0,0,1-.414,1.938,3.14,3.14,0,0,1-1.183,1.336,3.275,3.275,0,0,1-1.767.479,3.111,3.111,0,0,1-2.437-1.046,4,4,0,0,1-.933-2.769Zm1.271.15a3.164,3.164,0,0,0,.571,1.976,1.934,1.934,0,0,0,3.059-.01,3.46,3.46,0,0,0,.567-2.116,3.159,3.159,0,0,0-.578-1.972,1.836,1.836,0,0,0-1.535-.755,1.816,1.816,0,0,0-1.511.745A3.435,3.435,0,0,0,121.078,45.384ZM131.2,49.137a3.232,3.232,0,0,1-2.447-.988,3.666,3.666,0,0,1-.943-2.642v-.232a4.438,4.438,0,0,1,.42-1.965,3.279,3.279,0,0,1,1.176-1.354,2.956,2.956,0,0,1,1.637-.489,2.77,2.77,0,0,1,2.242.95,4.114,4.114,0,0,1,.8,2.721v.526h-5.011a2.629,2.629,0,0,0,.639,1.767,2.009,2.009,0,0,0,1.555.673,2.2,2.2,0,0,0,1.135-.273,2.851,2.851,0,0,0,.813-.725l.772.6A3.106,3.106,0,0,1,131.2,49.137Zm-.157-6.631a1.687,1.687,0,0,0-1.285.557,2.708,2.708,0,0,0-.643,1.562h3.705v-.1a2.409,2.409,0,0,0-.52-1.494A1.588,1.588,0,0,0,131.038,42.506ZM3.377,65.147,5.1,59.6H6.453L3.479,68.142q-.69,1.846-2.194,1.846l-.239-.021-.472-.089V68.853l.342.027a1.683,1.683,0,0,0,1-.26,1.88,1.88,0,0,0,.591-.95l.28-.752L.15,59.6H1.531Zm7.082.957a1.822,1.822,0,0,0,1.183-.41,1.443,1.443,0,0,0,.561-1.025h1.2a2.293,2.293,0,0,1-.437,1.21,2.881,2.881,0,0,1-1.077.916,3.107,3.107,0,0,1-1.425.342,3.047,3.047,0,0,1-2.4-1.008,4.016,4.016,0,0,1-.892-2.758v-.212a4.453,4.453,0,0,1,.4-1.921A3.02,3.02,0,0,1,8.7,59.932a3.233,3.233,0,0,1,1.753-.465,2.966,2.966,0,0,1,2.068.745,2.663,2.663,0,0,1,.878,1.935H12.2a1.743,1.743,0,0,0-.543-1.179,1.691,1.691,0,0,0-1.207-.461,1.77,1.77,0,0,0-1.494.694,3.259,3.259,0,0,0-.53,2.006v.239a3.194,3.194,0,0,0,.526,1.969A1.779,1.779,0,0,0,10.459,66.1Zm9.857-5.476H17.835V67H16.57V60.629H14.137V59.6h6.18Zm7.479,2.755a4.429,4.429,0,0,1-.772,2.721,2.476,2.476,0,0,1-2.092,1.032,2.713,2.713,0,0,1-2.119-.854v3.562H21.547V59.6H22.7l.062.82a2.605,2.605,0,0,1,2.146-.957,2.522,2.522,0,0,1,2.109,1,4.477,4.477,0,0,1,.776,2.8ZM26.53,63.24A3.268,3.268,0,0,0,26,61.265a1.718,1.718,0,0,0-1.463-.725,1.859,1.859,0,0,0-1.723,1.019v3.534A1.863,1.863,0,0,0,24.548,66.1a1.71,1.71,0,0,0,1.446-.721A3.567,3.567,0,0,0,26.53,63.24Zm2.536-.007a4.369,4.369,0,0,1,.427-1.955,3.187,3.187,0,0,1,1.189-1.34,3.238,3.238,0,0,1,1.74-.472,3.119,3.119,0,0,1,2.444,1.046,4.024,4.024,0,0,1,.933,2.782v.089a4.407,4.407,0,0,1-.414,1.938A3.14,3.14,0,0,1,34.2,66.658a3.275,3.275,0,0,1-1.767.479A3.111,3.111,0,0,1,30,66.091a4,4,0,0,1-.933-2.769Zm1.271.15a3.164,3.164,0,0,0,.571,1.976,1.934,1.934,0,0,0,3.059-.01,3.46,3.46,0,0,0,.567-2.116,3.159,3.159,0,0,0-.578-1.972,1.836,1.836,0,0,0-1.535-.755,1.816,1.816,0,0,0-1.511.745A3.435,3.435,0,0,0,30.338,63.384ZM42.171,59.6h1.265V67H42.171V61.606L38.76,67H37.5V59.6H38.76V65Zm.342-2.7a1.7,1.7,0,0,1-.564,1.335,2.422,2.422,0,0,1-2.963,0,1.7,1.7,0,0,1-.567-1.331H39.45a1.035,1.035,0,0,0,.26.749,1,1,0,0,0,.759.27A.931.931,0,0,0,41.487,56.9Zm5.92,9.2a1.822,1.822,0,0,0,1.183-.41,1.443,1.443,0,0,0,.561-1.025h1.2a2.293,2.293,0,0,1-.437,1.21,2.881,2.881,0,0,1-1.077.916,3.107,3.107,0,0,1-1.425.342,3.047,3.047,0,0,1-2.4-1.008,4.016,4.016,0,0,1-.892-2.758v-.212a4.453,4.453,0,0,1,.4-1.921,3.02,3.02,0,0,1,1.138-1.306,3.233,3.233,0,0,1,1.753-.465,2.966,2.966,0,0,1,2.068.745,2.663,2.663,0,0,1,.878,1.935h-1.2a1.743,1.743,0,0,0-.543-1.179,1.691,1.691,0,0,0-1.207-.461,1.77,1.77,0,0,0-1.494.694,3.259,3.259,0,0,0-.53,2.006v.239a3.194,3.194,0,0,0,.526,1.969A1.779,1.779,0,0,0,48.433,66.1Zm9.857-5.476H55.809V67H54.544V60.629H52.11V59.6h6.18ZM59.637,67V59.6h2.885a4.144,4.144,0,0,1,2.266.516,1.7,1.7,0,0,1,.79,1.514,1.514,1.514,0,0,1-.308.926,1.906,1.906,0,0,1-.909.632,2.01,2.01,0,0,1,1.077.615,1.592,1.592,0,0,1,.407,1.094A1.8,1.8,0,0,1,65.1,66.46a3.572,3.572,0,0,1-2.116.54ZM60.9,63.753v2.229h2.092a1.973,1.973,0,0,0,1.186-.294.973.973,0,0,0,.393-.827q0-1.107-1.627-1.107Zm0-1.012h1.634q1.777,0,1.777-1.039t-1.682-1.073H60.9Zm6.282.492a4.369,4.369,0,0,1,.427-1.955,3.187,3.187,0,0,1,1.189-1.34,3.238,3.238,0,0,1,1.74-.472,3.119,3.119,0,0,1,2.444,1.046,4.024,4.024,0,0,1,.933,2.782v.089a4.407,4.407,0,0,1-.414,1.938,3.14,3.14,0,0,1-1.183,1.336,3.275,3.275,0,0,1-1.767.479,3.111,3.111,0,0,1-2.437-1.046,4,4,0,0,1-.933-2.769Zm1.271.15a3.164,3.164,0,0,0,.571,1.976,1.934,1.934,0,0,0,3.059-.01,3.46,3.46,0,0,0,.567-2.116,3.159,3.159,0,0,0-.578-1.972,1.836,1.836,0,0,0-1.535-.755,1.816,1.816,0,0,0-1.511.745A3.435,3.435,0,0,0,68.455,63.384Z" transform="translate(122 96)" fill="#333"/>
      <path id="Path_3211" data-name="Path 3211" d="M12.35,4.833V18H9.386V7.341h-4.9V18H1.52V4.833Zm12.2,8.151a6.5,6.5,0,0,1-.342,2.156,4.685,4.685,0,0,1-.988,1.672,4.446,4.446,0,0,1-1.549,1.073,5.527,5.527,0,0,1-4.028,0,4.446,4.446,0,0,1-1.549-1.073,4.915,4.915,0,0,1-1.007-1.672,6.188,6.188,0,0,1-.361-2.156,5.968,5.968,0,0,1,.37-2.147,4.869,4.869,0,0,1,1.026-1.653A4.608,4.608,0,0,1,17.68,8.12a5.327,5.327,0,0,1,3.952,0A4.508,4.508,0,0,1,23.18,9.184a4.829,4.829,0,0,1,1.007,1.653A6.109,6.109,0,0,1,24.548,12.984Zm-2.888,0a3.559,3.559,0,0,0-.522-2.062,1.709,1.709,0,0,0-1.492-.75,1.733,1.733,0,0,0-1.5.75,3.511,3.511,0,0,0-.532,2.062,3.6,3.6,0,0,0,.532,2.08,1.719,1.719,0,0,0,1.5.769,1.7,1.7,0,0,0,1.492-.769A3.653,3.653,0,0,0,21.66,12.984Zm9.557-2.66q-.019.551-.048,1.168t-.1,1.235q-.076.618-.2,1.207a7.75,7.75,0,0,1-.314,1.1,5.437,5.437,0,0,1-.58,1.13,4.034,4.034,0,0,1-.893.941,4.748,4.748,0,0,1-1.311.694,7.355,7.355,0,0,1-1.8.37l-.38-2.356a4.226,4.226,0,0,0,1.5-.542,2.231,2.231,0,0,0,.8-.9,5.269,5.269,0,0,0,.333-1.1,11.863,11.863,0,0,0,.181-1.32q.057-.694.066-1.415t.009-1.387V8.006h7.505V18H33.155V10.324ZM47.253,18H44.422V14.048H41.477V18H38.646V8.006h2.831V11.73h2.945V8.006h2.831Zm6.479-1.976q.418,0,.8-.019a5.552,5.552,0,0,0,.608-.057V13.8q-.171-.038-.513-.076A5.713,5.713,0,0,0,54,13.687a5.611,5.611,0,0,0-.75.047,1.961,1.961,0,0,0-.618.181,1.06,1.06,0,0,0-.418.361,1.006,1.006,0,0,0-.152.57.971.971,0,0,0,.446.922A2.467,2.467,0,0,0,53.732,16.024ZM53.5,7.74a6.556,6.556,0,0,1,2.09.285,3.246,3.246,0,0,1,1.34.817,3,3,0,0,1,.712,1.292,6.373,6.373,0,0,1,.209,1.691v5.89q-.608.133-1.691.313a16.249,16.249,0,0,1-2.622.181,8.313,8.313,0,0,1-1.757-.171,3.814,3.814,0,0,1-1.359-.56,2.565,2.565,0,0,1-.874-1.017,3.509,3.509,0,0,1-.3-1.539A2.916,2.916,0,0,1,49.6,13.44a2.705,2.705,0,0,1,.941-.969,4.25,4.25,0,0,1,1.349-.523,7.568,7.568,0,0,1,1.577-.161,8.953,8.953,0,0,1,.979.047,4.356,4.356,0,0,1,.694.124v-.266a1.567,1.567,0,0,0-.437-1.159,2.116,2.116,0,0,0-1.52-.437,9.679,9.679,0,0,0-1.425.1,6.113,6.113,0,0,0-1.216.295l-.361-2.28q.247-.076.618-.161T51.6,7.9q.437-.066.922-.114T53.5,7.74Zm11.058,6.707a18.486,18.486,0,0,0-1.088,1.8q-.477.9-.916,1.757h-2.9q.551-1.235,1.121-2.261a18.23,18.23,0,0,1,1.1-1.767A3.6,3.6,0,0,1,60.61,12.9a2.728,2.728,0,0,1-.475-1.644A3,3,0,0,1,61.341,8.69,5.5,5.5,0,0,1,64.676,7.8q.475,0,1.055.038t1.149.114q.57.076,1.092.162t.883.18V18H66.025V14.447Zm1.463-4.408q-.19-.019-.589-.047t-.684-.028a2.14,2.14,0,0,0-1.425.351,1.174,1.174,0,0,0-.38.9,1.053,1.053,0,0,0,.152.58,1.147,1.147,0,0,0,.4.38,1.732,1.732,0,0,0,.551.2,3.292,3.292,0,0,0,.608.057h1.368ZM78.907,15.91q.266.038.712.066t.826.028a3.727,3.727,0,0,0,1.482-.237.974.974,0,0,0,.048-1.71,3.318,3.318,0,0,0-1.415-.238H78.907Zm1.6-3.99a3.026,3.026,0,0,0,1.14-.181.759.759,0,0,0,.437-.788.773.773,0,0,0-.494-.779,3.358,3.358,0,0,0-1.292-.209q-.266,0-.693.028t-.693.066V11.92Zm-.095,6.27q-.532,0-1.14-.038t-1.2-.1q-.589-.066-1.111-.152t-.883-.162V8.158q.361-.076.883-.142t1.111-.123q.589-.057,1.2-.086t1.14-.029a7.519,7.519,0,0,1,2.08.247,4.167,4.167,0,0,1,1.368.646,2.4,2.4,0,0,1,.751.893,2.36,2.36,0,0,1-.1,2.2,1.975,1.975,0,0,1-.817.8,2.6,2.6,0,0,1,.542.323,2.707,2.707,0,0,1,.5.5,2.464,2.464,0,0,1,.37.7,2.85,2.85,0,0,1,.143.941,3.034,3.034,0,0,1-.238,1.178,2.471,2.471,0,0,1-.808,1.007,4.473,4.473,0,0,1-1.5.7A8.491,8.491,0,0,1,80.408,18.19Zm6.555-5.111a6.112,6.112,0,0,1,.408-2.328,4.99,4.99,0,0,1,1.074-1.663,4.466,4.466,0,0,1,1.53-1.007,4.789,4.789,0,0,1,1.776-.342,4.415,4.415,0,0,1,3.363,1.3,5.362,5.362,0,0,1,1.235,3.828q0,.247-.019.542t-.038.523H89.87a1.881,1.881,0,0,0,.817,1.387,3.284,3.284,0,0,0,1.938.513,8.181,8.181,0,0,0,1.53-.142,5.774,5.774,0,0,0,1.226-.351l.38,2.3a3.91,3.91,0,0,1-.608.228,7.955,7.955,0,0,1-.845.2q-.465.086-1,.142a9.98,9.98,0,0,1-1.064.057,6.3,6.3,0,0,1-2.347-.4,4.57,4.57,0,0,1-1.653-1.093,4.336,4.336,0,0,1-.969-1.644A6.51,6.51,0,0,1,86.963,13.079ZM93.613,12a2.922,2.922,0,0,0-.123-.7,1.755,1.755,0,0,0-.323-.608,1.72,1.72,0,0,0-.551-.437,1.8,1.8,0,0,0-.826-.171,1.9,1.9,0,0,0-.817.161,1.688,1.688,0,0,0-.57.428,1.913,1.913,0,0,0-.352.617,4.053,4.053,0,0,0-.18.713Zm11.324,1.083a3.425,3.425,0,0,0-.589-2.1,2.044,2.044,0,0,0-1.748-.788q-.38,0-.7.028t-.532.066V15.4a2.46,2.46,0,0,0,.693.285,3.341,3.341,0,0,0,.865.114Q104.937,15.8,104.937,13.079ZM107.825,13a7.322,7.322,0,0,1-.285,2.109,4.746,4.746,0,0,1-.836,1.634,3.774,3.774,0,0,1-1.368,1.064,4.414,4.414,0,0,1-1.881.38,5.074,5.074,0,0,1-1.1-.114,5.3,5.3,0,0,1-.988-.323v3.762H98.534V8.348q.38-.114.874-.219t1.035-.181q.542-.076,1.1-.124t1.074-.047a6.138,6.138,0,0,1,2.2.371,4.53,4.53,0,0,1,1.634,1.045,4.48,4.48,0,0,1,1.017,1.644A6.317,6.317,0,0,1,107.825,13Zm1.71,0a5.891,5.891,0,0,1,.351-2.043,4.78,4.78,0,0,1,2.632-2.8,5.329,5.329,0,0,1,2.166-.418,6.991,6.991,0,0,1,1.463.142,7.121,7.121,0,0,1,1.292.408l-.589,2.261a7.135,7.135,0,0,0-.874-.266,4.568,4.568,0,0,0-1.064-.114,2.243,2.243,0,0,0-1.871.779A3.207,3.207,0,0,0,112.423,13a3.322,3.322,0,0,0,.579,2.09,2.427,2.427,0,0,0,2.023.741,6.943,6.943,0,0,0,1.1-.095,4.685,4.685,0,0,0,1.083-.3l.4,2.318a6.641,6.641,0,0,1-1.235.361,8.146,8.146,0,0,1-1.634.152,6.15,6.15,0,0,1-2.356-.409,4.438,4.438,0,0,1-1.625-1.111,4.336,4.336,0,0,1-.931-1.663A7.059,7.059,0,0,1,109.535,13Zm19.076-5V18h-2.85q0-.95.019-1.891t.038-1.738q.019-.8.048-1.4t.028-.884q-.551.779-1.1,1.577t-1.054,1.568q-.5.769-.95,1.472T122,18H119.51V8.006h2.831q0,.95-.01,1.814t-.028,1.568q-.019.7-.038,1.226t-.019.807q1.14-1.672,2.1-3t1.872-2.413Zm6.8,6.441a18.489,18.489,0,0,0-1.088,1.8q-.477.9-.916,1.757h-2.9q.551-1.235,1.121-2.261a18.232,18.232,0,0,1,1.1-1.767,3.6,3.6,0,0,1-1.273-1.073,2.728,2.728,0,0,1-.475-1.644,3,3,0,0,1,1.206-2.565,5.5,5.5,0,0,1,3.335-.893q.475,0,1.055.038t1.149.114q.57.076,1.093.162t.883.18V18h-2.831V14.447Zm1.463-4.408q-.19-.019-.589-.047t-.684-.028a2.14,2.14,0,0,0-1.425.351,1.174,1.174,0,0,0-.38.9,1.053,1.053,0,0,0,.152.58,1.147,1.147,0,0,0,.4.38,1.732,1.732,0,0,0,.551.2,3.292,3.292,0,0,0,.608.057h1.368ZM9.937,28.006V38H7.106V30.362H4.161V38H1.33V28.006Zm12.008,4.978A6.5,6.5,0,0,1,21.6,35.14a4.685,4.685,0,0,1-.988,1.672,4.446,4.446,0,0,1-1.549,1.074,5.527,5.527,0,0,1-4.028,0,4.446,4.446,0,0,1-1.549-1.074,4.915,4.915,0,0,1-1.007-1.672,6.188,6.188,0,0,1-.361-2.156,5.968,5.968,0,0,1,.37-2.147,4.869,4.869,0,0,1,1.026-1.653,4.608,4.608,0,0,1,1.558-1.064,5.327,5.327,0,0,1,3.952,0,4.508,4.508,0,0,1,1.549,1.064,4.829,4.829,0,0,1,1.007,1.653A6.109,6.109,0,0,1,21.945,32.984Zm-2.888,0a3.559,3.559,0,0,0-.522-2.062,1.709,1.709,0,0,0-1.492-.75,1.733,1.733,0,0,0-1.5.75,3.511,3.511,0,0,0-.532,2.062,3.6,3.6,0,0,0,.532,2.08,1.719,1.719,0,0,0,1.5.77,1.7,1.7,0,0,0,1.492-.77A3.653,3.653,0,0,0,19.057,32.984Zm4.6.019a5.891,5.891,0,0,1,.352-2.042,4.78,4.78,0,0,1,2.631-2.8A5.329,5.329,0,0,1,28.8,27.74a6.991,6.991,0,0,1,1.463.142,7.121,7.121,0,0,1,1.292.409l-.589,2.261a7.136,7.136,0,0,0-.874-.266,4.568,4.568,0,0,0-1.064-.114,2.243,2.243,0,0,0-1.872.779A3.207,3.207,0,0,0,26.543,33a3.322,3.322,0,0,0,.58,2.09,2.427,2.427,0,0,0,2.024.741,6.943,6.943,0,0,0,1.1-.1,4.685,4.685,0,0,0,1.083-.3l.4,2.318a6.641,6.641,0,0,1-1.235.361,8.146,8.146,0,0,1-1.634.152,6.15,6.15,0,0,1-2.356-.409,4.438,4.438,0,0,1-1.625-1.111,4.336,4.336,0,0,1-.931-1.662A7.059,7.059,0,0,1,23.655,33ZM42.5,32.984a6.5,6.5,0,0,1-.342,2.156,4.685,4.685,0,0,1-.988,1.672,4.446,4.446,0,0,1-1.549,1.074,5.527,5.527,0,0,1-4.028,0,4.446,4.446,0,0,1-1.549-1.074,4.915,4.915,0,0,1-1.007-1.672,6.188,6.188,0,0,1-.361-2.156,5.968,5.968,0,0,1,.37-2.147,4.869,4.869,0,0,1,1.026-1.653,4.608,4.608,0,0,1,1.558-1.064,5.327,5.327,0,0,1,3.952,0,4.508,4.508,0,0,1,1.549,1.064,4.829,4.829,0,0,1,1.007,1.653A6.109,6.109,0,0,1,42.5,32.984Zm-2.888,0a3.559,3.559,0,0,0-.522-2.062,1.709,1.709,0,0,0-1.492-.75,1.733,1.733,0,0,0-1.5.75,3.511,3.511,0,0,0-.532,2.062,3.6,3.6,0,0,0,.532,2.08,1.719,1.719,0,0,0,1.5.77,1.7,1.7,0,0,0,1.492-.77A3.653,3.653,0,0,0,39.615,32.984Zm13.794-7.315a11.043,11.043,0,0,1-1.33.209q-.627.057-1.292.171a7.5,7.5,0,0,0-1.14.285,4.2,4.2,0,0,0-1.055.522,3.417,3.417,0,0,0-.846.836,3.22,3.22,0,0,0-.513,1.245,5.547,5.547,0,0,1,2.394-.589,4.611,4.611,0,0,1,1.691.3,3.727,3.727,0,0,1,1.358.912,4.321,4.321,0,0,1,.912,1.51,6.8,6.8,0,0,1-.048,4.342A4.51,4.51,0,0,1,52.507,37a4.224,4.224,0,0,1-1.52.95,5.393,5.393,0,0,1-1.853.313,4.314,4.314,0,0,1-3.781-1.605,8.13,8.13,0,0,1-1.14-4.722,13.168,13.168,0,0,1,.4-3.486,6.35,6.35,0,0,1,1.2-2.394,5.639,5.639,0,0,1,1.976-1.51,12.4,12.4,0,0,1,2.736-.874,12.189,12.189,0,0,1,1.264-.2,10.947,10.947,0,0,0,1.3-.218Zm-6.232,5.586a5.4,5.4,0,0,0-.048.608q-.009.342-.009.608A5.421,5.421,0,0,0,47.585,35a1.64,1.64,0,0,0,1.568.855,1.621,1.621,0,0,0,1.425-.722,3.379,3.379,0,0,0,.494-1.938,3.71,3.71,0,0,0-.114-.922,2.306,2.306,0,0,0-.361-.788,1.944,1.944,0,0,0-.608-.551,1.677,1.677,0,0,0-.855-.209,5.028,5.028,0,0,0-1.035.114A2.163,2.163,0,0,0,47.177,31.255Zm18.031-3.249V38h-2.85q0-.95.019-1.89t.038-1.739q.019-.8.048-1.4t.028-.883q-.551.779-1.1,1.577t-1.055,1.568q-.5.77-.95,1.472T58.6,38H56.107V28.006h2.831q0,.95-.009,1.814T58.9,31.388q-.019.7-.038,1.225t-.019.808q1.14-1.672,2.1-3t1.871-2.413Zm6.8,6.441a18.486,18.486,0,0,0-1.088,1.8q-.477.9-.916,1.757h-2.9q.551-1.235,1.121-2.261a18.229,18.229,0,0,1,1.1-1.767A3.6,3.6,0,0,1,68.058,32.9a2.728,2.728,0,0,1-.475-1.643,3,3,0,0,1,1.207-2.565,5.5,5.5,0,0,1,3.334-.893q.475,0,1.055.038t1.149.114q.57.076,1.092.162t.883.181V38H73.473V34.447Zm1.463-4.408q-.19-.019-.589-.047t-.684-.028a2.14,2.14,0,0,0-1.425.351,1.174,1.174,0,0,0-.38.9,1.053,1.053,0,0,0,.152.58,1.147,1.147,0,0,0,.4.38,1.732,1.732,0,0,0,.551.2,3.293,3.293,0,0,0,.608.057h1.368ZM86.355,35.91q.266.038.712.067t.826.028a3.727,3.727,0,0,0,1.482-.237.974.974,0,0,0,.048-1.71,3.318,3.318,0,0,0-1.415-.237H86.355Zm1.6-3.99a3.026,3.026,0,0,0,1.14-.181.759.759,0,0,0,.437-.788.773.773,0,0,0-.494-.779,3.358,3.358,0,0,0-1.292-.209q-.266,0-.693.028t-.693.066V31.92Zm-.095,6.27q-.532,0-1.14-.038t-1.2-.1q-.589-.067-1.111-.152t-.883-.161V28.158q.361-.076.883-.143t1.111-.123q.589-.057,1.2-.086t1.14-.028a7.519,7.519,0,0,1,2.08.247,4.167,4.167,0,0,1,1.368.646,2.4,2.4,0,0,1,.751.893,2.36,2.36,0,0,1-.1,2.2,1.975,1.975,0,0,1-.817.8,2.6,2.6,0,0,1,.542.323,2.707,2.707,0,0,1,.5.5,2.464,2.464,0,0,1,.37.7,2.85,2.85,0,0,1,.143.94,3.034,3.034,0,0,1-.238,1.178,2.471,2.471,0,0,1-.808,1.007,4.473,4.473,0,0,1-1.5.7A8.491,8.491,0,0,1,87.856,38.19Zm14.421-2.28q.266.038.712.067t.826.028a3.727,3.727,0,0,0,1.482-.237.974.974,0,0,0,.048-1.71,3.318,3.318,0,0,0-1.415-.237h-1.653Zm1.6-3.99a3.026,3.026,0,0,0,1.14-.181.759.759,0,0,0,.437-.788.773.773,0,0,0-.494-.779,3.358,3.358,0,0,0-1.292-.209q-.266,0-.693.028t-.693.066V31.92Zm-.095,6.27q-.532,0-1.14-.038t-1.2-.1q-.589-.067-1.111-.152t-.883-.161V28.158q.361-.076.883-.143t1.111-.123q.589-.057,1.2-.086t1.14-.028a7.519,7.519,0,0,1,2.08.247,4.167,4.167,0,0,1,1.368.646,2.4,2.4,0,0,1,.751.893,2.36,2.36,0,0,1-.1,2.2,1.975,1.975,0,0,1-.817.8,2.6,2.6,0,0,1,.542.323,2.707,2.707,0,0,1,.5.5,2.464,2.464,0,0,1,.37.7,2.85,2.85,0,0,1,.143.94,3.034,3.034,0,0,1-.238,1.178,2.471,2.471,0,0,1-.808,1.007,4.473,4.473,0,0,1-1.5.7A8.491,8.491,0,0,1,103.778,38.19Zm10.849-2.166q.418,0,.8-.019a5.552,5.552,0,0,0,.608-.057V33.8q-.171-.038-.513-.076a5.713,5.713,0,0,0-.627-.038,5.611,5.611,0,0,0-.751.048,1.961,1.961,0,0,0-.618.181,1.06,1.06,0,0,0-.418.361,1.006,1.006,0,0,0-.152.57.971.971,0,0,0,.447.922A2.467,2.467,0,0,0,114.627,36.024ZM114.4,27.74a6.556,6.556,0,0,1,2.09.285,3.246,3.246,0,0,1,1.34.817,3,3,0,0,1,.713,1.292,6.373,6.373,0,0,1,.209,1.691v5.89q-.608.133-1.691.313a16.249,16.249,0,0,1-2.622.181,8.313,8.313,0,0,1-1.757-.171,3.814,3.814,0,0,1-1.358-.56,2.565,2.565,0,0,1-.874-1.017,3.509,3.509,0,0,1-.3-1.539,2.916,2.916,0,0,1,.352-1.482,2.705,2.705,0,0,1,.94-.969,4.25,4.25,0,0,1,1.349-.523,7.568,7.568,0,0,1,1.577-.162,8.953,8.953,0,0,1,.979.048,4.356,4.356,0,0,1,.693.124v-.266a1.567,1.567,0,0,0-.437-1.159,2.116,2.116,0,0,0-1.52-.437,9.679,9.679,0,0,0-1.425.1,6.113,6.113,0,0,0-1.216.294l-.361-2.28q.247-.076.618-.162t.808-.152q.437-.066.921-.114T114.4,27.74ZM121.315,38V28.006h2.831v7.676h2.6V28.006h2.831v7.676h2.584V28.006h2.831V38Zm15.865-4.921a6.112,6.112,0,0,1,.409-2.327,4.99,4.99,0,0,1,1.074-1.662,4.466,4.466,0,0,1,1.529-1.007,4.789,4.789,0,0,1,1.777-.342,4.415,4.415,0,0,1,3.363,1.3,5.362,5.362,0,0,1,1.235,3.828q0,.247-.019.542t-.038.522h-6.422a1.881,1.881,0,0,0,.817,1.387,3.284,3.284,0,0,0,1.938.513,8.181,8.181,0,0,0,1.529-.142,5.774,5.774,0,0,0,1.226-.352l.38,2.3a3.91,3.91,0,0,1-.608.228,7.957,7.957,0,0,1-.846.2q-.465.085-1,.142a9.981,9.981,0,0,1-1.064.057,6.3,6.3,0,0,1-2.346-.4,4.57,4.57,0,0,1-1.653-1.093,4.336,4.336,0,0,1-.969-1.643A6.51,6.51,0,0,1,137.18,33.079ZM143.83,32a2.922,2.922,0,0,0-.124-.7,1.755,1.755,0,0,0-.323-.608,1.72,1.72,0,0,0-.551-.437,1.8,1.8,0,0,0-.827-.171,1.9,1.9,0,0,0-.817.161,1.688,1.688,0,0,0-.57.428,1.912,1.912,0,0,0-.352.618,4.053,4.053,0,0,0-.181.712Zm7.734.237q-.038.666-.076,1.446t-.067,1.57q-.028.79-.057,1.5T151.316,38h-2.755q.038-1.045.124-2.356t.19-2.67q.1-1.358.228-2.65t.238-2.318H151.7a30.272,30.272,0,0,1,1.506,2.751q.686,1.423,1.449,3.13.8-1.821,1.563-3.367a28.29,28.29,0,0,1,1.372-2.513h2.394q.133,1.026.257,2.318t.228,2.65q.1,1.358.18,2.67T160.759,38h-2.812q-.038-1.484-.1-2.95t-.124-2.836l-2.1,4.607H153.66ZM9.6,50.324H6.4V58H3.572V50.324H.38V48.006H9.6Zm1.235,2.755a6.112,6.112,0,0,1,.408-2.327,4.99,4.99,0,0,1,1.073-1.662,4.466,4.466,0,0,1,1.53-1.007,4.789,4.789,0,0,1,1.777-.342,4.415,4.415,0,0,1,3.363,1.3,5.362,5.362,0,0,1,1.235,3.828q0,.247-.019.542t-.038.522H13.737a1.881,1.881,0,0,0,.817,1.387,3.284,3.284,0,0,0,1.938.513,8.181,8.181,0,0,0,1.529-.142,5.774,5.774,0,0,0,1.226-.352l.38,2.3a3.91,3.91,0,0,1-.608.228,7.956,7.956,0,0,1-.846.2q-.466.085-1,.142a9.981,9.981,0,0,1-1.064.057,6.3,6.3,0,0,1-2.347-.4,4.57,4.57,0,0,1-1.653-1.093,4.336,4.336,0,0,1-.969-1.643A6.51,6.51,0,0,1,10.83,53.079ZM17.48,52a2.922,2.922,0,0,0-.124-.7,1.755,1.755,0,0,0-.323-.608,1.72,1.72,0,0,0-.551-.437,1.8,1.8,0,0,0-.826-.171,1.9,1.9,0,0,0-.817.161,1.688,1.688,0,0,0-.57.428,1.913,1.913,0,0,0-.351.618,4.052,4.052,0,0,0-.181.712Zm9.405-1.672q-.019.551-.048,1.168t-.1,1.235q-.076.618-.2,1.206a7.75,7.75,0,0,1-.314,1.1,5.437,5.437,0,0,1-.58,1.131,4.034,4.034,0,0,1-.893.94,4.748,4.748,0,0,1-1.311.694,7.355,7.355,0,0,1-1.8.371l-.38-2.356a4.226,4.226,0,0,0,1.5-.542,2.231,2.231,0,0,0,.8-.9,5.269,5.269,0,0,0,.333-1.1,11.863,11.863,0,0,0,.181-1.32q.057-.694.066-1.416t.009-1.387v-1.14h7.505V58H28.823V50.324Zm6.954,2.755a6.112,6.112,0,0,1,.409-2.327,4.99,4.99,0,0,1,1.074-1.662,4.466,4.466,0,0,1,1.529-1.007,4.789,4.789,0,0,1,1.777-.342,4.415,4.415,0,0,1,3.363,1.3,5.362,5.362,0,0,1,1.235,3.828q0,.247-.019.542t-.038.522H36.746a1.881,1.881,0,0,0,.817,1.387,3.284,3.284,0,0,0,1.938.513,8.181,8.181,0,0,0,1.529-.142,5.774,5.774,0,0,0,1.225-.352l.38,2.3a3.91,3.91,0,0,1-.608.228,7.957,7.957,0,0,1-.846.2q-.466.085-1,.142a9.981,9.981,0,0,1-1.064.057,6.3,6.3,0,0,1-2.347-.4,4.57,4.57,0,0,1-1.653-1.093,4.336,4.336,0,0,1-.969-1.643A6.51,6.51,0,0,1,33.839,53.079ZM40.489,52a2.922,2.922,0,0,0-.124-.7,1.755,1.755,0,0,0-.323-.608,1.72,1.72,0,0,0-.551-.437,1.8,1.8,0,0,0-.826-.171,1.9,1.9,0,0,0-.817.161,1.688,1.688,0,0,0-.57.428,1.913,1.913,0,0,0-.351.618,4.052,4.052,0,0,0-.181.712Zm9.747-1.539a2.91,2.91,0,0,0-1.8.7,2.5,2.5,0,0,0-.655,1.919,2.421,2.421,0,0,0,.627,1.843,3.091,3.091,0,0,0,1.824.722Zm2.755,5.187a2.988,2.988,0,0,0,.874-.133,2.224,2.224,0,0,0,.789-.428,2.131,2.131,0,0,0,.57-.789,3.6,3.6,0,0,0,0-2.47,2.131,2.131,0,0,0-.57-.789,2.224,2.224,0,0,0-.789-.427,3.517,3.517,0,0,0-.874-.152Zm0,5.871H50.236V58.038a7.325,7.325,0,0,1-2.309-.513,5.109,5.109,0,0,1-1.662-1.083,4.332,4.332,0,0,1-1-1.539,5.192,5.192,0,0,1-.333-1.862,5.045,5.045,0,0,1,.313-1.786,4.215,4.215,0,0,1,.959-1.492,5.064,5.064,0,0,1,1.653-1.083,8.476,8.476,0,0,1,2.375-.58v-4.37l2.755-.475V48.1a8.3,8.3,0,0,1,2.033.437,5.492,5.492,0,0,1,1.7.95,4.412,4.412,0,0,1,1.159,1.492,4.729,4.729,0,0,1,.427,2.08,4.839,4.839,0,0,1-.427,2.109,4.44,4.44,0,0,1-1.15,1.5,5.231,5.231,0,0,1-1.691.941,8.619,8.619,0,0,1-2.052.427Zm16.853-8.531A6.5,6.5,0,0,1,69.5,55.14a4.685,4.685,0,0,1-.988,1.672,4.447,4.447,0,0,1-1.549,1.074,5.527,5.527,0,0,1-4.028,0,4.446,4.446,0,0,1-1.549-1.074,4.915,4.915,0,0,1-1.007-1.672,6.188,6.188,0,0,1-.361-2.156,5.968,5.968,0,0,1,.37-2.147,4.869,4.869,0,0,1,1.026-1.653,4.608,4.608,0,0,1,1.558-1.064,5.327,5.327,0,0,1,3.952,0,4.508,4.508,0,0,1,1.549,1.064,4.829,4.829,0,0,1,1.007,1.653A6.109,6.109,0,0,1,69.844,52.984Zm-2.888,0a3.559,3.559,0,0,0-.522-2.062,1.709,1.709,0,0,0-1.492-.75,1.733,1.733,0,0,0-1.5.75,3.511,3.511,0,0,0-.532,2.062,3.6,3.6,0,0,0,.532,2.08,1.719,1.719,0,0,0,1.5.77,1.7,1.7,0,0,0,1.492-.77A3.653,3.653,0,0,0,66.956,52.984ZM80.636,58H77.805V54.048H74.86V58H72.029V48.006H74.86V51.73h2.945V48.006h2.831Zm2.185-4.921a6.112,6.112,0,0,1,.408-2.327A4.99,4.99,0,0,1,84.3,49.089a4.466,4.466,0,0,1,1.53-1.007,4.789,4.789,0,0,1,1.776-.342,4.415,4.415,0,0,1,3.363,1.3,5.362,5.362,0,0,1,1.235,3.828q0,.247-.019.542t-.038.522H85.728a1.881,1.881,0,0,0,.817,1.387,3.284,3.284,0,0,0,1.938.513,8.181,8.181,0,0,0,1.53-.142,5.774,5.774,0,0,0,1.226-.352l.38,2.3a3.91,3.91,0,0,1-.608.228,7.956,7.956,0,0,1-.845.2q-.465.085-1,.142a9.981,9.981,0,0,1-1.064.057,6.3,6.3,0,0,1-2.347-.4A4.57,4.57,0,0,1,84.1,56.774a4.336,4.336,0,0,1-.969-1.643A6.51,6.51,0,0,1,82.821,53.079ZM89.471,52a2.922,2.922,0,0,0-.123-.7,1.755,1.755,0,0,0-.323-.608,1.72,1.72,0,0,0-.551-.437,1.8,1.8,0,0,0-.826-.171,1.9,1.9,0,0,0-.817.161,1.688,1.688,0,0,0-.57.428,1.913,1.913,0,0,0-.352.618,4.053,4.053,0,0,0-.18.712Z" transform="translate(122 24)" fill="#203866"/>
      <g id="Group_4219" data-name="Group 4219" transform="translate(564 -330)">
        <g id="Group_4219-2" data-name="Group 4219" transform="translate(-564 341)">
          <g id="black-mockup">
            <g id="Group_4217" data-name="Group 4217">
              <g id="phone">
                <path id="body" d="M15.515-776.03A14.545,14.545,0,0,1,.97-790.576V-917.363a.97.97,0,0,1-.97-.97v-13.091a.97.97,0,0,1,.97-.97v-3.879a.97.97,0,0,1-.97-.97v-13.091a.97.97,0,0,1,.97-.97c-.011-7.278-.011-5.6,0-19.151A14.545,14.545,0,0,1,15.515-985h72.97a14.545,14.545,0,0,1,14.545,14.545V-951.3a.97.97,0,0,1,.97.97v21.818a.97.97,0,0,1-.97.97v136.97A14.545,14.545,0,0,1,88.485-776.03Z" transform="translate(0 985)" fill="#22222d"/>
                <path id="camera" d="M16.243,1.454A1.455,1.455,0,1,1,17.7,2.909,1.454,1.454,0,0,1,16.243,1.454ZM.727,2.182a.727.727,0,1,1,0-1.455H12.121a.727.727,0,0,1,0,1.455Z" transform="translate(61.576 9.697) rotate(180)" fill="#424256"/>
              </g>
            </g>
          </g>
          <g id="Mask_Group_5" data-name="Mask Group 5" transform="translate(6.545 6.061)" clip-path="url(#clip-path)">
            <g id="Group_4216" data-name="Group 4216" transform="translate(0 0)">
              <rect id="Rectangle_16" data-name="Rectangle 16" width="90.909" height="196.848" fill="#fff"/>
              <g id="Group_109" data-name="Group 109" transform="translate(52.121 51.151)">
                <path id="Path_24" data-name="Path 24" d="M29.091,0H0V29.091H29.091Z" transform="translate(0)" fill="#322a8f" fill-rule="evenodd"/>
                <g id="Group_11" data-name="Group 11" transform="translate(1.818 15.495)">
                  <path id="Path_25" data-name="Path 25" d="M16.03,84.336H9.606A.6.6,0,0,1,9,83.73V77.306a.6.6,0,0,1,.606-.606H16.03a.6.6,0,0,1,.606.606V83.73A.608.608,0,0,1,16.03,84.336Zm-5.818-1.212h5.212V77.912H10.212Z" transform="translate(-9 -76.7)" fill="#fff"/>
                </g>
                <path id="Path_26" data-name="Path 26" d="M62.278,93.812H55.106a.606.606,0,1,1,0-1.212h7.172a.606.606,0,0,1,0,1.212Z" transform="translate(-43.49 -73.893)" fill="#fff"/>
                <path id="Path_27" data-name="Path 27" d="M62.278,77.912H55.106a.606.606,0,1,1,0-1.212h7.172a.606.606,0,0,1,0,1.212Z" transform="translate(-43.49 -61.205)" fill="#fff"/>
                <path id="Path_28" data-name="Path 28" d="M62.278,109.712H55.106a.606.606,0,0,1,0-1.212h7.172a.606.606,0,0,1,0,1.212Z" transform="translate(-43.49 -86.581)" fill="#fff"/>
                <path id="Path_29" data-name="Path 29" d="M25.97,46.812H9.606a.606.606,0,0,1,0-1.212H25.97a.606.606,0,1,1,0,1.212Z" transform="translate(-7.182 -36.388)" fill="#fff"/>
                <path id="Path_30" data-name="Path 30" d="M25.97,62.212H9.606a.606.606,0,1,1,0-1.212H25.97a.6.6,0,0,1,.606.606A.608.608,0,0,1,25.97,62.212Z" transform="translate(-7.182 -48.677)" fill="#fff"/>
                <path id="Path_31" data-name="Path 31" d="M25.778,34.348H22.707V32.106A.6.6,0,0,0,22.1,31.5H0v1.212H21.495V48.854a2.392,2.392,0,0,0,.323,1.192H0v1.212H23.758c.02,0,.04-.02.061-.02h.162a2.393,2.393,0,0,0,2.384-2.4V34.955A.579.579,0,0,0,25.778,34.348Zm-.606,14.485A1.19,1.19,0,0,1,24,50.025h-.1a1.194,1.194,0,0,1-1.192-1.192V35.561h2.465V48.833Z" transform="translate(0 -25.136)" fill="#fff"/>
              </g>
              <g id="Group_132" data-name="Group 132" transform="translate(52.121 97.212)">
                <path id="Path_24-2" data-name="Path 24" d="M29.091,0H0V29.091H29.091Z" transform="translate(0 0)" fill="#ac3eb9" fill-rule="evenodd"/>
                <g id="Group_11-2" data-name="Group 11" transform="translate(1.818 15.495)">
                  <path id="Path_25-2" data-name="Path 25" d="M16.03,84.336H9.606A.6.6,0,0,1,9,83.73V77.306a.6.6,0,0,1,.606-.606H16.03a.6.6,0,0,1,.606.606V83.73A.608.608,0,0,1,16.03,84.336Zm-5.818-1.212h5.212V77.912H10.212Z" transform="translate(-9 -76.7)" fill="#fff"/>
                </g>
                <path id="Path_26-2" data-name="Path 26" d="M62.278,93.812H55.106a.606.606,0,1,1,0-1.212h7.172a.606.606,0,0,1,0,1.212Z" transform="translate(-43.49 -73.893)" fill="#fff"/>
                <path id="Path_27-2" data-name="Path 27" d="M62.278,77.912H55.106a.606.606,0,1,1,0-1.212h7.172a.606.606,0,0,1,0,1.212Z" transform="translate(-43.49 -61.205)" fill="#fff"/>
                <path id="Path_28-2" data-name="Path 28" d="M62.278,109.712H55.106a.606.606,0,0,1,0-1.212h7.172a.606.606,0,0,1,0,1.212Z" transform="translate(-43.49 -86.581)" fill="#fff"/>
                <path id="Path_29-2" data-name="Path 29" d="M25.97,46.812H9.606a.606.606,0,0,1,0-1.212H25.97a.606.606,0,1,1,0,1.212Z" transform="translate(-7.182 -36.388)" fill="#fff"/>
                <path id="Path_30-2" data-name="Path 30" d="M25.97,62.212H9.606a.606.606,0,1,1,0-1.212H25.97a.6.6,0,0,1,.606.606A.608.608,0,0,1,25.97,62.212Z" transform="translate(-7.182 -48.677)" fill="#fff"/>
                <path id="Path_31-2" data-name="Path 31" d="M25.778,34.348H22.707V32.106A.6.6,0,0,0,22.1,31.5H0v1.212H21.495V48.854a2.392,2.392,0,0,0,.323,1.192H0v1.212H23.758c.02,0,.04-.02.061-.02h.162a2.393,2.393,0,0,0,2.384-2.4V34.955A.579.579,0,0,0,25.778,34.348Zm-.606,14.485A1.19,1.19,0,0,1,24,50.025h-.1a1.194,1.194,0,0,1-1.192-1.192V35.561h2.465V48.833Z" transform="translate(0 -25.136)" fill="#fff"/>
              </g>
              <path id="User_Name" data-name="User Name" d="M-33.668-10.812a1.141,1.141,0,0,1-.363.76,1.191,1.191,0,0,1-.813.267,1.093,1.093,0,0,1-.881-.394,1.586,1.586,0,0,1-.331-1.055v-.3a1.768,1.768,0,0,1,.154-.761,1.154,1.154,0,0,1,.438-.5,1.219,1.219,0,0,1,.656-.176,1.121,1.121,0,0,1,.793.276,1.155,1.155,0,0,1,.347.764h-.411a.891.891,0,0,0-.231-.539.7.7,0,0,0-.5-.167.732.732,0,0,0-.615.29,1.331,1.331,0,0,0-.223.825v.3a1.369,1.369,0,0,0,.211.8.682.682,0,0,0,.59.3.787.787,0,0,0,.523-.154.857.857,0,0,0,.242-.538Zm2.84-.467a1.919,1.919,0,0,1-.153.8,1.162,1.162,0,0,1-.435.519,1.2,1.2,0,0,1-.656.179,1.186,1.186,0,0,1-.65-.18,1.19,1.19,0,0,1-.44-.513,1.841,1.841,0,0,1-.161-.772v-.224a1.9,1.9,0,0,1,.156-.79,1.186,1.186,0,0,1,.44-.525,1.181,1.181,0,0,1,.651-.182,1.2,1.2,0,0,1,.657.18,1.16,1.16,0,0,1,.438.522,1.928,1.928,0,0,1,.153.8Zm-.407-.2a1.391,1.391,0,0,0-.222-.847.731.731,0,0,0-.62-.3.723.723,0,0,0-.61.3,1.362,1.362,0,0,0-.229.819v.228a1.393,1.393,0,0,0,.225.841.726.726,0,0,0,.619.306.723.723,0,0,0,.614-.289,1.385,1.385,0,0,0,.224-.828Zm1.9,1.108.886-2.559h.447l-1.151,3.1h-.362l-1.148-3.1h.445Zm2.083.543h-.409v-3.1h.409Zm.643,0v-3.1h.876a1.41,1.41,0,0,1,.716.179,1.21,1.21,0,0,1,.48.509,1.658,1.658,0,0,1,.172.759v.2a1.663,1.663,0,0,1-.169.769,1.192,1.192,0,0,1-.484.507,1.5,1.5,0,0,1-.732.181ZM-26.2-12.6v2.433h.43a.936.936,0,0,0,.736-.294,1.216,1.216,0,0,0,.263-.838v-.181a1.235,1.235,0,0,0-.248-.822.883.883,0,0,0-.7-.3Zm3.106,1.611h-1.04v-.322h1.04Zm1.534,1.157h-.4v-2.627l-.795.292v-.358l1.129-.424h.062ZM-19-11.191a.964.964,0,0,1-.3.237.8.8,0,0,1-.376.089A.827.827,0,0,1-20.142-11a.859.859,0,0,1-.308-.372,1.268,1.268,0,0,1-.109-.529,1.291,1.291,0,0,1,.118-.56.869.869,0,0,1,.336-.381.957.957,0,0,1,.507-.132.866.866,0,0,1,.725.344,1.5,1.5,0,0,1,.265.939v.115a2.005,2.005,0,0,1-.358,1.322,1.375,1.375,0,0,1-1.08.427h-.077v-.335h.083a1.085,1.085,0,0,0,.75-.254A1.09,1.09,0,0,0-19-11.191Zm-.607,0a.609.609,0,0,0,.365-.121.716.716,0,0,0,.244-.3v-.158a1.085,1.085,0,0,0-.168-.631.5.5,0,0,0-.426-.243.506.506,0,0,0-.418.2.822.822,0,0,0-.158.525.855.855,0,0,0,.152.523A.482.482,0,0,0-19.61-11.191Z" transform="translate(51.558 142.191)"/>
              <path id="User_Name-2" data-name="User Name" d="M-30.887-9.695H-31.3v-1.434h-1.564v1.434h-.409v-3.1h.409v1.334H-31.3V-12.8h.411Zm.456-1.174a1.362,1.362,0,0,1,.133-.609.993.993,0,0,1,.371-.418,1.009,1.009,0,0,1,.542-.147.972.972,0,0,1,.762.326,1.254,1.254,0,0,1,.291.867v.028a1.374,1.374,0,0,1-.129.6.979.979,0,0,1-.369.417,1.021,1.021,0,0,1-.551.149.97.97,0,0,1-.76-.326,1.248,1.248,0,0,1-.291-.863Zm.4.047a.986.986,0,0,0,.178.616.569.569,0,0,0,.476.232.566.566,0,0,0,.477-.235,1.079,1.079,0,0,0,.177-.659.985.985,0,0,0-.18-.615.572.572,0,0,0-.478-.235.566.566,0,0,0-.471.232A1.07,1.07,0,0,0-30.035-10.822Zm2.128,1.127V-12h.9a1.292,1.292,0,0,1,.706.161.528.528,0,0,1,.246.472.472.472,0,0,1-.1.289.594.594,0,0,1-.283.2.626.626,0,0,1,.336.192.5.5,0,0,1,.127.341.562.562,0,0,1-.233.486,1.113,1.113,0,0,1-.659.168Zm.394-1.012v.695h.652a.615.615,0,0,0,.37-.092.3.3,0,0,0,.123-.258q0-.345-.507-.345Zm0-.315H-27q.554,0,.554-.324t-.524-.335h-.539Zm1.853.153a1.362,1.362,0,0,1,.133-.609.993.993,0,0,1,.371-.418,1.009,1.009,0,0,1,.542-.147.972.972,0,0,1,.762.326,1.254,1.254,0,0,1,.291.867v.028a1.374,1.374,0,0,1-.129.6.979.979,0,0,1-.369.417,1.021,1.021,0,0,1-.551.149.97.97,0,0,1-.76-.326,1.248,1.248,0,0,1-.291-.863Zm.4.047a.986.986,0,0,0,.178.616.569.569,0,0,0,.476.232.566.566,0,0,0,.477-.235,1.079,1.079,0,0,0,.177-.659.985.985,0,0,0-.18-.615.572.572,0,0,0-.478-.235.566.566,0,0,0-.471.232A1.07,1.07,0,0,0-25.263-10.822Zm3.017.848a.568.568,0,0,0,.369-.128.45.45,0,0,0,.175-.32h.373a.715.715,0,0,1-.136.377.9.9,0,0,1-.336.286.968.968,0,0,1-.444.107A.95.95,0,0,1-23-9.966a1.252,1.252,0,0,1-.278-.86v-.066a1.388,1.388,0,0,1,.124-.6A.941.941,0,0,1-22.8-11.9a1.008,1.008,0,0,1,.547-.145.925.925,0,0,1,.645.232.83.83,0,0,1,.274.6H-21.7a.543.543,0,0,0-.169-.368.527.527,0,0,0-.376-.144.552.552,0,0,0-.466.216,1.016,1.016,0,0,0-.165.625v.075a1,1,0,0,0,.164.614A.554.554,0,0,0-22.246-9.974Zm2.968-1.707h-.773v1.986h-.394V-11.68H-21.2V-12h1.926Zm1.77-.32h.394v2.305h-.394v-1.681l-1.063,1.681h-.394V-12h.394v1.683Z" transform="translate(91.872 95.998)"/>
              <path id="User_Name-3" data-name="User Name" d="M-40.5-9.695h-.411v-2.768h-1.53v2.768h-.409v-3.1h2.35Zm1.534.043a1.007,1.007,0,0,1-.763-.308,1.143,1.143,0,0,1-.294-.824v-.072a1.383,1.383,0,0,1,.131-.613,1.022,1.022,0,0,1,.366-.422.921.921,0,0,1,.51-.152.863.863,0,0,1,.7.3,1.282,1.282,0,0,1,.249.848v.164h-1.562a.819.819,0,0,0,.2.551.626.626,0,0,0,.485.21.687.687,0,0,0,.354-.085.889.889,0,0,0,.254-.226l.241.188A.968.968,0,0,1-38.971-9.652Zm-.049-2.067a.526.526,0,0,0-.4.174.844.844,0,0,0-.2.487h1.155v-.03a.751.751,0,0,0-.162-.466A.5.5,0,0,0-39.02-11.719Zm1.28,1.7.136-.168a1.6,1.6,0,0,0,.262-.895L-37.3-12h1.485v1.984h.3v1h-.394v-.678h-1.609v.678h-.394l0-1Zm.467,0h1.059v-1.619h-.71l-.023.55A1.907,1.907,0,0,1-37.273-10.016ZM-33.7-12h.394v2.305H-33.7v-1.681l-1.063,1.681h-.394V-12h.394v1.683Zm2.346,2.305a.828.828,0,0,1-.055-.243.879.879,0,0,1-.656.286.814.814,0,0,1-.559-.193.624.624,0,0,1-.218-.489.652.652,0,0,1,.274-.559,1.291,1.291,0,0,1,.77-.2h.384v-.181a.443.443,0,0,0-.124-.329.5.5,0,0,0-.364-.123.575.575,0,0,0-.354.107.314.314,0,0,0-.143.258h-.4a.544.544,0,0,1,.123-.333.836.836,0,0,1,.332-.255,1.118,1.118,0,0,1,.461-.094.911.911,0,0,1,.624.2.719.719,0,0,1,.234.549v1.061a1.3,1.3,0,0,0,.081.5v.034Zm-.654-.3a.693.693,0,0,0,.352-.1.58.58,0,0,0,.241-.249v-.473h-.309q-.724,0-.724.424a.359.359,0,0,0,.124.29A.475.475,0,0,0-32.009-10Zm3.179-1.685H-29.6v1.986H-30V-11.68h-.759V-12h1.926Zm2.226.859a1.38,1.38,0,0,1-.241.848.772.772,0,0,1-.652.322.845.845,0,0,1-.661-.266v1.11h-.394V-12h.36l.019.256a.812.812,0,0,1,.669-.3.786.786,0,0,1,.657.313,1.4,1.4,0,0,1,.242.871ZM-27-10.866a1.019,1.019,0,0,0-.166-.616.535.535,0,0,0-.456-.226.579.579,0,0,0-.537.317v1.1a.581.581,0,0,0,.541.315.533.533,0,0,0,.451-.225A1.112,1.112,0,0,0-27-10.866ZM-24.716-12h.394v2.305h-.394v-1.681l-1.063,1.681h-.394V-12h.394v1.683Zm2.684,0v2.305h-.4v-.9h-.594l-.543.9h-.426l.58-.957a.688.688,0,0,1-.34-.25.673.673,0,0,1-.118-.4.623.623,0,0,1,.237-.508A.98.98,0,0,1-23-12Zm-1.442.707a.348.348,0,0,0,.115.272.447.447,0,0,0,.3.105h.626v-.765h-.567a.531.531,0,0,0-.349.108A.347.347,0,0,0-23.474-11.293Z" transform="translate(99.132 142.058)"/>
              <g id="Group_110" data-name="Group 110" transform="translate(9.697 97.212)">
                <path id="Path_128" data-name="Path 128" d="M29.091,0H0V29.091H29.091V0Z" transform="translate(0 0)" fill="#4488a7" fill-rule="evenodd"/>
                <g id="Group_107" data-name="Group 107" transform="translate(2.176 2.316)">
                  <g id="Group_106" data-name="Group 106">
                    <path id="Path_129" data-name="Path 129" d="M96.488,106.288a9.609,9.609,0,1,1,9.609-9.609A9.62,9.62,0,0,1,96.488,106.288Zm0-17.968a8.359,8.359,0,1,0,8.359,8.359A8.369,8.369,0,0,0,96.488,88.32Z" transform="translate(-84.119 -84.438)" fill="#fff"/>
                    <path id="Path_130" data-name="Path 130" d="M180.536,154.409a2.038,2.038,0,1,1,2.038-2.038A2.041,2.041,0,0,1,180.536,154.409Zm0-2.827a.788.788,0,1,0,.788.788A.789.789,0,0,0,180.536,151.582Z" transform="translate(-170.29 -143.621)" fill="#fff"/>
                    <path id="Path_131" data-name="Path 131" d="M266.423,205.011a3.058,3.058,0,1,1,3.058-3.058A3.061,3.061,0,0,1,266.423,205.011Zm0-4.866a1.808,1.808,0,1,0,1.808,1.808A1.81,1.81,0,0,0,266.423,200.145Z" transform="translate(-250.577 -190.395)" fill="#fff"/>
                    <path id="Path_132" data-name="Path 132" d="M158.256,267.435a2.558,2.558,0,1,1,2.558-2.558A2.561,2.561,0,0,1,158.256,267.435Zm0-3.866a1.308,1.308,0,1,0,1.308,1.308A1.309,1.309,0,0,0,158.256,263.569Z" transform="translate(-149.028 -249.73)" fill="#fff"/>
                    <g id="Group_98" data-name="Group 98" transform="translate(21.349 9.894)">
                      <rect id="Rectangle_2" data-name="Rectangle 2" width="2.765" height="1.25" transform="translate(0 1.746)" fill="#fff"/>
                      <path id="Path_133" data-name="Path 133" d="M452.323,219.639a.625.625,0,0,1-.625-.625v-3.493a.625.625,0,0,1,1.25,0v3.493A.625.625,0,0,1,452.323,219.639Z" transform="translate(-449.558 -214.896)" fill="#fff"/>
                    </g>
                    <g id="Group_99" data-name="Group 99" transform="translate(18.294 2.094)">
                      <rect id="Rectangle_3" data-name="Rectangle 3" width="2.765" height="1.25" transform="translate(0 3.373) rotate(-45)" fill="#fff"/>
                      <path id="Path_134" data-name="Path 134" d="M372.831,81.333a.623.623,0,0,1-.442-.183l-2.47-2.47a.625.625,0,1,1,.884-.884l2.47,2.47a.625.625,0,0,1-.442,1.067Z" transform="translate(-369.199 -77.613)" fill="#fff"/>
                    </g>
                    <g id="Group_100" data-name="Group 100" transform="translate(0 9.844)">
                      <rect id="Rectangle_4" data-name="Rectangle 4" width="2.765" height="1.25" transform="translate(0.625 1.746)" fill="#fff"/>
                      <path id="Path_135" data-name="Path 135" d="M38.927,218.756a.625.625,0,0,1-.625-.625v-3.493a.625.625,0,0,1,1.25,0v3.493A.625.625,0,0,1,38.927,218.756Z" transform="translate(-38.302 -214.013)" fill="#fff"/>
                    </g>
                    <g id="Group_101" data-name="Group 101" transform="translate(2.223 2.059)">
                      <rect id="Rectangle_5" data-name="Rectangle 5" width="1.25" height="2.765" transform="translate(1.418 2.302) rotate(-45.001)" fill="#fff"/>
                      <path id="Path_136" data-name="Path 136" d="M78.046,80.708a.625.625,0,0,1-.442-1.067l2.47-2.47a.625.625,0,0,1,.884.884l-2.47,2.47A.623.623,0,0,1,78.046,80.708Z" transform="translate(-77.421 -76.988)" fill="#fff"/>
                    </g>
                    <g id="Group_102" data-name="Group 102" transform="translate(2.187 18.13)">
                      <rect id="Rectangle_6" data-name="Rectangle 6" width="2.765" height="1.25" transform="translate(1.418 1.955) rotate(-45)" fill="#fff"/>
                      <path id="Path_137" data-name="Path 137" d="M79.891,373.023a.623.623,0,0,1-.442-.183l-2.47-2.47a.625.625,0,0,1,.884-.884l2.47,2.47a.625.625,0,0,1-.442,1.067Z" transform="translate(-76.796 -368.766)" fill="#fff"/>
                    </g>
                    <g id="Group_103" data-name="Group 103" transform="translate(18.259 18.166)">
                      <rect id="Rectangle_7" data-name="Rectangle 7" width="1.25" height="2.765" transform="matrix(0.707, -0.707, 0.707, 0.707, 0, 0.884)" fill="#fff"/>
                      <path id="Path_138" data-name="Path 138" d="M369.736,373.648a.625.625,0,0,1-.442-1.067l2.47-2.47a.625.625,0,0,1,.884.884l-2.47,2.47A.623.623,0,0,1,369.736,373.648Z" transform="translate(-368.574 -369.391)" fill="#fff"/>
                    </g>
                    <g id="Group_104" data-name="Group 104" transform="translate(10.101)">
                      <rect id="Rectangle_8" data-name="Rectangle 8" width="1.25" height="2.585" transform="translate(1.746 0.625)" fill="#fff"/>
                      <path id="Path_139" data-name="Path 139" d="M220.2,42.005h-3.493a.625.625,0,0,1,0-1.25H220.2a.625.625,0,0,1,0,1.25Z" transform="translate(-216.083 -40.755)" fill="#fff"/>
                    </g>
                    <g id="Group_105" data-name="Group 105" transform="translate(10.101 21.25)">
                      <rect id="Rectangle_9" data-name="Rectangle 9" width="1.25" height="2.585" transform="translate(1.746)" fill="#fff"/>
                      <path id="Path_140" data-name="Path 140" d="M220.2,450.495h-3.493a.625.625,0,0,1,0-1.25H220.2a.625.625,0,0,1,0,1.25Z" transform="translate(-216.083 -447.285)" fill="#fff"/>
                    </g>
                  </g>
                </g>
              </g>
              <g id="Group_111" data-name="Group 111" transform="translate(9.697 51.151)">
                <path id="Path_32" data-name="Path 32" d="M0,0H29.091V29.091H0Z" transform="translate(0 0)" fill="#cc6625" fill-rule="evenodd"/>
                <path id="Path_33" data-name="Path 33" d="M29.091,20.93v1.212H20.333a5.177,5.177,0,0,0-3.667,1.515h0a5.133,5.133,0,0,0-1.515,3.515v.152h0V43.658H13.939V27.324h0v-.152a5.177,5.177,0,0,0-5.182-5.03h0L0,22.112V20.9H8.758a6.406,6.406,0,0,1,5.788,3.7,7.006,7.006,0,0,1,1.273-1.818h0a6.366,6.366,0,0,1,4.515-1.848h8.758Zm0,5.909v1.212H20.3a.606.606,0,1,1,0-1.212Zm0,2v1.212H20.3a.606.606,0,1,1,0-1.212Zm0,1.97v1.212H20.3a.606.606,0,0,1,0-1.212Zm0,2v1.212H20.3a.606.606,0,0,1,0-1.212Zm0,2v1.212H20.3a.606.606,0,0,1,0-1.212Zm0,1.97v1.212H20.3a.606.606,0,1,1,0-1.212Z" transform="translate(0 -14.567)" fill="#fff" fill-rule="evenodd"/>
              </g>
              <path id="User_Name-4" data-name="User Name" d="M-31.049-10.34h-.411v-2.768h-1.53v2.768H-33.4v-3.1h2.35Zm.473-1.174a1.362,1.362,0,0,1,.133-.609.993.993,0,0,1,.371-.418,1.009,1.009,0,0,1,.542-.147.972.972,0,0,1,.762.326,1.254,1.254,0,0,1,.291.867v.028a1.374,1.374,0,0,1-.129.6.979.979,0,0,1-.369.417,1.021,1.021,0,0,1-.551.149.97.97,0,0,1-.76-.326,1.248,1.248,0,0,1-.291-.863Zm.4.047a.986.986,0,0,0,.178.616.569.569,0,0,0,.476.232.566.566,0,0,0,.477-.235,1.079,1.079,0,0,0,.177-.659.985.985,0,0,0-.18-.615.572.572,0,0,0-.478-.235.566.566,0,0,0-.471.232A1.071,1.071,0,0,0-30.18-11.468Zm3.017.848a.568.568,0,0,0,.369-.128.45.45,0,0,0,.175-.32h.373a.715.715,0,0,1-.136.377.9.9,0,0,1-.336.286.968.968,0,0,1-.444.107.95.95,0,0,1-.749-.314,1.252,1.252,0,0,1-.278-.86v-.066a1.388,1.388,0,0,1,.124-.6.941.941,0,0,1,.355-.407,1.008,1.008,0,0,1,.547-.145.925.925,0,0,1,.645.232.83.83,0,0,1,.274.6h-.373a.543.543,0,0,0-.169-.368.527.527,0,0,0-.376-.144.552.552,0,0,0-.466.216,1.016,1.016,0,0,0-.165.625v.075a1,1,0,0,0,.164.614A.554.554,0,0,0-27.163-10.62Zm1.15-.895a1.362,1.362,0,0,1,.133-.609.993.993,0,0,1,.371-.418,1.009,1.009,0,0,1,.542-.147.972.972,0,0,1,.762.326,1.254,1.254,0,0,1,.291.867v.028a1.374,1.374,0,0,1-.129.6.979.979,0,0,1-.369.417,1.021,1.021,0,0,1-.551.149.97.97,0,0,1-.76-.326,1.248,1.248,0,0,1-.291-.863Zm.4.047a.986.986,0,0,0,.178.616.569.569,0,0,0,.476.232.566.566,0,0,0,.477-.235,1.079,1.079,0,0,0,.177-.659.985.985,0,0,0-.18-.615.572.572,0,0,0-.478-.235.566.566,0,0,0-.471.232A1.07,1.07,0,0,0-25.616-11.468Zm3.1-1.046a.889.889,0,0,1,.7.291,1.1,1.1,0,0,1,.261.766v.036a1.308,1.308,0,0,1-.126.583.932.932,0,0,1-.361.4,1.031,1.031,0,0,1-.542.142.965.965,0,0,1-.748-.31,1.186,1.186,0,0,1-.283-.832v-.192a2.151,2.151,0,0,1,.27-1.155,1.129,1.129,0,0,1,.8-.522,1.057,1.057,0,0,0,.4-.13.247.247,0,0,0,.1-.211h.324a.645.645,0,0,1-.12.415.672.672,0,0,1-.385.211l-.294.066a.99.99,0,0,0-.527.28,1.014,1.014,0,0,0-.229.525A.972.972,0,0,1-22.512-12.514Zm-.077.324a.58.58,0,0,0-.46.195.793.793,0,0,0-.17.54v.034a.919.919,0,0,0,.172.587.56.56,0,0,0,.463.216.559.559,0,0,0,.464-.217,1.013,1.013,0,0,0,.17-.635.769.769,0,0,0-.172-.523A.588.588,0,0,0-22.589-12.19Zm2.827-.456h.394v2.305h-.394v-1.681l-1.063,1.681h-.394v-2.305h.394v1.683Zm1.879,2.348a1.007,1.007,0,0,1-.763-.308,1.143,1.143,0,0,1-.294-.824V-11.5a1.383,1.383,0,0,1,.131-.613,1.022,1.022,0,0,1,.366-.422.921.921,0,0,1,.51-.152.863.863,0,0,1,.7.3,1.282,1.282,0,0,1,.249.848v.164h-1.562a.819.819,0,0,0,.2.551.626.626,0,0,0,.485.21.687.687,0,0,0,.354-.085.889.889,0,0,0,.254-.226l.241.188A.968.968,0,0,1-17.883-10.3Zm-.049-2.067a.526.526,0,0,0-.4.174.844.844,0,0,0-.2.487h1.155v-.03a.751.751,0,0,0-.162-.466A.5.5,0,0,0-17.932-12.365Z" transform="translate(49.545 96.643)"/>
              <path id="User_Name-5" data-name="User Name" d="M-37.761-12.8h.409v3.1h-.409v-2.391l-1.528,2.391H-39.7v-3.1h.411v2.391Zm2.872,3.1h-.394v-.984h-1.059v.984h-.4V-12h.4v1h1.059v-1h.394Zm2.241-1.986h-.773v1.986h-.394V-11.68h-.759V-12h1.926Zm1.065,2.028a1.007,1.007,0,0,1-.763-.308,1.143,1.143,0,0,1-.294-.824v-.072a1.383,1.383,0,0,1,.131-.613,1.022,1.022,0,0,1,.366-.422.921.921,0,0,1,.51-.152.863.863,0,0,1,.7.3,1.282,1.282,0,0,1,.249.848v.164h-1.562a.82.82,0,0,0,.2.551.626.626,0,0,0,.485.21.687.687,0,0,0,.354-.085.889.889,0,0,0,.254-.226l.241.188A.968.968,0,0,1-31.583-9.652Zm-.049-2.067a.526.526,0,0,0-.4.174.844.844,0,0,0-.2.487h1.155v-.03a.751.751,0,0,0-.162-.466A.5.5,0,0,0-31.632-11.719Zm3.247.9a1.38,1.38,0,0,1-.241.848.772.772,0,0,1-.652.322.845.845,0,0,1-.661-.266v1.11h-.394V-12h.36l.019.256a.812.812,0,0,1,.669-.3.786.786,0,0,1,.657.313,1.4,1.4,0,0,1,.242.871Zm-.394-.045a1.019,1.019,0,0,0-.166-.616.535.535,0,0,0-.456-.226.579.579,0,0,0-.537.317v1.1a.581.581,0,0,0,.541.315.533.533,0,0,0,.451-.225A1.112,1.112,0,0,0-28.779-10.866Zm.826,1.172V-12h.9a1.292,1.292,0,0,1,.706.161.528.528,0,0,1,.246.472.472.472,0,0,1-.1.289.594.594,0,0,1-.283.2.626.626,0,0,1,.336.192.5.5,0,0,1,.127.341.562.562,0,0,1-.233.486,1.113,1.113,0,0,1-.659.168Zm.394-1.012v.695h.652a.615.615,0,0,0,.37-.092.3.3,0,0,0,.123-.258q0-.345-.507-.345Zm0-.315h.509q.554,0,.554-.324t-.524-.335h-.539Zm2.388-.183h.6a.923.923,0,0,1,.62.2.686.686,0,0,1,.228.543.706.706,0,0,1-.234.554.913.913,0,0,1-.631.209h-.976V-12h.394Zm0,.322v.867h.586a.482.482,0,0,0,.343-.114.407.407,0,0,0,.121-.312.434.434,0,0,0-.118-.314.452.452,0,0,0-.331-.127Zm2.265-.138h.554a1.164,1.164,0,0,1,.327-.74.97.97,0,0,1,.713-.28.971.971,0,0,1,.739.3,1.2,1.2,0,0,1,.311.793l0,.124a1.366,1.366,0,0,1-.132.607.977.977,0,0,1-.371.417,1.024,1.024,0,0,1-.545.146.973.973,0,0,1-.729-.291,1.165,1.165,0,0,1-.317-.755h-.552v1H-23.3V-12h.394Zm.942.2a.986.986,0,0,0,.178.616.571.571,0,0,0,.478.232.562.562,0,0,0,.476-.237,1.084,1.084,0,0,0,.176-.658.99.99,0,0,0-.179-.614.569.569,0,0,0-.477-.237.568.568,0,0,0-.473.232A1.07,1.07,0,0,0-21.964-10.822Z" transform="translate(54.318 188.119)"/>
              <path id="User_Name-6" data-name="User Name" d="M-36.684-12.1a.481.481,0,0,0-.18-.394.783.783,0,0,0-.506-.146.7.7,0,0,0-.457.151.464.464,0,0,0-.184.373h-.409a.762.762,0,0,1,.135-.443.894.894,0,0,1,.378-.306,1.289,1.289,0,0,1,.537-.11,1.25,1.25,0,0,1,.808.233.788.788,0,0,1,.288.648.639.639,0,0,1-.132.392.887.887,0,0,1-.369.279.715.715,0,0,1,.548.727.8.8,0,0,1-.311.663,1.305,1.305,0,0,1-.831.245,1.394,1.394,0,0,1-.561-.11.9.9,0,0,1-.393-.312.823.823,0,0,1-.141-.482h.409a.509.509,0,0,0,.194.407.74.74,0,0,0,.492.162.844.844,0,0,0,.534-.156.5.5,0,0,0,.2-.411q0-.545-.675-.556H-37.7v-.335h.381a.74.74,0,0,0,.471-.141A.469.469,0,0,0-36.684-12.1Zm2.254,2.27a.828.828,0,0,1-.055-.243.879.879,0,0,1-.656.286.814.814,0,0,1-.559-.193.624.624,0,0,1-.218-.489.652.652,0,0,1,.274-.559,1.291,1.291,0,0,1,.77-.2h.384v-.181a.443.443,0,0,0-.124-.329.5.5,0,0,0-.364-.123.575.575,0,0,0-.354.107.314.314,0,0,0-.143.258h-.4a.544.544,0,0,1,.123-.333.836.836,0,0,1,.332-.255,1.118,1.118,0,0,1,.461-.094.911.911,0,0,1,.624.2.719.719,0,0,1,.234.549v1.061a1.3,1.3,0,0,0,.081.5v.034Zm-.654-.3a.693.693,0,0,0,.352-.1.58.58,0,0,0,.241-.249v-.473H-34.8q-.724,0-.724.424a.359.359,0,0,0,.124.29A.475.475,0,0,0-35.084-10.128Zm2.218-.682h-.288v.982h-.4v-2.305h.4v.976h.258l.776-.976h.477l-.912,1.108.989,1.2h-.5Zm3.424-1.323v2.305h-.4v-1.979h-.784l-.047.863a1.907,1.907,0,0,1-.2.85.581.581,0,0,1-.51.266h-.158v-.347l.113-.009a.326.326,0,0,0,.275-.222,2.5,2.5,0,0,0,.107-.741l.043-.987Zm1.951,2.305a.828.828,0,0,1-.055-.243.879.879,0,0,1-.656.286.814.814,0,0,1-.559-.193.624.624,0,0,1-.218-.489.652.652,0,0,1,.274-.559,1.291,1.291,0,0,1,.77-.2h.384v-.181a.443.443,0,0,0-.124-.329.5.5,0,0,0-.364-.123.575.575,0,0,0-.354.107.314.314,0,0,0-.143.258h-.4a.544.544,0,0,1,.123-.333.836.836,0,0,1,.332-.255,1.118,1.118,0,0,1,.461-.094.911.911,0,0,1,.624.2.719.719,0,0,1,.234.549v1.061a1.3,1.3,0,0,0,.081.5v.034Zm-.654-.3a.693.693,0,0,0,.352-.1.58.58,0,0,0,.241-.249v-.473h-.309q-.724,0-.724.424a.359.359,0,0,0,.124.29A.475.475,0,0,0-28.145-10.128Zm1.48-.021.136-.168a1.6,1.6,0,0,0,.262-.895l.036-.92h1.485v1.984h.3v1h-.394v-.678h-1.609v.678h-.394l0-1Zm.467,0h1.059v-1.619h-.71l-.023.55A1.907,1.907,0,0,1-26.2-10.15Zm2.8-.661h-.288v.982h-.4v-2.305h.4v.976h.258l.776-.976h.477l-.912,1.108.989,1.2h-.5Zm3.025-1.323h.394v2.305h-.394v-1.681l-1.063,1.681h-.394v-2.305h.394v1.683Z" transform="translate(95.807 188.252)"/>
              <g id="Group_133" data-name="Group 133" transform="translate(9.697 143.273)">
                <path id="Path_33-2" data-name="Path 33" d="M29.091,20.93v1.212H20.333a5.177,5.177,0,0,0-3.667,1.515h0a5.133,5.133,0,0,0-1.515,3.515v.152h0V43.658H13.939V27.324h0v-.152a5.177,5.177,0,0,0-5.182-5.03h0L0,22.112V20.9H8.758a6.406,6.406,0,0,1,5.788,3.7,7.006,7.006,0,0,1,1.273-1.818h0a6.366,6.366,0,0,1,4.515-1.848h8.758Zm0,5.909v1.212H20.3a.606.606,0,1,1,0-1.212Zm0,2v1.212H20.3a.606.606,0,1,1,0-1.212Zm0,1.97v1.212H20.3a.606.606,0,0,1,0-1.212Zm0,2v1.212H20.3a.606.606,0,0,1,0-1.212Zm0,2v1.212H20.3a.606.606,0,0,1,0-1.212Zm0,1.97v1.212H20.3a.606.606,0,1,1,0-1.212Z" transform="translate(0 -14.567)" fill="#fff" fill-rule="evenodd"/>
                <g id="Group_34" data-name="Group 34" transform="translate(0 0)">
                  <path id="Path_59" data-name="Path 59" d="M0,0H29.091V29.091H0Z" fill="#5151a3" fill-rule="evenodd"/>
                  <g id="Group_33" data-name="Group 33" transform="translate(6.939 9.061)">
                    <path id="Path_60" data-name="Path 60" d="M22.9,49.93h1.212c.152-4.121,4.455-7.182,10.455-7.333,4.758-.152,8.818,1.848,10.485,4.758v-2.03a12.383,12.383,0,0,0-6.939-3.636,6.637,6.637,0,0,0,2.242-1.97A6.27,6.27,0,0,0,35.2,29.9a6.993,6.993,0,0,0-1.121.091A6.254,6.254,0,0,0,32.142,41.6C26.718,42.476,22.991,45.718,22.9,49.93Zm13.212-8.818a4.625,4.625,0,0,1-.909.091,5.007,5.007,0,0,1-4.939-4.121,4.856,4.856,0,0,1,.818-3.758,4.92,4.92,0,0,1,3.242-2.091,4.625,4.625,0,0,1,.909-.091,5.007,5.007,0,0,1,4.939,4.121,4.856,4.856,0,0,1-.818,3.758A5.032,5.032,0,0,1,36.112,41.112Z" transform="translate(-22.9 -29.9)" fill="#fff"/>
                    <path id="Path_61" data-name="Path 61" d="M55.881,71.676l-.606-2.848a.633.633,0,0,1,.121-.515.6.6,0,0,1,.485-.212h3.758a.715.715,0,0,1,.485.212.633.633,0,0,1,.121.515l-.606,2.848a.619.619,0,0,1-.606.485H56.487A.653.653,0,0,1,55.881,71.676Zm3-2.394H56.608l.364,1.636h1.576Z" transform="translate(-45.457 -56.524)" fill="#fff"/>
                    <path id="Path_62" data-name="Path 62" d="M59.145,83.036l-.727-4.424H57.57l-.727,4.424H55.6l.848-5.121a.616.616,0,0,1,.606-.515H58.9a.616.616,0,0,1,.606.515l.879,5.121Z" transform="translate(-45.691 -63.006)" fill="#fff"/>
                  </g>
                  <path id="Path_63" data-name="Path 63" d="M14.424,0V6.333h-4.03a.608.608,0,0,0-.606.606v3.636L7.152,6.606a.6.6,0,0,0-.515-.273H0V7.545H6.333l3.545,5.394a.6.6,0,0,0,.515.273.384.384,0,0,0,.182-.03A.619.619,0,0,0,11,12.606V7.545h4.03a.608.608,0,0,0,.606-.606V0Z" fill="#fff"/>
                </g>
              </g>
              <g id="Group_134" data-name="Group 134" transform="translate(52.121 143.273)">
                <path id="Path_141" data-name="Path 141" d="M-205,0h29.091V29.091H-205V0Z" transform="translate(205)" fill="#e8c43a" fill-rule="evenodd"/>
                <path id="Path_142" data-name="Path 142" d="M-187.866,31.426v1.2h-3.022v0h0v0a5.179,5.179,0,0,0-3.668,1.527v0a5.189,5.189,0,0,0-1.527,3.523v.143h0V54.166h-1.2V37.821h0v-.161a5.179,5.179,0,0,0-1.527-3.506,5.177,5.177,0,0,0-3.667-1.529v0h0v0H-205v-1.2h2.517v0h0v0a6.373,6.373,0,0,1,4.517,1.877,6.428,6.428,0,0,1,1.278,1.821,6.426,6.426,0,0,1,1.278-1.82h0a6.378,6.378,0,0,1,4.518-1.879v0h0v0Z" transform="translate(205 -25.075)" fill="#fff" fill-rule="evenodd"/>
                <path id="Path_143" data-name="Path 143" d="M-114.144,49.014a.6.6,0,0,1-.309-.086l-3.9-2.34-3.9,2.34a.6.6,0,0,1-.606.008.6.6,0,0,1-.305-.523v-18.1h1.2V47.35l3.3-1.98a.6.6,0,0,1,.619,0l3.3,1.98V30.539h1.2V48.413a.6.6,0,0,1-.305.523A.6.6,0,0,1-114.144,49.014Z" transform="translate(139.697 -24.188)" fill="#fff"/>
                <path id="Path_144" data-name="Path 144" d="M-129.726,23.272l-1.2-.118a1.709,1.709,0,0,0-.2-1.049.246.246,0,0,0-.211-.078.162.162,0,0,0-.143.054,1.828,1.828,0,0,0-.2,1.077l-1.2.109a2.86,2.86,0,0,1,.508-2,1.36,1.36,0,0,1,1.031-.446,1.4,1.4,0,0,1,1.1.474A3.26,3.26,0,0,1-129.726,23.272Z" transform="translate(147.458 -16.617)" fill="#fff"/>
                <path id="Path_145" data-name="Path 145" d="M-115.184,23.272l-1.2-.118.6.059-.6-.057a1.712,1.712,0,0,0-.2-1.052.245.245,0,0,0-.211-.078h-8.41v-1.2h8.41a1.446,1.446,0,0,1,1.1.474A2.845,2.845,0,0,1-115.184,23.272Z" transform="translate(141.325 -16.617)" fill="#fff"/>
                <rect id="Rectangle_11" data-name="Rectangle 11" width="3.539" height="1.203" transform="translate(25.552 6.353)" fill="#fff"/>
                <path id="Path_146" data-name="Path 146" d="M-111.713,69.2l.967,1.96,2.162.315L-110.148,73l.369,2.153-1.933-1.017-1.934,1.017.369-2.153-1.564-1.525,2.162-.315Z" transform="translate(133.056 -55.223)" fill="#fff" fill-rule="evenodd"/>
              </g>
              <g id="Group_139" data-name="Group 139">
                <rect id="Rectangle_1" data-name="Rectangle 1" width="90.909" height="35.879" fill="#292945"/>
                <g id="Group_83" data-name="Group 83" transform="translate(17.697 14.545)">
                  <path id="Path_90" data-name="Path 90" d="M164.427,0h10.739a2.12,2.12,0,0,1,2.085,2.836l-2.885,10.739a4.045,4.045,0,0,1-3.2,2.812l2.764-10.3a1.529,1.529,0,0,0-1.5-2.061H160.5l.315-1.212A4.024,4.024,0,0,1,164.427,0" transform="translate(-121.591)" fill="#5c78b8" fill-rule="evenodd"/>
                  <path id="Path_91" data-name="Path 91" d="M2.909,21.145a1.736,1.736,0,0,0-.194-.921.691.691,0,0,0-.582-.291.78.78,0,0,0-.679.364,1.79,1.79,0,0,0-.218,1.115Zm1.285.315v.194l-2.885.412a1.363,1.363,0,0,0,.339.8,1.178,1.178,0,0,0,.8.267,3.06,3.06,0,0,0,.727-.073,3.085,3.085,0,0,0,.509-.17L4,23.764a2.381,2.381,0,0,1-.7.242,4.144,4.144,0,0,1-1.018.1,2.594,2.594,0,0,1-.994-.17,1.97,1.97,0,0,1-.727-.509A2.74,2.74,0,0,1,.1,22.648,7.262,7.262,0,0,1,0,21.582a3.446,3.446,0,0,1,.145-1.018,2.36,2.36,0,0,1,.412-.776,2,2,0,0,1,.679-.509,2.231,2.231,0,0,1,.921-.17,2.044,2.044,0,0,1,.9.17,1.575,1.575,0,0,1,.63.485,2.2,2.2,0,0,1,.388.752A2.8,2.8,0,0,1,4.194,21.461Zm6.279,2.521V20.636a.6.6,0,0,0-.17-.461.714.714,0,0,0-.533-.194.769.769,0,0,0-.606.242v3.782H7.782V20.612a.621.621,0,0,0-.194-.461.769.769,0,0,0-.558-.17,1.281,1.281,0,0,0-.315.024c-.073.024-.17.048-.242.073v3.927H5.091V19.448a3.454,3.454,0,0,1,.848-.267,6.487,6.487,0,0,1,1.091-.1,2.5,2.5,0,0,1,.945.145,1.694,1.694,0,0,1,.558.339,2.345,2.345,0,0,1,.606-.339,2.724,2.724,0,0,1,.97-.145,2.324,2.324,0,0,1,.752.121,1.636,1.636,0,0,1,.533.315,1.292,1.292,0,0,1,.315.485,1.688,1.688,0,0,1,.121.606v3.37Zm5.261-3.1a.92.92,0,0,0-.994-1.018.747.747,0,0,0-.242.024.571.571,0,0,0-.194.048l-.024,2.133C15.3,21.945,15.733,21.63,15.733,20.879Zm1.358,0a1.889,1.889,0,0,1-.145.752,1.4,1.4,0,0,1-.436.558,4.467,4.467,0,0,1-2.255.63l.024,1.188H12.9V19.352c.218-.073.461-.121.752-.194a6.81,6.81,0,0,1,1.091-.073,3.927,3.927,0,0,1,.97.121,2.371,2.371,0,0,1,.752.339,1.793,1.793,0,0,1,.485.558A1.926,1.926,0,0,1,17.091,20.879Zm3.491.267a1.736,1.736,0,0,0-.194-.921.691.691,0,0,0-.582-.291.78.78,0,0,0-.679.364,1.79,1.79,0,0,0-.218,1.115Zm1.285.315v.194l-2.885.412a1.363,1.363,0,0,0,.339.8,1.178,1.178,0,0,0,.8.267,2.86,2.86,0,0,0,1.236-.242l.315.873a2.381,2.381,0,0,1-.7.242,4.144,4.144,0,0,1-1.018.1,2.594,2.594,0,0,1-.994-.17,1.97,1.97,0,0,1-.727-.509,2.74,2.74,0,0,1-.461-.776,3.5,3.5,0,0,1-.145-1.042,3.445,3.445,0,0,1,.145-1.018,2.36,2.36,0,0,1,.412-.776,2,2,0,0,1,.679-.509,2.231,2.231,0,0,1,.921-.17,2.044,2.044,0,0,1,.9.17,1.575,1.575,0,0,1,.63.485,2.2,2.2,0,0,1,.388.752A1.794,1.794,0,0,1,21.867,21.461Zm3.588,2.521V20.636a.825.825,0,0,0-.024-.242.5.5,0,0,0-.121-.218.353.353,0,0,0-.218-.145.828.828,0,0,0-.364-.048,1.387,1.387,0,0,0-.339.024c-.1.024-.17.048-.242.073v3.927H22.764V19.448a5.371,5.371,0,0,1,.873-.267,5.547,5.547,0,0,1,1.139-.1,3.641,3.641,0,0,1,.97.121,1.7,1.7,0,0,1,.63.315,1.167,1.167,0,0,1,.364.485,1.674,1.674,0,0,1,.1.606v3.37Zm5.067-4.024a1.884,1.884,0,0,0-.388-.048.955.955,0,0,0-.485.121.911.911,0,0,0-.339.339,2.48,2.48,0,0,0-.194.509,2.982,2.982,0,0,0-.048.679,2.385,2.385,0,0,0,.242,1.212.823.823,0,0,0,.776.436,1.013,1.013,0,0,0,.436-.073ZM31.9,23.715a2.44,2.44,0,0,1-.776.267,6.421,6.421,0,0,1-1.067.1,2.47,2.47,0,0,1-.97-.17,2.168,2.168,0,0,1-.752-.461,1.891,1.891,0,0,1-.461-.776,2.9,2.9,0,0,1-.17-1.067,3.5,3.5,0,0,1,.145-1.042,2.023,2.023,0,0,1,.436-.776,1.672,1.672,0,0,1,.679-.485,2.423,2.423,0,0,1,1.236-.145c.121.024.218.024.315.048V17H31.9v6.715Zm2.521-5.891a.563.563,0,0,1-.218.461.83.83,0,0,1-1.067,0,.6.6,0,0,1,0-.921.83.83,0,0,1,1.067,0A.563.563,0,0,1,34.424,17.824Zm-1.43,6.158v-4.8h1.382v4.8Zm6.473-.267a3.292,3.292,0,0,1-.824.267,5.64,5.64,0,0,1-1.164.1,2.448,2.448,0,0,1-1.527-.388,1.483,1.483,0,0,1-.485-1.261V19.206h1.382v3.321a.677.677,0,0,0,.145.436.622.622,0,0,0,.509.194,1.3,1.3,0,0,0,.582-.121v-3.83h1.382Zm6.448.267V20.636a.6.6,0,0,0-.17-.461.714.714,0,0,0-.533-.194.769.769,0,0,0-.606.242v3.782H43.224V20.612a.621.621,0,0,0-.194-.461.769.769,0,0,0-.558-.17,1.281,1.281,0,0,0-.315.024c-.073.024-.17.048-.242.073v3.927H40.533V19.448a3.455,3.455,0,0,1,.848-.267,6.487,6.487,0,0,1,1.091-.1,2.5,2.5,0,0,1,.945.145,1.694,1.694,0,0,1,.558.339,2.345,2.345,0,0,1,.606-.339,2.724,2.724,0,0,1,.97-.145,2.324,2.324,0,0,1,.752.121,1.636,1.636,0,0,1,.533.315,1.292,1.292,0,0,1,.315.485,1.688,1.688,0,0,1,.121.606v3.37Z" transform="translate(0 -12.879)" fill="#fff" fill-rule="evenodd"/>
                  <g id="Group_82" data-name="Group 82" transform="translate(14.594 12.388)">
                    <path id="Path_92" data-name="Path 92" d="M63.764,56.2v2.861h-.291V56.685c0-.048,0-.073.024-.1l-1.382,1.964c0,.024-.024.024-.048.048-.024,0-.024.024-.048.024H61.97c-.024,0-.048,0-.048-.024s-.024-.024-.048-.048l-1.406-1.964c0,.024.024.073.024.1v2.376H60.2V56.2h.242a.089.089,0,0,1,.073.024c.024.024.048.024.048.048l1.358,1.842.073.145.073-.145L63.4,56.273c.024-.024.024-.048.048-.048h.315Z" transform="translate(-60.2 -54.964)" fill="#b5b5b5"/>
                    <path id="Path_93" data-name="Path 93" d="M79.927,56.1a1.858,1.858,0,0,1,.655.1,1.614,1.614,0,0,1,.485.291,1.148,1.148,0,0,1,.291.461,1.592,1.592,0,0,1,.1.606,1.674,1.674,0,0,1-.1.606,1.491,1.491,0,0,1-.291.461,1.361,1.361,0,0,1-.485.291,2.258,2.258,0,0,1-1.309,0,1.614,1.614,0,0,1-.485-.291.937.937,0,0,1-.291-.461,1.592,1.592,0,0,1-.1-.606,1.674,1.674,0,0,1,.1-.606,1.491,1.491,0,0,1,.291-.461,1.361,1.361,0,0,1,.485-.291A2.655,2.655,0,0,1,79.927,56.1Zm0,2.715a1.3,1.3,0,0,0,.533-.1.959.959,0,0,0,.364-.242,1.011,1.011,0,0,0,.218-.388,1.818,1.818,0,0,0,0-1.018,1.011,1.011,0,0,0-.218-.388.959.959,0,0,0-.364-.242,1.613,1.613,0,0,0-.533-.1,1.233,1.233,0,0,0-.533.1.959.959,0,0,0-.364.242,1.011,1.011,0,0,0-.218.388,1.818,1.818,0,0,0,0,1.018,1.011,1.011,0,0,0,.218.388.959.959,0,0,0,.364.242A1.743,1.743,0,0,0,79.927,58.815Z" transform="translate(-73.988 -54.888)" fill="#b5b5b5"/>
                    <path id="Path_94" data-name="Path 94" d="M95.745,51.488a2.6,2.6,0,0,0-.655.145,1.266,1.266,0,0,0-.461.339,1.283,1.283,0,0,0-.267.509,2.893,2.893,0,0,0-.1.7.923.923,0,0,1,.218-.315,1.556,1.556,0,0,1,.315-.242,1.071,1.071,0,0,1,.388-.145,2.671,2.671,0,0,1,.436-.048,1.592,1.592,0,0,1,.606.1,1.491,1.491,0,0,1,.461.291,1.376,1.376,0,0,1,.291.436,1.422,1.422,0,0,1,.1.558,1.347,1.347,0,0,1-.1.558,1.122,1.122,0,0,1-.315.436,1.614,1.614,0,0,1-.485.291,1.858,1.858,0,0,1-.655.1,1.545,1.545,0,0,1-.582-.1,1.055,1.055,0,0,1-.485-.315,1.8,1.8,0,0,1-.339-.558,3.084,3.084,0,0,1-.121-.9,3.137,3.137,0,0,1,.1-.848,2.048,2.048,0,0,1,.315-.655,1.33,1.33,0,0,1,.533-.436,1.925,1.925,0,0,1,.776-.194l1.212-.1.024.145c0,.024,0,.073-.024.073-.024.024-.048.024-.073.048Zm-.218,3.539a1.89,1.89,0,0,0,.533-.073,1.056,1.056,0,0,0,.388-.242,1.359,1.359,0,0,0,.242-.364,1.652,1.652,0,0,0,0-.97.913.913,0,0,0-.218-.364.959.959,0,0,0-.364-.242A1.612,1.612,0,0,0,95.6,52.7a1.845,1.845,0,0,0-.509.073,1.011,1.011,0,0,0-.388.218.87.87,0,0,0-.242.339,1.276,1.276,0,0,0-.1.436,1.891,1.891,0,0,0,.073.533,1.117,1.117,0,0,0,.218.412,1.013,1.013,0,0,0,.364.267A3.026,3.026,0,0,0,95.527,55.027Z" transform="translate(-85.806 -51.1)" fill="#b5b5b5"/>
                    <path id="Path_95" data-name="Path 95" d="M112.815,56.3v2.836H112.5V56.664c-.024.024-.024.048-.048.073s-.024.048-.048.048a.29.29,0,0,1-.1.1,3.273,3.273,0,0,0-.218.267,3.7,3.7,0,0,1-.315.364c-.121.145-.242.267-.364.412-.291.339-.63.7-.994,1.115l-.048.048c-.024.024-.048.048-.073.048H110.1V56.3h.315v2.473c.024-.024.024-.048.048-.073s.024-.048.048-.048a.29.29,0,0,1,.1-.1c.048-.073.145-.145.242-.267s.194-.218.315-.364.242-.267.364-.412c.291-.339.63-.7.994-1.115l.048-.048a.089.089,0,0,1,.073-.024h.17Z" transform="translate(-98.003 -55.039)" fill="#b5b5b5"/>
                    <path id="Path_96" data-name="Path 96" d="M127.021,59.212h-.339V56.594h-1.358a5.279,5.279,0,0,1-.121.97,4.141,4.141,0,0,1-.194.7,1.807,1.807,0,0,1-.242.485,1.646,1.646,0,0,1-.291.291.819.819,0,0,1-.291.145,1.217,1.217,0,0,1-.291.048h-.145c-.048,0-.048-.024-.048-.024v-.17h.145a.861.861,0,0,0,.242-.048.646.646,0,0,0,.242-.145,1.537,1.537,0,0,0,.242-.291,3.134,3.134,0,0,0,.218-.485,4.279,4.279,0,0,0,.17-.7,9.33,9.33,0,0,0,.1-.97H127v2.812Z" transform="translate(-108.306 -55.115)" fill="#b5b5b5"/>
                    <path id="Path_97" data-name="Path 97" d="M142.764,57.488a2.121,2.121,0,0,1,.582.073,1.267,1.267,0,0,1,.364.17A.687.687,0,0,1,143.9,58a.615.615,0,0,1,.048.291.774.774,0,0,1-.073.339.758.758,0,0,1-.218.267,1.267,1.267,0,0,1-.364.17,1.612,1.612,0,0,1-.509.073H141.6V56.3h.315v1.188Zm.024,1.455a1.687,1.687,0,0,0,.388-.048.682.682,0,0,0,.267-.121.654.654,0,0,0,.17-.194.63.63,0,0,0,0-.485.377.377,0,0,0-.145-.194.809.809,0,0,0-.291-.121,2.174,2.174,0,0,0-.436-.048h-.848v1.236h.9Z" transform="translate(-121.867 -55.039)" fill="#b5b5b5"/>
                    <path id="Path_98" data-name="Path 98" d="M157.018,56.3v2.836H156.7v-1.43h-1.988v1.43H154.4V56.3h.315v1.212H156.7V56.3Z" transform="translate(-131.564 -55.039)" fill="#b5b5b5"/>
                    <path id="Path_99" data-name="Path 99" d="M170.227,56.1a1.858,1.858,0,0,1,.655.1,1.614,1.614,0,0,1,.485.291,1.148,1.148,0,0,1,.291.461,1.592,1.592,0,0,1,.1.606,1.674,1.674,0,0,1-.1.606,1.491,1.491,0,0,1-.291.461,1.36,1.36,0,0,1-.485.291,2.258,2.258,0,0,1-1.309,0,1.614,1.614,0,0,1-.485-.291.937.937,0,0,1-.291-.461,1.592,1.592,0,0,1-.1-.606,1.674,1.674,0,0,1,.1-.606,1.491,1.491,0,0,1,.291-.461,1.361,1.361,0,0,1,.485-.291A3.052,3.052,0,0,1,170.227,56.1Zm0,2.715a1.3,1.3,0,0,0,.533-.1.959.959,0,0,0,.364-.242,1.011,1.011,0,0,0,.218-.388,1.818,1.818,0,0,0,0-1.018,1.011,1.011,0,0,0-.218-.388.959.959,0,0,0-.364-.242,1.613,1.613,0,0,0-.533-.1,1.233,1.233,0,0,0-.533.1.959.959,0,0,0-.364.242,1.011,1.011,0,0,0-.218.388,1.818,1.818,0,0,0,0,1.018,1.011,1.011,0,0,0,.218.388.959.959,0,0,0,.364.242A1.891,1.891,0,0,0,170.227,58.815Z" transform="translate(-142.397 -54.888)" fill="#b5b5b5"/>
                    <path id="Path_100" data-name="Path 100" d="M184.415,57.533v.048a1.347,1.347,0,0,0,.1.558,1.16,1.16,0,0,0,.242.412.814.814,0,0,0,.388.242,1.612,1.612,0,0,0,.509.073,2.175,2.175,0,0,0,.436-.048c.121-.024.218-.073.315-.1a1.429,1.429,0,0,1,.194-.1l.1-.048a.089.089,0,0,1,.073.024l.1.1a.852.852,0,0,1-.218.17,1.483,1.483,0,0,1-.291.121,1.4,1.4,0,0,1-.339.073c-.121,0-.242.024-.364.024a1.808,1.808,0,0,1-.63-.1,1.614,1.614,0,0,1-.485-.291,1.126,1.126,0,0,1-.315-.485,1.821,1.821,0,0,1-.121-.63,1.422,1.422,0,0,1,.1-.558,1.376,1.376,0,0,1,.291-.436,1.36,1.36,0,0,1,.485-.291,1.722,1.722,0,0,1,.63-.1,1.89,1.89,0,0,1,.533.073,1.225,1.225,0,0,1,.7.63,1.233,1.233,0,0,1,.1.533c0,.048,0,.073-.024.1s-.024.024-.073.024h-2.424Zm2.23-.17a1.132,1.132,0,0,0-.073-.412.923.923,0,0,0-.218-.315,1.181,1.181,0,0,0-.752-.267,1.411,1.411,0,0,0-.461.073,1.285,1.285,0,0,0-.364.194,1.557,1.557,0,0,0-.242.315,1.03,1.03,0,0,0-.121.412Z" transform="translate(-154.064 -54.964)" fill="#b5b5b5"/>
                  </g>
                </g>
                <g id="_iPhone_Xs_Bars_Navigation_Default" data-name=" iPhone Xs / Bars | Navigation Default">
                  <g id="Background">
                    <rect id="Background-2" data-name="Background" width="90.909" height="9.212" fill="#292945"/>
                  </g>
                  <g id="Status_Bar" data-name="Status Bar" transform="translate(7.747 3.918)">
                    <g id="Action" transform="translate(0 0.244)">
                      <path id="_Time" data-name=" Time" d="M13,5.856c.652,0,1.039-.51,1.039-1.373,0-.847-.412-1.316-1.025-1.316a.891.891,0,0,0-.952.9.82.82,0,0,0,.843.85.707.707,0,0,0,.664-.382h.03c-.005.593-.22.936-.595.936a.444.444,0,0,1-.451-.311H12.1A.861.861,0,0,0,13,5.856Zm.016-1.3a.48.48,0,0,1-.5-.5.506.506,0,1,1,1.012.009A.483.483,0,0,1,13.018,4.556ZM14.8,5.44a.281.281,0,1,0-.284-.281A.272.272,0,0,0,14.8,5.44Zm0-1.3a.28.28,0,1,0-.284-.279A.271.271,0,0,0,14.8,4.144Zm2.014,1.65h.439V5.305H17.6V4.918h-.346V3.231h-.646c-.348.529-.712,1.113-1.044,1.692v.382h1.252Zm-.827-.89c.25-.431.547-.9.81-1.3h.025V4.929h-.835Zm2.622.89h.458V3.231h-.456l-.669.469v.44l.637-.447h.03Z" transform="translate(-12.064 -3.167)" fill="#fff"/>
                    </g>
                    <g id="Container" transform="translate(63.404 0)">
                      <g id="Battery" transform="translate(10.303)">
                        <path id="Rectangle" d="M.87,2.788A.987.987,0,0,1,.347,2.7a.614.614,0,0,1-.257-.257A.985.985,0,0,1,0,1.918V.87A.985.985,0,0,1,.091.347.614.614,0,0,1,.347.091.985.985,0,0,1,.87,0H4.463a.986.986,0,0,1,.523.091.614.614,0,0,1,.257.257A.989.989,0,0,1,5.333.87V1.918a.989.989,0,0,1-.091.523.614.614,0,0,1-.257.257.988.988,0,0,1-.523.091ZM.462.3A.372.372,0,0,0,.3.462.805.805,0,0,0,.242.87V1.918A.805.805,0,0,0,.3,2.326a.369.369,0,0,0,.157.157.8.8,0,0,0,.408.062H4.463a.8.8,0,0,0,.409-.062.375.375,0,0,0,.157-.157.805.805,0,0,0,.062-.408V.87A.805.805,0,0,0,5.029.462.375.375,0,0,0,4.872.3.806.806,0,0,0,4.463.242H.87A.805.805,0,0,0,.462.3Zm5.114.59s.363.185.363.485-.363.485-.363.485Z" fill="#fff"/>
                        <rect id="Rectangle-2" data-name="Rectangle" width="4.364" height="1.859" rx="0.929" transform="translate(0.485 0.465)" fill="#fff"/>
                      </g>
                      <path id="Combined_Shape" data-name="Combined Shape" d="M2.279,2.231V.946a.364.364,0,0,1,.727,0V2.231a.364.364,0,0,1-.727,0Zm1.139,0V.364a.364.364,0,1,1,.727,0V2.23a.364.364,0,0,1-.727,0Zm-2.255,0V1.5a.364.364,0,0,1,.727,0V2.23a.364.364,0,0,1-.727,0ZM0,2.23V1.988a.364.364,0,1,1,.727,0V2.23A.364.364,0,0,1,0,2.23Z" transform="translate(0 0.107)" fill="#fff"/>
                      <path id="Wi-Fi" d="M1.867,2.681a.076.076,0,0,1-.054-.023l-.489-.493a.077.077,0,0,1,0-.112.836.836,0,0,1,1.08,0,.076.076,0,0,1,.025.055.077.077,0,0,1-.023.057l-.488.493A.076.076,0,0,1,1.867,2.681Zm.857-.865a.074.074,0,0,1-.052-.021,1.2,1.2,0,0,0-1.61,0,.075.075,0,0,1-.106,0L.674,1.508a.079.079,0,0,1,0-.112,1.75,1.75,0,0,1,2.384,0,.079.079,0,0,1,0,.112l-.282.285A.076.076,0,0,1,2.724,1.816Zm.65-.657a.075.075,0,0,1-.053-.021,2.112,2.112,0,0,0-2.911,0,.075.075,0,0,1-.053.021.074.074,0,0,1-.053-.022L.023.852a.079.079,0,0,1,0-.111,2.664,2.664,0,0,1,3.686,0,.078.078,0,0,1,0,.111l-.283.285A.074.074,0,0,1,3.375,1.159Z" transform="translate(5.358 0.058)" fill="#fff"/>
                    </g>
                  </g>
                </g>
              </g>
            </g>
          </g>
        </g>
      </g>
      <g id="Component_45_12" data-name="Component 45  12" transform="translate(118 181.5)">
        <rect id="button-background" width="160" height="30" rx="15" fill="#e34d96"/>
        <path id="Path_3225" data-name="Path 3225" d="M-17.982-3.009A3.337,3.337,0,0,1-19.074-.7a3.722,3.722,0,0,1-2.533.828A3.6,3.6,0,0,1-23.552-.4a3.437,3.437,0,0,1-1.3-1.489,5.372,5.372,0,0,1-.476-2.241v-.863a5.411,5.411,0,0,1,.463-2.3,3.492,3.492,0,0,1,1.33-1.536,3.71,3.71,0,0,1,2-.54,3.572,3.572,0,0,1,2.463.828A3.461,3.461,0,0,1-17.982-6.2h-1.6a2.283,2.283,0,0,0-.581-1.438,1.92,1.92,0,0,0-1.368-.441,1.875,1.875,0,0,0-1.609.766,3.826,3.826,0,0,0-.574,2.246v.82a4.059,4.059,0,0,0,.536,2.287,1.78,1.78,0,0,0,1.571.788,2.076,2.076,0,0,0,1.422-.425,2.218,2.218,0,0,0,.6-1.416ZM-14-2.717h-.781V0h-1.542V-6.868h1.542v2.742h.679l1.9-2.742h1.9L-12.777-3.58-10.086,0h-2.006ZM-4.875,0a2.381,2.381,0,0,1-.178-.641,2.4,2.4,0,0,1-1.8.768,2.423,2.423,0,0,1-1.688-.59A1.889,1.889,0,0,1-9.2-1.923a1.95,1.95,0,0,1,.816-1.685A3.953,3.953,0,0,1-6.049-4.2H-5.1v-.451A1.2,1.2,0,0,0-5.4-5.5a1.183,1.183,0,0,0-.908-.321,1.359,1.359,0,0,0-.863.263.815.815,0,0,0-.336.67H-9.052a1.712,1.712,0,0,1,.375-1.057,2.5,2.5,0,0,1,1.019-.771A3.579,3.579,0,0,1-6.22-7,2.882,2.882,0,0,1-4.3-6.389a2.162,2.162,0,0,1,.736,1.7v3.1A3.511,3.511,0,0,0-3.3-.108V0ZM-6.57-1.111a1.755,1.755,0,0,0,.86-.222,1.484,1.484,0,0,0,.606-.6V-3.225h-.832a2.274,2.274,0,0,0-1.289.3.966.966,0,0,0-.432.844.9.9,0,0,0,.3.708A1.143,1.143,0,0,0-6.57-1.111ZM3.821,0H2.279V-2.292a5.5,5.5,0,0,1-1.257.14A3.091,3.091,0,0,1-1.13-2.828a2.489,2.489,0,0,1-.743-1.939V-6.875H-.33v2.107A1.4,1.4,0,0,0,0-3.707,1.45,1.45,0,0,0,1.022-3.4a5.593,5.593,0,0,0,1.257-.146V-6.868H3.821Zm6,0a2.381,2.381,0,0,1-.178-.641,2.4,2.4,0,0,1-1.8.768,2.423,2.423,0,0,1-1.688-.59A1.889,1.889,0,0,1,5.5-1.923a1.95,1.95,0,0,1,.816-1.685A3.953,3.953,0,0,1,8.652-4.2H9.6v-.451A1.2,1.2,0,0,0,9.3-5.5a1.183,1.183,0,0,0-.908-.321,1.359,1.359,0,0,0-.863.263.815.815,0,0,0-.336.67H5.649a1.712,1.712,0,0,1,.375-1.057,2.5,2.5,0,0,1,1.019-.771A3.579,3.579,0,0,1,8.48-7a2.882,2.882,0,0,1,1.923.606,2.162,2.162,0,0,1,.736,1.7v3.1A3.511,3.511,0,0,0,11.4-.108V0ZM8.131-1.111a1.755,1.755,0,0,0,.86-.222,1.484,1.484,0,0,0,.606-.6V-3.225H8.766a2.274,2.274,0,0,0-1.289.3.966.966,0,0,0-.432.844.9.9,0,0,0,.3.708A1.143,1.143,0,0,0,8.131-1.111ZM18.319-5.643H16.091V0H14.548V-5.643h-2.2V-6.868h5.973Zm2.945.958h1.511a3.464,3.464,0,0,1,1.473.292,2.158,2.158,0,0,1,.955.819,2.276,2.276,0,0,1,.327,1.225,2.128,2.128,0,0,1-.749,1.7A2.985,2.985,0,0,1,22.787,0H19.721V-6.868h1.542Zm0,1.238v2.215h1.5a1.318,1.318,0,0,0,.892-.282,1,1,0,0,0,.327-.8,1.074,1.074,0,0,0-.321-.822,1.236,1.236,0,0,0-.866-.308Z" transform="translate(77.045 19)" fill="#fff"/>
        <path id="Path_2193" data-name="Path 2193" d="M294.919,428.27l-1.414-1.414,6.364-6.364-6.364-6.364,1.414-1.414,7.778,7.778Z" transform="translate(-153.505 -405.214)" fill="#fff"/>
      </g>
    </g>
  </g>
</svg>
