<?xml version="1.0" encoding="utf-8"?>
<!-- Generator: Adobe Illustrator 16.0.3, SVG Export Plug-In . SVG Version: 6.00 Build 0)  -->
<!DOCTYPE svg PUBLIC "-//W3C//DTD SVG 1.1//EN" "http://www.w3.org/Graphics/SVG/1.1/DTD/svg11.dtd">
<svg version="1.1" xmlns="http://www.w3.org/2000/svg" xmlns:xlink="http://www.w3.org/1999/xlink" x="0px" y="0px" width="938px"
	 height="194px" viewBox="0 0 938 194" enable-background="new 0 0 938 194" xml:space="preserve">
<g id="Capa_1">
</g>
<g id="Capa_2">
	<g>
		<path fill-rule="evenodd" clip-rule="evenodd" fill="none" stroke="#FFFFFF" stroke-width="15" stroke-miterlimit="10" d="
			M179.006,127.019c6.812-9.287,12.855-19.05,18.086-29.311c3.874-7.601,7.295-15.4,10.064-23.473
			c1.422-4.144,2.792-8.302,3.213-12.712c0.23-2.41-0.012-4.758-0.548-7.081c-0.46-1.994-1.411-3.784-2.649-5.417
			c-3.095-4.08-7.376-6.444-12.065-8.098c-3.641-1.284-20.203-5.385-24.796-6.19c-11.906-2.088-30.439-5.009-47.957-5.437
			c-8.514-0.208-17.021-0.018-25.513,0.688c-3.397,0.282-18.052,2.607-21.944,3.624c-6.527,1.703-12.841,3.955-18.784,7.167
			c-4.992,2.699-9.585,5.937-13.414,10.186c-1.25,1.387-2.399,2.842-3.431,4.395c-3.605,5.421-5.53,11.396-5.863,17.884
			c-0.177,3.445,0.055,6.871,0.587,10.283c0.577,3.7,1.096,7.411,1.869,11.076c1.313,6.221,3.057,12.321,5.217,18.305
			c4.415,12.227,10.305,23.719,17.298,34.651c3.133,4.897,6.754,9.439,10.685,13.728c3.649,3.981,7.667,7.557,12.201,10.488
			c6.523,4.217,13.614,6.843,21.449,7.266c4.269,0.23,8.458-0.215,12.604-1.206c0.147-0.045,8.729-2.565,12.671-4.362
			c8.616-3.928,16.309-9.263,23.44-15.445c6.682-5.792,12.698-12.225,18.265-19.083
			C171.953,136.157,178.393,127.855,179.006,127.019z"/>
		<linearGradient id="SVGID_1_" gradientUnits="userSpaceOnUse" x1="33.3462" y1="104.1592" x2="210.4565" y2="104.1592">
			<stop  offset="0" style="stop-color:#E66621"/>
			<stop  offset="0.1033" style="stop-color:#E87120"/>
			<stop  offset="0.3597" style="stop-color:#EE881C"/>
			<stop  offset="0.5122" style="stop-color:#F09019"/>
			<stop  offset="0.5655" style="stop-color:#F19718"/>
			<stop  offset="0.7044" style="stop-color:#F4A614"/>
			<stop  offset="0.8475" style="stop-color:#F6AF11"/>
			<stop  offset="1" style="stop-color:#F6B20F"/>
		</linearGradient>
		<path fill-rule="evenodd" clip-rule="evenodd" fill="url(#SVGID_1_)" d="M179.006,127.019c6.812-9.287,12.855-19.05,18.086-29.311
			c3.874-7.601,7.295-15.4,10.064-23.473c1.422-4.144,2.792-8.302,3.213-12.712c0.23-2.41-0.012-4.758-0.548-7.081
			c-0.46-1.994-1.411-3.784-2.649-5.417c-3.095-4.08-7.376-6.444-12.065-8.098c-3.641-1.284-20.203-5.385-24.796-6.19
			c-11.906-2.088-30.439-5.009-47.957-5.437c-8.514-0.208-17.021-0.018-25.513,0.688c-3.397,0.282-18.052,2.607-21.944,3.624
			c-6.527,1.703-12.841,3.955-18.784,7.167c-4.992,2.699-9.585,5.937-13.414,10.186c-1.25,1.387-2.399,2.842-3.431,4.395
			c-3.605,5.421-5.53,11.396-5.863,17.884c-0.177,3.445,0.055,6.871,0.587,10.283c0.577,3.7,1.096,7.411,1.869,11.076
			c1.313,6.221,3.057,12.321,5.217,18.305c4.415,12.227,10.305,23.719,17.298,34.651c3.133,4.897,6.754,9.439,10.685,13.728
			c3.649,3.981,7.667,7.557,12.201,10.488c6.523,4.217,13.614,6.843,21.449,7.266c4.269,0.23,8.458-0.215,12.604-1.206
			c0.147-0.045,8.729-2.565,12.671-4.362c8.616-3.928,16.309-9.263,23.44-15.445c6.682-5.792,12.698-12.225,18.265-19.083
			C171.953,136.157,178.393,127.855,179.006,127.019z"/>
	</g>
	<path fill-rule="evenodd" clip-rule="evenodd" fill="#FFFFFF" d="M834.572,169.759c-3.589-0.667-8.288-1.032-12.748-2.73
		c-7.4-2.817-12.047-7.988-14.218-15.593c-2.12-7.428-2.101-15.014-2.102-22.618c-0.003-12.724,0.047-25.448-0.049-38.171
		c-0.052-7.16-0.003-14.317,0.024-21.473c0.024-6.22,0.571-12.338,1.637-18.417c0.785-4.475,2.832-8.382,5.695-12.017
		c3.619-4.59,8.512-6.541,13.861-7.525c10.914-2.006,21.968-2.059,33.033-1.988c6.794,0.045,13.565,0.316,20.324,0.935
		c3.724,0.341,7.421,0.863,11.022,1.978c8.67,2.684,14.041,8.493,16.434,17.156c1.634,5.922,1.878,12.007,1.878,18.092
		c-0.005,22.688,0.052,45.379-0.215,68.064c-0.07,5.909-0.754,11.85-2.641,17.597c-2.399,7.305-7.366,11.85-14.409,14.379
		c-6.057,2.176-12.425,2.962-18.757,3.101C860.767,170.801,848.167,171.216,834.572,169.759z M879.02,125.023
		c0.146-2.07,0.434-4.142,0.412-6.211c-0.122-11.337-0.274-22.675-0.517-34.012c-0.082-3.86,0.141-7.746-0.496-11.581
		c-1.086-6.533-4.52-9.758-11.044-10.35c-5.658-0.513-11.339-0.474-17.005-0.321c-4.866,0.131-8.561,3.629-9.287,8.468
		c-0.451,3.012-0.682,6.043-0.686,9.102c-0.011,10.781-0.16,21.562-0.133,32.342c0.016,5.111-0.117,10.24,0.513,15.329
		c0.794,6.396,4.024,9.665,10.482,10.231c4.4,0.385,8.847,0.572,13.261,0.439C875.199,138.141,877.64,135.761,879.02,125.023z"/>
	<path fill-rule="evenodd" clip-rule="evenodd" fill="#FFFFFF" d="M793.287,170.664c-0.336-0.44-0.625-0.914-0.936-1.372
		c-10.323-15.245-20.078-30.872-30.913-45.771c-1.064-1.464-2.505-3.255-1.843-4.847c0.689-1.656,2.955-0.673,4.482-0.692
		c12.705-0.165,22.998-11.346,25.112-19.741c0.979-3.887,1.908-7.807,2.123-11.209c1.567-12.881,1.218-24.177-0.909-32.383
		c-3.48-13.436-14.685-22.875-27.95-23.156c-12.015-0.253-24.037-0.182-36.056-0.219c-10.873-0.034-21.744,0.004-32.616-0.044
		c-3.316-0.015-4.108,0.629-4.127,4.036c-0.057,9.82-0.069,19.64-0.108,29.459c-0.042,10.779-0.094,21.558-0.135,32.337
		c-0.054,14.384-0.097,28.768-0.152,43.151c-0.027,7.747-0.141,15.493-0.078,23.239c0.029,3.493,0.576,3.877,4.173,4.205
		c6.103,0.556,12.228,0.063,18.353,0.451c5.568,0.353,6.579-0.928,6.579-6.225c0.004-12.161-0.118-24.321-0.192-36.481
		c-0.028-4.565-0.08-9.132-0.08-13.698c0-0.489,0.279-0.978,0.429-1.467c0.645,0.198,0.734,0.819,0.871,1.309
		c0.717,2.564,2.037,4.83,3.372,7.095c10.108,17.144,20.204,34.296,30.328,51.431c0.624,1.054,1.311,2.111,2.87,1.991
		c5.697-0.438,11.403-0.396,17.112-0.234c6.496,0.185,12.994,0.298,19.491,0.484C794.141,172.359,794.128,171.762,793.287,170.664z
		 M763.541,76.179c-0.305,2.182-0.507,4.356-1.401,6.451c-2.428,5.689-5.747,7.74-11.85,7.585
		c-5.931-0.151-11.889-0.206-17.808,0.168c-5.59,0.354-10.552,2.25-12.936,8.041c-0.132,0.322-0.536,0.779-0.788,0.763
		c-0.818-0.05-0.555-0.768-0.541-1.252c0.378-12.018,0.275-24.038,0.246-36.058c-0.009-4.225,0.146-4.303,4.38-4.316
		c10.778-0.036,21.556,0.038,32.332-0.018c2.561-0.013,4.104,1.494,5.485,3.223c2.823,3.539,3.465,7.739,3.277,12.117
		C763.893,73.986,763.678,75.081,763.541,76.179z"/>
	<path fill-rule="evenodd" clip-rule="evenodd" fill="#FFFFFF" d="M598.215,169.492c-15.723-3.727-25.706-13.438-29.692-29.041
		c-1.621-6.338-0.714-12.931-0.731-19.409c-0.057-19.768-0.019-39.538,0.023-59.307c0.018-7.877,0.066-15.755,0.256-23.629
		c0.098-4.146,0.803-4.562,5.051-4.525c5.944,0.051,11.89,0.021,17.834-0.049c5.619-0.066,6.131,0.529,6.11,6.036
		c-0.063,17.14,0.016,34.281-0.021,51.421c-0.022,10.365-0.243,20.729-0.209,31.093c0.013,4.11-0.431,8.286,1.148,12.296
		c2.605,6.612,6.474,9.442,13.479,9.491c5.806,0.041,11.617-0.15,17.42-0.02c3.185,0.072,5.643-1.15,7.73-3.333
		c3.365-3.519,5.519-7.704,5.602-12.596c0.167-10.09,0.071-20.184,0.102-30.277c0.035-10.501,0.11-21.004,0.138-31.505
		c0.023-7.743-0.009-15.487,0.006-23.231c0.001-1.935,0.142-3.869,0.121-5.803c-0.028-2.561,1.458-3.39,3.701-3.383
		c7.054,0.021,14.108-0.009,21.159,0.13c3.67,0.071,4.114,0.652,4.119,5.051c0.011,9.817-0.107,19.633-0.116,29.45
		c-0.021,19.629,0.217,39.262-0.085,58.888c-0.165,10.582-1.539,21.012-9.173,29.441c-2.059,2.271-4.287,4.298-6.589,6.279
		c-7.096,3.789-14.498,6.917-22.627,7.059C621.387,170.217,609.784,170.572,598.215,169.492z"/>
	<path fill-rule="evenodd" clip-rule="evenodd" fill="#FFFFFF" d="M371.595,169.282c-17.499-1.211-30.604-16.435-32.794-30.502
		c-0.962-6.167-0.395-12.416-0.477-18.624c-0.148-11.053-0.003-22.111,0.041-33.166c0.049-12.167,0.133-24.335,0.177-36.503
		c0.015-4.148-0.115-8.299-0.049-12.445c0.065-4.129,0.938-4.824,4.898-4.769c5.664,0.078,11.329,0.015,16.995,0.028
		c1.244,0.003,2.495-0.004,3.729,0.121c2.967,0.3,3.541,0.863,3.585,3.901c0.07,4.705,0.008,9.411,0,14.116
		c-0.026,15.07-0.037,30.139-0.084,45.208c-0.033,10.092-0.096,20.182-0.193,30.272c-0.043,4.606,1.323,8.708,4.176,12.301
		c2.075,2.614,4.687,4.254,8.16,4.259c7.053,0.009,14.107,0.126,21.16,0.033c2.797-0.037,4.892-1.796,6.708-3.753
		c4.104-4.42,5.36-9.794,5.33-15.684c-0.059-11.192,0.061-22.388,0.073-33.582c0.012-11.611-0.024-23.221-0.027-34.832
		c-0.001-5.942-0.039-11.886,0.061-17.826c0.062-3.715,0.912-4.496,4.385-4.417c6.222,0.139,12.442,0.245,18.662-0.031
		c0.688-0.031,1.384,0.066,2.072,0.131c3.45,0.322,4.051,0.949,4.057,4.337c0.012,6.635,0.017,13.269-0.009,19.903
		c-0.05,13.136-0.104,26.271-0.189,39.407c-0.08,12.169,0.154,24.356-0.398,36.505c-0.638,14.045-8.42,28.186-25.718,33.615
		c-6.14,1.926-12.354,2.637-18.778,2.64c-7.421,0.006-14.837,0.029-22.254-0.245C373.79,169.642,372.695,169.42,371.595,169.282z"/>
	<path fill-rule="evenodd" clip-rule="evenodd" fill="#FFFFFF" d="M233.336,55.279c1.538-11.687,10.246-19.791,23.086-21.262
		c7.708-0.884,15.464-0.25,23.198-0.299c12.706-0.081,25.415-0.024,38.121-0.02c2.761,0.001,5.523-0.031,8.281,0.052
		c3.021,0.092,3.901,0.972,3.925,4.053c0.052,6.356,0.003,12.713,0.014,19.07c0.004,2.042-0.987,3.07-3.014,3.13
		c-2.626,0.079-5.25,0.241-7.876,0.233c-16.035-0.043-32.069-0.143-48.104-0.182c-6.034-0.015-7.88,1.677-8.465,7.714
		c-0.589,6.072-0.1,12.168-0.29,18.251c-0.056,1.769,0.573,2.591,2.712,2.581c15.346-0.075,30.691,0.084,46.036,0.034
		c2.905-0.009,5.805-0.004,8.708,0.086c3.103,0.096,3.917,0.587,3.95,3.422c0.073,6.495-0.08,12.992-0.137,19.487
		c-0.022,2.473-1.348,3.357-3.716,3.336c-14.103-0.124-28.206-0.203-42.309-0.267c-3.995-0.017-7.997,0.194-11.987,0.063
		c-2.362-0.078-3.297,0.868-3.303,3.103c-0.017,5.247-0.082,10.491-0.094,15.737c-0.02,8.43,0.034,16.86-0.049,25.289
		c-0.025,2.618,0.27,5.221,0.01,7.861c-0.244,2.458-1.358,3.394-3.718,3.373c-7.187-0.067-14.376,0.019-21.562-0.126
		c-3.28-0.066-3.861-0.789-3.859-4.015c0.005-9.538,0.087-19.075,0.108-28.612c0.023-10.363-0.001-20.725,0.016-31.088
		c0.028-16.452,0.071-32.904,0.12-49.355C233.14,56.378,233.267,55.828,233.336,55.279z"/>
	<path fill-rule="evenodd" clip-rule="evenodd" fill="#FFFFFF" d="M495.737,168.676c-4.957-0.594-5.063-0.595-5.061-4.789
		c0.007-12.856,0.143-25.71,0.155-38.566c0.014-14.371-0.076-28.739-0.075-43.11c-0.001-6.771,0.149-13.543,0.147-20.315
		c-0.001-3.675-0.079-3.653-3.69-3.642c-8.842,0.024-17.687,0.043-26.529,0.031c-3.312-0.004-4.228-0.86-4.22-4.106
		c0.017-6.082,0.059-12.165,0.235-18.243c0.102-3.486,0.747-3.854,4.322-3.854c14.616,0,29.232-0.218,43.845-0.016
		c7.708,0.107,15.414,0.025,23.12,0.123c7.433,0.093,14.867,0.078,22.297,0.118c3.702,0.02,4.104,0.248,4.148,3.82
		c0.079,6.36-0.072,12.722-0.095,19.083c-0.008,2.514-1.285,3.289-3.687,3.262c-8.844-0.102-17.69-0.003-26.537-0.094
		c-4.051-0.042-4.237,0.122-4.23,4.033c0.027,15.063-0.035,30.127-0.039,45.189c-0.002,10.367,0.063,20.734,0.045,31.102
		c-0.015,8.847-0.081,17.693-0.173,26.539c-0.027,2.586-1.045,3.398-4.046,3.404c-4.835,0.009-9.674,0.085-14.505-0.077
		C499.134,168.5,497.115,170.098,495.737,168.676z"/>
</g>
</svg>
