<svg xmlns="http://www.w3.org/2000/svg" xmlns:xlink="http://www.w3.org/1999/xlink" id="Capa_1" x="0px" y="0px" width="595.279px" height="841.891px" viewBox="0 0 595.279 841.891" xml:space="preserve">
<g id="surface1">
	<path fill="#FFFFFF" d="M407.395,188.414c-71.201,0-129.102,57.9-129.102,129.102c0,4.279,1.07,8.464,1.488,12.65   c-88.036-8.418-165.888-50.832-218.766-115.708c-2.465-3.116-6.278-4.79-10.277-4.511c-3.953,0.279-7.487,2.558-9.441,5.999   c-11.114,19.114-17.486,41.112-17.486,64.737c0,28.602,10.231,54.785,26.044,76.271c-3.069-1.349-6.418-2.093-9.302-3.721   c-3.674-1.953-8.092-1.86-11.673,0.279c-3.581,2.14-5.767,6-5.813,10.139v1.488c0,43.855,22.695,81.944,56.18,105.29   c-0.372-0.047-0.744,0.093-1.116,0c-4.092-0.697-8.231,0.744-10.975,3.859c-2.744,3.117-3.628,7.441-2.419,11.395   c13.301,41.344,47.251,72.922,89.292,84.455c-33.484,19.905-72.317,31.625-114.219,31.625c-9.069,0-17.766-0.465-26.416-1.488   c-5.581-0.744-10.929,2.512-12.789,7.812c-1.907,5.302,0.186,11.208,4.976,14.139c53.715,34.461,117.476,54.691,186.025,54.691   c111.104,0,198.256-46.414,256.715-112.731c58.458-66.318,88.92-152.448,88.92-232.903c0-3.396-0.279-6.697-0.372-10.046   c21.812-16.695,41.297-36.274,56.552-59.156c3.022-4.418,2.697-10.324-0.791-14.417c-3.441-4.092-9.255-5.348-14.092-3.069   c-6.139,2.744-13.301,3.023-19.719,5.208c8.465-11.301,15.72-23.485,20.091-37.205c1.488-4.697-0.139-9.859-3.999-12.929   c-3.86-3.022-9.255-3.395-13.487-0.837c-20.323,12.045-42.832,20.509-66.597,25.671   C471.759,202.924,441.391,188.414,407.395,188.414z M407.395,212.225c30.368,0,57.808,12.975,77.015,33.484   c2.883,2.977,7.115,4.232,11.161,3.348c15.533-3.069,30.275-7.58,44.646-13.394c-8.278,11.162-18.51,20.695-30.509,27.904   c-5.441,2.651-7.999,8.929-5.999,14.649c1.953,5.674,7.906,8.976,13.812,7.673c11.905-1.441,22.509-6.278,33.856-9.301   c-10.185,11.021-21.347,20.974-33.484,29.764c-3.302,2.418-5.116,6.325-4.837,10.417c0.187,4.836,0.372,9.627,0.372,14.51   c0,74.41-28.555,155.191-82.967,216.904C376.05,609.9,296.152,653.104,191.606,653.104c-47.482,0-92.314-10.511-132.822-29.021   c50.228-3.859,96.548-21.625,133.938-50.971c3.906-3.115,5.441-8.324,3.86-13.068c-1.581-4.743-5.953-7.998-10.93-8.139   c-39.251-0.697-72.131-23.531-89.664-55.807c0.651,0,1.21,0,1.86,0c11.767,0,23.393-1.488,34.229-4.465   c5.209-1.535,8.79-6.371,8.604-11.812c-0.187-5.441-4.047-10.092-9.349-11.255c-42.367-8.558-74.131-43.064-81.479-85.943   c11.999,4.139,24.276,7.395,37.577,7.813c5.441,0.326,10.371-3.069,12.045-8.232c1.675-5.162-0.372-10.836-4.976-13.719   c-28.276-18.928-46.879-51.157-46.879-87.804c0-13.58,3.534-26.043,8.186-37.949c59.527,65.341,142.867,108.732,236.995,113.476   c3.721,0.186,7.349-1.349,9.767-4.186c2.419-2.883,3.349-6.697,2.512-10.325c-1.813-7.72-2.977-15.905-2.977-24.183   C302.105,259.196,349.076,212.225,407.395,212.225z"></path>
</g>
</svg>