<?xml version="1.0" encoding="utf-8"?>
<!-- Generator: Adobe Illustrator 16.0.0, SVG Export Plug-In . SVG Version: 6.00 Build 0)  -->
<!DOCTYPE svg PUBLIC "-//W3C//DTD SVG 1.1//EN" "http://www.w3.org/Graphics/SVG/1.1/DTD/svg11.dtd">
<svg version="1.1" id="Capa_1" xmlns="http://www.w3.org/2000/svg" xmlns:xlink="http://www.w3.org/1999/xlink" x="0px" y="0px"
	 width="500px" height="500px" viewBox="0 0 500 500" enable-background="new 0 0 500 500" xml:space="preserve">
<path fill="#FFFFFF" d="M250,50C139.55,50,50,139.55,50,250s89.55,200,200,200s200-89.55,200-200S360.45,50,250,50z M328.45,304.883
	c6.517,6.518,6.517,17.051,0,23.567c-3.25,3.25-7.517,4.884-11.784,4.884c-4.266,0-8.533-1.634-11.783-4.884L250,273.566
	l-54.883,54.884c-3.25,3.25-7.517,4.884-11.783,4.884s-8.534-1.634-11.784-4.884c-6.517-6.517-6.517-17.05,0-23.567L226.434,250
	l-54.884-54.883c-6.517-6.517-6.517-17.05,0-23.567c6.517-6.517,17.05-6.517,23.567,0L250,226.434l54.883-54.884
	c6.518-6.517,17.051-6.517,23.567,0s6.517,17.05,0,23.567L273.566,250L328.45,304.883z"/>
</svg>
