<?xml version="1.0" encoding="utf-8"?>
<!-- Generator: Adobe Illustrator 21.1.0, SVG Export Plug-In . SVG Version: 6.00 Build 0)  -->
<svg version="1.1" id="Capa_1" xmlns="http://www.w3.org/2000/svg" xmlns:xlink="http://www.w3.org/1999/xlink" x="0px" y="0px"
	 width="1794.8px" height="271.2px" viewBox="0 0 1794.8 271.2" style="enable-background:new 0 0 1794.8 271.2;"
	 xml:space="preserve">
<style type="text/css">
	.st0{fill:#FFFFFF;}
	.st1{fill:#0099CD;}
	.st2{fill:#FA7C10;}
</style>
<g>
	<path class="st0" d="M964.7,159.2c0,3.5-0.1,7.1,0,10.6c0.2,10.2,0.4,20.4,0.7,30.6c0.1,4.1,0.3,8.2,0.6,12.3
		c0.2,2.5,0.6,5.1,0.9,7.6c0.1,0.4,0.2,0.9,0.2,1.3c0.2,1.3,0,1.6-1.3,1.6c-1.2-0.1-2.4-0.1-3.6-0.2c-3.8-0.5-7.5-0.4-11.3-0.4
		c-3.1,0-6.2,0-9.3,0.4c-1.4,0.2-2.9,0.2-4.3,0.2c-0.3,0-0.7-0.2-0.7-0.6c0-0.8,0-1.6,0.2-2.3c0.7-4.6,1.1-9.2,1.2-13.9
		c0.6-13.5,0.6-27,0.9-40.5c0.2-11.2,0.2-22.4,0.1-33.6c-0.1-7.2-0.2-14.4-0.4-21.6c-0.1-4.7-1.1-9.2-2.7-13.6
		c-1.7-4.7-4.3-9-7.8-12.6c-3.9-3.9-8.5-6.3-13.8-7.6c-2.2-0.5-4.4-0.8-6.6-0.8c-4.3-0.1-8.6,0.1-12.9,1.1
		c-9.3,2.3-16.3,7.7-21.2,15.9c-2.5,4.2-4.3,8.7-5.5,13.5c-1.1,4.4-1.8,8.9-2.2,13.4c-0.4,4.2-0.5,8.4-0.5,12.6
		c0,13.4,0,26.8,0.2,40.2c0.1,9.7,0.3,19.5,0.6,29.2c0.2,5.8,0.5,11.5,1.3,17.2c0.1,1,0.3,2,0.5,2.9c0.1,0.6-0.3,1-1,1
		c-1.5-0.1-3.1-0.2-4.6-0.3c-6.5-0.6-13.1-0.6-19.6,0c-1.5,0.1-3.1,0.2-4.6,0.3c-0.5,0-0.8-0.3-0.8-0.8c0-0.6,0.1-1.1,0.1-1.7
		c1-6,1.1-12.1,1.4-18.2c0.8-17.6,0.7-35.2,0.9-52.8c0.1-11.4-0.1-22.8-0.1-34.2c0-5.5-0.6-10.8-2.2-16.1c-1.7-5.7-4.5-10.8-8.8-15
		c-3.8-3.8-8.3-6.2-13.5-7.4c-2.1-0.5-4.1-0.8-6.2-0.8c-4.4-0.1-8.9,0-13.2,1.1c-9.2,2.3-16.1,7.5-21.1,15.5
		c-2.2,3.5-3.8,7.3-5,11.2c-1.4,4.8-2.3,9.7-2.9,14.6c-0.4,4-0.6,8-0.6,11.9c0,15.1,0.1,30.1,0.2,45.2c0.1,9.1,0.4,18.2,0.7,27.2
		c0.1,3.7,0.3,7.3,0.6,10.9c0.2,2.2,0.3,4.4,0.8,6.6c0.6,3,0.5,2.9-2.5,2.6c-4.9-0.5-9.7-0.6-14.6-0.6c-2.8,0-5.5,0.1-8.3,0.4
		c-1.3,0.2-2.7,0.2-4,0.2c-0.6,0-0.9-0.4-0.9-1.1c0.1-0.8,0.1-1.5,0.2-2.3c0.2-2.1,0.4-4.2,0.7-6.3c0.4-3.1,0.4-6.2,0.6-9.3
		c1-23.8,0.9-47.6,0.9-71.4c0-13.5-0.2-27-0.4-40.5c-0.1-5.9-0.4-11.7-0.7-17.6c-0.2-3.1-0.6-6.2-1-9.2c-0.1-1.2-0.2-2.4-0.3-3.6
		c0-0.3,0.4-0.6,0.7-0.6c5.1,0.6,10.1,1,15.2,1c4.3-0.1,8.6-0.4,12.9-1c0.6-0.1,0.9,0.2,0.8,0.7c-1,4.1-1.2,8.3-1.6,12.5
		c-0.3,3.4-0.5,6.8-0.7,10.3c0,0.7,0,1.3,0,2c0,0.3,0.1,0.4,0.3,0.4c0.1,0,0.3,0,0.3-0.1c0.6-0.8,1.1-1.7,1.7-2.5
		c3.6-5.2,7.6-10.1,12.5-14.2c7.5-6.4,16.2-10.4,25.9-11.9c5.7-0.9,11.4-1,17.2-0.3c4.9,0.7,9.6,1.8,14,3.8
		c10.3,4.7,17.7,12.3,22.5,22.5c0.8,1.8,1.5,3.7,2.2,5.5c0.1,0.2,0.3,0.3,0.5,0.4s0.4,0.1,0.5-0.2c0.3-0.6,0.7-1.1,1-1.7
		c2.6-4.1,5.4-8.1,8.6-11.8c7.6-8.6,16.8-14.7,28-17.4c6.7-1.6,13.5-2.1,20.4-1.3c3.3,0.4,6.6,0.9,9.8,1.9
		c11.1,3.3,19.6,10.1,25.5,20c3.2,5.3,5.2,11,6.5,17c1.2,5.6,1.5,11.2,1.5,16.8c-0.1,15.2-0.1,30.4-0.2,45.5
		C964.6,159.2,964.6,159.2,964.7,159.2z"/>
	<path class="st0" d="M1057.6,226.6c-2.5-0.1-5.1-0.1-7.6-0.3c-9.4-0.7-18.6-2.6-27.3-6.6c-5.4-2.5-10.2-5.8-14.4-10
		c-1.7-1.7-1.7-1.7-1.1-4c0.8-3.2,1.7-6.4,2.2-9.7c0.4-2.2,0.7-4.4,1.1-6.5c0.1-0.5,0.2-1.1,0.3-1.6c0.2-0.7,0.6-1.2,1.3-1.3
		c0.1,0,0.2,0,0.3-0.1c3.5-1.1,3-1.2,4.9,1.9c5.9,9.4,14.1,16.1,24.1,20.7c6.7,3.1,13.8,4.5,21.3,4.3c4.3-0.1,8.6-0.7,12.8-1.9
		c12.5-3.8,23.1-14.1,26.7-27.7c0.8-2.8,1.3-5.6,1.5-8.5c0.2-3.1,0.3-6.2,0-9.3c-0.7-7.5-3.4-14.2-8.3-19.9c-2.7-3.2-6-5.9-9.4-8.3
		c-5.4-3.7-11.3-6.6-17.3-9c-3.6-1.4-7.3-2.7-10.9-4.1c-6.4-2.4-12.7-5.2-18.7-8.6c-4.7-2.7-9.2-5.7-13.3-9.4
		c-6.5-5.8-10.8-12.8-13.2-21.1c-1.2-4-2-8.2-2.2-12.4c-0.1-1.3-0.3-2.6-0.3-4c-0.3-11.1,2-21.6,7.9-31.1c3.5-5.7,8-10.6,13.2-14.8
		c7.8-6.4,16.7-10.4,26.6-12.2c2.8-0.5,5.7-0.9,8.6-0.9c3.7,0.1,7.3-0.1,11,0.2c13.3,1,25.9,4.6,37.4,11.6c0.8,0.5,1.5,1,2.2,1.5
		c0.3,0.2,0.4,0.5,0.3,0.9c-0.1,0.3-0.2,0.6-0.3,1c-2.2,6.6-4.1,13.3-5.5,20.2c-0.2,0.8-0.6,1.2-1.4,1.2c-0.4,0-0.9,0-1.3,0
		c-1.2,0.1-2-0.4-2.7-1.5c-2.3-4.1-5.2-7.7-8.7-10.9c-6.2-5.7-13.5-9.4-21.8-10.5c-6.9-0.9-13.8-0.6-20.3,2
		c-11.9,4.7-19.4,13.3-22,25.8c-1.2,5.9-1.1,11.9,0.7,17.8c1.4,4.5,3.6,8.5,6.7,12.1c2.7,3.1,5.8,5.7,9.3,8c5.6,3.8,11.7,6.7,18,9.2
		c2.4,0.9,4.8,1.8,7.2,2.7c6.9,2.4,13.6,5.3,20.1,8.8c5.1,2.8,9.8,5.9,14.2,9.8c7.8,6.9,12.6,15.6,14.8,25.7
		c1.6,7.5,1.9,15.2,1.2,22.8c-1.6,16.7-9,30.6-21.6,41.7c-6.8,6-14.5,10.5-23.2,13.3C1073.1,225.8,1065.4,226.8,1057.6,226.6z"/>
	<path class="st0" d="M466.4,226.5c-5,0-10-0.1-14.9-0.9c-26.2-4-45.7-17.6-58.1-41.1c-3.5-6.7-5.8-13.9-7.2-21.3
		c-1.4-7.4-2-14.9-1.8-22.5c0.3-10.3,1.7-20.5,5.2-30.3c7.2-20,20.1-34.9,39.1-44.5c6.2-3.1,12.7-5.2,19.5-6.5
		c7.8-1.5,15.6-2.1,23.5-1.8c5.1,0.2,10.1,0.8,15.2,1.6c8.7,1.5,17.1,3.8,25.3,6.9c3.7,1.4,7.4,3,11,4.8c0.6,0.3,0.7,0.7,0.5,1.4
		c-0.7,2.1-1.4,4.2-2.1,6.3c-1.5,4.6-2.7,9.4-3.7,14.1c-0.2,1-0.4,1.9-0.7,2.9c-0.1,0.5-0.5,0.8-0.9,0.8c-0.5,0.1-1.1,0-1.7,0.1
		c-1.5,0.2-2.4-0.4-3.2-1.8c-2.2-4.2-5.1-8-8.5-11.4c-6.8-6.7-14.9-11-24.4-12.6c-7.4-1.3-14.8-1.2-22.1,0.6
		c-9.5,2.3-17.2,7.4-23.6,14.7c-6.7,7.8-11.2,16.7-14,26.5c-1.8,6.2-2.9,12.5-3.5,18.9c-0.6,6.2-0.7,12.4-0.5,18.6
		c0.4,10.1,2.5,19.8,6.7,28.9c4.9,10.6,11.9,19.4,21.4,26.2c6.7,4.7,14.2,7.6,22.3,8.8c4.6,0.7,9.3,0.8,13.9,0.4
		c6.7-0.6,13-2.5,19-5.6c5.7-2.9,10.7-6.7,15.2-11.2c1.5-1.5,2.9-3,4.4-4.5c0.3-0.3,0.6-0.2,0.8,0.1c2.5,3,2.5,3,1.8,6.8
		c-0.6,3.4-1.3,6.7-1.9,10.1c-0.2,1-0.7,1.6-1.4,2.1c-3,2.1-6.1,4-9.4,5.6c-7.3,3.6-15,6-23,7.4
		C478.5,226.2,472.5,226.6,466.4,226.5z"/>
	<path class="st0" d="M1245.3,56.2c5.2-0.2,10.4,0.3,15.6,0.8c11.1,1.2,21.8,3.9,32.1,8.1c1,0.4,2,0.8,3.1,1.3
		c0.4,0.2,0.7,0.7,0.6,1.1c-0.1,0.3-0.2,0.6-0.3,1c-1.8,5.4-3.2,10.8-4.5,16.3c-0.1,0.4-0.2,0.9-0.3,1.3c-0.1,0.3-0.4,0.6-0.7,0.6
		c-0.9,0.1-1.8,0.1-2.6,0.1c-0.3,0-0.6-0.2-0.9-0.4c-0.3-0.2-0.4-0.5-0.7-0.7c-6.4-7.2-14.2-12.2-23.2-15.5c-3.8-1.4-7.6-2.4-11.5-3
		c-1.9-0.3-3.8-0.3-5.6-0.4c-6.8-0.2-13.5,0.5-20,2.5c-9,2.7-16.7,7.5-23.3,14.2c-7.1,7.2-12.1,15.7-15.5,25.3
		c-2,5.6-3.3,11.5-4.2,17.4c-1.1,7.5-1.5,15-1.1,22.5c0.6,10.7,2.7,21.1,7.2,30.8c4.1,8.7,9.7,16.4,17,22.7c7.8,6.8,16.8,11,27,12.5
		c6.7,1,13.4,1,20.2,0c9.6-1.3,18.5-4.5,26.8-9.4c3.4-2,6.7-4.4,9.6-7.1c0.6-0.5,1.1-1,1.7-1.5c0.1-0.1,0.5-0.1,0.6,0
		c1.1,0.9,1.9,1.8,1.6,3.4c-0.4,1.5-0.5,3.1-0.8,4.6c-0.4,2.4-0.7,4.8-0.8,7.3c0,0.6-0.3,1.1-0.8,1.4c-0.7,0.4-1.3,0.8-2,1.1
		c-9.4,4.9-19.3,8.3-29.7,10c-9.2,1.5-18.5,1.9-27.8,1.3c-8.3-0.5-16.5-2.1-24.3-5c-19.4-7.3-33.3-20.6-42.1-39.3
		c-3-6.4-4.9-13.3-6.1-20.3c-1.4-8.2-1.7-16.5-1.2-24.8c0.7-12.4,3.5-24.3,9.1-35.4c8.9-17.9,26.4-34.9,50.8-41.3
		c5-1.3,10.1-2.2,15.3-2.8C1237.3,56.3,1241.3,56.2,1245.3,56.2z"/>
	<path class="st0" d="M1691.9,178.6c0.2,8.8,0.4,19.2,0.6,29.6c0,0.4,0.1,0.9,0.1,1.3c0,0.4,0.5,0.8,0.9,0.8c0.3,0,0.7,0,1,0
		c9.9,0,19.7,0.1,29.6,0c6.5-0.1,13.1-0.4,19.6-1.1c2.5-0.3,5.1-0.5,7.6-0.8c0.7-0.1,1.3-0.1,2-0.2c0.7-0.1,1.1,0.3,1,0.9
		c-0.5,2.6-0.5,5.3-0.5,7.9c0,2,0.1,4,0.5,5.9c0.2,1-0.1,1.3-1.3,1.3c-0.6,0-1.1-0.1-1.7-0.2c-4.1-0.6-8.2-0.8-12.2-1
		c-6.7-0.3-13.5-0.7-20.3-0.7c-6.5,0-13.1-0.1-19.6,0c-8.5,0.1-17,0.6-25.5,1.3c-0.9,0.1-1.7,0.3-2.6,0.4c-0.6,0.1-1-0.4-0.9-1
		c0.8-5.8,0.9-11.7,1.1-17.6c0.8-28.1,0.9-56.3,0.7-84.4c0-7.4-0.1-14.8-0.2-22.3c-0.1-8.3-0.3-16.6-0.6-24.9
		c-0.1-3.9-0.4-7.7-0.6-11.6c-0.1-1.3-0.3-2.6-0.5-4c-0.1-0.5,0.4-0.8,0.8-0.8c4.9,0.7,9.9,0.9,14.9,1.2c11.4,0.7,22.8,0.4,34.2,0.4
		c6.5,0,13.1-0.3,19.6-0.5c4.1-0.1,8.2-0.6,12.2-1.2c0.7-0.1,1.3-0.1,2-0.1c0.1,0,0.3,0.3,0.4,0.4c0.1,0.1,0,0.2,0,0.3
		c-0.8,4.7-0.8,9.5,0,14.2c0.1,0.5-0.3,0.9-0.7,0.8c-2.7-0.3-5.5-0.6-8.2-0.9c-0.8-0.1-1.5-0.2-2.3-0.2c-6.3-0.3-12.6-0.8-18.9-0.8
		c-9.1,0.1-18.2,0.1-27.2,0.1c-1.1,0-2.2,0.1-3.3,0.2c-0.5,0-0.9,0.4-0.9,0.8c0,1.1-0.1,2.2-0.1,3.3c-0.1,6-0.1,12-0.2,17.9
		c-0.1,11.3-0.3,22.6-0.4,33.9c-0.1,4.2-0.4,3.8,3.6,3.8c9,0,17.9-0.1,26.9-0.2c5.9-0.1,11.7-0.5,17.6-0.8c1.5-0.1,3.1-0.3,4.6-0.5
		c1.1-0.1,2.2-0.2,3.3-0.3c0.1,0,0.3,0.6,0.3,0.9c-0.1,0.9-0.3,1.7-0.4,2.6c-0.2,3.5-0.4,7.1,0.3,10.6c0,0.2,0,0.4,0.1,0.7
		c0,0.4-0.4,0.8-0.8,0.8c-0.2,0-0.4,0-0.7,0c-3.4-0.7-6.8-0.5-10.2-1c-0.7-0.1-1.3-0.1-2-0.1c-8.2-0.2-16.4-0.7-24.6-0.7
		c-5,0-10,0-15,0c-0.8,0-1.6,0-2.3,0.1c-0.2,0-0.6,0.4-0.6,0.6c-0.1,0.8-0.1,1.5-0.1,2.3C1691.9,156.6,1691.9,166.8,1691.9,178.6z"
		/>
	<path class="st0" d="M1490.5,122.8c-0.9-5.8-2.3-11.5-4.5-17c-7.9-19.7-21.7-33.6-41-42.3c-10.4-4.7-21.5-6.8-32.9-7.3
		c-5.9-0.3-11.7-0.2-17.6,0.4c-5.3,0.6-10.5,1.4-15.7,2.8c-17.3,4.7-31.6,14.1-42.8,28.1c-9.9,12.5-15.2,26.8-17.2,42.5
		c-0.7,5.3-0.8,10.6-0.7,15.9c0.1,6.9,1,13.7,2.6,20.4c4.3,17.5,13.6,31.5,27.9,42.4c10.8,8.3,23,13.1,36.3,15.4
		c6.1,1,12.3,1.6,18.3,1.4c6,0.1,11.7-0.4,17.5-1.2c6.4-0.9,12.6-2.5,18.6-4.8c21.5-8.2,38.6-25.5,46.5-46.5
		c3.7-9.7,5.4-19.8,5.8-30.2C1492,136.2,1491.6,129.5,1490.5,122.8z M1467.7,141.9c-0.4,9.9-1.5,19.6-4.5,29.1
		c-2.6,8.2-6.4,15.8-11.8,22.5c-7.9,10-17.9,16.8-30.3,19.8c-3.9,1-7.8,1.6-11.8,1.7c-3.7,0.1-7.3,0.2-11-0.1
		c-11.9-1-22.7-4.9-31.9-12.6c-7.4-6.1-12.9-13.6-16.9-22.3c-3.1-6.7-5-13.7-6.1-21c-1.1-7.4-1.4-14.8-1.1-22.2
		c0.5-10.2,2.1-20.2,5.8-29.9c3.7-9.7,9-18.2,16.6-25.4c8.3-7.9,18.1-12.6,29.4-14.4c1.3-0.2,2.6-0.5,3.9-0.5
		c2.4-0.2,4.9-0.2,7.3-0.3c6.7,0,13.2,0.9,19.6,2.9c9.5,3,17.6,8.2,24.4,15.5c7.5,8.2,12.4,17.7,15.2,28.4
		c1.5,5.7,2.4,11.5,2.8,17.3C1467.6,134.4,1467.8,138.2,1467.7,141.9z"/>
	<path class="st0" d="M711.4,130.5c-0.3-4.8-1-9.5-2.1-14.1c-5.4-22.5-18.5-39.2-38.7-50.2c-11.7-6.4-24.4-9.2-37.6-9.9
		c-6.2-0.3-12.4-0.3-18.6,0.4c-5.3,0.6-10.5,1.5-15.6,2.8c-14.2,3.8-26.5,11-36.8,21.5c-13.1,13.4-20.4,29.5-22.9,48
		c-0.7,4.8-0.9,9.7-0.8,15.3c-0.1,5.1,0.3,10.8,1.3,16.5c1.1,6.1,2.7,12.1,5.2,17.8c8.4,19.2,22.6,32.5,41.8,40.5
		c10,4.2,20.6,6,31.4,6.5c7.4,0.4,14.8,0,22.2-1.1c7.9-1.2,15.6-3.3,22.9-6.5c18.5-8,34.5-24.2,42.2-43.8
		c4.3-11.1,6.1-22.6,6.4-34.4C711.8,136.7,711.6,133.6,711.4,130.5z M684.6,165.9c-2.4,9.3-6.1,18-11.8,25.8
		c-5.9,8-13.1,14.3-22.2,18.4c-4.8,2.2-9.7,3.5-14.9,4.4c-6,0.9-11.9,1-17.9,0.5c-16.8-1.6-30.6-9-40.9-22.5
		c-5.7-7.5-9.5-15.9-11.8-25c-1.7-6.9-2.7-13.9-2.7-21c0-3.4-0.1-6.9,0.1-10.3c0.5-10.1,2.2-20,5.9-29.5c3.3-8.6,8-16.3,14.4-22.9
		c7.6-7.9,16.8-13.2,27.6-15.6c4.6-1,9.2-1.5,13.8-1.5c6.2-0.1,12.4,0.5,18.4,2.1c12.4,3.2,22.3,10.1,30.1,20
		c5.8,7.3,9.6,15.6,12,24.6c1.6,6.1,2.6,12.3,2.9,18.7c0.1,2.4,0.2,4.9,0.3,6.3C687.6,148.3,686.9,157.2,684.6,165.9z"/>
	<path class="st0" d="M1645.3,222.3c-2.4-2.9-4.9-5.7-7.3-8.6c-8-9.9-16.1-19.8-24.1-29.7c-10.7-13.3-21.1-26.8-31.2-40.5
		c-0.4-0.5-0.8-1.1-1.1-1.6c-0.2-0.4,0-1,0.4-1c3.2-0.6,6.3-1.3,9.3-2.2c7.4-2.2,14.3-5.3,20.6-9.8c3.8-2.7,7.2-5.9,10-9.6
		c3.7-5,6-10.6,6.7-16.8c0.5-4.9,0.4-9.7-0.6-14.5c-1.9-9.2-6.8-16.5-15-21.3c-4.7-2.8-9.8-4.5-15.2-5.6c-6.3-1.3-12.7-1.9-19.1-1.9
		c-6.6,0-13.3,0-19.9,0.4c-8.2,0.5-16.4,0.2-24.6-0.2c-2.1-0.1-4.2-0.1-6.3-0.2c-0.6,0-1,0.4-1,1.1c0.2,2.4,0.5,4.9,0.5,7.3
		c0.3,9.1,0.6,18.2,0.8,27.2c0.2,11.7,0.2,23.5,0.2,35.2c0,27.4,0.1,54.7-0.9,82.1c-0.1,2.1-0.3,4.2-0.4,6.3c-0.1,1.3-0.2,2.7-0.3,4
		c0,0.6,0.4,1,1,0.9c0.7,0,1.3-0.1,2-0.1c5.7-0.6,11.5-0.6,17.2,0c0.7,0.1,1.3,0.1,2,0.1s1.1-0.3,1-1c-0.1-1.9-0.4-3.7-0.5-5.6
		c-0.3-7.3-0.6-14.6-0.8-21.9c-0.1-4.6-0.1-9.3-0.2-14h-0.1c0-4.1,0-8.2,0-12.3c-0.1-7.8-0.2-15.5-0.2-23.3c0-2.4,0-2.4,2.4-2.4
		c0.4,0,0.9,0,1.3,0c1.4,0.1,2.9-0.2,4.3,0.2c0.9,1,1.8,2,2.6,3c7.9,9.6,15.6,19.3,23.1,29.1c7.9,10.3,15.7,20.6,23.6,30.9
		c3.6,4.8,7.1,9.6,9.9,14.9c1.4,2.7,0.9,2.3,4.1,2.2c0.3,0,0.7,0,1-0.1c7.1-0.6,14.2-0.6,21.2,0c0.8,0.1,1.5,0.1,2.3,0.1
		c0.2,0,0.4,0,0.7,0c0.1,0,0.3,0,0.3-0.1C1645.4,222.7,1645.4,222.4,1645.3,222.3z M1566.7,131.5c-5.9,0.6-11.7,0.3-17.6,0.5
		c-0.4,0-0.8-0.4-0.8-0.8c0-1,0-2,0-3c0-9,0-17.9,0-26.9c0-9.1,0-18.1,0-27.2c0-0.9,0-1.8,0.1-2.7c0-0.3,0.2-0.6,0.6-0.7
		c1.1-0.1,2.2-0.4,3.3-0.4c7.6-0.3,15.3-0.7,22.9-0.2c5,0.4,9.8,1.4,14.5,3.4c3.2,1.3,6.1,3.1,8.6,5.5c3.4,3.3,5.7,7.3,6.8,11.9
		c1.2,4.9,1.2,9.9,0.1,14.8c-1.6,6.8-5.4,12-10.9,16.2c-4.4,3.4-9.5,5.7-14.8,7.2C1575.3,130.4,1571.1,131,1566.7,131.5z"/>
	<g>
		<path class="st0" d="M1794.8,214.1c0,2.8-1,5.1-2.9,7.1c-1.9,1.9-4.3,2.9-7,2.9s-5.1-1-7.1-2.9c-1.9-1.9-2.9-4.3-2.9-7.1
			c0-1.5,0.3-2.9,0.9-4.2c0.6-1.4,1.5-2.5,2.7-3.4c1.9-1.5,3.9-2.3,6.3-2.3c1.5,0,2.9,0.3,4.2,0.9c1.8,0.8,3.2,2,4.3,3.7
			C1794.2,210.3,1794.8,212.1,1794.8,214.1z M1784.7,205.5c-2.3,0-4.2,0.8-5.8,2.5c-1.6,1.7-2.5,3.7-2.5,6c0,2.4,0.8,4.4,2.5,6.1
			c1.6,1.7,3.6,2.5,5.9,2.5s4.3-0.8,5.9-2.5s2.4-3.7,2.4-6.1c0-1.3-0.3-2.6-1-3.9c-0.6-1.3-1.5-2.3-2.5-3
			C1788.2,206.1,1786.6,205.5,1784.7,205.5z M1785.8,215l3.7,4.8h-2.7l-3.4-4.6v4.6h-2.2v-11.5h2.3c1.6,0,2.8,0.3,3.5,0.9
			c0.8,0.7,1.2,1.5,1.2,2.6c0,0.7-0.2,1.4-0.7,2C1787.1,214.4,1786.5,214.8,1785.8,215L1785.8,215z M1783.4,213.4h0.4
			c1.6,0,2.4-0.5,2.4-1.6c0-1-0.8-1.5-2.3-1.5h-0.4L1783.4,213.4L1783.4,213.4z"/>
	</g>
	<path class="st1" d="M289.9,0.3L62,50.2c-4.4,1.8-7.3,6.1-7.3,10.8v38l27.2-2.7v-29L263,32.1v156.6l-181.1-8.1V118l-27.5,1.9v68.8
		c0,5.4,1.8,10,5.4,10l231,19.1c8.5,1,16.1-5,17.2-13.4v-0.1V12.1C308.5,4.1,298.5-1.4,289.9,0.3z"/>
	<path class="st2" d="M199.8,185.1V93.7c0-7.3-3.6-12.7-10-11.8L7.3,103.7c-4.4,1.3-7.4,5.4-7.3,10v116c0.8,4.5,3.9,8.3,8.1,10
		l180.7,31.4c6.4,0.9,10.8-3.6,10.8-10.8v-48.9l-18.1-1.8v35.3L27.7,223.2V120.9l154-12.7v76.1L199.8,185.1z"/>
</g>
</svg>
