<svg width="213" height="64" viewBox="0 0 213 64" version="1.1" xmlns="http://www.w3.org/2000/svg"><title>Apple Store</title><g id="Download-Buttons" stroke="none" stroke-width="1" fill="none" fill-rule="evenodd" transform="translate(-294 -70)"><g id="Apple-Store" transform="translate(294 70)"><rect id="button" fill="#000" x="0" y="0" width="213" height="64" rx="10"/><path d="M69.34 12.431h3.626c1.567 0 2.79.464 3.67 1.392.878.927 1.318 2.224 1.318 3.889 0 1.665-.439 2.963-1.315 3.893-.877.93-2.1 1.395-3.673 1.395H69.34V12.431zm1.319 1.187v8.195h2.219c1.182 0 2.098-.358 2.75-1.076.652-.718.978-1.721.978-3.01 0-1.294-.328-2.303-.985-3.025-.657-.723-1.571-1.084-2.743-1.084h-2.22zm13.622 9.521c-1.123 0-2.01-.365-2.663-1.095-.652-.73-.978-1.727-.978-2.992 0-1.27.326-2.268.978-2.995.652-.728 1.54-1.092 2.663-1.092 1.123 0 2.01.364 2.662 1.092.652.727.978 1.726.978 2.995 0 1.265-.326 2.262-.978 2.992-.652.73-1.54 1.095-2.662 1.095zm0-1.135c.747 0 1.323-.259 1.728-.776.405-.518.608-1.243.608-2.176 0-.937-.203-1.664-.608-2.179-.405-.515-.981-.772-1.728-.772-.748 0-1.324.257-1.729.772s-.608 1.242-.608 2.18c0 .932.203 1.657.608 2.175.405.517.981.776 1.729.776zm16.222-6.9l-.224.799-.553 1.974-.659 2.35-.553 1.975-.223.798h-1.282l-1.765-6.108h-.117L93.369 23h-1.275l-2.212-7.896h1.275l1.553 6.314h.117l1.765-6.314H95.8l1.766 6.314h.117l1.552-6.314h1.268zm2.65 7.896v-7.896h1.2v1.246h.118c.2-.435.494-.774.883-1.018.388-.245.885-.367 1.49-.367.889 0 1.571.253 2.047.758.476.506.714 1.227.714 2.165V23h-1.26v-4.805c0-.713-.152-1.24-.457-1.582-.305-.342-.773-.512-1.403-.512s-1.133.197-1.509.593c-.376.395-.564.94-.564 1.633V23h-1.26zm9.791 0V11.97h1.26V23h-1.26zm7.916.14c-1.123 0-2.01-.366-2.662-1.096-.652-.73-.978-1.727-.978-2.992 0-1.27.326-2.268.978-2.995.652-.728 1.54-1.092 2.662-1.092 1.123 0 2.01.364 2.663 1.092.652.727.977 1.726.977 2.995 0 1.265-.325 2.262-.977 2.992-.652.73-1.54 1.095-2.663 1.095zm0-1.136c.747 0 1.324-.259 1.729-.776.405-.518.608-1.243.608-2.176 0-.937-.203-1.664-.608-2.179-.405-.515-.982-.772-1.729-.772-.747 0-1.323.257-1.728.772s-.608 1.242-.608 2.18c0 .932.203 1.657.608 2.175.405.517.981.776 1.728.776zm9.015.03c.65 0 1.188-.19 1.615-.568.428-.379.641-.849.641-1.41v-.725l-2.124.139c-1.152.078-1.728.508-1.728 1.289 0 .4.151.713.454.937.302.225.683.337 1.142.337zm-.234 1.105c-.767 0-1.403-.211-1.908-.633-.505-.423-.758-.995-.758-1.718 0-1.445.96-2.224 2.878-2.336l2.278-.14v-.717c0-1.006-.596-1.51-1.787-1.51-.474 0-.867.086-1.18.257-.312.171-.512.413-.6.725h-1.274c.083-.634.41-1.143.981-1.527.572-.383 1.277-.575 2.117-.575.962 0 1.703.233 2.223.7.52.466.78 1.11.78 1.93V23h-1.201v-1.165h-.117c-.254.42-.591.743-1.011.967-.42.225-.894.337-1.421.337zm9.967 0c-1.01 0-1.816-.37-2.417-1.113-.6-.742-.9-1.734-.9-2.974 0-1.24.302-2.231.907-2.973.606-.743 1.409-1.114 2.41-1.114.552 0 1.046.122 1.483.367.437.244.768.583.993 1.018h.11v-4.38h1.26V23h-1.202v-1.26h-.117c-.25.44-.596.783-1.04 1.03a3.02 3.02 0 0 1-1.487.37zm.293-7.038c-.718 0-1.282.262-1.692.787-.41.525-.615 1.246-.615 2.164 0 .923.204 1.646.611 2.168.408.523.973.784 1.696.784.718 0 1.284-.264 1.7-.791.414-.527.622-1.248.622-2.16 0-.904-.209-1.622-.626-2.154-.418-.532-.983-.798-1.696-.798zm15.408 7.038c-1.123 0-2.01-.365-2.663-1.095-.651-.73-.977-1.727-.977-2.992 0-1.27.326-2.268.977-2.995.652-.728 1.54-1.092 2.663-1.092 1.123 0 2.01.364 2.662 1.092.652.727.978 1.726.978 2.995 0 1.265-.326 2.262-.978 2.992-.652.73-1.54 1.095-2.662 1.095zm0-1.135c.747 0 1.323-.259 1.728-.776.406-.518.608-1.243.608-2.176 0-.937-.202-1.664-.608-2.179-.405-.515-.981-.772-1.728-.772s-1.323.257-1.729.772c-.405.515-.608 1.242-.608 2.18 0 .932.203 1.657.608 2.175.406.517.982.776 1.729.776zm6.583.996v-7.896h1.201v1.246h.117c.2-.435.495-.774.883-1.018.388-.245.885-.367 1.49-.367.89 0 1.572.253 2.048.758.476.506.714 1.227.714 2.165V23h-1.26v-4.805c0-.713-.153-1.24-.458-1.582-.305-.342-.773-.512-1.402-.512-.63 0-1.133.197-1.51.593-.375.395-.563.94-.563 1.633V23h-1.26zm15.445-9.939h1.26v2.043h1.757v1.055h-1.758v4.468c0 .464.093.8.279 1.01.185.21.483.316.893.316.112 0 .209-.003.29-.008.08-.005.179-.012.296-.022v1.062a3.789 3.789 0 0 1-.74.074c-.81 0-1.392-.164-1.746-.491-.354-.327-.531-.867-.531-1.619v-4.79h-1.275v-1.055h1.275v-2.043zm5.96 9.939V11.97h1.26v4.38h.117c.2-.435.504-.774.912-1.018.408-.245.914-.367 1.52-.367.835 0 1.498.255 1.988.766.491.51.736 1.229.736 2.157V23h-1.26v-4.805c0-.698-.154-1.222-.464-1.57-.31-.35-.763-.524-1.359-.524-.708 0-1.25.203-1.626.611-.376.408-.564.946-.564 1.615V23h-1.26zm12.948-6.921c-.63 0-1.147.212-1.552.637-.406.425-.633.986-.682 1.684h4.351c-.015-.698-.215-1.26-.6-1.684-.386-.425-.892-.637-1.517-.637zm2.08 4.878h1.26a2.762 2.762 0 0 1-1.157 1.6c-.581.388-1.304.582-2.168.582-1.094 0-1.96-.367-2.6-1.102-.64-.735-.96-1.727-.96-2.977 0-1.24.323-2.233.967-2.978.645-.744 1.509-1.117 2.593-1.117 1.064 0 1.902.356 2.512 1.066.61.71.916 1.678.916 2.904v.483h-5.677v.06c.035.78.256 1.4.663 1.86.408.458.946.688 1.615.688.508 0 .933-.092 1.275-.275a1.73 1.73 0 0 0 .761-.794z" id="Download-on-the" fill="#FFF"/><path d="M83.25 51l-.311-.885c-.208-.59-.446-1.27-.715-2.04l-.715-2.038-.312-.885H73.07L71.016 51H68.34l7.533-20.433h2.52L85.928 51H83.25zm-6.16-17.332l-.332.942a413.31 413.31 0 0 0-.814 2.329c-.321.925-.644 1.85-.97 2.775l-.821 2.33-.333.941h6.627l-3.271-9.317h-.085zm18.296 2.35c1.878 0 3.398.692 4.56 2.075 1.16 1.383 1.741 3.23 1.741 5.544 0 2.303-.576 4.149-1.728 5.536-1.151 1.388-2.657 2.082-4.517 2.082-1.057 0-1.991-.24-2.803-.722a5.05 5.05 0 0 1-1.884-1.926H90.7v7.307h-2.464v-19.64h2.336v2.492h.057a5.228 5.228 0 0 1 1.919-1.997c.826-.5 1.772-.75 2.839-.75zm-.482 13.07c1.312 0 2.35-.49 3.116-1.472.764-.982 1.147-2.308 1.147-3.98 0-1.66-.383-2.985-1.147-3.971-.765-.987-1.804-1.48-3.116-1.48-1.255 0-2.272.5-3.051 1.501-.779 1-1.168 2.318-1.168 3.95 0 1.643.389 2.963 1.168 3.958.779.996 1.796 1.494 3.051 1.494zm16.766-13.07c1.879 0 3.398.692 4.56 2.075 1.16 1.383 1.741 3.23 1.741 5.544 0 2.303-.576 4.149-1.727 5.536-1.152 1.388-2.658 2.082-4.517 2.082-1.058 0-1.992-.24-2.804-.722a5.05 5.05 0 0 1-1.883-1.926h-.057v7.307h-2.464v-19.64h2.336v2.492h.057a5.228 5.228 0 0 1 1.919-1.997c.826-.5 1.772-.75 2.839-.75zm-.482 13.07c1.313 0 2.351-.49 3.116-1.472.764-.982 1.147-2.308 1.147-3.98 0-1.66-.383-2.985-1.147-3.971-.765-.987-1.803-1.48-3.116-1.48-1.255 0-2.272.5-3.051 1.501-.779 1-1.168 2.318-1.168 3.95 0 1.643.39 2.963 1.168 3.958.779.996 1.796 1.494 3.051 1.494zm15.322-3.71h2.563c.122 1.105.665 1.992 1.628 2.663.963.67 2.171 1.005 3.625 1.005 1.378 0 2.518-.328 3.42-.984.901-.656 1.352-1.485 1.352-2.485 0-.869-.314-1.582-.942-2.139-.627-.556-1.63-1.01-3.009-1.359l-2.62-.68c-3.624-.925-5.437-2.723-5.437-5.395 0-1.699.673-3.087 2.018-4.163 1.345-1.076 3.08-1.614 5.204-1.614 2.03 0 3.71.543 5.041 1.628 1.331 1.086 2.025 2.488 2.082 4.206h-2.55c-.113-1.095-.585-1.959-1.415-2.591-.831-.633-1.912-.949-3.243-.949-1.322 0-2.4.312-3.236.935-.835.623-1.253 1.434-1.253 2.435 0 .774.305 1.409.914 1.905.609.495 1.607.922 2.994 1.281l2.139.567c2.114.528 3.634 1.231 4.56 2.11.924.877 1.387 2.048 1.387 3.511 0 1.87-.687 3.349-2.06 4.44-1.374 1.09-3.236 1.635-5.587 1.635-2.161 0-3.934-.543-5.317-1.629-1.383-1.085-2.136-2.53-2.258-4.333zm18.974-12.659h2.464v3.554h2.86v2.025h-2.86v8.751c0 .67.147 1.164.44 1.48.292.316.754.474 1.387.474.142 0 .326-.009.552-.028.227-.019.382-.033.467-.042V51a4.037 4.037 0 0 1-.672.085c-.298.019-.593.028-.885.028-1.35 0-2.313-.302-2.889-.906-.576-.604-.864-1.614-.864-3.03v-8.879h-2.194v-2.025h2.194V32.72zm14.387 18.536c-2.039 0-3.686-.685-4.942-2.053-1.255-1.37-1.883-3.224-1.883-5.565 0-2.35.628-4.208 1.883-5.572 1.256-1.364 2.903-2.046 4.942-2.046 2.03 0 3.672.682 4.928 2.046 1.255 1.364 1.883 3.221 1.883 5.572 0 2.34-.628 4.196-1.883 5.565-1.256 1.368-2.898 2.053-4.928 2.053zm0-2.167c1.303 0 2.346-.474 3.13-1.423.783-.948 1.175-2.291 1.175-4.028 0-1.737-.392-3.08-1.176-4.029-.783-.949-1.826-1.423-3.129-1.423s-2.348.474-3.136 1.423c-.789.949-1.183 2.292-1.183 4.029s.394 3.08 1.183 4.028c.788.949 1.833 1.423 3.136 1.423zM169.514 51V36.273h2.322v2.408h.057c.529-1.775 1.718-2.662 3.568-2.662.218 0 .413.011.588.035.175.024.31.045.404.064v2.393a2.237 2.237 0 0 0-.503-.1 7.024 7.024 0 0 0-.814-.042c-.954 0-1.718.316-2.294.949-.576.632-.864 1.468-.864 2.506V51h-2.464zm15.194-12.843c-1.152 0-2.1.396-2.846 1.19-.746.792-1.157 1.802-1.232 3.03h8c-.028-1.237-.398-2.25-1.111-3.038-.713-.788-1.65-1.182-2.811-1.182zm3.866 8.623h2.421c-.208 1.284-.88 2.35-2.018 3.2-1.137.85-2.508 1.275-4.113 1.275-2.105 0-3.762-.682-4.97-2.046-1.209-1.364-1.813-3.203-1.813-5.516 0-2.284.604-4.134 1.813-5.55 1.208-1.416 2.827-2.124 4.856-2.124 1.992 0 3.562.667 4.709 2.003 1.147 1.336 1.72 3.118 1.72 5.346v.934h-10.563v.142c0 1.406.387 2.537 1.16 3.391.775.855 1.823 1.282 3.144 1.282.935 0 1.726-.217 2.372-.652.647-.434 1.074-.996 1.282-1.685z" id="App-Store" fill="#FFF"/><path d="M48.16 47.705c-1.756 2.554-3.57 5.093-6.436 5.147-2.82.053-3.725-1.664-6.944-1.664-3.221 0-4.23 1.61-6.892 1.717-2.767.103-4.87-2.76-6.64-5.303-3.614-5.2-6.373-14.703-2.663-21.116 1.838-3.185 5.13-5.2 8.697-5.253 2.717-.05 5.284 1.824 6.943 1.824 1.663 0 4.778-2.25 8.053-1.92 1.371.057 5.219.55 7.69 4.15-.195.128-4.593 2.675-4.54 7.981.055 6.34 5.58 8.446 5.644 8.475-.05.149-.883 3.008-2.913 5.962zm-12.033-33.53c1.516-1.77 4.08-3.087 6.194-3.175.27 2.458-.723 4.92-2.19 6.693-1.47 1.77-3.876 3.15-6.237 2.966-.321-2.405.869-4.913 2.233-6.485z" id="logo" fill="#FFF" fill-rule="nonzero"/></g></g></svg>