<?xml version="1.0" standalone="no"?>
<!DOCTYPE svg PUBLIC "-//W3C//DTD SVG 20010904//EN"
 "http://www.w3.org/TR/2001/REC-SVG-20010904/DTD/svg10.dtd">
<svg version="1.0" xmlns="http://www.w3.org/2000/svg"
 width="1024.000000pt" height="1024.000000pt" viewBox="0 0 1024.000000 1024.000000"
 preserveAspectRatio="xMidYMid meet">
<metadata>
Created by potrace 1.11, written by Peter Selinger 2001-2013
</metadata>
<g transform="translate(0.000000,1024.000000) scale(0.100000,-0.100000)"
fill="#000000" stroke="none">
<path d="M2019 7151 l-22 -18 0 -1334 c0 -1483 1 -1507 55 -1724 137 -550 506
-897 1058 -994 172 -30 459 -33 591 -5 13 2 42 7 64 10 78 12 271 76 371 123
195 93 356 211 511 375 45 47 83 86 85 86 2 0 3 -92 3 -204 0 -192 1 -206 21
-233 11 -15 32 -34 45 -40 18 -10 211 -13 836 -13 793 0 813 0 823 19 16 32
11 44 -33 76 -92 67 -163 194 -193 345 -4 19 -7 817 -8 1773 l-1 1739 -23 18
c-22 18 -56 19 -722 19 -385 0 -706 -2 -714 -5 -8 -3 -19 -20 -25 -37 -6 -20
-10 -440 -9 -1127 0 -602 -3 -1114 -6 -1137 -40 -297 -220 -501 -484 -550 -48
-9 -206 -10 -257 -1 -266 44 -454 259 -489 558 -3 19 -5 535 -5 1147 l-1 1112
-22 21 c-21 20 -31 20 -724 20 -668 0 -703 -1 -725 -19z"/>
<path d="M6694 7160 c-12 -5 -24 -16 -28 -25 -9 -25 -6 -1137 4 -1220 25 -206
64 -344 145 -510 182 -374 527 -620 985 -700 126 -22 331 -37 347 -26 9 6 124
455 123 481 0 10 -9 15 -26 15 -42 -2 -195 22 -254 40 -262 81 -430 293 -455
578 l-6 67 294 0 c281 0 295 1 312 20 17 19 18 57 18 636 l0 617 -22 18 c-21
17 -61 18 -719 18 -383 -1 -706 -5 -718 -9z"/>
</g>
</svg>
