<?xml version="1.0" encoding="utf-8"?>
<!-- Generator: Adobe Illustrator 17.1.0, SVG Export Plug-In . SVG Version: 6.00 Build 0)  -->
<svg version="1.2" baseProfile="tiny" id="Слой_1"
	 xmlns="http://www.w3.org/2000/svg" xmlns:xlink="http://www.w3.org/1999/xlink" x="0px" y="0px" viewBox="48 0 416 512.1"
	 overflow="scroll" xml:space="preserve">
<path fill="#3C4665" d="M263,0C21.7,0,1.2,258.3,114.1,308.2c11.6,5.2,10.1-1.2,20.1-39.3c0.8-3.2,0.4-5.9-2.2-8.9
	C73.8,192.7,120.6,54.4,254.7,54.4c194,0,157.7,268.4,33.7,268.4c-32,0-55.8-25.1-48.2-56.1c9.1-37,27-76.7,27-103.4
	c0-67.2-100.1-57.2-100.1,31.8c0,27.5,9.7,46.1,9.7,46.1s-32.2,130-38.2,154.3c-6.9,27.9-3.5,130.8,8.5,115
	c3.2-4.2,42.1-59.7,53-99.8c4-14.6,20.2-73.9,20.2-73.9c10.7,19.4,41.7,35.6,74.6,35.6c98,0,168.9-86.2,168.9-193.1
	C463.6,76.7,375.9,0,263,0L263,0z"/>
</svg>
