<?xml version="1.0" encoding="utf-8"?>
<!-- Generator: Adobe Illustrator 16.0.0, SVG Export Plug-In . SVG Version: 6.00 Build 0)  -->
<!DOCTYPE svg PUBLIC "-//W3C//DTD SVG 1.1//EN" "http://www.w3.org/Graphics/SVG/1.1/DTD/svg11.dtd">
<svg version="1.1" id="Capa_1" xmlns="http://www.w3.org/2000/svg" xmlns:xlink="http://www.w3.org/1999/xlink" x="0px" y="0px"
	 width="500px" height="500px" viewBox="0 0 500 500" enable-background="new 0 0 500 500" xml:space="preserve">
<path fill="#FFFFFF" d="M50,116.667c-9.205-0.13-16.772,7.227-16.902,16.431S40.324,149.87,49.528,150
	c0.157,0.002,0.314,0.002,0.472,0h400c9.205,0.13,16.772-7.226,16.902-16.431c0.13-9.205-7.227-16.772-16.431-16.902
	c-0.157-0.002-0.314-0.002-0.472,0H50z M50,233.333c-9.205-0.13-16.772,7.226-16.902,16.431s7.226,16.773,16.431,16.902
	c0.157,0.003,0.314,0.003,0.472,0h400c9.205,0.131,16.772-7.226,16.902-16.43s-7.227-16.772-16.431-16.902
	c-0.157-0.002-0.314-0.002-0.472,0H50z M50,350c-9.205-0.131-16.772,7.227-16.902,16.432c-0.13,9.204,7.226,16.771,16.431,16.902
	c0.157,0.002,0.314,0.002,0.472,0h400c9.205,0.129,16.772-7.227,16.902-16.432s-7.227-16.771-16.431-16.902
	c-0.157-0.002-0.314-0.002-0.472,0H50z"/>
</svg>
