<svg xmlns="http://www.w3.org/2000/svg" xmlns:xlink="http://www.w3.org/1999/xlink" width="330" height="54"><g fill="#fff"><path d="M.1 40.5l1.9-.4c1.6-.4 2.1-.7 2.1-4V10c0-3.4-.5-3.6-2.1-4L.1 5.6V4h30.2l.5 11.1h-1.7c-1.4-3.1-2.3-4.7-3.1-5.9-1.8-2.6-3-2.8-6.8-2.8-2.9 0-4.2.3-5.1.5v14.2h1.5c3.9 0 4.8-.4 5.4-1.6.8-1.4 1.2-2.5 1.7-4.2h1.6v14.3h-1.6c-.5-1.7-.9-2.9-1.7-4.4-.7-1.4-1.4-1.6-5.4-1.6h-1.5v10.7c0 4.898.2 5.5 5.5 5.5 4.4 0 5.3-.5 7.2-3.3 1-1.5 2.1-3.8 3.5-7.4h1.8l-.8 13.1H.1v-1.7zm34.7 1.1l-.4-8.6h1.5c1.2 2.2 2.3 3.8 3.6 5.4 1.1 1.4 2.4 2.1 4.8 2.1 2.6 0 4.6-1.4 4.6-3.9s-1.6-3.7-6.5-5.5c-4.9-1.9-7.9-4.3-7.9-9.1 0-5.2 4.2-9.2 11.7-9.2 3.1 0 5.9.4 7.5 1l.3 7.5h-1.5c-1.1-2-2-3.4-3.1-4.6-1.3-1.4-2.3-1.8-4.3-1.8-2.3 0-3.9 1.3-3.9 3.6 0 2.1 1 3.4 5.4 5.1 6.6 2.4 9.1 5.1 9.1 9.3 0 5.8-4.3 9.8-12.4 9.8-3 0-6.3-.398-8.5-1.1zm22.6 10.3l1.4-.4c1.8-.5 2-.8 2-3.2V20c0-2.4-.3-2.5-1.8-3.6l-1.8-1.2v-1.1l11.6-1.3.6.4-.1 3.4h.3c2.3-2 5.4-3.8 9.2-3.8 5.2 0 10.8 3.5 10.8 13.5 0 11.4-6.7 16.4-15.9 16.4a20.01 20.01 0 0 1-4.2-.5s.1 1.4.1 3.4v2.8c0 2.5.2 2.7 1.9 3.1l1.9.4v1.5h-16v-1.5zm23.2-23.7c0-7.9-2.4-10.6-6.5-10.6-2.2 0-3.6.7-4.4 1v20a5.52 5.52 0 0 0 4.3 2c4.3-.1 6.6-2.4 6.6-12.4zm11.3-.5c0-9.6 7.1-14.9 14.3-14.9 7.6 0 12.3 3.8 12.5 13.7h-18.1c.2 9 3.6 11.5 9.2 11.5 3.4 0 6-1 8.1-2.1v1.8c-1.9 2.102-6.1 5-11.6 5-9.6 0-14.4-5.7-14.4-15zm8.7-3.2l9.4-.5c0-6.6-.9-9.1-4.2-9.1-2.8 0-5 2.6-5.2 9.6z"/><use xlink:href="#B"/><path d="M150.8 35.2V16.8h-3.5v-1.3c4.3-1.6 7.6-4.8 9.1-9.2h3.1v7.3h7.3l-.7 3.2h-6.6v17.8c0 2.7.8 3.8 3.6 3.8 1.3 0 3-.3 4-.5v1.5c-1.3 1.2-4.1 3.2-8.7 3.2-4.9.1-7.6-2.1-7.6-7.4zm17.8.3c0-4.8 3.7-7 9.9-8.5l5.5-1.4v-4.8c0-4.6-.9-5.9-3.9-5.9-1.6 0-2.2.4-2.3 2-.3 3.5-1.4 4.8-4.3 4.8-2.4 0-3.7-1.3-3.7-3.4 0-3.5 4.5-5.5 12.1-5.5 6.9 0 10.9 2.1 10.9 7.5v15.2c0 2 .2 2.9 1.3 3.4.7.4 1.8.5 2.6.5v1.3c-1 .8-3.2 1.9-6.398 1.9s-5.102-1.2-5.7-3.4h-.3c-1.4 1.8-3.8 3.4-7.4 3.4-5.302.1-8.302-2.5-8.302-7.1zm7.6-26.1l7.2-6.5c.9-.9 1.9-1.3 2.9-1.3 1.7 0 3 1.6 3 3.3 0 1.3-.7 2.6-2.5 3.1l-10.102 2.4-.5-1zm7.8 27.9v-8.8l-2.5.2c-2.8.2-4.3 1.5-4.3 5.4 0 3.6 1.602 4.7 3.7 4.7 1.6.001 2.6-.6 3.1-1.5z"/><use xlink:href="#B" x="77.1"/><path d="M228 35.4V19.7c0-2.3-.1-2.5-1.7-3.5l-1.9-1.1v-1.2l11.8-1.2.7.5v20c0 3.2 1.3 4.5 3.7 4.5 2 0 3.8-.7 5.2-1.1v-17c0-2.3-.2-2.6-1.8-3.5l-1.9-1.1v-1.2l11.7-1.2.7.5v22.2c0 2.7.2 3 1.8 3.7l1.6.7V41l-11.4 1.6-.6-.4.1-3.7h-.3c-2.898 2.1-6.3 4.1-10.5 4.1-4.3.1-7.2-2.3-7.2-7.2zm31 5.2l1.4-.4c1.9-.5 2.1-.8 2.1-3.1V7.6c0-2.7-.2-2.9-1.8-3.7l-2-1V1.7L270.9.6l.6.4-.2 6.4v29.7c0 2.5.2 2.6 2.1 3.1l1.4.4v1.5h-15.9l.1-1.5zm17.4-12.7c0-10.5 7.5-15.1 14.9-15.1 8 0 14.898 4.8 14.898 14.8 0 10.5-7.398 15.2-14.898 15.2-8-.1-14.9-4.9-14.9-14.9zm20.6.2c0-11.1-2.1-13.2-5.9-13.2-3.5 0-5.5 2.5-5.5 12 0 11.3 1.8 13.7 5.8 13.7 3.298 0 5.6-1.9 5.6-12.5zm11.9 13.5l-.4-8.6h1.5c1.2 2.2 2.3 3.8 3.6 5.4 1.1 1.4 2.4 2.1 4.8 2.1 2.6 0 4.6-1.4 4.6-3.9s-1.6-3.7-6.5-5.5c-4.9-1.9-7.9-4.3-7.9-9.1 0-5.2 4.2-9.2 11.7-9.2 3.1 0 5.898.4 7.5 1l.3 7.5h-1.5c-1.1-2-2-3.4-3.1-4.6-1.3-1.4-2.3-1.8-4.2-1.8-2.3 0-3.9 1.3-3.9 3.6 0 2.1 1 3.4 5.4 5.1 6.6 2.4 9.1 5.1 9.1 9.3 0 5.8-4.3 9.8-12.4 9.8-3.102 0-6.402-.398-8.602-1.1z"/></g><defs ><path id="B" d="M120.8 27.9c0-11.5 9-15.1 16.7-15.1 5.4 0 8.7 1.8 8.7 5.1 0 2.3-1.5 3.8-3.9 3.8-2.9 0-3.7-2-4-4.3-.3-2.1-.6-2.4-2.4-2.4-3.1 0-6.4 1.8-6.4 10.5 0 8.1 2.4 12.5 8.6 12.5 3.4 0 5.9-1 8-2v1.8c-1.6 2-5.6 5-11.5 5-8.9-.1-13.8-5.9-13.8-14.9z"/></defs></svg>