<?xml version="1.0" encoding="utf-8"?>
<!-- Generator: Adobe Illustrator 24.0.3, SVG Export Plug-In . SVG Version: 6.00 Build 0)  -->
<svg version="1.1" id="Layer_1" xmlns="http://www.w3.org/2000/svg" xmlns:xlink="http://www.w3.org/1999/xlink" x="0px" y="0px"
	 viewBox="0 0 420.8 95.6" style="enable-background:new 0 0 420.8 95.6;" xml:space="preserve">
<style type="text/css">
	.st0{fill:#3858F5;}
</style>
<g id="Delfi_ru">
	<g>
		<g>
			<g>
				<path class="st0" d="M68.1,20.9c-4-3.8-8.7-6.8-14.2-9c-5.4-2.2-11.3-3.3-17.5-3.3H2.4v84.2h34.1c6.2,0,12-1.1,17.5-3.3
					c5.4-2.2,10.2-5.2,14.1-8.9c3.9-3.8,7.1-8.2,9.4-13.4c2.3-5.1,3.5-10.6,3.5-16.4c0-5.9-1.2-11.5-3.5-16.7
					C75.2,29.1,72.1,24.6,68.1,20.9z M58.5,60.5c-1.2,3-3,5.6-5.2,7.8c-2.2,2.2-4.8,3.9-7.8,5.2c-3,1.2-6.2,1.9-9.6,1.9H22.4V26.1
					H36c3.4,0,6.6,0.6,9.6,1.9c3,1.3,5.6,3.1,7.8,5.3c2.2,2.2,3.9,4.9,5.2,7.9c1.2,3,1.9,6.3,1.9,9.8C60.4,54.3,59.8,57.6,58.5,60.5
					z"/>
				<path class="st0" d="M143.4,38.1c-2.8-3-6.2-5.4-10.1-7.2c-3.9-1.7-8.2-2.6-12.8-2.6c-4.6,0-9,0.8-13,2.5c-4,1.7-7.5,4-10.5,7
					c-2.9,2.9-5.3,6.5-7,10.5c-1.7,4-2.6,8.4-2.6,12.9c0,4.5,0.9,8.9,2.7,12.9c1.8,4,4.3,7.6,7.3,10.5c3.1,2.9,6.8,5.3,11,7
					c4.2,1.7,8.8,2.5,13.6,2.5c5.3,0,10.1-0.8,14.3-2.3c4-1.5,8-3.8,11.9-7l-12.2-10.9c-1.5,1.4-3.3,2.6-5.4,3.4
					c-2.2,0.9-4.8,1.3-7.5,1.3c-3.8,0-7.2-1-10-3c-2.8-2-4.9-4.5-6.3-7.6l-0.3-0.7h46.2V63c0-4.9-0.8-9.6-2.4-13.9
					C148.4,44.9,146.2,41.2,143.4,38.1z M106,54.6l0.2-0.6c1-3.3,2.7-6,5.2-7.8c2.4-1.8,5.4-2.8,8.7-2.8c3.3,0,6.2,1,8.7,2.9
					c2.5,1.9,4.3,4.5,5.3,7.7l0.2,0.7H106z"/>
				<rect x="161.5" y="2.3" class="st0" width="18.7" height="90.5"/>
				<path class="st0" d="M253.3,22.4c2.9,0,5.3-1,7.3-3s3-4.5,3-7.3c0-2.8-1-5.3-3-7.3c-2-2-4.5-3-7.3-3c-2.9,0-5.3,1-7.3,3
					c-2,2-3,4.5-3,7.3c0,2.9,1,5.3,3,7.3C248,21.4,250.4,22.4,253.3,22.4z"/>
				<path class="st0" d="M220.4,25.4c0-2.6,0.8-4.5,2.5-5.8c1.6-1.2,4-1.9,7.1-1.9c1.3,0,2.6,0.1,3.8,0.2c1,0.1,2.2,0.3,3.5,0.6V3.1
					c-1.2-0.3-2.7-0.5-4.5-0.7c-2-0.2-3.8-0.4-5.5-0.4c-8.3,0-14.7,2-19.1,6c-4.4,3.9-6.6,9.7-6.6,17v4.4h-14.1v15.4h14.1v48h18.7
					v-48h23.5v48h18.7V29.4h-42.3V25.4z"/>
			</g>
			<path class="st0" d="M276.8,83.2c0,3,1.1,5.5,3.2,7.7c2.2,2.2,4.7,3.2,7.7,3.2c3,0,5.5-1.1,7.7-3.2c2.2-2.2,3.2-4.7,3.2-7.7
				c0-3-1.1-5.5-3.2-7.7c-2.2-2.2-4.7-3.2-7.7-3.2c-3,0-5.5,1.1-7.7,3.2C277.9,77.6,276.8,80.2,276.8,83.2z"/>
		</g>
		<path class="st0" d="M400.8,27.5v41.7c-3,3.9-8.4,7.6-15.2,7.6c-7.5,0-12.3-3-12.3-12.3v-37c-2,0-13.7,0-17.5,0v43.9
			c0,13,6.9,21,21.5,21c10.9,0,20.2-4.3,23.5-10.1v8.4h17.5V27.5C412.4,27.5,406.6,27.5,400.8,27.5z"/>
	</g>
	<path class="st0" d="M343.4,29.6h-6.3c-4.4,0-8.4,1.7-11.4,4.4v-5.2c-5.8,0-11.7,0-17.5,0v64h17.5v-46h17.7V29.6z"/>
</g>
</svg>
