<?xml version="1.0" encoding="utf-8"?>
<!-- Generator: Adobe Illustrator 15.1.0, SVG Export Plug-In . SVG Version: 6.00 Build 0)  -->
<!DOCTYPE svg PUBLIC "-//W3C//DTD SVG 1.1//EN" "http://www.w3.org/Graphics/SVG/1.1/DTD/svg11.dtd">
<svg version="1.1" id="Шар_1" xmlns="http://www.w3.org/2000/svg" xmlns:xlink="http://www.w3.org/1999/xlink" x="0px" y="0px"
	 width="345.01px" height="70.53px" viewBox="0 0 345.01 70.53" enable-background="new 0 0 345.01 70.53" xml:space="preserve">
<path id="SvgjsPath1061" fill="#D02C2C" d="M27.064,16.521C12.186,16.521,0.125,28.6,0.125,43.5c0,6.467,2.273,12.401,6.063,17.047
	c0.19,1.328,0.123,2.726-0.537,3.885C3.762,67.744,0,70.479,0,70.479s3.661,0.342,9.358-0.752c2.435-0.468,4.649-1.167,6.314-1.777
	c3.461,1.619,7.318,2.529,11.392,2.529c14.878,0,26.94-12.078,26.94-26.979C54.005,28.6,41.942,16.521,27.064,16.521z
	 M15.698,55.844h-5.442V31.156h5.442V55.844z M43.872,55.844H21.178v-5.448l-0.002-0.003l14.719-13.786H21.178v-5.451h22.685v5.449
	l0.001,0.001L29.145,50.393h14.729L43.872,55.844L43.872,55.844z"/>
<g>
	<polygon fill="#212529" points="226.279,33.48 234.783,33.48 234.783,37.301 233.078,37.301 233.078,47.987 242.565,33.452 
		249.42,33.452 249.42,37.301 247.104,37.301 247.104,50.737 249.42,50.737 249.42,54.549 240.765,54.549 240.765,50.737 
		242.553,50.737 242.553,40.247 233.064,54.549 226.279,54.549 226.279,50.737 228.458,50.737 228.458,37.301 226.279,37.301 	"/>
	<polygon fill="#212529" points="61.147,33.492 69.654,33.492 69.654,37.313 67.946,37.313 67.946,48.002 77.435,33.465 
		84.287,33.465 84.287,37.313 81.973,37.313 81.973,50.75 84.287,50.75 84.287,54.56 75.633,54.56 75.633,50.75 77.422,50.75 
		77.422,40.26 67.933,54.56 61.147,54.56 61.147,50.75 63.326,50.75 63.326,37.313 61.147,37.313 	"/>
	<polygon fill="#212529" points="102.548,33.479 111.564,33.479 111.564,37.299 109.348,37.299 109.348,50.735 111.564,50.735 
		111.564,54.547 102.548,54.547 102.548,50.735 104.738,50.735 104.738,45.346 95.252,45.346 95.252,50.735 97.47,50.735 
		97.47,54.547 88.468,54.547 88.468,50.735 90.646,50.735 90.646,37.299 88.468,37.299 88.468,33.479 97.47,33.479 97.47,37.299 
		95.252,37.299 95.252,41.676 104.738,41.676 104.738,37.299 102.548,37.299 	"/>
	<path fill="#212529" d="M290.063,50.819h2.164V37.354h-5.771v6.602c0,1.269-0.1,2.54-0.299,3.816
		c-0.201,1.271-0.543,2.417-1.024,3.43c-0.487,1.015-1.146,1.841-1.977,2.476c-0.835,0.635-1.887,0.951-3.152,0.951h-3.745v-5.752
		h3.856v2.11c0.454-0.212,0.827-0.504,1.125-0.877c0.295-0.369,0.518-0.806,0.672-1.306c0.152-0.5,0.259-1.066,0.312-1.7
		c0.057-0.636,0.084-1.341,0.084-2.12v-7.629h-2.844v-3.793h19.572v3.793h-2.219v13.466h2.246v3.808h-9.002L290.063,50.819
		L290.063,50.819z"/>
	<path fill="#212529" d="M177.114,39.51c-0.517-0.741-0.984-1.267-1.397-1.578c-0.418-0.311-0.867-0.533-1.349-0.666
		c-0.479-0.133-0.984-0.202-1.513-0.202c-0.777,0-1.498,0.174-2.164,0.521c-0.665,0.348-1.24,0.819-1.726,1.416
		c-0.486,0.598-0.866,1.293-1.144,2.086c-0.278,0.791-0.417,1.633-0.417,2.521c0,0.898,0.137,1.742,0.408,2.538
		c0.272,0.791,0.65,1.481,1.13,2.075c0.482,0.593,1.054,1.063,1.724,1.412c0.664,0.348,1.396,0.521,2.19,0.521
		c0.556,0,1.072-0.092,1.554-0.27c0.481-0.185,0.917-0.422,1.313-0.719c0.393-0.297,0.736-0.64,1.034-1.022
		c0.296-0.384,0.523-0.782,0.692-1.2l4.467,1.254c-0.287,0.904-0.707,1.744-1.264,2.518c-0.554,0.777-1.225,1.445-2.005,2.01
		c-0.781,0.566-1.661,1.012-2.636,1.336c-0.977,0.322-2.028,0.486-3.155,0.486c-0.954,0-1.864-0.131-2.734-0.39
		c-0.868-0.26-1.68-0.625-2.435-1.098c-0.752-0.472-1.437-1.042-2.052-1.71s-1.141-1.407-1.574-2.217
		c-0.437-0.812-0.773-1.683-1.014-2.611c-0.24-0.932-0.361-1.9-0.361-2.911c0-1.511,0.266-2.926,0.792-4.244
		c0.528-1.321,1.249-2.476,2.164-3.461c0.917-0.987,1.992-1.765,3.226-2.336c1.236-0.567,2.564-0.854,3.989-0.854
		c1.137,0,2.095,0.141,2.873,0.423c0.773,0.283,1.63,0.842,2.565,1.675h3.104v4.698h-4.287V39.51L177.114,39.51z"/>
	<path fill="#212529" d="M153.22,33.396h8.644v3.819h-1.733l-5.967,13.146c-0.36,0.777-0.746,1.438-1.152,1.98
		c-0.405,0.541-0.846,0.982-1.316,1.326s-0.978,0.59-1.52,0.735c-0.542,0.147-1.117,0.222-1.729,0.222
		c-0.414,0-0.798-0.014-1.15-0.041c-0.35-0.027-0.684-0.068-0.998-0.123h-2.901v-5.755h4.287v2.392
		c0.307-0.02,0.581-0.059,0.827-0.112c0.245-0.054,0.474-0.149,0.693-0.283c0.218-0.137,0.411-0.298,0.581-0.487
		c0.172-0.188,0.331-0.412,0.479-0.674l-0.872-1.764c-0.889-1.791-1.765-3.557-2.629-5.303c-0.866-1.748-1.741-3.5-2.629-5.26
		h-1.791v-3.82h8.92v3.82h-1.734l2.845,7.004l2.692-7.004h-1.846V33.396L153.22,33.396z"/>
	<polygon fill="#212529" points="189.89,50.819 192.066,50.819 192.066,37.243 189.513,37.243 189.513,39.967 184.99,39.967 
		184.99,33.562 204.121,33.562 204.121,39.967 199.572,39.967 199.572,37.243 196.674,37.243 196.674,50.819 198.893,50.819 
		198.893,54.627 189.89,54.627 	"/>
	<path fill="#212529" d="M135.721,50.764V37.272h2.219v-3.794h-19.572v3.794h2.704l-0.027,7.63c0,0.758-0.023,1.455-0.075,2.09
		c-0.051,0.635-0.157,1.202-0.313,1.702c-0.157,0.499-0.387,0.923-0.692,1.265c-0.305,0.344-0.71,0.61-1.222,0.807h-2.303v8.617
		h4.606v-4.836h12.75v4.836h4.604v-8.617h-2.678V50.764z M131.13,50.764h-7.104c0.51-0.916,0.857-1.955,1.047-3.111
		c0.189-1.158,0.284-2.381,0.284-3.67v-6.71h5.771L131.13,50.764L131.13,50.764z"/>
	<path fill="#212529" d="M223.196,37.424c-0.369-0.75-0.883-1.414-1.539-1.988c-0.655-0.575-1.438-1.03-2.345-1.37
		c-0.906-0.336-1.899-0.505-2.982-0.505h-9.709v3.82h2.178v13.438h-2.178v3.809h8.712v-3.809h-1.93v-4.014h2.927
		c1.278,0,2.383-0.185,3.315-0.551c0.935-0.363,1.706-0.863,2.317-1.492c0.61-0.631,1.061-1.375,1.351-2.23
		c0.293-0.855,0.438-1.775,0.438-2.758C223.751,38.956,223.567,38.174,223.196,37.424z M217.815,42.372
		c-0.621,0.444-1.457,0.665-2.513,0.665h-1.9v-5.656h1.9c1.128,0,1.985,0.256,2.566,0.766c0.581,0.509,0.875,1.214,0.875,2.111
		C218.744,41.221,218.435,41.926,217.815,42.372z"/>
	<path fill="#212529" d="M271.413,50.715l-5.604-17.258h-5.563l-5.729,17.258h-1.569v3.81h7.979v-3.81h-2.221l0.942-3.029h6.466
		l0.944,3.029h-2.094v3.81h7.978v-3.81H271.413L271.413,50.715z M260.744,44.131l2.11-6.853l2.134,6.853H260.744z"/>
	<path fill="#212529" d="M343.481,50.715l-5.604-17.256h-5.563l-5.729,17.256h-1.567v3.811h7.979v-3.811h-2.22l0.941-3.028h6.467
		l0.943,3.028h-2.096v3.811h7.977v-3.811H343.481z M332.813,44.131l2.108-6.853l2.135,6.853H332.813z"/>
	<polygon fill="#212529" points="320.276,37.248 323.036,37.248 323.036,33.427 313.66,33.427 313.66,37.248 315.518,37.248 
		309.203,43.131 309.203,39.346 309.203,37.248 311.559,37.248 311.559,33.427 302.181,33.427 302.181,37.248 304.582,37.248 
		304.582,39.346 304.582,48.637 304.582,50.733 302.181,50.733 302.181,54.555 311.559,54.555 311.559,50.733 309.203,50.733 
		309.203,48.637 309.203,43.389 315.468,50.733 313.66,50.733 313.66,54.555 323.036,54.555 323.036,50.733 320.586,50.733 
		314.019,43.237 	"/>
</g>
<g>
	<g>
		<defs>
			<path id="SVGID_1_" d="M48.262,20.098c0.113,0.384,0.276,0.765,0.539,1.157c0.011,0.016,0.021,0.03,0.032,0.045
				c0.232,0.509,0.704,0.832,0.805,1.289c0.024,0.053,0.053,0.105,0.082,0.155c0.25,0.421,0.667,0.721,1.04,1.117
				c0.288,0.39,0.759,0.712,0.991,1.221c0.011,0.014,0.02,0.027,0.031,0.042c0.28,0.387,0.629,0.921,0.906,1.297
				c0.341,0.271,0.681,0.543,1.022,0.815c0.263,0.103,0.34,0.273,0.603,0.375c0.209,0.221,0.473,0.323,0.55,0.492
				c0.155,0.06,0.271,0.2,0.357,0.341c0.061,0.1,0.107,0.2,0.139,0.27c0.077,0.171,0.101,0.457,0.178,0.626
				c0.178,0.626,0.41,1.134,0.588,1.761c0.047,0.574,0.225,1.2,0.402,1.827c0.01,0.108,0.045,0.208,0.087,0.306
				c0.069,0.158,0.155,0.311,0.17,0.489c0.155,0.339,0.124,0.744,0.333,0.965c0.242-0.418,0.494-0.815,0.732-1.208
				c0.253-0.419,0.492-0.833,0.687-1.258c0.168-0.37,0.305-0.747,0.391-1.144c0.11-0.795,0.142-1.621,0.099-2.43
				c-0.027-0.479-0.08-0.953-0.157-1.411c-0.03-0.183-0.065-0.362-0.104-0.539c-0.038-0.183-0.074-0.363-0.112-0.542
				c-0.146-0.683-0.306-1.332-0.45-1.98c-0.159-0.71-0.301-1.417-0.392-2.164c-0.034-0.284-0.058-0.567-0.074-0.852
				c-0.038-0.645-0.033-1.293-0.005-1.941c0.028-0.686,0.08-1.373,0.132-2.059c0.041-0.762,0.071-1.531,0.079-2.298
				c0.026-2.412-0.16-4.818-0.892-7.073c-0.2-0.615-0.44-1.22-0.729-1.81c-0.691-1.508-1.736-2.767-3.054-3.719
				c-1.048-0.759-2.272-1.323-3.628-1.665c-0.248-0.06-0.497-0.11-0.746-0.154c-0.918-0.16-1.839-0.215-2.748-0.16
				c-0.649,0.04-1.293,0.137-1.923,0.292c-1,0.299-1.891,0.748-2.752,1.281c-0.531,0.329-1.053,0.691-1.582,1.069
				c0.326,0.127,0.59,0.268,0.821,0.516c0.178,0.192,0.337,0.391,0.356,0.639c0.232,0.508,0.596,1.067,0.829,1.576
				c0.357,0.549,0.767,0.984,0.951,1.593c0.002,0.011,0.005,0.023,0.009,0.034c0.155,0.338,0.333,0.965,0.302,1.37
				c-0.131-0.051-0.131-0.051-0.078-0.169l0.109-0.236c-0.055,0.118,0.078,0.169,0.023,0.288c0.034,0.153,0.046,0.314,0.053,0.477
				c0.012,0.323-0.003,0.657,0.063,0.96c0.047,0.181,0.107,0.366,0.18,0.555c0.234,0.613,0.59,1.26,0.958,1.854
				c0.201,0.324,0.406,0.633,0.596,0.913c0.418,0.44,0.52,0.897,1.069,1.39c0.264,0.102,0.34,0.271,0.604,0.374
				c0.209,0.221,0.473,0.323,0.681,0.544c0.165,0.13,0.278,0.373,0.35,0.632c0.075,0.279,0.101,0.579,0.084,0.789
				c0.085,0.384,0.077,0.732,0.1,1.175c0.004,0.084,0.011,0.171,0.017,0.262C48.048,19.043,48.108,19.575,48.262,20.098
				L48.262,20.098z"/>
		</defs>
		<clipPath id="SVGID_2_">
			<use xlink:href="#SVGID_1_"  overflow="visible"/>
		</clipPath>
		<g clip-path="url(#SVGID_2_)">
			<defs>
				
					<rect id="SVGID_3_" x="33.437" y="4.78" transform="matrix(-0.1944 0.9809 -0.9809 -0.1944 75.5823 -28.3609)" width="31.999" height="24.15"/>
			</defs>
			<clipPath id="SVGID_4_">
				<use xlink:href="#SVGID_3_"  overflow="visible"/>
			</clipPath>
			<g transform="matrix(1 9.259278e-010 9.414780e-009 1 -2.106257e-006 -1.193827e-006)" clip-path="url(#SVGID_4_)">
				
					<image overflow="visible" width="160" height="238" xlink:href="359F87B6.jpg"  transform="matrix(0.1554 0.0308 0.0266 -0.1341 34.1167 30.3916)">
				</image>
			</g>
		</g>
	</g>
	<g>
		<defs>
			<path id="SVGID_5_" d="M23.62,14.716c0.58,1.195,1.801,2.126,3.208,2.736c0.113,0.048,0.227,0.095,0.34,0.139
				c1.121,0.32,2.278,0.563,3.416,0.848c0.317,0.081,0.633,0.164,0.947,0.253c0.224,0.047,0.442,0.099,0.654,0.157
				c0.405,0.111,0.793,0.239,1.171,0.381c0.896,0.34,1.741,0.759,2.647,1.203c1.318,0.663,2.692,1.646,4.011,2.309
				c0.42,0.205,0.844,0.4,1.271,0.579c1.091,0.454,2.204,0.797,3.319,0.909c1.323,0.202,2.928,0.223,4.267-0.102
				c0.578-0.14,1.106-0.344,1.54-0.625c0.779-0.504,1.044-0.51,0.925-1.316c-0.044-0.297,0.033-0.29,0.146-0.294
				c0.148-0.004,0.358-0.029,0.442-0.789c0.264-0.993-0.082-0.679,0.264-0.993c0.405-0.44,0.408-0.888,0.409-1.334
				c0.004-0.656,0.007-1.31-0.147-1.968c-0.057-0.241-0.223-1.214-0.33-1.455c-0.122-0.37-0.25-0.723-0.383-1.07
				c-0.086-0.23-0.174-0.457-0.261-0.686c-0.096-0.253-0.191-0.508-0.284-0.77c-0.05-0.142-0.1-0.287-0.148-0.434
				c0.001-0.238,0.002-0.475,0.003-0.714c0.001-0.338-0.027-0.681,0.09-1.003c0.159-0.429,0.51-0.769,0.6-1.224
				c0.046-0.242,0.044-0.509,0.009-0.784c-0.094-0.725-0.418-1.513-0.673-2.089c-0.138-0.187-0.291-0.385-0.455-0.588
				c-0.125-0.153-0.257-0.31-0.393-0.465c-0.499-0.561-1.072-1.099-1.667-1.421c-0.114-0.083-0.221-0.152-0.326-0.213
				c-0.315-0.186-0.604-0.298-0.992-0.449c-0.517-0.202-0.975-0.529-1.49-0.729c-0.363-0.143-0.38-0.193-0.871-0.34
				c-0.439-0.132-0.439-0.132-0.424-0.09l-0.312-0.048c-0.688-0.268-1.207-0.021-1.839,0.032c-0.238,0.019-0.379,0.097-0.621,0.149
				c-0.215,0.048-0.533,0.065-0.74,0.135c-0.27,0.092-0.731,0.187-0.969,0.327c-0.368,0.218-0.435,0.378-0.721,0.74
				c-0.055,0.212-0.184,0.401-0.251,0.611c-0.06,0.188-0.1,0.386-0.101,0.597c-0.688-0.268-1.032-0.401-1.665-0.349
				c-0.574-0.074-1.207-0.021-1.667,0.098c-0.47,0.122-0.805,0.413-0.962,0.771c-0.125,0.288,0.063,0.075-0.212,0.677
				c-0.002,0.005,0.006,0.021,0.026,0.047c-0.757-0.251-0.984,0.461-1.61,0.503c-0.492,0.034-0.979,0.076-1.46,0.134
				c-0.551,0.066-1.095,0.153-1.627,0.271c-0.38,0.084-0.752,0.184-1.118,0.302c-0.33,0.107-0.65,0.232-0.958,0.374
				c-0.792,0.363-0.887,1.078-1.483,1.624c-0.486,0.447-1.512,0.698-1.831,1.23C23.406,11.645,23.052,13.299,23.62,14.716
				L23.62,14.716z"/>
		</defs>
		<clipPath id="SVGID_6_">
			<use xlink:href="#SVGID_5_"  overflow="visible"/>
		</clipPath>
		<g clip-path="url(#SVGID_6_)">
			<defs>
				
					<rect id="SVGID_7_" x="27.832" y="-3.011" transform="matrix(-0.1944 0.9809 -0.9809 -0.1944 58.0806 -23.5052)" width="21.719" height="30.215"/>
			</defs>
			<clipPath id="SVGID_8_">
				<use xlink:href="#SVGID_7_"  overflow="visible"/>
			</clipPath>
			<g transform="matrix(1 9.259278e-010 9.414780e-009 1 -1.241905e-006 -3.419927e-007)" clip-path="url(#SVGID_8_)">
				
					<image overflow="visible" width="196" height="163" xlink:href="359F87BA.jpg"  transform="matrix(0.1554 0.0308 0.0266 -0.1341 21.5146 20.1177)">
				</image>
			</g>
		</g>
	</g>
	<g>
		<defs>
			<path id="SVGID_9_" d="M20.281,14.598c-0.858,1.793,0.531,3.363,2.75,4.708c2.903,1.76,7.225,3.132,9.786,4.112
				c0.817,0.313,1.686,0.659,2.584,1.021c4.043,1.629,8.655,3.575,11.415,4.157c0.68,0.143,1.395,0.151,1.975-0.212
				c0.478-0.301,0.813-0.798,1.114-1.399c0.479-0.962,0.864-2.19,1.578-3.309c0.16-0.251,0.335-0.497,0.534-0.732
				c0.648-0.773,0.966-1.441,1.051-2c0.099-0.654-0.124-1.156-0.514-1.499c-0.391-0.344-0.952-0.527-1.521-0.54
				c-0.118-0.004-0.238-0.012-0.36-0.027c-1.554-0.178-3.444-1.252-6.019-2.48c-2.549-1.216-3.792-1.653-5.582-2.244
				c-0.159-0.051-0.321-0.105-0.49-0.161c-2.069-0.679-6.264-1.89-10.527-4.527c-0.563-0.349-1.074-0.577-1.53-0.709
				c-3-0.873-3.815,2.342-3.815,2.342c-0.182,0.39-0.393,0.769-0.615,1.125c-0.285,0.459-0.585,0.881-0.859,1.236
				c-0.327,0.427-0.614,0.76-0.786,0.954C20.343,14.533,20.281,14.598,20.281,14.598L20.281,14.598z"/>
		</defs>
		<defs>
			
				<rect id="SVGID_10_" x="23.26" y="-3.91" transform="matrix(0.1944 -0.9809 0.9809 0.1944 15.976 55.9821)" width="37.625" height="44.349"/>
		</defs>
		<clipPath id="SVGID_11_">
			<use xlink:href="#SVGID_9_"  overflow="visible"/>
		</clipPath>
		<clipPath id="SVGID_12_" clip-path="url(#SVGID_11_)">
			<use xlink:href="#SVGID_10_"  overflow="visible"/>
		</clipPath>
		<g clip-path="url(#SVGID_12_)">
			<defs>
				
					<rect id="SVGID_13_" x="28.684" y="1.884" transform="matrix(-0.1944 0.9809 -0.9809 -0.1944 61.8488 -13.5144)" width="15.58" height="33.511"/>
			</defs>
			<clipPath id="SVGID_14_">
				<use xlink:href="#SVGID_13_"  overflow="visible"/>
			</clipPath>
			<g transform="matrix(1 9.259278e-010 9.414780e-009 1 -2.104391e-006 -2.533578e-007)" clip-path="url(#SVGID_14_)">
				
					<image overflow="visible" width="216" height="118" xlink:href="359F87BD.jpg"  transform="matrix(0.1554 0.0308 0.0266 -0.1341 18.2876 23.3877)">
				</image>
			</g>
		</g>
	</g>
	<g>
		<defs>
			<path id="SVGID_15_" d="M52.727,38.375c-0.096-0.175-0.161-0.361-0.192-0.557c-0.061-0.371,0.003-0.777,0.22-1.212
				c0.17-0.343,0.349-0.646,0.532-0.914c0.242-0.353,0.493-0.645,0.747-0.885c0.281-0.263,0.568-0.464,0.852-0.615
				c0.132-0.069,0.263-0.128,0.393-0.177c0.28-0.105,0.557-0.167,0.825-0.199c0.476-0.054,0.924-0.008,1.312,0.071
				c0.359,0.074,0.713,0.171,1.034,0.337c0.349,0.18,0.974,0.551,1.493,1.123c0.205,0.226,0.394,0.482,0.542,0.771
				c0.066,0.129,0.125,0.265,0.173,0.405c0.106,0.309,0.164,0.646,0.155,1.016c-0.009,0.325-0.07,0.675-0.201,1.046
				c-0.212,0.613-0.701,1.07-1.351,1.349c-0.19,0.081-0.395,0.148-0.608,0.202c-0.242,0.061-0.497,0.104-0.76,0.132
				c-0.641,0.065-1.326,0.034-1.986-0.084c-0.653-0.118-1.282-0.319-1.816-0.594c-0.391-0.202-0.733-0.442-0.998-0.718
				C52.945,38.718,52.82,38.552,52.727,38.375L52.727,38.375z"/>
		</defs>
		<defs>
			
				<rect id="SVGID_16_" x="23.26" y="-3.91" transform="matrix(0.1944 -0.9809 0.9809 0.1944 15.976 55.9821)" width="37.625" height="44.349"/>
		</defs>
		<clipPath id="SVGID_17_">
			<use xlink:href="#SVGID_15_"  overflow="visible"/>
		</clipPath>
		<clipPath id="SVGID_18_" clip-path="url(#SVGID_17_)">
			<use xlink:href="#SVGID_16_"  overflow="visible"/>
		</clipPath>
		<g clip-path="url(#SVGID_18_)">
			<defs>
				
					<rect id="SVGID_19_" x="53.525" y="32.928" transform="matrix(-0.1944 0.9809 -0.9809 -0.1944 104.1492 -11.4366)" width="6.492" height="8.239"/>
			</defs>
			<clipPath id="SVGID_20_">
				<use xlink:href="#SVGID_19_"  overflow="visible"/>
			</clipPath>
			<g transform="matrix(1 9.259278e-010 9.414780e-009 1 -2.469511e-006 -1.513822e-006)" clip-path="url(#SVGID_20_)">
				
					<image overflow="visible" width="60" height="51" xlink:href="359F87BE.jpg"  transform="matrix(0.1554 0.0308 0.0266 -0.1341 51.6011 39.5615)">
				</image>
			</g>
		</g>
	</g>
</g>
</svg>
