<?xml version="1.0" standalone="no"?>
<!DOCTYPE svg PUBLIC "-//W3C//DTD SVG 20010904//EN"
 "http://www.w3.org/TR/2001/REC-SVG-20010904/DTD/svg10.dtd">
<svg version="1.0" xmlns="http://www.w3.org/2000/svg"
 width="500.000000pt" height="500.000000pt" viewBox="0 0 500.000000 500.000000"
 preserveAspectRatio="xMidYMid meet">
<metadata>
Created by potrace 1.16, written by Peter Selinger 2001-2019
</metadata>
<g transform="translate(0.000000,500.000000) scale(0.100000,-0.100000)"
fill="#000000" stroke="none">
<path d="M2490 3375 l0 -370 310 -310 310 -310 -487 -487 c-268 -268 -489
-486 -491 -484 -2 2 49 108 112 235 64 127 116 233 116 236 0 3 -360 5 -800 5
l-800 0 0 170 0 170 640 0 640 0 100 200 100 200 -740 0 -740 0 0 125 0 125
680 0 680 0 120 240 c66 132 120 242 120 245 0 3 -470 5 -1045 5 l-1045 0 0
-985 0 -985 1297 0 1298 0 307 307 308 308 490 -490 490 -490 0 370 0 370
-305 305 -305 305 492 492 493 493 -370 0 -370 0 -307 -307 -308 -308 -495
495 -495 495 0 -370z"/>
</g>
</svg>
