<svg xmlns="http://www.w3.org/2000/svg" xmlns:xlink="http://www.w3.org/1999/xlink" viewBox="0 0 302.79 90.03">
  <defs>
    <style>
      .\39 45780de-68fe-46a8-a909-117685aec301 {
        fill: none;
      }

      .cbece377-9195-449c-a6c8-64a88c907386 {
        isolation: isolate;
      }

      .\31 6e015f2-2980-4d38-a898-b61b68627ee1 {
        fill: #58595b;
      }

      .\30 9cfa8a0-32e3-416d-aae8-92e649ca5be8 {
        fill: #c03540;
      }

      .\32 86e8e66-832c-4656-af93-1644750e7221 {
        fill: #88ab2d;
      }

      .\36 48aa957-cd4b-45c5-8a92-751574c74a4f {
        mix-blend-mode: multiply;
      }

      .da5e98e0-d457-4ef8-9ecb-913c55f51b35 {
        clip-path: url(#0a94568c-d5d5-49e3-a427-591418503a41);
      }

      .fd62d6ac-ea4e-481e-8039-c7a9cca3327c {
        fill: #ed3c95;
      }

      .\37 cf273bc-6318-4f62-923e-250264c7ace9 {
        clip-path: url(#5bdeff6f-2730-46cc-9274-e777882dfee1);
      }

      .\34 4fcbcb5-59d4-46c4-b5aa-cec0c64265a2 {
        fill: #a2268e;
      }

      .\32 4e01feb-4769-42eb-8e71-391bab8b6792 {
        clip-path: url(#eabc16a4-4a53-4346-a3df-403c1d3ddef6);
      }

      .\34 86be039-2009-4574-b8f9-9c748b6ec942 {
        fill: #295ca9;
      }

      .fc4fb2fc-f111-4d30-ba36-4300a85fc094 {
        clip-path: url(#5bc41bf2-89f2-4f4c-9794-55b3324d7e08);
      }

      .\33 f91dda9-1eb7-438d-8097-caf16da9adab {
        fill: #00b7eb;
      }

      .\33 888e2bc-0a6d-4020-8242-de6ade2c8edf {
        clip-path: url(#8a66dced-40cf-4c5f-914f-b610689a6171);
      }

      .d5df6fa4-4fe3-424d-85f0-6e702592619b {
        fill: #a6ce38;
      }

      .d08587b0-70c9-4ae8-a57e-4f0bcf6e4580 {
        clip-path: url(#7776da31-86ff-4d34-86b8-ac859b1fbe74);
      }

      .\32 bb6bc06-9f12-4e17-ae60-2a04a2b355a2 {
        fill: #fad404;
      }

      .\38 fddc247-7ba9-4ec6-a8db-0c61384b37c8 {
        clip-path: url(#4ed0be38-061f-4773-bc88-00f8a849e30e);
      }

      .\36 b7809a4-b278-4f63-80a7-6769fbc55fda {
        fill: #f59120;
      }

      .\38 371919e-9e29-4d7c-8cb1-660007f6f72e {
        clip-path: url(#0b6255ea-57cf-4b62-bd6b-58be89659a73);
      }
    </style>
    <clipPath id="0a94568c-d5d5-49e3-a427-591418503a41" transform="translate(0 0)">
      <rect class="945780de-68fe-46a8-a909-117685aec301" x="55.14" y="33.51" width="24.05" height="48.88"/>
    </clipPath>
    <clipPath id="5bdeff6f-2730-46cc-9274-e777882dfee1" transform="translate(0 0)">
      <rect class="945780de-68fe-46a8-a909-117685aec301" x="35.7" y="44.41" width="26.07" height="45.62"/>
    </clipPath>
    <clipPath id="eabc16a4-4a53-4346-a3df-403c1d3ddef6" transform="translate(0 0)">
      <rect class="945780de-68fe-46a8-a909-117685aec301" x="7.58" y="55.07" width="48.86" height="24.05"/>
    </clipPath>
    <clipPath id="5bc41bf2-89f2-4f4c-9794-55b3324d7e08" transform="translate(0 0)">
      <rect class="945780de-68fe-46a8-a909-117685aec301" y="35.63" width="45.54" height="26.07"/>
    </clipPath>
    <clipPath id="8a66dced-40cf-4c5f-914f-b610689a6171" transform="translate(0 0)">
      <rect class="945780de-68fe-46a8-a909-117685aec301" x="10.89" y="7.58" width="23.99" height="48.78"/>
    </clipPath>
    <clipPath id="7776da31-86ff-4d34-86b8-ac859b1fbe74" transform="translate(0 0)">
      <rect class="945780de-68fe-46a8-a909-117685aec301" x="28.25" width="26.07" height="45.47"/>
    </clipPath>
    <clipPath id="4ed0be38-061f-4773-bc88-00f8a849e30e" transform="translate(0 0)">
      <rect class="945780de-68fe-46a8-a909-117685aec301" x="33.58" y="10.82" width="48.81" height="23.99"/>
    </clipPath>
    <clipPath id="0b6255ea-57cf-4b62-bd6b-58be89659a73" transform="translate(0 0)">
      <rect class="945780de-68fe-46a8-a909-117685aec301" x="44.48" y="28.18" width="45.55" height="26.07"/>
    </clipPath>
  </defs>
  <title>logo</title>
  <g class="cbece377-9195-449c-a6c8-64a88c907386">
    <g id="b2d4e00d-b769-4a73-8f02-50f8701255a0" data-name="Layer 1">
      <g>
        <path class="16e015f2-2980-4d38-a898-b61b68627ee1" d="M99,57.75l5.52-20.22h2.41l3.48,20.22h-2.89l-.63-4.35H103l-1.07,4.35Zm7.49-7.07-1-7.33h0l-1.79,7.33Z" transform="translate(0 0)"/>
        <path class="16e015f2-2980-4d38-a898-b61b68627ee1" d="M111.84,57.75l1-20.22h2.89l-.87,17.32h5.72l-.15,2.9Z" transform="translate(0 0)"/>
        <path class="16e015f2-2980-4d38-a898-b61b68627ee1" d="M122.31,57.75l1-20.22h2.89l-.87,17.32h5.72l-.15,2.9Z" transform="translate(0 0)"/>
        <path class="16e015f2-2980-4d38-a898-b61b68627ee1" d="M132.87,57.75l1-20.22h2.89l-1,20.22Z" transform="translate(0 0)"/>
        <path class="16e015f2-2980-4d38-a898-b61b68627ee1" d="M137.26,57.75l5.52-20.22h2.41l3.48,20.22h-2.88l-.63-4.35h-3.94l-1.07,4.35Zm7.49-7.07-1-7.33h-.06l-1.78,7.33Z" transform="translate(0 0)"/>
        <path class="16e015f2-2980-4d38-a898-b61b68627ee1" d="M150,57.75l1-20.22h2.78l3.75,12.18h0l.62-12.18h2.88l-1,20.22h-2.72l-3.81-12.16h-.05l-.62,12.16Z" transform="translate(0 0)"/>
        <path class="16e015f2-2980-4d38-a898-b61b68627ee1" d="M172.12,52l-.06,1.25a4.71,4.71,0,0,1-.44,1.78,5.42,5.42,0,0,1-1.05,1.49,5.09,5.09,0,0,1-1.51,1,4.5,4.5,0,0,1-1.82.38,6,6,0,0,1-1.66-.23,3.64,3.64,0,0,1-1.49-.79,4.16,4.16,0,0,1-1-1.46,5.07,5.07,0,0,1-.33-2.29L163.28,42a5.12,5.12,0,0,1,.44-1.84,4.69,4.69,0,0,1,1-1.48,4.82,4.82,0,0,1,1.54-1,5.06,5.06,0,0,1,1.93-.35,4.14,4.14,0,0,1,3.24,1.33,4.27,4.27,0,0,1,.9,1.55,5.13,5.13,0,0,1,.26,1.94l-.06,1.14h-2.89l.05-1a2.3,2.3,0,0,0-.4-1.48,1.5,1.5,0,0,0-1.28-.63,1.56,1.56,0,0,0-1.46.67,3.79,3.79,0,0,0-.44,1.69L165.62,53a2.56,2.56,0,0,0,.31,1.48,1.41,1.41,0,0,0,1.34.6,2.49,2.49,0,0,0,.62-.1,2.07,2.07,0,0,0,.62-.33A1.84,1.84,0,0,0,169,54a2.68,2.68,0,0,0,.22-1l.05-1Z" transform="translate(0 0)"/>
        <path class="16e015f2-2980-4d38-a898-b61b68627ee1" d="M174.19,57.75l1-20.22h8.61l-.14,2.72H178l-.29,5.94h5l-.14,2.73h-5l-.3,5.93h5.72l-.15,2.9Z" transform="translate(0 0)"/>
        <path class="16e015f2-2980-4d38-a898-b61b68627ee1" d="M189.93,57.75l1-20.22h8.6l-.13,2.72H193.7l-.31,6.14h5l-.14,2.73h-5l-.43,8.63Z" transform="translate(0 0)"/>
        <path class="16e015f2-2980-4d38-a898-b61b68627ee1" d="M201,42.3a5.21,5.21,0,0,1,.54-2.16,4.61,4.61,0,0,1,1.21-1.56,5,5,0,0,1,1.59-.91,5.13,5.13,0,0,1,1.75-.31,4.94,4.94,0,0,1,1.73.31,4.81,4.81,0,0,1,1.52.91,4.21,4.21,0,0,1,1,1.56,5.07,5.07,0,0,1,.32,2.16L210.16,53a5.2,5.2,0,0,1-.54,2.19,4.66,4.66,0,0,1-1.18,1.5,5.15,5.15,0,0,1-1.61.94,5.23,5.23,0,0,1-1.76.31,4.94,4.94,0,0,1-1.73-.31,4.24,4.24,0,0,1-1.49-.94,3.9,3.9,0,0,1-1.06-1.5,5,5,0,0,1-.31-2.19ZM203.36,53a1.84,1.84,0,0,0,.51,1.55,1.94,1.94,0,0,0,1.34.5,2.14,2.14,0,0,0,1.4-.5,2,2,0,0,0,.66-1.55l.54-10.68a1.86,1.86,0,0,0-.5-1.55,2,2,0,0,0-1.35-.5,2.14,2.14,0,0,0-1.4.5,2.06,2.06,0,0,0-.66,1.55Z" transform="translate(0 0)"/>
        <path class="16e015f2-2980-4d38-a898-b61b68627ee1" d="M212.47,57.75l1-20.22h4.65c3.4,0,5,2,4.8,5.93a7.69,7.69,0,0,1-.71,3,4.58,4.58,0,0,1-2,2l2.65,9.23h-3.06l-2.25-8.63h-1.73l-.44,8.63Zm3.77-17.5-.32,6.31h1.64a3,3,0,0,0,1.23-.21,1.87,1.87,0,0,0,.74-.62,3.07,3.07,0,0,0,.36-1,11.57,11.57,0,0,0,.15-1.35,8.4,8.4,0,0,0,0-1.35,2.55,2.55,0,0,0-.28-1,2.2,2.2,0,0,0-2-.8Z" transform="translate(0 0)"/>
        <path class="16e015f2-2980-4d38-a898-b61b68627ee1" d="M239.86,43.35H237l0-.65a3,3,0,0,0-.38-1.72,1.63,1.63,0,0,0-1.54-.73,1.88,1.88,0,0,0-1,.23,2,2,0,0,0-.62.57,2.28,2.28,0,0,0-.36.84,6.1,6.1,0,0,0-.13,1c0,.39,0,.73,0,1a1.77,1.77,0,0,0,.18.71,1.42,1.42,0,0,0,.47.54,4.71,4.71,0,0,0,.86.46l2.17.88a5,5,0,0,1,1.51.86,3.61,3.61,0,0,1,.88,1.15,5.51,5.51,0,0,1,.35,1.55,16,16,0,0,1,0,2,10.88,10.88,0,0,1-.37,2.38,5.4,5.4,0,0,1-.92,1.86,4.41,4.41,0,0,1-1.62,1.25,5.69,5.69,0,0,1-2.37.45,4.93,4.93,0,0,1-1.94-.37,4.16,4.16,0,0,1-1.5-1,4.46,4.46,0,0,1-1-1.52,4.53,4.53,0,0,1-.29-1.89l.06-1.08h2.88l0,.91a2.28,2.28,0,0,0,.39,1.44,1.75,1.75,0,0,0,1.54.64,2.63,2.63,0,0,0,1.16-.22,1.64,1.64,0,0,0,.67-.61,2.42,2.42,0,0,0,.32-1c0-.37.08-.78.1-1.24a11.48,11.48,0,0,0,0-1.3,2.27,2.27,0,0,0-.18-.83,1.52,1.52,0,0,0-.5-.51A6.73,6.73,0,0,0,235,49l-2-.86a4.25,4.25,0,0,1-2.4-2,6.65,6.65,0,0,1-.48-3.17,7.67,7.67,0,0,1,.42-2.15,5.24,5.24,0,0,1,1-1.77,4.56,4.56,0,0,1,1.58-1.17,5,5,0,0,1,2.21-.44,4.72,4.72,0,0,1,2,.39,4.88,4.88,0,0,1,1.49,1,4.26,4.26,0,0,1,1.15,3.13Z" transform="translate(0 0)"/>
        <path class="16e015f2-2980-4d38-a898-b61b68627ee1" d="M250.75,52l-.06,1.25a4.71,4.71,0,0,1-.44,1.78,5.42,5.42,0,0,1-1.05,1.49,5.09,5.09,0,0,1-1.51,1,4.5,4.5,0,0,1-1.82.38,6,6,0,0,1-1.66-.23,3.64,3.64,0,0,1-1.49-.79,4.16,4.16,0,0,1-1-1.46,5.07,5.07,0,0,1-.33-2.29L241.91,42a5.12,5.12,0,0,1,.44-1.84,4.69,4.69,0,0,1,1-1.48,4.82,4.82,0,0,1,1.54-1,5.06,5.06,0,0,1,1.93-.35,4.14,4.14,0,0,1,3.24,1.33,4.27,4.27,0,0,1,.9,1.55,5.13,5.13,0,0,1,.26,1.94l-.06,1.14H248.3l0-1a2.3,2.3,0,0,0-.4-1.48,1.5,1.5,0,0,0-1.28-.63,1.56,1.56,0,0,0-1.46.67,3.79,3.79,0,0,0-.44,1.69L244.25,53a2.56,2.56,0,0,0,.31,1.48,1.41,1.41,0,0,0,1.34.6,2.49,2.49,0,0,0,.62-.1,2.07,2.07,0,0,0,.62-.33,1.84,1.84,0,0,0,.46-.63,2.68,2.68,0,0,0,.22-1l.05-1Z" transform="translate(0 0)"/>
        <path class="16e015f2-2980-4d38-a898-b61b68627ee1" d="M252.9,57.75l1-20.22h2.89l-1,20.22Z" transform="translate(0 0)"/>
        <path class="16e015f2-2980-4d38-a898-b61b68627ee1" d="M258.59,57.75l1-20.22h8.61l-.14,2.72h-5.72l-.3,5.94h5l-.13,2.73h-5l-.3,5.93h5.72l-.14,2.9Z" transform="translate(0 0)"/>
        <path class="16e015f2-2980-4d38-a898-b61b68627ee1" d="M269,57.75l1-20.22h2.78l3.74,12.18h.06l.61-12.18h2.89l-1,20.22h-2.72l-3.81-12.16h-.06l-.61,12.16Z" transform="translate(0 0)"/>
        <path class="16e015f2-2980-4d38-a898-b61b68627ee1" d="M291.1,52,291,53.23A4.71,4.71,0,0,1,290.6,55a5.25,5.25,0,0,1-1.06,1.49,5,5,0,0,1-1.5,1,4.5,4.5,0,0,1-1.82.38,6,6,0,0,1-1.66-.23,3.64,3.64,0,0,1-1.49-.79A4.31,4.31,0,0,1,282,55.44a5.08,5.08,0,0,1-.32-2.29L282.26,42a5.11,5.11,0,0,1,.43-1.84,4.71,4.71,0,0,1,1-1.48,4.82,4.82,0,0,1,1.54-1,5,5,0,0,1,1.93-.35,4.14,4.14,0,0,1,3.24,1.33,4.58,4.58,0,0,1,.9,1.55,5.13,5.13,0,0,1,.26,1.94l-.06,1.14h-2.89l.05-1a2.24,2.24,0,0,0-.41-1.48,1.47,1.47,0,0,0-1.27-.63,1.55,1.55,0,0,0-1.46.67,3.66,3.66,0,0,0-.44,1.69L284.6,53a2.56,2.56,0,0,0,.31,1.48,1.41,1.41,0,0,0,1.34.6,2.35,2.35,0,0,0,.61-.1,2.12,2.12,0,0,0,.63-.33A1.84,1.84,0,0,0,288,54a2.68,2.68,0,0,0,.22-1l.05-1Z" transform="translate(0 0)"/>
        <path class="16e015f2-2980-4d38-a898-b61b68627ee1" d="M293.16,57.75l1-20.22h8.61l-.14,2.72h-5.72l-.3,5.94h5l-.14,2.73h-5l-.3,5.93h5.72l-.15,2.9Z" transform="translate(0 0)"/>
      </g>
      <g>
        <path class="09cfa8a0-32e3-416d-aae8-92e649ca5be8" d="M109.92,33.28l-.26.62a7,7,0,0,1-1.54.58,7.13,7.13,0,0,1-1.65.18,7,7,0,0,1-1.93-.26,5.31,5.31,0,0,1-1.57-.75,5,5,0,0,1-1.1-1.1,4.75,4.75,0,0,1-.64-1.32,5.09,5.09,0,0,1-.22-1.55,4.69,4.69,0,0,1,1.49-3.56,5.75,5.75,0,0,1,4.1-1.41,8.06,8.06,0,0,1,1.13.07,8.37,8.37,0,0,1,1.27.27l.92.23a4.31,4.31,0,0,0-.22.73,11,11,0,0,0-.15,1.32h-.42v-.79a1.2,1.2,0,0,0-.73-1,4.66,4.66,0,0,0-1.94-.32,5.12,5.12,0,0,0-1.63.25,3.12,3.12,0,0,0-1.17.73,3.83,3.83,0,0,0-.83,1.27,5,5,0,0,0-.33,1.94A4.26,4.26,0,0,0,107,33.94a5.57,5.57,0,0,0,1.71-.25,4.19,4.19,0,0,0,1.07-.55Z" transform="translate(0 0)"/>
        <path class="09cfa8a0-32e3-416d-aae8-92e649ca5be8" d="M110.76,31.37A3.27,3.27,0,0,1,114.18,28a3.05,3.05,0,0,1,3.2,3.18,3.65,3.65,0,0,1-.46,1.8,3.37,3.37,0,0,1-1.29,1.28,3.83,3.83,0,0,1-1.84.46,3.15,3.15,0,0,1-1.33-.26,2.7,2.7,0,0,1-.87-.66,3.21,3.21,0,0,1-.52-.82A4.11,4.11,0,0,1,110.76,31.37Zm1.28-.5a5.57,5.57,0,0,0,.27,1.69,2.52,2.52,0,0,0,.8,1.25,1.87,1.87,0,0,0,1.14.39,1.64,1.64,0,0,0,1.3-.62,2.89,2.89,0,0,0,.53-1.9,4.9,4.9,0,0,0-.32-1.85,2.23,2.23,0,0,0-.79-1.1,1.94,1.94,0,0,0-1.07-.32,1.7,1.7,0,0,0-1.35.6A2.83,2.83,0,0,0,112,30.87Z" transform="translate(0 0)"/>
        <path class="09cfa8a0-32e3-416d-aae8-92e649ca5be8" d="M118.15,34.47v-.38l.82,0a.41.41,0,0,0,.17-.06.45.45,0,0,0,.1-.13,1.56,1.56,0,0,0,.08-.48c0-1.2,0-1.83,0-1.88v-.8c0-.36,0-.75,0-1.16a1.4,1.4,0,0,0-.06-.47.3.3,0,0,0-.16-.12,6.17,6.17,0,0,0-.87,0v-.38a7.4,7.4,0,0,0,2-.49.46.46,0,0,1,.18-.07.08.08,0,0,1,.08,0s0,0,0,.1v.1c0,.28,0,.7,0,1.28.2-.24.39-.47.56-.7a3.06,3.06,0,0,1,.37-.44,1.53,1.53,0,0,1,.46-.28,1.5,1.5,0,0,1,.55-.11,1.43,1.43,0,0,1,.56.13l0,.09c-.07.6-.11,1.12-.12,1.58h-.3a1.16,1.16,0,0,0-.36-.48.94.94,0,0,0-.52-.14,1.13,1.13,0,0,0-.88.42,2,2,0,0,0-.36,1.29v.69q0,.45,0,1.62a3.66,3.66,0,0,0,0,.54.3.3,0,0,0,.07.16.3.3,0,0,0,.14.08,5.78,5.78,0,0,0,1.09.13v.38c-.79,0-1.46,0-2,0S118.69,34.44,118.15,34.47Z" transform="translate(0 0)"/>
        <path class="09cfa8a0-32e3-416d-aae8-92e649ca5be8" d="M123.47,34.47v-.38h.64a.9.9,0,0,0,.22-.05.34.34,0,0,0,.12-.12,1.17,1.17,0,0,0,.09-.47c0-.06,0-.71,0-1.94v-.8c0-.36,0-.75,0-1.16a1.4,1.4,0,0,0-.06-.47.31.31,0,0,0-.15-.12,6.47,6.47,0,0,0-.88,0v-.38a7.19,7.19,0,0,0,2-.49.46.46,0,0,1,.18-.07.09.09,0,0,1,.08,0,.22.22,0,0,1,0,.1v.1c0,.17,0,.51,0,1l1.25-1.07a3,3,0,0,1,1-.21,2.42,2.42,0,0,1,1,.23,1.81,1.81,0,0,1,.74.56,1.91,1.91,0,0,1,.32.85,13.87,13.87,0,0,1,0,1.69V32.5a9.72,9.72,0,0,0,.05,1.19.59.59,0,0,0,.1.28.3.3,0,0,0,.22.1l.72,0v.38c-.44,0-.8,0-1.1,0l-1.25,0c.06-1.11.1-1.81.1-2.1V31.24a7.73,7.73,0,0,0-.08-1.39,1.27,1.27,0,0,0-.52-.73,1.73,1.73,0,0,0-1-.27,1.84,1.84,0,0,0-.93.24,1.44,1.44,0,0,0-.59.55,2.24,2.24,0,0,0-.18,1.05v.82c0,1.17,0,1.8,0,1.89a1.43,1.43,0,0,0,.08.5.25.25,0,0,0,.08.1.39.39,0,0,0,.17.07l.74,0v.38c-.55,0-1,0-1.49,0S124.32,34.44,123.47,34.47Z" transform="translate(0 0)"/>
        <path class="09cfa8a0-32e3-416d-aae8-92e649ca5be8" d="M137.26,33.43l-.22.48a6.35,6.35,0,0,1-.68.38,3.38,3.38,0,0,1-.72.24,3.49,3.49,0,0,1-.86.1,3.41,3.41,0,0,1-1.61-.37,2.61,2.61,0,0,1-1.12-1.11,3.61,3.61,0,0,1-.4-1.72,4.07,4.07,0,0,1,.22-1.4,2.6,2.6,0,0,1,.48-.92,3.91,3.91,0,0,1,.6-.5,5.07,5.07,0,0,1,.82-.44,3.1,3.1,0,0,1,1.15-.22,2.8,2.8,0,0,1,1.36.34,2.07,2.07,0,0,1,.89.94,3.06,3.06,0,0,1,.29,1.34,4.21,4.21,0,0,1,0,.46,8.16,8.16,0,0,1-.87.12c-.48,0-1,.05-1.46.05h-2.16a3.41,3.41,0,0,0,.33,1.56,2.07,2.07,0,0,0,.88.88,2.61,2.61,0,0,0,2,.15,4.64,4.64,0,0,0,1-.48Zm-4.32-2.76.71,0,1.39,0c.6,0,1,0,1.18,0,0-.11,0-.19,0-.25a2.32,2.32,0,0,0-.44-1.56,1.44,1.44,0,0,0-1.15-.5,1.52,1.52,0,0,0-1.23.55A2.6,2.6,0,0,0,132.94,30.67Z" transform="translate(0 0)"/>
        <path class="09cfa8a0-32e3-416d-aae8-92e649ca5be8" d="M138.26,34.47v-.39h.63a.46.46,0,0,0,.23,0,.32.32,0,0,0,.12-.11,1.45,1.45,0,0,0,.08-.48s0-.7.05-1.93V28.71c0-.75,0-1.52,0-2.32a4.86,4.86,0,0,0-.07-.9.21.21,0,0,0-.11-.1,4.43,4.43,0,0,0-.93-.05V25a7.76,7.76,0,0,0,2.11-.47.33.33,0,0,1,.14,0,.09.09,0,0,1,.07,0,.1.1,0,0,1,0,.08s0,.08,0,.14v.22c0,.8,0,1.48,0,2.05l0,1.05V31.5c0,1.17,0,1.8,0,1.89a1.14,1.14,0,0,0,.08.49.21.21,0,0,0,.08.11.4.4,0,0,0,.16.07l.75,0v.39c-.62,0-1.15,0-1.61,0S139,34.43,138.26,34.47Z" transform="translate(0 0)"/>
        <path class="09cfa8a0-32e3-416d-aae8-92e649ca5be8" d="M142.27,34.47v-.39h.64a.45.45,0,0,0,.22,0,.32.32,0,0,0,.12-.11,1.19,1.19,0,0,0,.09-.48s0-.7,0-1.93V28.71c0-.75,0-1.52,0-2.32a4,4,0,0,0-.07-.9.18.18,0,0,0-.11-.1,4.43,4.43,0,0,0-.93-.05V25a7.85,7.85,0,0,0,2.12-.47.27.27,0,0,1,.13,0,.11.11,0,0,1,.08,0,.15.15,0,0,1,0,.08.82.82,0,0,1,0,.14v.22c0,.8,0,1.48,0,2.05V31.5c0,1.17,0,1.8,0,1.89a1.14,1.14,0,0,0,.08.49.28.28,0,0,0,.08.11.48.48,0,0,0,.16.07l.75,0v.39c-.61,0-1.15,0-1.61,0S143,34.43,142.27,34.47Z" transform="translate(0 0)"/>
      </g>
      <path class="286e8e66-832c-4656-af93-1644750e7221" d="M53.05,48.92a6.35,6.35,0,0,1-.24,2,6.23,6.23,0,0,1-7.13,4.4,6.21,6.21,0,0,1,7.37-6.36" transform="translate(0 0)"/>
      <path class="286e8e66-832c-4656-af93-1644750e7221" d="M52.68,42a6.21,6.21,0,0,1-7.37,6.36,6.66,6.66,0,0,1,.24-2A6.23,6.23,0,0,1,52.68,42" transform="translate(0 0)"/>
      <path class="286e8e66-832c-4656-af93-1644750e7221" d="M53.05,34.6A6.24,6.24,0,0,1,45.68,41a6.33,6.33,0,0,1,.23-2,6.24,6.24,0,0,1,7.14-4.4" transform="translate(0 0)"/>
      <path class="286e8e66-832c-4656-af93-1644750e7221" d="M37,48.92a6.35,6.35,0,0,0,.24,2,6.23,6.23,0,0,0,7.13,4.4,6,6,0,0,0-.24-2A6.22,6.22,0,0,0,37,48.92" transform="translate(0 0)"/>
      <path class="286e8e66-832c-4656-af93-1644750e7221" d="M37,41.76a6.24,6.24,0,0,0,7.37,6.36,6.06,6.06,0,0,0-.24-2A6.23,6.23,0,0,0,37,41.76" transform="translate(0 0)"/>
      <path class="286e8e66-832c-4656-af93-1644750e7221" d="M37,34.6A6.24,6.24,0,0,0,44.34,41a6.06,6.06,0,0,0-.24-2A6.23,6.23,0,0,0,37,34.6" transform="translate(0 0)"/>
      <g class="648aa957-cd4b-45c5-8a92-751574c74a4f">
        <g class="da5e98e0-d457-4ef8-9ecb-913c55f51b35">
          <path class="fd62d6ac-ea4e-481e-8039-c7a9cca3327c" d="M73.34,55.27A5.85,5.85,0,0,0,73.15,54c-1.61-6.35-12.86-17.67-13.6-18.3l-.07-.06c-1-.84-3.59-2.72-4.23-2s1.23,3,2.3,4.11A51,51,0,0,1,65.11,49c2.79,5.78,2.24,11.64,0,11.73-1.07,0-1.29-5.78-1.71-8.39-.36-2.19-1-3.69-1.72-4a.64.64,0,0,0-.39-.1c-.82.12-1.54,1.21-2.08,4s-1.58,16-1.47,17.08a3.29,3.29,0,0,0,.76,1.45,12.28,12.28,0,0,0,1.25,1.33L70.09,82.39a45,45,0,0,0,9.1-8.09C72,65,73.5,60,73.34,55.27" transform="translate(0 0)"/>
        </g>
      </g>
      <g class="648aa957-cd4b-45c5-8a92-751574c74a4f">
        <g class="7cf273bc-6318-4f62-923e-250264c7ace9">
          <path class="44fcbcb5-59d4-46c4-b5aa-cec0c64265a2" d="M61.76,48.92c-.08-1.24-.55-4.56-1.54-4.51s-1.26,3-1.34,4.52a50.09,50.09,0,0,1-2.77,13.25c-2.19,6-6.77,9.74-8.39,8.21-.77-.74,3.24-5,4.82-7.09,1.23-1.65,1.84-3.09,1.74-3.89A.72.72,0,0,0,54,58.9c-.65-.5-1.94-.26-4.3,1.3s-12.55,10-13.25,10.87a4,4,0,0,0-.57,2,12,12,0,0,0,0,1.37l-.19,14.6A44.82,44.82,0,0,0,45,90c.94,0,1.88,0,2.82-.1,1.62-11.63,6.26-14.07,9.54-17.49,4.14-4.32,4.44-22.48,4.38-23.52" transform="translate(0 0)"/>
        </g>
      </g>
      <g class="648aa957-cd4b-45c5-8a92-751574c74a4f">
        <g class="24e01feb-4769-42eb-8e71-391bab8b6792">
          <path class="486be039-2009-4574-b8f9-9c748b6ec942" d="M56.27,55.18c-.66-.57-3,1.23-4.11,2.3A50.6,50.6,0,0,1,40.92,65c-5.78,2.79-11.64,2.24-11.73,0,0-1.07,5.78-1.29,8.39-1.71,2.19-.35,3.69-1,4.05-1.72a.64.64,0,0,0,.1-.39c-.12-.82-1.22-1.54-4-2.08s-16-1.58-17.08-1.47a3.29,3.29,0,0,0-1.45.76,13,13,0,0,0-1.34,1.25L7.58,70a45.22,45.22,0,0,0,8.06,9.12c9.27-7.18,14.3-5.69,19-5.85,6-.2,18.86-13,19.54-13.79s2.8-3.65,2.05-4.3" transform="translate(0 0)"/>
        </g>
      </g>
      <g class="648aa957-cd4b-45c5-8a92-751574c74a4f">
        <g class="fc4fb2fc-f111-4d30-ba36-4300a85fc094">
          <path class="3f91dda9-1eb7-438d-8097-caf16da9adab" d="M41,58.81A50.13,50.13,0,0,1,27.76,56c-6-2.19-9.73-6.77-8.2-8.39.74-.77,5,3.24,7.08,4.82,1.66,1.23,3.1,1.84,3.89,1.74a.72.72,0,0,0,.52-.25c.5-.65.25-1.94-1.3-4.3s-10-12.55-10.87-13.25a4,4,0,0,0-2-.56,13.64,13.64,0,0,0-1.37,0L1,35.63A45.32,45.32,0,0,0,0,45c0,.92,0,1.85.09,2.76,11.57,1.63,14,6.26,17.42,9.54C21.82,61.46,40,61.75,41,61.69c1.23-.08,4.56-.55,4.51-1.54S42.59,58.9,41,58.81" transform="translate(0 0)"/>
        </g>
      </g>
      <g class="648aa957-cd4b-45c5-8a92-751574c74a4f">
        <g class="3888e2bc-0a6d-4020-8242-de6ade2c8edf">
          <path class="d5df6fa4-4fe3-424d-85f0-6e702592619b" d="M32.47,52.09a50.6,50.6,0,0,1-7.56-11.24c-2.79-5.78-2.24-11.64,0-11.73,1.07,0,1.29,5.78,1.71,8.39.35,2.19,1,3.69,1.72,4.05a.64.64,0,0,0,.39.1c.82-.12,1.54-1.21,2.08-4s1.58-16,1.46-17.08a3.16,3.16,0,0,0-.75-1.45,12.28,12.28,0,0,0-1.25-1.33L20,7.58a45.68,45.68,0,0,0-9.13,8.08c7.11,9.22,5.63,14.23,5.79,19,.2,6,13,18.86,13.79,19.54.94.81,3.65,2.8,4.3,2.05s-1.23-3-2.3-4.11" transform="translate(0 0)"/>
        </g>
      </g>
      <g class="648aa957-cd4b-45c5-8a92-751574c74a4f">
        <g class="d08587b0-70c9-4ae8-a57e-4f0bcf6e4580">
          <path class="2bb6bc06-9f12-4e17-ae60-2a04a2b355a2" d="M54.32,1A45.21,45.21,0,0,0,45,0c-1,0-1.92,0-2.86.1C40.52,11.6,35.9,14,32.63,17.44,28.49,21.75,28.2,39.92,28.26,41c.08,1.23.55,4.56,1.53,4.51s1.26-2.95,1.34-4.52a50.74,50.74,0,0,1,2.78-13.26c2.19-6,6.77-9.73,8.38-8.2.78.74-3.24,5-4.81,7.08-1.23,1.66-1.84,3.1-1.74,3.9A.75.75,0,0,0,36,31c.66.5,1.94.25,4.3-1.3s12.56-10,13.26-10.87a4,4,0,0,0,.56-2,12,12,0,0,0,0-1.37Z" transform="translate(0 0)"/>
        </g>
      </g>
      <g class="648aa957-cd4b-45c5-8a92-751574c74a4f">
        <g class="8fddc247-7ba9-4ec6-a8db-0c61384b37c8">
          <path class="6b7809a4-b278-4f63-80a7-6769fbc55fda" d="M74.29,10.82c-9.22,7.11-14.23,5.63-19,5.79-6,.2-18.87,13-19.54,13.79-.81.94-2.8,3.65-2.06,4.3s3-1.23,4.12-2.3A50.34,50.34,0,0,1,49.1,24.84c5.78-2.79,11.64-2.24,11.73,0,0,1.07-5.79,1.29-8.4,1.71-2.18.35-3.68,1-4,1.72a.62.62,0,0,0-.09.39c.12.82,1.21,1.54,4,2.08s16,1.58,17.08,1.46a3.26,3.26,0,0,0,1.45-.75,12.28,12.28,0,0,0,1.33-1.25L82.39,19.93a45.36,45.36,0,0,0-8.1-9.11" transform="translate(0 0)"/>
        </g>
      </g>
      <g class="648aa957-cd4b-45c5-8a92-751574c74a4f">
        <g class="8371919e-9e29-4d7c-8cb1-660007f6f72e">
          <path class="09cfa8a0-32e3-416d-aae8-92e649ca5be8" d="M89.93,42.1c-11.57-1.63-14-6.26-17.42-9.54C68.19,28.42,50,28.13,49,28.19c-1.24.08-4.57.55-4.51,1.53s3,1.26,4.52,1.35a50.09,50.09,0,0,1,13.25,2.77c6,2.19,9.74,6.77,8.21,8.39-.74.77-5-3.24-7.09-4.82s-3.9-2.15-4.4-1.49-.26,1.94,1.3,4.3,10,12.55,10.87,13.25,3.38.6,3.38.6l14.56.18A45.3,45.3,0,0,0,90,45c0-1,0-2-.1-2.92" transform="translate(0 0)"/>
        </g>
      </g>
    </g>
  </g>
</svg>
