<svg id="Layer_1" data-name="Layer 1" xmlns="http://www.w3.org/2000/svg" xmlns:xlink="http://www.w3.org/1999/xlink" viewBox="0 0 741.82 64.45"><defs><style>.cls-1{fill:none;}.cls-2{clip-path:url(#clip-path);}.cls-3{fill:#fff;}</style><clipPath id="clip-path"><rect class="cls-1" x="1027.53" y="-247.22" width="1207.18" height="827.65"/></clipPath></defs><title>TPMRedes_Artboard 6</title><g class="cls-2"><rect class="cls-3" x="678.83" y="-171.18" width="1888.01" height="743.59"/></g><path class="cls-3" d="M8.26,48.9V40.78h7.22V9H8.26v11.2H0V.83H43.58V20.15H35.42V9H28V40.78h7.22V48.9Z"/><path class="cls-3" d="M83.14,41.19V48.9H67.07V46.25A15.31,15.31,0,0,1,58,49.38a13.49,13.49,0,0,1-8.59-2.83,9.16,9.16,0,0,1-3.61-7.6,10.18,10.18,0,0,1,3.8-8.05,14.58,14.58,0,0,1,9.81-3.25,21.67,21.67,0,0,1,7.71,1.69v-2a5.54,5.54,0,0,0-1.73-4.2,6.45,6.45,0,0,0-4.63-1.64,8.28,8.28,0,0,0-6.15,2.63L46,22.53q3.73-7.91,16.21-7.91a25.08,25.08,0,0,1,8,1.09,11.07,11.07,0,0,1,4.73,2.82,10.13,10.13,0,0,1,2.19,3.78A24.84,24.84,0,0,1,77.75,29v12.2ZM67.07,36.53q-3.87-2.42-6.19-2.42a5.62,5.62,0,0,0-3.33,1.07A3.58,3.58,0,0,0,56,38.29a4.48,4.48,0,0,0,1.21,3.14,4,4,0,0,0,3.11,1.31q3,0,6.7-3.49Z"/><path class="cls-3" d="M86.74,48.9V41.19H92V8.54H86.74V.83h15.93V41.19h4.8V48.9Z"/><path class="cls-3" d="M111.62,48.9V41.19H117V8.54h-5.39V.83h16V31.19l11.48-9.35h-7.06V15.45h20.22v6.77h-3.35l-9.78,8.35,8.92,10.62h4.63V48.9H142.44L127.65,31.19V41.57h4V48.9Z"/><path class="cls-3" d="M157.89,23.15V15.45h15.76V41.19h5V48.9H157.89V41.19H163v-18Zm4.7-17.3a5.66,5.66,0,0,1,1.71-4.13,5.83,5.83,0,0,1,8.28,0,5.69,5.69,0,0,1,1.69,4.13A5.6,5.6,0,0,1,172.56,10a5.81,5.81,0,0,1-8.24,0A5.59,5.59,0,0,1,162.59,5.86Z"/><path class="cls-3" d="M182.49,23.15V15.45h15.79v3.11a16.25,16.25,0,0,1,9.81-3.63q10.12,0,10.12,12.92V41.19h5V48.9H207.54V28.65a6.66,6.66,0,0,0-.74-3.73,2.84,2.84,0,0,0-2.44-1,10.62,10.62,0,0,0-6.08,2.18v15.1h5.15V48.9H182.49V41.19h5.11v-18Z"/><path class="cls-3" d="M267.26,15.45v7.71h-5.53V47.88q0,16.57-17.49,16.57-10,0-14.93-3.63l5.18-7.08a15.37,15.37,0,0,0,8.12,2.49,9.7,9.7,0,0,0,6-1.83Q251,52.56,251,47.27V44.72q-5.22,4.66-10.16,4.67a12.52,12.52,0,0,1-9.9-4.86q-4.09-4.85-4.09-12.39t4.22-12.39a13.18,13.18,0,0,1,10.3-4.82A12,12,0,0,1,251,19.55v-4.1ZM251.08,32.28a10.28,10.28,0,0,0-1.8-6.39,5.85,5.85,0,0,0-4.91-2.35A5.54,5.54,0,0,0,239.53,26a10.69,10.69,0,0,0-1.68,6.22,10.29,10.29,0,0,0,1.74,6.2,5.6,5.6,0,0,0,4.79,2.4,6.09,6.09,0,0,0,4.75-2.23A9.21,9.21,0,0,0,251.08,32.28Z"/><path class="cls-3" d="M313.56,40.78V48.9H288.23V40.78h6.12V9h-6.12V.83h25.33q8.85,0,13.67,4.15A14,14,0,0,1,332,16.14a15.57,15.57,0,0,1-1.69,7.27,13,13,0,0,1-4.34,5,16.3,16.3,0,0,1-6,2.38,47.26,47.26,0,0,1-8.52.64h-4.6v9.33Zm-6.7-17.35h1.87q6.43,0,8.28-2.09a7.57,7.57,0,0,0,1.85-5.2,7.68,7.68,0,0,0-1.28-4.48,5.26,5.26,0,0,0-2.94-2.28A24,24,0,0,0,309.21,9h-2.35Z"/><path class="cls-3" d="M351.85,49.66A17.79,17.79,0,0,1,339.36,45q-5.1-4.68-5.1-12.84t5.1-12.84a19,19,0,0,1,25,0q5.08,4.68,5.08,12.84t-5,12.79A17.61,17.61,0,0,1,351.85,49.66Zm0-8.29a5.91,5.91,0,0,0,4.82-2.28q1.85-2.28,1.85-7.15a11,11,0,0,0-1.8-6.69,5.77,5.77,0,0,0-4.87-2.4q-6.6,0-6.6,9.54a11.66,11.66,0,0,0,1.64,6.44A5.5,5.5,0,0,0,351.82,41.36Z"/><path class="cls-3" d="M375.11,23.15V15.45h15.76V41.19h5V48.9H375.11V41.19h5.08v-18Zm4.7-17.3a5.66,5.66,0,0,1,1.71-4.13,5.83,5.83,0,0,1,8.28,0,5.69,5.69,0,0,1,1.69,4.13A5.6,5.6,0,0,1,389.78,10a5.81,5.81,0,0,1-8.24,0A5.59,5.59,0,0,1,379.81,5.86Z"/><path class="cls-3" d="M399.71,23.15V15.45H415.5v3.11a16.25,16.25,0,0,1,9.81-3.63q10.12,0,10.12,12.92V41.19h5V48.9H424.76V28.65a6.66,6.66,0,0,0-.74-3.73,2.84,2.84,0,0,0-2.44-1,10.62,10.62,0,0,0-6.08,2.18v15.1h5.15V48.9H399.71V41.19h5.11v-18Z"/><path class="cls-3" d="M442.77,23.15V15.45H447V10.19L457.7,2.52V15.45h6.15v7.71H457.7V37.66a4.82,4.82,0,0,0,.5,2.65q.5.68,2.3.67a9.77,9.77,0,0,0,3.35-.69v7.4a21.06,21.06,0,0,1-8.05,1.69q-8.78,0-8.78-8.72V23.15Z"/><path class="cls-3" d="M469.89,48.9V37.39h7.81a4.58,4.58,0,0,0,2.18,3.75,8.93,8.93,0,0,0,5.11,1.4,7.73,7.73,0,0,0,4.09-.92,2.7,2.7,0,0,0,1.47-2.33,2.24,2.24,0,0,0-1.35-2,19.75,19.75,0,0,0-5.29-1.39q-8.12-1.32-11.71-4a8.42,8.42,0,0,1-3.59-7.1,8.8,8.8,0,0,1,3.39-7,13.49,13.49,0,0,1,9-2.85,21.4,21.4,0,0,1,8.47,1.68V15.45h7.64v9.71h-7.64q-1-3.49-7.33-3.49-4.63,0-4.63,2.56a1.58,1.58,0,0,0,1,1.47,22,22,0,0,0,4.85,1.19A62.91,62.91,0,0,1,492.56,29a10.16,10.16,0,0,1,4.92,3.54,9.61,9.61,0,0,1,1.85,5.93,10.28,10.28,0,0,1-3.51,8q-3.51,3.13-9.93,3.13-6,0-8.19-2.44V48.9Z"/><path class="cls-3" d="M521.49,48.9V40.78h6.22V9h-6.22V.83H545.6L556.14,29,566.75.83h24.57V9H585.1V40.78h6.22V48.9H567.14V40.78h5.81V9H571.8L556.91,48.9h-5.18L536.66,9h-1.14V40.78h6.29V48.9Z"/><path class="cls-3" d="M622.77,38.81l8.29,2.66q-5.22,8.19-16.31,8.19-8.85,0-13.81-4.67a16.06,16.06,0,0,1-5-12.27,17.61,17.61,0,0,1,18.14-18.11,17,17,0,0,1,9.92,2.9,15.26,15.26,0,0,1,5.81,7.22,27.23,27.23,0,0,1,1.62,9.64H606.56q.24,4.56,2.89,6.46a9.4,9.4,0,0,0,5.58,1.9Q618.87,42.75,622.77,38.81Zm-2-10.37a8.5,8.5,0,0,0-2.19-4.77,6.42,6.42,0,0,0-5-2q-5.88,0-6.84,6.74Z"/><path class="cls-3" d="M635.9,23.15V15.45h16.21v2.73A21.09,21.09,0,0,1,663,14.93q6.46,0,10,4.56a23.09,23.09,0,0,1,13.51-4.56,13.27,13.27,0,0,1,6.79,1.54,8,8,0,0,1,3.58,4.13,23.84,23.84,0,0,1,1,7.84V41.19h5.53V48.9H687.15V29.3q0-5.25-4.53-5.25a16.15,16.15,0,0,0-7.71,2.28V41.19h5.53V48.9H664.24V29.61q0-5.56-4.35-5.56a17.29,17.29,0,0,0-7.77,2.28V41.19h5.53V48.9H635.9V41.19h5.53v-18Z"/><path class="cls-3" d="M724.23,49.66A17.79,17.79,0,0,1,711.73,45q-5.1-4.68-5.1-12.84t5.1-12.84a19,19,0,0,1,25,0q5.08,4.68,5.08,12.84t-5,12.79A17.61,17.61,0,0,1,724.23,49.66Zm0-8.29A5.91,5.91,0,0,0,729,39.08q1.85-2.28,1.85-7.15a11,11,0,0,0-1.8-6.69,5.77,5.77,0,0,0-4.87-2.4q-6.6,0-6.6,9.54a11.66,11.66,0,0,0,1.64,6.44A5.5,5.5,0,0,0,724.19,41.36Z"/></svg>