<svg xmlns="http://www.w3.org/2000/svg" width="329" height="44"><g fill="none"><path d="M165.8 37.3c0-.9-.8-1.7-1.7-1.7h-10.4V2.5h-.1c0-.9-.7-1.7-1.6-1.7h-3.1c-1 0-1.7.8-1.7 1.7v38c0 1 .7 1.7 1.7 1.7h15.2c.9 0 1.7-.7 1.7-1.7v-3.2zM175.6.8h-3.1c-1 0-1.7.8-1.7 1.7v38c0 1 .7 1.7 1.7 1.7h3.1c1 0 1.7-.7 1.7-1.7v-38c0-.9-.7-1.7-1.7-1.7zm30.3 0h-2.7c-.9 0-1.7.8-1.7 1.7v14.7L191.4 1.6v-.1c-.3-.4-.8-.7-1.4-.7h-3.6c-1 0-1.7.8-1.7 1.7v38c0 1 .7 1.7 1.7 1.7h2.8c.9 0 1.7-.7 1.7-1.7V12.2l10.6 16.4v11.9c0 1 .7 1.7 1.7 1.7h2.7c1 0 1.7-.7 1.7-1.7v-38c0-.9-.7-1.7-1.7-1.7zM317.7 18c-4.4-1.7-5.5-4-5.5-5.9 0-1.3-.3-6 4.9-6 4.4 0 4.9 4.3 4.9 6.1 0 1 .8 1.7 1.7 1.7h2.6c.9 0 1.7-.7 1.7-1.7C328 6.6 325.9 0 317.1 0c-7.4 0-10.8 4.3-10.8 11.6 0 7.7 3.6 9.5 10.6 12.7 4.5 1.9 5.1 5.2 5.1 6.8 0 1.5-.5 5.8-4.9 5.8-4.5 0-4.9-4.1-4.9-6.1 0-1-.7-1.7-1.7-1.7H308c-1 0-1.7.7-1.7 1.7 0 5.6 2.1 12.2 10.8 12.2 7.3 0 10.9-4.7 10.9-11.8 0-8.5-5.1-11.1-10.3-13.2zM259.7.8h-18.5c-.9 0-1.6.8-1.6 1.7v3c0 1 .7 1.7 1.6 1.7h6v33.3c0 1 .8 1.7 1.7 1.7h3.2c.9 0 1.6-.7 1.6-1.7V7.2h6c1 0 1.7-.7 1.7-1.7v-3c0-.9-.7-1.7-1.7-1.7zm12 0h-3.2c-.9 0-1.7.8-1.7 1.7v38c0 1 .8 1.7 1.7 1.7h3.2c.9 0 1.7-.7 1.7-1.7v-38c0-.4-.2-.9-.5-1.2-.3-.3-.8-.5-1.2-.5zM115 .8h-3.4c-.8 0-1.4.5-1.7 1.2l-4 11.3-4-11.3h-.1c-.2-.7-.8-1.2-1.6-1.2h-3.4c-1.1 0-1.5.7-1.2 1.7l7 20.1v17.9c0 1 .8 1.7 1.7 1.7h3.2c.9 0 1.7-.7 1.7-1.7V22.6l7-20.1c.3-1-.1-1.7-1.2-1.7zm109.6 5.3c4.6 0 4.7 4.3 4.7 6.1 0 1 .7 1.7 1.7 1.7h2.8c.9 0 1.7-.7 1.7-1.7 0-5.6-1.8-12.2-10.9-12.2-7.3 0-10.9 5.1-10.9 12.2v18.6c0 5.6 2.1 12.2 10.9 12.2 7.3 0 10.9-5 10.9-12.2v-7.6c0-.9-.8-1.7-1.7-1.7h-7.6c-.9 0-1.6.8-1.6 1.7V26c0 .9.7 1.7 1.6 1.7h3.1v3.1c0 1.7-.1 6.1-4.7 6.1-4.7 0-4.8-4.4-4.8-6.1V12.2c.1-1.8.1-6.1 4.8-6.1zM81 6.2c4.7 0 4.7 4.3 4.7 6 .1 1 .8 1.7 1.7 1.7h2.9c.9 0 1.6-.7 1.6-1.7C91.9 6.6 89.8 0 81 0c-7.3 0-10.8 5.1-10.8 12.2v18.6C70.2 36.4 72.3 43 81 43c7.3 0 10.9-5.1 10.9-12.2v-.6c0-.9-.7-1.7-1.6-1.7h-2.9c-.9 0-1.6.8-1.6 1.7h-.1v.6c0 1.7 0 6-4.7 6-4.6 0-4.7-4.3-4.7-6V12.2c0-1.7.1-6 4.7-6zm49.2 0c4.7 0 4.8 4.3 4.8 6 0 1 .7 1.7 1.6 1.7h2.9c.9 0 1.6-.7 1.6-1.7C141.1 6.6 139 0 130.2 0c-7.3 0-10.8 5.1-10.8 12.2v18.6c0 5.6 2.1 12.2 10.8 12.2 7.3 0 10.9-5.1 10.9-12.2v-.6c0-.9-.7-1.7-1.6-1.7h-2.9c-.9 0-1.6.8-1.6 1.7v.6c0 1.7-.1 6-4.8 6-4.6 0-4.7-4.3-4.7-6V12.2c0-1.7.1-6 4.7-6zM290.1 17h-3.5V6.9h3.8c4.1 0 5.6 2.4 5.6 4.7 0 2.3-1.2 5.4-5.9 5.4zm.3-16.2h-8.2c-1 0-1.7.8-1.7 1.7v38c0 1 .7 1.7 1.7 1.7h2.7c.9 0 1.7-.7 1.7-1.7v-17h4.2c6.4 0 11.2-5.8 11.2-11.9 0-6-3.7-10.8-11.6-10.8z" fill="#161616"/><path d="M28.7 28.7L14.3 14.3 0 28.7V43l14.3-14.3L28.7 43l10.7-10.7-7.2-7.2-3.5 3.6zm0-28.7v14.3L57.3 43V28.7L28.7 0z" fill="#F67599"/></g></svg>
