<?xml version="1.0" encoding="utf-8"?>
<!-- Generator: Adobe Illustrator 23.0.2, SVG Export Plug-In . SVG Version: 6.00 Build 0)  -->
<svg version="1.1" id="Capa_1" xmlns="http://www.w3.org/2000/svg" xmlns:xlink="http://www.w3.org/1999/xlink" x="0px" y="0px"
	 viewBox="0 0 641 121" style="enable-background:new 0 0 641 121;" xml:space="preserve">
<style type="text/css">
	.st0{fill:#CE0033;}
	.st1{fill:#FFFFFF;}
	.st2{fill:#454E5C;}
</style>
<path class="st0" d="M92.5,110h-63c-8.6,0-15.5-6.9-15.5-15.5v-63C14,22.9,20.9,16,29.5,16h63c8.6,0,15.5,6.9,15.5,15.5v63
	C108,103.1,101.1,110,92.5,110z"/>
<g>
	<path class="st1" d="M82.8,78.9c-2.9,1.2-6.3-0.1-7.6-3l-9.5-20.2c-1.2-2.9,0.1-6.3,3-7.5c2.9-1.2,6.3,0.1,7.6,3l9.5,20.3
		C87,74.3,85.7,77.7,82.8,78.9 M63.8,78.9c-2.9,1.2-6.3-0.1-7.6-3l-9.5-20.2c-0.6-1.4-0.6-3-0.1-4.3c0.5-1.4,1.6-2.5,3-3.2
		c0.7-0.3,1.4-0.5,2.1-0.5h0.1c0.1,0,0.1,0,0.2,0s0.1,0,0.2,0h0.1c0.7,0,1.4,0.2,2.1,0.5c1.5,0.7,2.6,1.8,3,3.2l9.4,20
		C68,74.3,66.7,77.7,63.8,78.9 M47.8,75.9c-1.2,2.9-4.6,4.2-7.6,3s-4.2-4.6-3-7.5l5.2-11.2l6.3,13.5L47.8,75.9z M91,69.1l-9.5-20.2
		c-2.6-5.7-9.3-8.4-15.1-5.8c-2.1,0.9-3.7,2.3-4.9,4l0,0c-2.1-3.1-5.5-4.8-9.1-5h-0.1c-0.1,0-0.2,0-0.3,0s-0.2,0-0.4,0
		c-0.1,0-0.1,0-0.1,0c-4.2,0.2-8.3,2.7-10.1,6.8L32,69c-2.6,5.7,0.1,12.5,5.9,15c5.1,2.2,11.1,0.4,14.1-4c3,4.4,8.9,6.3,14.1,4
		c2.1-0.9,3.7-2.3,4.9-4.1c3,4.4,9,6.3,14.1,4.1C91,81.6,93.6,74.9,91,69.1"/>
</g>
<path class="st2" d="M297.9,81l-13.9-36c-0.3-0.7-0.8-0.9-1.4-0.9h-10.1c-0.7,0-1.2,0.5-1.5,1.1l-13.9,35.8
	c-0.4,0.8,0.2,2.1,1.4,2.1h8.8c0.6,0,1.2-0.4,1.5-1c0.3-0.7,2.3-6,2.3-6h13l2.3,6c0.2,0.7,0.7,1,1.5,1h8.8
	C297.6,83,298.2,81.8,297.9,81 M273.1,68l4.5-12l4.2,12H273.1z"/>
<path class="st2" d="M167.5,44h-7c-0.4,0-0.9,0.2-1.3,0.8c-0.3,0.6-10.2,17.3-10.2,17.3c-0.2,0.3-0.6,0.5-0.9,0.5s-0.7-0.2-1-0.5
	c0,0-9.9-16.6-10.2-17.2c-0.3-0.6-0.9-0.8-1.3-0.8H127V83h11V68.5c0-0.4,0.5-0.5,0.7-0.2c0,0,8.2,9.9,8.4,10.2
	c0.2,0.3,0.6,0.4,0.9,0.4s0.7-0.2,0.9-0.4c0.2-0.3,8.4-10.2,8.4-10.2c0.2-0.3,0.7-0.2,0.7,0.2V83h10.8V45.2
	C168.7,44.5,168.1,44,167.5,44"/>
<path class="st2" d="M180.1,44h27.8c0.6,0,1.1,0.5,1.1,1.1v7.8l-16,0c-1.2,0-2,1.1-2,2v4h10v8.9h-10V74h18.8v9H180L180.1,44z"/>
<path class="st2" d="M250.5,65h-7.9c-0.8,0-1.5,0.7-1.5,1.6v4.9c-1,0.8-4.5,2.5-8.5,0.9c-3.5-1.4-6.6-4.8-6.6-8.9
	c0-4.8,3.7-9,8.5-9.6c2.4-0.3,4.8,0.7,6.5,1.9c0.8,0.5,1.6,0.8,2.4,0.1l5.7-6c0.6-0.6,0.6-1.3-0.2-2c-3.5-2.9-8.2-4.9-13.4-4.9
	c-11.4,0-20.6,9.2-20.6,20.5S224.2,84,235.6,84c9.8,0,16.4-7.3,16.4-8.3v-9.2C252,65.7,251.3,65,250.5,65z"/>
<path class="st2" d="M354,63.1c0,1.9-0.2,3.7-0.7,5.5c-0.5,1.7-1.2,3.3-2.1,4.8c-0.9,1.5-2,2.8-3.2,4s-2.6,2.2-4.1,3.1
	s-3.2,1.5-4.9,1.9s-3.6,0.7-5.4,0.7h-13.2c-0.3,0-0.6-0.1-0.9-0.2s-0.4-0.4-0.4-0.9V44.2c0-0.4,0.1-0.7,0.3-0.9
	c0.2-0.2,0.5-0.3,0.9-0.3h13.2c1.9,0,3.7,0.2,5.4,0.7s3.4,1.1,4.9,2c1.5,0.8,2.9,1.9,4.1,3.1c1.2,1.2,2.3,2.6,3.2,4
	c0.9,1.5,1.6,3.1,2.1,4.8C353.8,59.4,354,61.2,354,63.1z M328.9,53v20.1c0,0,2.3,0,4-0.1c1.9-0.1,3.8-0.3,4.9-0.8
	c1.2-0.6,2.1-1.2,3-2.2c0.9-0.9,1.5-1.9,2-3.1s0.7-2.5,0.7-3.9c0-1.5-0.3-2.9-0.9-4.2c-0.6-1.2-1.3-2.4-2.3-3.3
	c-1-0.9-2.1-1.3-3.4-1.8S334.4,53,333,53C333,53,328.9,53,328.9,53z"/>
<path class="st2" d="M361.2,45.2c0-0.4,0.1-0.7,0.3-0.9c0.2-0.2,0.5-0.3,0.5-0.3h26.3c0.8,0,1,0.1,1.3,0.3c0.2,0.2,0.3,0.5,0.3,0.9
	v6.5c0,0.3-0.1,0.5-0.3,0.8c-0.2,0.3-0.5,0.4-1,0.4H371v7h13.7c0.3,0,0.6,0.1,0.9,0.2s0.3,0.4,0.3,0.8v4.9c0,0.2-0.1,0.5-0.3,0.7
	s-0.5,0.3-0.9,0.3H371V74h17.8c0.8,0,1.2,0.4,1.2,1.2v6.6c0,0.2-0.1,0.3-0.2,0.5c-0.1,0.5-0.5,0.7-1.4,0.7H362c0,0-0.2-0.1-0.5-0.3
	s-0.3-0.4-0.3-0.8L361.2,45.2L361.2,45.2z"/>
<path class="st2" d="M397,45.2c0-0.4,0.1-0.7,0.3-0.9s0.5-0.3,0.9-0.3h16.7c1.2,0,2.3,0.2,3.4,0.5c1,0.3,2,0.8,2.9,1.4
	c0.9,0.6,1.7,1.3,2.4,2.1c0.7,0.8,1.3,1.7,1.8,2.7s0.9,1.9,1.2,3c0.3,1,0.4,2.1,0.4,3.2c0,1.5-0.3,2.6-0.8,4.1
	c-0.5,1.5-1.4,2.8-2.4,4c-1,1.2-2.3,2.1-3.8,2.8c-1.5,0.7-3.1,1.1-4.9,1.1h-8.3v13c0,0.8-0.4,1.1-1.2,1.1h-7.4
	c-0.3,0-0.6-0.1-0.8-0.3s-0.3-0.4-0.3-0.8L397,45.2L397,45.2z M416.7,56.7c0-0.5-0.1-1.5-0.3-2s-0.4-1-0.8-1.4
	c-0.3-0.4-0.8-0.8-1.3-1c-0.5-0.3-1-0.4-1.7-0.4h-5.8v9.2h5.8c0.6,0,1.2-0.1,1.7-0.4s0.9-0.6,1.3-1s0.6-0.9,0.8-1.4
	C416.6,57.8,416.7,57.3,416.7,56.7z"/>
<path class="st2" d="M432,63.1c0-1.9,0.2-3.6,0.7-5.3c0.5-1.7,1.1-3.3,2-4.8c0.9-1.5,1.9-2.9,3.1-4.1s2.5-2.3,4-3.1s3.1-1.5,4.8-2
	s3.5-0.7,5.3-0.7c1.8,0,3.6,0.2,5.3,0.7c1.7,0.5,3.3,1.2,4.8,2s2.8,1.9,4.1,3.1c1.2,1.2,2.2,2.6,3.1,4.1s1.5,3.1,2,4.8
	c0.5,1.7,0.7,3.5,0.7,5.3c0,1.9-0.2,3.6-0.7,5.3c-0.5,1.7-1.1,3.3-2,4.7c-0.9,1.5-1.9,2.8-3.1,4s-2.6,2.3-4.1,3.1
	c-1.5,0.9-3.1,1.5-4.8,2S453.8,83,452,83c-1.9,0-3.6-0.2-5.3-0.7c-1.7-0.5-3.3-1.2-4.8-2s-2.8-1.9-4-3.1s-2.2-2.5-3.1-4
	s-1.5-3-2-4.7C432.2,66.7,432,64.9,432,63.1z M442,63c0,1.5,0.2,3,0.7,4.3c0.5,1.3,1.2,2.5,2.1,3.5c0.9,1,2,1.8,3.2,2.3
	c1.2,0.6,2.6,0.8,4,0.8c1.5,0,2.8-0.3,4-0.8c1.2-0.6,2.3-1.3,3.2-2.3c0.9-1,1.6-2.2,2.1-3.5s0.7-2.8,0.7-4.3c0-1.5-0.2-2.9-0.7-4.3
	c-0.5-1.3-1.2-2.5-2.1-3.5c-0.9-1-2-1.8-3.2-2.3c-1.2-0.6-2.6-0.9-4-0.9s-2.8,0.3-4,0.9c-1.2,0.6-2.3,1.3-3.2,2.3
	c-0.9,1-1.6,2.2-2.1,3.5C442.3,60.1,442,61.5,442,63z"/>
<path class="st2" d="M479,45.2c0-0.4,0.1-0.7,0.3-0.9c0.2-0.2,0.5-0.3,0.9-0.3H497c1.8,0,3.5,0.3,5.1,1c1.5,0.7,2.9,1.6,4.1,2.8
	s2.1,2.5,2.8,4s1,3.2,1,4.9c0,1.2-0.2,2.3-0.5,3.4s-0.8,2.1-1.3,3c-0.5,0.9-1.3,1.8-2,2.5s-1.7,1.4-2.6,1.9l6.7,12.7
	c0.1,0.2,0.3,0.6,0.5,0.9c0.2,0.3,0.3,0.6,0.3,0.9s-0.1,0.5-0.3,0.7c-0.2,0.2-0.4,0.2-0.8,0.2h-9c-0.3,0-0.5-0.1-0.8-0.3
	s-0.4-0.4-0.4-0.7l-6.3-12H489v11.8c0,0.8-0.4,1.1-1.2,1.1h-7.6c-0.3,0-0.6-0.1-0.8-0.3s-0.3-0.4-0.3-0.8L479,45.2L479,45.2z
	 M500,57c0-0.5-0.1-1.1-0.3-1.6c-0.2-0.5-0.5-1-0.9-1.5c-0.4-0.5-0.8-0.9-1.4-1.2s-1.1-0.5-1.7-0.6c-0.5-0.1-1-0.1-1.5-0.1
	c-0.5,0-0.9-0.1-1.5-0.1H489v10h5.1c0.4,0,0.6,0,0.9,0c0.2,0,0.5-0.1,0.9-0.1c0.6-0.1,1.2-0.3,1.8-0.6s0.9-0.7,1.3-1.1
	c0.4-0.5,0.6-0.9,0.8-1.5C499.9,58.1,500,57.6,500,57z"/>
<path class="st2" d="M514.2,45.2c0-0.3,0.1-0.6,0.3-0.8c0.2-0.2,0.6-0.3,0.9-0.3h29.2c0.3,0,0.6,0.1,0.8,0.3s0.4,0.5,0.5,0.9v6.3
	c0,0.3-0.1,0.6-0.3,0.9s-0.6,0.4-1,0.4H535v29c0,0.3-0.1,0.6-0.3,0.8c-0.2,0.3-0.5,0.4-0.9,0.4h-7.3c-0.3,0-0.6-0.1-0.8-0.3
	c-0.3-0.2-0.4-0.6-0.4-0.9v-29h-9.8c-0.3,0-0.7-0.1-0.9-0.3s-0.3-0.5-0.3-1L514.2,45.2L514.2,45.2z"/>
<path class="st2" d="M552.1,45.2c0-0.4,0.1-0.7,0.3-0.9c0.2-0.2,0.5-0.3,0.8-0.3h26.5c0.4,0,0.7,0.1,0.9,0.3
	c0.2,0.2,0.3,0.5,0.3,0.9v6.5c0,0.3-0.1,0.5-0.3,0.8c-0.2,0.3-0.5,0.4-1,0.4h-17.8v7h13.8c0.3,0,0.6,0.1,0.8,0.2
	c0.2,0.2,0.3,0.4,0.3,0.8v4.9c0,0.2-0.1,0.5-0.3,0.7c-0.2,0.2-0.5,0.3-0.8,0.3h-13.9v7.1h18.5c0.8,0,1.2,0.4,1.2,1.2v6.4
	c0,0.2-0.1,0.3-0.2,0.5c-0.1,0.5-0.5,0.7-1.1,0.7h-27c-0.3,0-0.6-0.1-0.8-0.3c-0.2-0.2-0.3-0.4-0.3-0.8L552.1,45.2L552.1,45.2z"/>
<path class="st2" d="M593.1,70.6c0.3,0.2,0.7,0.6,1.2,1c0.5,0.4,1,0.8,1.6,1.2c0.9,0.6,1.8,1.1,2.7,1.4c0.9,0.3,1.8,0.5,2.8,0.5
	c0.9,0,1.7-0.1,2.3-0.3c0.6-0.2,1.1-0.4,1.5-0.8c0.3-0.3,0.6-0.7,0.8-1.2s0.2-0.9,0.2-1.4c0-0.6-0.2-1.1-0.6-1.5
	c-0.4-0.4-1-0.8-1.5-1.2c-0.6-0.3-1.2-0.6-1.9-0.8c-0.7-0.2-1.2-0.4-1.7-0.6c-2.2-0.7-4-1.6-5.7-2.4c-1.6-0.8-2.9-1.8-4-2.9
	s-1.9-2.2-2.4-3.5c-0.5-1.3-0.8-2.7-0.8-4.3c0-1.6,0.3-3.2,1-4.5s1.6-2.5,2.9-3.5s2.7-1.7,4.5-2.2c1.8-0.5,3.7-0.8,5.9-0.8
	c1.6,0,3.2,0.2,4.7,0.6c1.5,0.3,2.9,1,4.4,1.7c0.6,0.3,1.2,0.7,1.8,1.1s1,0.7,1.4,1.1c0.4,0.3,0.7,0.7,1,1c0.2,0.3,0.3,0.6,0.3,0.8
	s-0.1,0.5-0.2,0.6s-0.3,0.4-0.5,0.7l-4.1,4.3c-0.3,0.3-0.6,0.5-0.9,0.5c-0.2,0-0.5-0.1-0.7-0.2c-0.2-0.2-0.5-0.3-0.7-0.5l-0.2-0.2
	c-0.3-0.3-0.7-0.6-1.2-1s-0.9-0.6-1.4-0.8c-0.5-0.3-1-0.5-1.6-0.6s-1.1-0.3-1.7-0.3s-1.1,0.1-1.6,0.2c-0.5,0.1-1,0.3-1.4,0.5
	c-0.4,0.2-0.7,0.5-1,0.8c-0.2,0.3-0.3,0.8-0.3,1.3c0,0.5,0.1,1,0.4,1.3c0.2,0.3,0.6,0.7,1.1,1s1.1,0.6,1.9,0.9
	c0.7,0.3,1.6,0.6,2.6,0.9c1.9,0.6,3.6,1.3,5.2,2c1.6,0.7,3,1.5,4.1,2.4c1.2,0.9,2.1,2,2.7,3.4c0.7,1.3,1,2.9,1,4.7
	c0,2-0.4,3.7-1.2,5.3c-0.8,1.6-1.9,2.9-3.3,4c-1.4,1.1-3,2-4.9,2.6c-1.9,0.6-4,0.9-6.1,0.9c-2,0-4.1-0.4-6-1.1
	c-2-0.7-3.8-1.7-5.5-2.9c-0.7-0.5-1.3-1-1.8-1.5c-0.5-0.5-0.9-0.9-1.2-1.2l-0.1-0.1c0-0.1-0.1-0.1-0.1-0.1s-0.1,0-0.1-0.1
	s-0.1-0.1-0.1-0.1s-0.1,0-0.1-0.1c-0.4-0.4-0.6-0.8-0.6-1.1s0.2-0.6,0.6-1l4.6-4.4c0.4-0.3,0.7-0.4,0.9-0.4c0.2,0,0.3,0.1,0.5,0.2
	C592.7,70.2,592.8,70.4,593.1,70.6z"/>
</svg>
