<svg width="400" height="46" fill="none" xmlns="http://www.w3.org/2000/svg"><path fill-rule="evenodd" clip-rule="evenodd" d="M148.417 5.792v18.333L135.5 5.792H127v33.083h8.188V19.292l14.27 19.583h7.146V5.792h-8.187zm24.5 33.729c6.187 0 10.5-3 11.708-8.354l-6.833-.646c-.792 1.833-2.25 2.625-4.563 2.625-2.562 0-4.666-1.354-4.875-4.25h16.438v-2.354c0-6.355-4.167-11.709-11.979-11.709-7.292 0-12.751 5.313-12.751 12.709 0 7.458 5.355 11.979 12.855 11.979zm-.209-18.584c2.521 0 3.896 1.771 4 3.875h-8.25c.313-2.187 1.521-3.875 4.25-3.875zm39.271 7.813h.209l4.208-13.292h7.667l-7.396 23.417h-8.354l-3.417-13.23h-.208l-3.417 13.23h-8.354l-7.396-23.417h8.458l4.209 13.292h.208l3.417-13.292h6.77l3.396 13.292zm24.563 5.458c-2.563 0-4.146-1.104-4.459-3.041l-7.395.104c.458 5.687 5.291 8.25 11.75 8.25 6.666 0 10.874-2.834 10.874-7.771 0-4.563-3.041-6.938-8.291-7.77l-4.563-.793c-.791-.104-1.416-.52-1.416-1.312 0-1.063.937-1.688 2.562-1.688 2.625 0 4.104 1.042 4.417 2.73l6.979-.209c-.458-4.875-4.458-7.875-11.229-7.875-6.563 0-10.604 3.313-10.604 7.938 0 4.77 3 6.604 8.666 7.5l3.459.52c1.625.271 2.145.896 2.145 1.792 0 .938-.999 1.625-2.895 1.625zM121.112 10.954c.278-.319.612-.703.513-1.1-3.13-.492-6.229-1.12-9.356-1.754-7.863-1.595-15.902-3.226-25.04-2.808-.307.016-.633.06-.96.105-.518.07-1.04.141-1.498.103-.612-.046-1.173-.24-1.728-.431-.447-.154-.891-.307-1.356-.382-5.458-.937-10.458.875-14.27 2.563-.287.125-.647.336-1.026.558-.694.407-1.455.853-1.954.88-.56.026-1.424-.324-2.293-.677-.519-.21-1.039-.42-1.498-.553-5.438-1.583-13.73-3.604-17.959-.312-5.333-.771-10.229.562-14.27 1.75-.23-3.188-3.209-5.084-6.667-4.104-1.341.386-2.542.983-3.773 1.595-.892.443-1.8.895-2.79 1.28-4.604 1.77-9.229 5.541-8.937 11.5.101 2.255.923 4.184 1.652 5.896.173.408.342.803.494 1.187.833 2.104 1.708 3.77 3.083 6.167-.071.134-.14.26-.208.38-.285.514-.52.937-.604 1.578-.875 6.667 8.041 6.896 12.75 4.938 4.062-1.688 8.312-4.688 11.187-6.876-2.291 9.876 13.209 10.313 17.146 5.334 5.52 4.146 17.48 3.666 23.396.208 5.458 4.396 17.583 2.73 24.937 1.021l.805-.188c3.479-.811 6.538-1.524 8.841-3.208 2.542-1.854 4.125-4.666 4.813-8.312-.47-1.26-1.229-2.214-2-3.185l-.25-.315c.416-.875.541-2.48.312-3.688 2.904-2.06 5.353-5.166 7.574-7.982.249-.316.495-.628.739-.934.055-.073.123-.152.195-.234zm-37.33-.217c.612-.562 1.3-1.192 2.135-1.3 7.206-.881 14.975.637 21.721 1.955 2.343.457 4.562.89 6.591 1.191.14.342-.148.59-.399.807a2.169 2.169 0 00-.226.214c-2.125 2.542-4.687 4.438-9.229 4.73-1.725.098-3.474-.046-5.245-.193-1.587-.131-3.193-.264-4.817-.224-.431.334-.649.882-.867 1.43-.161.406-.323.813-.571 1.132 2.582.491 4.719-.07 6.86-.632 1.765-.463 3.533-.928 5.557-.805 1.604.104 3.27.77 3.395 2.062.188 1.896-1.708 3.625-3.291 4.209-1.905.715-4.701.781-7.507.847-2.01.047-4.026.095-5.722.382-1.417.25-3.105.916-2.875 1.854.166.604 2.291.937 3.291 1.02 3.545.26 6.465-.534 9.199-1.277 1.443-.392 2.835-.77 4.239-.972 1.375-.188 3.396-.271 4.208.416-.735 4.902-4.653 5.84-9.557 7.012a84.26 84.26 0 01-.297.072c-5.5 1.333-12.313 2.937-19.083 1.541-2.625-.541-3.917-.875-3.396-4.208-4.188 2.5-11.938 6.125-19.604 4.104-3.605-.958-6.959-2.27-6.98-6.77a81.806 81.806 0 01-1.645 3.395c-.135.27-.262.586-.394.916-.338.842-.713 1.778-1.356 2.272-1.792 1.354-8.542 1.25-9.334-.834-.706-1.837.68-5.669 1.184-7.061l.045-.126c.275-.74.573-1.421.86-2.08 1.003-2.294 1.883-4.306 1.203-7.462-.66.361-1.153.994-1.65 1.632-.163.208-.326.418-.496.618-.447.518-.891 1.04-1.336 1.56-3.476 4.077-6.983 8.19-11.914 10.961l-.41.234c-2.454 1.403-5.168 2.953-8.423 2.953-1.188.021-2.396-.104-2.98-.916.077-.848.583-1.281 1.09-1.715.328-.28.657-.56.869-.952a40.948 40.948 0 01-5.02-9.437c-.112-.297-.232-.588-.352-.88-.555-1.354-1.118-2.726-.878-4.662.488-3.927 4.074-5.344 7.525-6.708.229-.09.457-.18.683-.271.61-.25 1.191-.573 1.762-.89 1.243-.693 2.438-1.358 3.78-1.173.54 1.589.154 3.19-.229 4.775-.104.43-.207.86-.292 1.288-.052.263-.106.527-.16.792-.61 2.996-1.256 6.164-.548 9.666 1.27-.562 2.02-1.646 2.77-2.875.098-.155.208-.326.326-.508.643-.993 1.51-2.332 1.633-3.388.065-.557-.064-1.114-.195-1.674-.162-.698-.325-1.401-.117-2.117.54-1.855 4.43-2.635 6.688-3.087l.499-.1c2.27-.46 4.583-.688 7.083-.418.265.034.568.119.873.205.465.13.934.262 1.273.212.403-.049.763-.398 1.134-.758.263-.255.531-.515.825-.68 2.247-1.248 5.878-.46 8.733.161.24.053.476.104.704.152 1.838.39 3.675.879 5.498 1.364l.669.178a44.307 44.307 0 01-1.503 1.884c-.561.678-1.14 1.378-1.685 2.116a47.15 47.15 0 00-2.875 4.416c2.459-2.52 5.938-5.041 9.854-7.187 4.896-2.688 11.542-6.208 18.375-3.792-.037.492-.167.884-.295 1.274a6.955 6.955 0 00-.225.789.114.114 0 01.003.039 2.113 2.113 0 01-.108.065c.052 0 .103-.014.108-.065.269-.173.546-.427.841-.698zm-1.574 2.805c.548.631 1.47.88 2.394 1.131.691.187 1.383.375 1.919.723-.722.187-1.523.294-2.323.4-1.071.144-2.14.287-3.01.62.293-.778.573-1.585.85-2.385l.17-.49zm-12.942 7.464c-.4 1.26-.809 2.552-1.1 3.827 1.946.025 3.95-.2 5.961-.427 1.37-.154 2.743-.31 4.102-.385.45-.593.679-1.405.903-2.202l.014-.048c.666.958 1.146 2.729.52 4.104-2.568-.032-4.775 1.017-6.974 2.061-2.154 1.023-4.302 2.043-6.775 2.043-2.23 0-4.146-1.291-3.084-3.791.97-2.335 2.896-4.204 4.754-6.007.977-.948 1.935-1.878 2.725-2.848-.25 1.162-.644 2.402-1.046 3.673z" fill="#000"/></svg>