<?xml version="1.0" encoding="utf-8"?>
<!-- Generator: Adobe Illustrator 17.1.0, SVG Export Plug-In . SVG Version: 6.00 Build 0)  -->
<svg version="1.2" baseProfile="tiny" id="Capa_1" xmlns="http://www.w3.org/2000/svg" xmlns:xlink="http://www.w3.org/1999/xlink"
	 x="0px" y="0px" viewBox="61.4 253.3 435.2 366.7" overflow="scroll" xml:space="preserve">
<g>
	<path fill="#3C4665" d="M468.7,254.7L70.7,409.8c-12.9,5-12.1,23.5,1.2,27.4L173,467.2l37.8,119.8c3.9,12.5,19.8,16.3,29,6.9
		l52.3-53.4l102.6,75.3c12.6,9.2,30.4,2.4,33.6-12.9l68-324.9C499.5,262.1,483.9,248.8,468.7,254.7z M418.8,326.8L233.9,490.3
		c-1.8,1.6-3,3.9-3.3,6.3l-7.1,63.3c-0.2,2.1-3.1,2.3-3.7,0.4l-29.3-94.4c-1.3-4.3,0.4-9,4.3-11.4l218.3-135.4
		C418.1,316,423.2,322.9,418.8,326.8z"/>
</g>
</svg>
