<svg xmlns="http://www.w3.org/2000/svg" viewBox="1952 -475 273 122"><defs><style>.a{fill:none;}</style></defs><g transform="translate(1952 -475)"><path d="M237.6,15.7v90.7h-1.4V15.7Z"/><path d="M50.7,44.6H42V56.2h3.3v1.3h-13V56.2h3.3V32.5H32.3V31.2H45.4v1.3H42V43.2h8.6V32.5H47.3V31.2h13v1.3H57V56.2h3.3v1.3h-13V56.2h3.3V44.6Z"/><path d="M70.3,32.5V49.4q0,4.05,1.5,5.4a5.721,5.721,0,0,0,4,1.4,8.116,8.116,0,0,0,3.5-.7,5.65,5.65,0,0,0,2.4-2.2,10.067,10.067,0,0,0,.9-5V34.5a4.95,4.95,0,0,0-.2-1.7c-.1-.2-.7-.4-1.7-.4H79V31.1h8.4v1.3H86.2a3.124,3.124,0,0,0-1.8.3c-.3.3-.4.9-.4,2V48.3a19.953,19.953,0,0,1-.5,4.5,6.138,6.138,0,0,1-2.6,3.5q-2.1,1.5-6.6,1.5a23.148,23.148,0,0,1-4.6-.5,7.761,7.761,0,0,1-3.6-1.9,6.7,6.7,0,0,1-1.8-2.8,16.7,16.7,0,0,1-.4-3.4V32.5H60.5V31.2H74v1.3Z"/><path d="M96.3,31.2l10.4,15.4V35.3a3.845,3.845,0,0,0-.4-2.3,2.7,2.7,0,0,0-1.9-.5h-1.2V31.2h8v1.3h-.9a3.54,3.54,0,0,0-1.9.4,3.381,3.381,0,0,0-.4,1.8V57.8h-1.4L91.1,34.7v19a4.034,4.034,0,0,0,.3,2c.2.3.8.5,1.8.5h1.5v1.3H86.4V56.2h1c1.1,0,1.7-.2,1.9-.5a7.751,7.751,0,0,0,.3-2.8V34.7a3.82,3.82,0,0,0-.3-1.9c-.2-.3-.7-.4-1.7-.4H86.2V31.1H96.3Z"/><path d="M133.3,48.4v5.1a14.265,14.265,0,0,1-9.9,4.3,11.119,11.119,0,0,1-8.7-3.9,14.007,14.007,0,0,1-3.5-9.6,13.279,13.279,0,0,1,3.7-9.6,11.465,11.465,0,0,1,8.5-3.9,9.872,9.872,0,0,1,6.5,2.4c.4-.5,1-1,1.6-1.8h1.3v7.8h-1.3q-2.1-7.2-8.1-7.2a5.274,5.274,0,0,0-3.2.9,4.039,4.039,0,0,0-1.5,2.7,57.751,57.751,0,0,0-.3,7.5v8.1c0,1.8.4,3.1,1.2,3.8a4.547,4.547,0,0,0,3.4,1.2,4.326,4.326,0,0,0,2.6-.6,2.748,2.748,0,0,0,1-1.6,21.614,21.614,0,0,0,.2-3.1V48.3h-3.5V47h12v1.3h-2Z"/><path d="M149.6,50.1h-8.3l-1.1,2.7a8.877,8.877,0,0,0-.7,2.3c0,.7.7,1,2,1h1.4v1.3h-8.4V56.1h.8a3.02,3.02,0,0,0,2-.5,6.063,6.063,0,0,0,1.3-2.4l9.2-22.6h1.1L158.5,56h2.7v1.3H148.3V56h3.5Zm-7.7-1.4h7.2l-3.5-9.1Z"/><path d="M170.5,44V56.1h3.4v1.3H160.8V56.1h3.3V32.5h-3.3V31.2h13.1c4.2,0,7.1.6,8.6,1.9a5.63,5.63,0,0,1,2.3,4.1,4.893,4.893,0,0,1-2.1,4,13.242,13.242,0,0,1-6.3,2.2v.1a11.933,11.933,0,0,1,4.8,2.1,6.625,6.625,0,0,1,2,2.9,14.3,14.3,0,0,1,.4,3.8c0,1.5.1,2.4.4,2.7.2.4.6.5,1.3.5a4.867,4.867,0,0,0,2.2-.6v1.5a8.679,8.679,0,0,1-4.2,1,7.544,7.544,0,0,1-4.9-1.5c-1.2-1-1.9-2.9-2-5.5-.1-2.7-.4-4.4-1-5.2S173.7,44,172,44Zm0-11.5V42.8H173c1.7,0,2.9-.3,3.6-1,.7-.6,1-2.1,1-4.3s-.3-3.5-.9-4.1a4.655,4.655,0,0,0-3.3-.9Z"/><path d="M184.7,31.2H197v1.3h-3l5.9,11.1,4.5-8.9a2.663,2.663,0,0,0,.4-.8,2.3,2.3,0,0,0,.3-.9q0-.6-1.2-.6h-1.1V31.1h6.7v1.3a3.871,3.871,0,0,0-2.2.4,5.93,5.93,0,0,0-1.3,1.8l-5.5,10.5V56h4v1.3H190V56h4V45.5l-7.5-13.1h-1.9V31.2Z"/><path d="M128.7,67.6V73H133v1.3h-4.3V86c0,1.6.5,2.3,1.4,2.3s1.5-.8,2-2.3h1.3a5.528,5.528,0,0,1-1.7,3.5c-.9.7-2.3,1-4.3,1a5.274,5.274,0,0,1-3.1-.7,2.323,2.323,0,0,1-1.2-1.6,7.865,7.865,0,0,1-.2-2.3V74.3h-2.4V73h2.4V68.6Z"/><path d="M143.3,90.8a8.759,8.759,0,0,1-6.9-2.8,9.17,9.17,0,0,1-2.6-6.4,9.407,9.407,0,0,1,2.6-6.5,9.26,9.26,0,0,1,6.9-2.8,9.038,9.038,0,0,1,6.9,2.7,8.821,8.821,0,0,1,2.6,6.5,9.231,9.231,0,0,1-2.6,6.5A8.759,8.759,0,0,1,143.3,90.8Zm0-17.3a2.969,2.969,0,0,0-1.8.5,2.3,2.3,0,0,0-.8,1.7,58.2,58.2,0,0,0-.2,5.9c0,3.1,0,5,.1,5.7a2.588,2.588,0,0,0,.9,1.7,3.011,3.011,0,0,0,2,.7,2.523,2.523,0,0,0,1.7-.6,2.949,2.949,0,0,0,.9-2.1c.1-1,.2-2.7.2-5.1,0-3.7-.1-6.1-.4-7A2.508,2.508,0,0,0,143.3,73.5Z"/><path d="M171,61V89h2.4v1.3h-2.7a20.083,20.083,0,0,0-2.5.1l-2.5.2h-.6V88H165a4.5,4.5,0,0,1-4.3,2.9,6.063,6.063,0,0,1-4.9-2.7,10.715,10.715,0,0,1-2.1-6.7,9.229,9.229,0,0,1,2.2-6.4,6.29,6.29,0,0,1,5-2.5,5.539,5.539,0,0,1,4.3,2.2V62.7h-3.5V61.4h3.1c.7,0,1.9-.1,3.5-.2S170.8,61,171,61Zm-5.9,22.6V79a6.385,6.385,0,0,0-1-4,2.751,2.751,0,0,0-2.1-1.3,1.478,1.478,0,0,0-1.3.9,9.7,9.7,0,0,0-.5,3.7v6.5a13.741,13.741,0,0,0,.3,3.6,1.176,1.176,0,0,0,1.2.9,3.291,3.291,0,0,0,2.1-1.2C164.7,87.3,165.1,85.8,165.1,83.6Z"/><path d="M184.7,80.4V76.5a4.087,4.087,0,0,0-.4-2.2c-.3-.4-.9-.6-2-.6a3.966,3.966,0,0,0-2,.4c-.5.3-.7.5-.7.8,0,.2.2.4.5.8a1.9,1.9,0,0,1,.5,1.3,2.732,2.732,0,0,1-.8,1.9,3.227,3.227,0,0,1-2.1.8,2.973,2.973,0,0,1-2-.8,2.241,2.241,0,0,1-.8-1.9c0-1.3.7-2.3,2.2-3.2a12.166,12.166,0,0,1,6.2-1.3,15.358,15.358,0,0,1,5.2.8c1.4.5,2.1,1.7,2.1,3.5v9.1c0,1.6.4,2.3,1.3,2.3a1.854,1.854,0,0,0,1-.4l.6,1a5.4,5.4,0,0,1-4.2,2.1,4.934,4.934,0,0,1-4.2-2.6,9.3,9.3,0,0,1-6.3,2.6,5.489,5.489,0,0,1-3.7-1.2,3.8,3.8,0,0,1-1.3-3C173.8,82.7,177.4,80.7,184.7,80.4Zm0,3.9V81.5a8.368,8.368,0,0,0-4,.9,2.883,2.883,0,0,0-1.1,2.7,3.334,3.334,0,0,0,.7,2.3,2.172,2.172,0,0,0,1.8.8,2.792,2.792,0,0,0,2-.8A5.559,5.559,0,0,0,184.7,84.3Z"/><path d="M192.1,72.9h10.7v1.3h-2.6l4.5,9.2,2.9-6.7a10.425,10.425,0,0,0,.5-1.7c0-.5-.6-.8-1.8-.8h-.8V72.9h6.7v1.3a4.093,4.093,0,0,0-1.9.3,3.644,3.644,0,0,0-1,1.6l-9.2,21.3a6.047,6.047,0,0,1-1.2,2.3,4.2,4.2,0,0,1-3.6,1.7,3.566,3.566,0,0,1-2.3-.8,2.463,2.463,0,0,1-.9-1.9,2.805,2.805,0,0,1,.7-1.9,2.465,2.465,0,0,1,1.7-.8,2.752,2.752,0,0,1,2.4,1.7c.2.3.4.5.6.5.5,0,1-.7,1.6-2.2l2.5-5.8-8-16.1h-1.7V72.9Z"/><rect class="a" width="273" height="122"/></g></svg>