<?xml version="1.0" encoding="utf-8"?>
<!-- Generator: Adobe Illustrator 16.0.0, SVG Export Plug-In . SVG Version: 6.00 Build 0)  -->
<!DOCTYPE svg PUBLIC "-//W3C//DTD SVG 1.1//EN" "http://www.w3.org/Graphics/SVG/1.1/DTD/svg11.dtd">
<svg version="1.1" id="Capa_1" xmlns="http://www.w3.org/2000/svg" xmlns:xlink="http://www.w3.org/1999/xlink" x="0px" y="0px"
	 width="500px" height="500px" viewBox="0 0 500 500" enable-background="new 0 0 500 500" xml:space="preserve">
<path fill="#FFFFFF" d="M250,20C123.095,20,20,123.095,20,250c0,40.791,11.187,78.859,29.844,112.09L20.371,467.305
	c-1.488,5.319,1.619,10.838,6.938,12.325c1.663,0.465,3.417,0.491,5.093,0.077l109.707-27.188C174.346,469.729,210.926,480,250,480
	c126.904,0,230-103.096,230-230C480,123.095,376.904,20,250,20z M250,40c116.096,0,210,93.905,210,210c0,116.096-93.904,210-210,210
	c-37.22,0-72.079-9.703-102.383-26.66c-2.216-1.238-4.821-1.588-7.285-0.977l-96.074,23.809l25.762-91.914
	c0.745-2.625,0.385-5.439-0.996-7.793C50.607,325.236,40,288.9,40,250C40,133.905,133.905,40,250,40z M166.426,130
	c-6.41,0-15.565,2.385-23.086,10.488c-4.517,4.867-23.34,23.207-23.34,55.449c0,33.615,23.314,62.621,26.133,66.348h0.02v0.02
	c-0.268-0.352,3.578,5.217,8.711,11.895s12.311,15.447,21.328,24.941c18.035,18.988,43.392,40.934,74.863,54.355
	c14.493,6.172,25.928,9.898,34.59,12.617c16.054,5.041,30.676,4.275,41.66,2.656c8.222-1.211,17.264-5.158,26.211-10.82
	s17.715-12.702,21.582-23.398c2.77-7.668,4.178-14.755,4.688-20.586c0.254-2.916,0.287-5.488,0.098-7.871s0.014-4.207-2.207-7.852
	c-4.656-7.645-9.928-7.844-15.43-10.566c-3.057-1.513-11.76-5.763-20.488-9.922c-8.719-4.154-16.269-7.834-20.918-9.492
	c-2.938-1.057-6.524-2.578-11.699-1.992s-10.286,4.32-13.262,8.73c-2.82,4.181-14.175,17.584-17.637,21.523
	c-0.046-0.027,0.254,0.11-1.113-0.566c-4.281-2.119-9.518-3.92-17.266-8.008s-17.441-10.123-28.047-19.473v-0.02
	c-15.786-13.897-26.844-31.346-30.332-37.207c0.235-0.28-0.028,0.059,0.469-0.43l0.02-0.02c3.565-3.512,6.725-7.706,9.395-10.781
	c3.785-4.361,5.456-8.205,7.266-11.797c3.607-7.158,1.599-15.035-0.488-19.18v-0.02c0.144,0.287-1.129-2.522-2.5-5.762
	c-1.375-3.249-3.128-7.461-5-11.953c-3.744-8.983-7.924-19.06-10.41-24.961v-0.02c-2.929-6.951-6.891-11.959-12.07-14.375
	s-9.756-1.729-9.941-1.738h-0.02C174.507,130.044,170.45,130,166.426,130z M166.426,150c3.855,0,7.656,0.047,10.84,0.195
	c3.275,0.163,3.071,0.177,2.441-0.117c-0.64-0.298,0.229-0.396,2.09,4.023c2.434,5.778,6.635,15.891,10.391,24.902
	c1.878,4.506,3.635,8.734,5.039,12.051s2.164,5.168,3.047,6.934v0.02l0.02,0.02c0.865,1.708,0.789,0.614,0.488,1.211
	c-2.11,4.188-2.396,5.217-4.531,7.676c-3.25,3.744-6.565,7.92-8.32,9.648c-1.535,1.508-4.306,3.858-6.035,8.457
	c-1.732,4.606-0.924,10.926,1.855,15.645c3.7,6.282,15.894,26.129,34.844,42.812c11.934,10.52,23.052,17.482,31.934,22.168
	s16.115,7.422,17.734,8.223c3.844,1.902,8.045,3.379,12.93,2.793s9.096-3.551,11.777-6.582l0.02-0.02
	c3.568-4.045,14.17-16.151,19.258-23.613c0.216,0.076,0.145,0.018,1.836,0.625v0.02h0.02c0.771,0.275,10.441,4.604,19.062,8.711
	s17.371,8.378,20.215,9.785c4.104,2.031,6.042,3.354,6.543,3.359c0.033,0.88,0.068,1.833-0.059,3.281
	c-0.351,4.017-1.424,9.576-3.574,15.527c-1.053,2.914-6.539,8.923-13.457,13.301s-15.339,7.471-18.457,7.93
	c-9.376,1.381-20.508,1.886-32.734-1.953c-8.477-2.661-19.047-6.105-32.734-11.934c-27.758-11.838-51.351-31.982-68.203-49.727
	c-8.426-8.872-15.178-17.131-19.98-23.379c-4.794-6.236-6.887-9.481-8.633-11.777l-0.02-0.02
	c-3.098-4.097-22.07-30.487-22.07-54.258c0-25.158,11.685-35.023,18.008-41.836C161.327,150.525,164.956,150,166.426,150z"/>
</svg>
