<svg height="64" viewBox="0 0 217 64" width="217" xmlns="http://www.w3.org/2000/svg" xmlns:xlink="http://www.w3.org/1999/xlink"><clipPath id="a"><path d="m0 63.2328h216.733v-63.2328h-216.733z"/></clipPath><g fill="#fff" fill-rule="evenodd"><path d="m0 21.6884c0-11.9782 9.70909-21.6884 21.6873-21.6884 11.9781 0 21.6895 9.7102 21.6895 21.6884 0 11.977-9.7114 21.6889-21.6895 21.6889-11.97821 0-21.6873-9.7119-21.6873-21.6889zm15.8637.0885c0 3.1681 2.568 5.735 5.7372 5.735 3.167 0 5.7356-2.5669 5.7356-5.735 0-3.1686-2.5686-5.7355-5.7356-5.7355-3.1692 0-5.7372 2.5669-5.7372 5.7355z" transform="translate(.000111 .000388)"/><path d="m0 0h11.1949v4.1003h-6.48733v1.97459h5.90213v3.57995h-5.90213v1.95246h6.55203v4.0128h-11.2596z" transform="translate(48.417904 27.206873)"/><path d="m11.1517 10.4132c-1.17136.8033-3.03745 1.627-5.22849 1.627-3.27603 0-5.92321-1.9303-5.92321-5.92213 0-3.49303 2.19104-6.11807 6.24871-6.11807 3.2539 0 5.14159 1.56163 5.14159 4.9672h-3.77537c-.04263-1.06231-.39027-1.60425-1.23557-1.60425-.95547 0-1.60591.80268-1.60591 2.60344 0 1.73545.71576 2.64607 1.99562 2.64607.99809 0 2.03936-.34708 3.27603-.95435z" transform="translate(60.45891 31.047054)"/><path d="m12.7128 6.00957c0-4.2088-2.5819-6.00957-6.29137-6.00957-3.44986 0-6.42143 1.82236-6.42143 6.00957 0 4.12193 2.64663 6.03113 6.1607 6.03113 3.62312 0 6.5521-1.9092 6.5521-6.03113zm-4.77348 0c0 1.8445-.6283 2.58241-1.56162 2.58241-1.01968 0-1.60481-.73791-1.60481-2.58241 0-1.82236.58513-2.60289 1.60481-2.60289.95491 0 1.56162.7595 1.56162 2.60289z" transform="translate(72.32715 31.0465)"/><path d="m3.68789.260732.41186 1.192948c.69418-.716323 1.953-1.45368 3.49414-1.45368 2.42851 0 3.68791 1.34518 3.68791 3.86171v7.91889h-4.51328v-6.79071c0-1.12818-.25963-1.43153-.95436-1.43153-.5425 0-1.04182.34709-1.30145.62941v7.59283h-4.51271v-11.519868z" transform="translate(86.03867 31.04661)"/><path d="m12.7128 6.00957c0-4.2088-2.5819-6.00957-6.29082-6.00957-3.44986 0-6.42198 1.82236-6.42198 6.00957 0 4.12193 2.64718 6.03113 6.1618 6.03113 3.62313 0 6.551-1.9092 6.551-6.03113zm-4.77292 0c0 1.8445-.62831 2.58241-1.56163 2.58241-1.01968 0-1.6048-.73791-1.6048-2.58241 0-1.82236.58512-2.60289 1.6048-2.60289.95491 0 1.56163.7595 1.56163 2.60289z" transform="translate(98.20933 31.0465)"/><path d="m3.68789.260732.41241 1.192948c.67204-.716323 1.71386-1.45368 3.25445-1.45368 1.34518 0 2.34216.543054 2.92835 1.49686.7595-.716324 1.9093-1.49686 3.5584-1.49686 2.0172 0 3.384 1.34518 3.384 3.75377v8.02683h-4.5116v-6.98612c0-.88903-.1528-1.19294-.7595-1.19294-.4562 0-.868.30391-1.085.47662v7.70244h-4.51329v-6.98612c0-.88903-.12954-1.21453-.75895-1.21453-.45559 0-.86745.30391-1.085.52091v7.67974h-4.51216v-11.519868z" transform="translate(111.92135 31.04661)"/></g><path d="m0 63.2328h216.733v-63.2328h-216.733z" fill="none"/><g clip-path="url(#a)" fill="#fff" fill-rule="evenodd"><path d="m5.88004 2.43018-2.01777-2.43018-3.86227 3.472 1.67068 1.97404zm-.56409 15.27362h-4.512718v-11.52041h4.512718z" transform="translate(129.71175 25.123838)"/><path d="m7.39737 11.7806h3.64523v-7.24685c0-3.21071-1.84446-4.53375-5.48917-4.53375-1.67013 0-3.55725.520357-5.031966 1.19295l.866336 2.79941c1.17191-.45559 2.387-.73847 3.71059-.73847.89015 0 1.43209.34765 1.43209 1.23668v.71632c-.41186-.04373-.80323-.06532-1.36732-.06532-3.49193 0-5.16316 1.302-5.16316 3.49359 0 2.36374 1.51845 3.40554 3.68789 3.40554 1.32415 0 2.64663-.5425 3.31922-1.4752zm-1.7133-4.5338c.36923 0 .65045.04263.84641.10795v.868c0 .54195-.54194 1.04071-1.23612 1.04071-.65156 0-1.06397-.28176-1.06397-.97594 0-.78109.60727-1.04072 1.45368-1.04072z" transform="translate(135.9821 31.046833)"/><path d="m14.0364 7.87566c0-4.55645-2.5166-7.87566-7.7672-7.87566h-6.2692v15.6207h5.51025c5.85735 0 8.52615-2.5171 8.52615-7.74504zm-9.32938 3.73164v-7.59391h1.43209c1.99562 0 2.97212 1.32359 2.97212 3.86227 0 2.51594-.9765 3.73164-2.97212 3.73164z" transform="translate(151.84221 27.206873)"/><path d="m0 11.5204h4.51271v-11.5204h-4.51271z" transform="translate(167.05014 31.307232)"/><path d="m6.7032 16.3143c3.6879 0 5.5972-1.3446 5.5972-5.6403v-10.414375h-3.66579l-.3255 1.085005c-.73791-.737362-1.86609-1.34463-3.29818-1.34463-3.16698 0-5.01093 2.25636-5.01093 6.1618 0 3.9691 2.03936 5.5756 4.77289 5.5756 1.19295 0 2.40804-.434 3.18857-1.4321v.7589c0 1.519-.5198 1.9962-2.08198 1.9962-1.19294 0-2.45232-.3028-3.49414-.5635l-.60616 3.0147c.99698.3908 2.84093.8027 4.92402.8027zm-.36868-12.865c.62941 0 1.12818.3255 1.45423.69474v3.57884c-.34709.3266-.82482.56408-1.43209.56408-1.10659 0-1.58377-.69417-1.58377-2.32057 0-1.54059.45559-2.51709 1.56163-2.51709z" transform="translate(172.60457 31.046944)"/><path d="m0 11.5204h4.51216v-11.5204h-4.51216z" transform="translate(186.31665 31.307232)"/><path d="m6.07545 6.68161v4.51269c0 .4993.17271.7158.69473.7158.32494 0 .6283-.0648.90952-.1301l.39192 2.9937c-1.06341.3471-2.01832.4993-3.12491.4993-2.40748 0-3.38398-1.302-3.38398-3.2107v-5.38069h-1.56273v-2.43018l1.67123-.73736.34709-3.51407h4.05713v3.49248h1.80076v3.18913z" transform="translate(191.56566 27.814695)"/><path d="m7.39793 11.7806h3.64417v-7.24685c0-3.21071-1.8434-4.53375-5.48867-4.53375-1.66957 0-3.55725.520357-5.031966 1.19295l.866896 2.79941c1.17135-.45559 2.387-.73847 3.71003-.73847.89015 0 1.43209.34765 1.43209 1.23668v.71632c-.41241-.04373-.80323-.06532-1.36677-.06532-3.49303 0-5.16371 1.302-5.16371 3.49359 0 2.36374 1.51845 3.40554 3.68789 3.40554 1.32415 0 2.64663-.5425 3.31922-1.4752zm-1.7133-4.5338c.36867 0 .64989.04263.84585.10795v.868c0 .54195-.54194 1.04071-1.23612 1.04071-.65156 0-1.06341-.28176-1.06341-.97594 0-.78109.60671-1.04072 1.45368-1.04072z" transform="translate(199.87582 31.046833)"/><path d="m0 15.6207h4.51271v-15.6207h-4.51271z" transform="translate(212.22046 27.206928)"/><path d="m0 3.45816h4.58634v-3.45816h-4.58634z" transform="translate(167.03076 26.806143)"/><path d="m0 3.45816h4.58579v-3.45816h-4.58579z" transform="translate(186.25742 26.806143)"/></g></svg>