<?xml version="1.0" standalone="no"?>
<!DOCTYPE svg PUBLIC "-//W3C//DTD SVG 20010904//EN"
 "http://www.w3.org/TR/2001/REC-SVG-20010904/DTD/svg10.dtd">
<svg version="1.0" xmlns="http://www.w3.org/2000/svg"
 width="1043.000000pt" height="1043.000000pt" viewBox="0 0 1043.000000 1043.000000"
 preserveAspectRatio="xMidYMid meet">
<metadata>
Created by potrace 1.11, written by Peter Selinger 2001-2013
</metadata>
<g transform="translate(0.000000,1043.000000) scale(0.100000,-0.100000)"
fill="#000000" stroke="none">
<path d="M4587 9224 c-1 -1 -83 -5 -182 -9 -99 -3 -196 -8 -215 -10 -19 -1
-84 -6 -145 -10 -60 -3 -128 -8 -150 -10 -89 -9 -141 -15 -160 -19 -11 -2 -45
-7 -75 -11 -30 -4 -63 -9 -74 -11 -10 -2 -37 -6 -60 -8 -22 -3 -54 -8 -71 -11
-49 -8 -87 -14 -130 -20 -22 -3 -51 -8 -65 -11 -38 -7 -60 -11 -115 -19 -27
-5 -52 -9 -55 -10 -3 0 -27 -5 -55 -10 -27 -4 -54 -9 -60 -11 -5 -1 -27 -4
-47 -8 -21 -3 -57 -10 -80 -15 -42 -10 -71 -16 -125 -26 -163 -32 -619 -185
-808 -270 -62 -28 -295 -142 -315 -155 -8 -5 -65 -38 -126 -74 -585 -340 -996
-858 -1130 -1425 -24 -101 -24 -100 -41 -206 -17 -108 -24 -469 -11 -605 8
-83 26 -217 33 -240 2 -8 6 -37 10 -65 3 -27 7 -61 10 -75 3 -14 7 -41 10 -60
31 -194 43 -260 74 -405 12 -55 41 -179 66 -275 54 -209 48 -186 80 -290 14
-47 30 -98 34 -115 5 -16 16 -52 26 -80 9 -27 18 -54 19 -60 2 -5 6 -17 9 -25
3 -8 27 -73 53 -145 248 -694 676 -1523 1079 -2093 49 -70 93 -131 97 -137
100 -128 152 -192 197 -245 31 -35 70 -80 86 -99 175 -204 434 -449 606 -574
191 -139 323 -219 494 -301 277 -135 527 -208 825 -242 128 -15 559 -7 589 10
3 2 29 6 56 10 59 7 103 15 127 22 10 3 30 7 45 10 93 16 601 186 738 246 38
17 361 180 383 193 10 6 46 27 82 48 36 21 74 43 85 50 40 25 290 191 295 196
3 4 28 21 55 40 59 41 254 191 305 235 20 17 50 42 67 56 40 33 162 140 238
210 98 90 394 388 485 489 47 52 90 99 95 105 23 25 185 217 246 291 86 105
448 568 523 670 107 145 117 159 225 315 155 225 470 727 515 820 4 8 12 24
19 35 160 263 452 861 621 1272 118 286 280 760 311 908 12 54 35 179 40 210
2 17 7 48 10 70 19 124 -3 374 -46 519 -102 346 -439 654 -885 809 -94 33
-299 93 -345 102 -12 3 -36 9 -54 15 -18 6 -41 12 -51 14 -10 3 -84 21 -164
41 -80 21 -149 38 -155 40 -5 1 -21 5 -35 8 -110 27 -245 59 -258 62 -9 2 -57
12 -107 24 -49 11 -101 22 -115 25 -120 22 -312 57 -344 62 -21 3 -48 8 -60
10 -11 2 -40 7 -62 10 -23 2 -53 7 -65 10 -13 2 -69 11 -124 19 -55 9 -111 17
-125 20 -77 11 -170 25 -205 29 -90 12 -272 37 -305 41 -19 3 -57 8 -85 11
-27 3 -61 7 -75 10 -14 2 -54 6 -90 10 -36 3 -76 7 -90 9 -14 2 -52 7 -85 10
-33 3 -78 8 -100 10 -45 5 -126 12 -230 20 -38 3 -95 7 -125 10 -30 2 -102 7
-160 10 -58 3 -141 8 -185 11 -79 5 -933 13 -938 8z"/>
</g>
</svg>
