<svg xmlns="http://www.w3.org/2000/svg" viewBox="0 0 214.35 69.22"><defs><style>.cls-1{fill:#f15623;}.cls-2{fill:#b5d334;}.cls-3,.cls-9{fill:#5a2f80;}.cls-4{font-size:13.67px;fill:#f05625;font-family:DINOT-BoldItalic, DIN OT;font-style:italic;}.cls-4,.cls-9{font-weight:700;}.cls-5{letter-spacing:-0.01em;}.cls-6{letter-spacing:-0.02em;}.cls-7{letter-spacing:0.01em;}.cls-8{letter-spacing:-0.01em;}.cls-9{font-size:11.62px;font-family:DINOT-Bold, DIN OT;}</style></defs><g id="logo"><path class="cls-1" d="M22.66,44.12h16A6.08,6.08,0,0,0,44.71,38v-16Z" transform="translate(-0.6 1.27)"/><path class="cls-1" d="M6.68,0A6.09,6.09,0,0,0,.6,6.09v16L22.66,0Z" transform="translate(-0.6 1.27)"/><polyline class="cls-2" points="22.06 23.34 0 45.4 6.08 45.4 7.25 45.4 22.06 45.4 22.06 23.34"/><polyline class="cls-3" points="22.06 23.34 44.12 1.28 44.12 1.27 38.03 1.27 36.87 1.27 22.06 1.28 22.06 23.34"/><path class="cls-3" d="M53.13,22l4.29,2.33h.08a6.84,6.84,0,0,1,5.57-2.61,7.27,7.27,0,0,1,4.86,1.93,7.65,7.65,0,0,1,2.28,5.75V44.11H65.92V31a4.83,4.83,0,0,0-1.2-3.54,4,4,0,0,0-3-1.24,4,4,0,0,0-3,1.24A4.8,4.8,0,0,0,57.42,31V44.11H53.13Z" transform="translate(-0.6 1.27)"/><path class="cls-3" d="M91.38,31.09a9.21,9.21,0,0,0-2.62-6.85,8.76,8.76,0,0,0-6.2-2.49,9,9,0,0,0-3.09.57,7.74,7.74,0,0,0-2.87,1.87,9.54,9.54,0,0,0-2,3.49,15.78,15.78,0,0,0-.81,5.45,13.94,13.94,0,0,0,.93,5.53,8.78,8.78,0,0,0,2.2,3.45,7.46,7.46,0,0,0,1.51,1,8.57,8.57,0,0,0,1.56.75,10.87,10.87,0,0,0,3.3.5A9.93,9.93,0,0,0,91,40.79l-3.12-2.74a6.33,6.33,0,0,1-4.68,2.15,4.85,4.85,0,0,1-3.63-1.41,5.26,5.26,0,0,1-1.48-4H91.38ZM78,31.09a6,6,0,0,1,1.34-3.91,4.62,4.62,0,0,1,6.36,0,5.73,5.73,0,0,1,1.34,3.91Z" transform="translate(-0.6 1.27)"/><path class="cls-3" d="M117.61,15.3l4.29,2.49V22H125v3.4H121.9V38.31c0,1.11.48,1.66,1.53,1.63H125v4.17h-2.24a5,5,0,0,1-3.7-1.44,5.22,5.22,0,0,1-1.48-4V25.43h-2.16V22h2.16Z" transform="translate(-0.6 1.27)"/><path class="cls-3" d="M132.86,34.74a5.26,5.26,0,0,0,1.49,4A4.84,4.84,0,0,0,138,40.2a6.36,6.36,0,0,0,4.68-2.15l3.11,2.74a9.9,9.9,0,0,1-7.7,3.57,10.82,10.82,0,0,1-3.3-.5,8.35,8.35,0,0,1-1.57-.75,7.4,7.4,0,0,1-1.5-1,8.67,8.67,0,0,1-2.2-3.45,13.76,13.76,0,0,1-.93-5.53,15.8,15.8,0,0,1,.8-5.45,9.55,9.55,0,0,1,2.06-3.49,7.66,7.66,0,0,1,2.87-1.87,9,9,0,0,1,3.08-.57,8.77,8.77,0,0,1,6.21,2.49,9.24,9.24,0,0,1,2.61,6.85v3.65Zm9-3.65a5.78,5.78,0,0,0-1.34-3.91,4.29,4.29,0,0,0-3.19-1.27,4.25,4.25,0,0,0-3.17,1.27,6,6,0,0,0-1.35,3.91Z" transform="translate(-0.6 1.27)"/><path class="cls-3" d="M150.35,22l4.3,2.33h.09a7.05,7.05,0,0,1,10.06-.92l-3.13,3.84a4.46,4.46,0,0,0-2.83-1.11A4,4,0,0,0,156,27.28a4.43,4.43,0,0,0-1.36,3.52V44.11h-4.3Z" transform="translate(-0.6 1.27)"/><path class="cls-3" d="M166.44,22H171l5.06,15.47h.08L181.18,22h4.57l-9.21,26.66a6.38,6.38,0,0,1-2.44,3.45,7.17,7.17,0,0,1-3.59.91h-1.42V48.88h1.26a2.83,2.83,0,0,0,1.56-.47,2.55,2.55,0,0,0,1-1.45l1.18-3.71Z" transform="translate(-0.6 1.27)"/><path class="cls-3" d="M188,22h5.15l4.25,7.13L201.68,22h5.15l-7.23,10.8,7.52,11.28H202l-4.57-7.35-4.56,7.35h-5.15L195,32.83Z" transform="translate(-0.6 1.27)"/><path class="cls-3" d="M110.3,41.76a9.63,9.63,0,0,1-13.16,0c-2.08-2.18-2.61-5-2.61-8.69s.53-6.48,2.61-8.65a9.6,9.6,0,0,1,13.16,0c2.09,2.17,2.62,4.95,2.62,8.65S112.39,39.58,110.3,41.76ZM107,27a4.55,4.55,0,0,0-3.26-1.26A4.43,4.43,0,0,0,100.49,27C99.14,28.37,99,30.67,99,33.07s.17,4.69,1.52,6a4.47,4.47,0,0,0,3.22,1.3,4.58,4.58,0,0,0,3.26-1.3c1.34-1.35,1.52-3.65,1.52-6S108.31,28.37,107,27Z" transform="translate(-0.6 1.27)"/><text class="cls-4" transform="translate(1.86 66.09)">The b<tspan class="cls-5" x="32.32" y="0">l</tspan><tspan x="36.43" y="0">ood mic</tspan><tspan class="cls-6" x="82.03" y="0">r</tspan><tspan x="87.63" y="0">osampling inn</tspan><tspan class="cls-5" x="170.73" y="0">o</tspan><tspan class="cls-7" x="177.63" y="0">v</tspan><tspan class="cls-8" x="184.12" y="0">at</tspan><tspan x="195.54" y="0">or</tspan></text></g><g id="us"><path class="cls-3" d="M211,20.32a3.9,3.9,0,1,1-3.92,3.87A3.88,3.88,0,0,1,211,20.32Zm0,7.22a3.33,3.33,0,1,0-3.21-3.35A3.21,3.21,0,0,0,211,27.54Zm-1.52-5.61h1.76c1.09,0,1.6.43,1.6,1.31a1.16,1.16,0,0,1-1.2,1.23l1.3,2h-.76l-1.24-2h-.75v2h-.71Zm.71,2H211c.63,0,1.2,0,1.2-.75s-.52-.69-1-.69h-.94Z" transform="translate(-0.6 1.27)"/><text class="cls-9" transform="translate(45.62 9.95)">™</text></g></svg>