<?xml version="1.0" encoding="utf-8"?>
<!-- Generator: Adobe Illustrator 15.1.0, SVG Export Plug-In . SVG Version: 6.00 Build 0)  -->
<!DOCTYPE svg PUBLIC "-//W3C//DTD SVG 1.1//EN" "http://www.w3.org/Graphics/SVG/1.1/DTD/svg11.dtd">
<svg version="1.1" id="SvgjsSvg1059" xmlns:svgjs="http://svgjs.com/svgjs"
	 xmlns="http://www.w3.org/2000/svg" xmlns:xlink="http://www.w3.org/1999/xlink" x="0px" y="0px" width="346px" height="55px"
	 viewBox="0 0 346 55" enable-background="new 0 0 346 55" xml:space="preserve">
<title>Shape 962</title>
<desc>Created with Avocode.</desc>
<path id="SvgjsPath1061_1_" fill="#D02C2C" d="M16.082,9.219c-8.841,0-16.007,7.176-16.007,16.029c0,3.843,1.351,7.368,3.603,10.129
	c0.113,0.787,0.072,1.617-0.319,2.308C2.235,39.652,0,41.277,0,41.277s2.177,0.203,5.562-0.446c1.446-0.278,2.763-0.692,3.751-1.057
	c2.057,0.962,4.349,1.503,6.769,1.503c8.84,0,16.007-7.178,16.007-16.03S24.922,9.219,16.082,9.219z M9.328,32.581H6.095V17.914
	h3.233V32.581z M26.068,32.581H12.584v-3.235l-0.003-0.003l8.747-8.19h-8.744v-3.238h13.478v3.236v0.002l-8.745,8.19h8.751V32.581
	L26.068,32.581z"/>
<g>
	<polygon fill="#212529" points="221.811,14.188 230.716,14.188 230.716,18.188 228.93,18.188 228.93,29.378 238.863,14.158 
		246.04,14.158 246.04,18.188 243.615,18.188 243.615,32.258 246.04,32.258 246.04,36.247 236.977,36.247 236.977,32.258 
		238.85,32.258 238.85,21.274 228.914,36.247 221.811,36.247 221.811,32.258 224.092,32.258 224.092,18.188 221.811,18.188 	"/>
	<polygon fill="#212529" points="48.905,14.201 57.811,14.201 57.811,18.201 56.024,18.201 56.024,29.392 65.958,14.172 
		73.134,14.172 73.134,18.201 70.71,18.201 70.71,32.271 73.134,32.271 73.134,36.26 64.071,36.26 64.071,32.271 65.944,32.271 
		65.944,21.286 56.009,36.26 48.905,36.26 48.905,32.271 51.186,32.271 51.186,18.201 48.905,18.201 	"/>
	<polygon fill="#212529" points="92.253,14.186 101.695,14.186 101.695,18.187 99.373,18.187 99.373,32.256 101.695,32.256 
		101.695,36.245 92.253,36.245 92.253,32.256 94.548,32.256 94.548,26.612 84.614,26.612 84.614,32.256 86.937,32.256 
		86.937,36.245 77.511,36.245 77.511,32.256 79.791,32.256 79.791,18.187 77.511,18.187 77.511,14.186 86.937,14.186 86.937,18.187 
		84.614,18.187 84.614,22.77 94.548,22.77 94.548,18.187 92.253,18.187 	"/>
	<path fill="#212529" d="M288.596,32.344h2.265v-14.1h-6.041v6.913c0,1.329-0.104,2.66-0.312,3.995
		c-0.21,1.333-0.568,2.531-1.075,3.593c-0.51,1.062-1.199,1.927-2.068,2.591c-0.874,0.664-1.974,0.995-3.301,0.995h-3.921v-6.022
		h4.039v2.211c0.474-0.223,0.865-0.528,1.178-0.918c0.309-0.387,0.541-0.844,0.702-1.367c0.16-0.524,0.27-1.117,0.326-1.781
		c0.059-0.666,0.089-1.404,0.089-2.221v-7.988h-2.979v-3.972h20.495v3.972h-2.323v14.1h2.352v3.986h-9.426V32.344L288.596,32.344z"
		/>
	<path fill="#212529" d="M170.332,20.502c-0.542-0.777-1.032-1.327-1.466-1.653c-0.437-0.325-0.907-0.559-1.41-0.698
		s-1.031-0.211-1.584-0.211c-0.813,0-1.568,0.182-2.266,0.546c-0.696,0.363-1.298,0.858-1.807,1.483
		c-0.509,0.626-0.907,1.353-1.197,2.183c-0.292,0.829-0.437,1.711-0.437,2.641c0,0.941,0.142,1.825,0.428,2.657
		c0.285,0.83,0.68,1.553,1.183,2.174c0.505,0.621,1.104,1.114,1.804,1.478c0.696,0.364,1.461,0.546,2.294,0.546
		c0.581,0,1.123-0.095,1.627-0.282c0.504-0.191,0.96-0.44,1.373-0.75c0.411-0.312,0.771-0.67,1.083-1.072
		c0.309-0.402,0.55-0.82,0.726-1.257l4.677,1.312c-0.301,0.948-0.742,1.828-1.323,2.638c-0.58,0.813-1.282,1.513-2.1,2.103
		c-0.818,0.593-1.738,1.058-2.759,1.398c-1.021,0.338-2.124,0.509-3.304,0.509c-0.998,0-1.952-0.136-2.863-0.407
		c-0.91-0.271-1.759-0.655-2.549-1.149c-0.788-0.494-1.505-1.092-2.149-1.79c-0.644-0.7-1.194-1.473-1.648-2.321
		c-0.458-0.849-0.81-1.761-1.062-2.734c-0.251-0.976-0.378-1.99-0.378-3.049c0-1.581,0.278-3.064,0.829-4.444
		c0.553-1.384,1.308-2.591,2.266-3.624c0.96-1.034,2.085-1.848,3.377-2.446c1.294-0.594,2.685-0.894,4.177-0.894
		c1.19,0,2.193,0.148,3.008,0.443c0.811,0.297,1.707,0.882,2.686,1.755h3.253v4.919H170.332L170.332,20.502z"/>
	<path fill="#212529" d="M145.311,14.099h9.051v4h-1.816L146.3,31.864c-0.378,0.814-0.782,1.506-1.207,2.073
		c-0.425,0.569-0.885,1.031-1.379,1.39c-0.494,0.361-1.024,0.617-1.591,0.771c-0.568,0.155-1.169,0.231-1.81,0.231
		c-0.434,0-0.836-0.014-1.205-0.044c-0.366-0.027-0.715-0.07-1.045-0.129h-3.037v-6.024h4.488v2.503
		c0.321-0.02,0.608-0.061,0.866-0.117c0.256-0.057,0.497-0.157,0.727-0.297c0.227-0.143,0.43-0.312,0.608-0.511
		c0.18-0.198,0.346-0.433,0.501-0.705l-0.914-1.847c-0.931-1.875-1.848-3.724-2.752-5.552c-0.907-1.83-1.823-3.663-2.753-5.508
		h-1.875v-4h9.34v4h-1.816l2.979,7.334l2.818-7.334h-1.933V14.099L145.311,14.099z"/>
	<polygon fill="#212529" points="183.707,32.344 185.986,32.344 185.986,18.128 183.313,18.128 183.313,20.98 178.578,20.98 
		178.578,14.273 198.609,14.273 198.609,20.98 193.846,20.98 193.846,18.128 190.811,18.128 190.811,32.344 193.134,32.344 
		193.134,36.33 183.707,36.33 	"/>
	<path fill="#212529" d="M126.989,32.287V18.158h2.323v-3.972h-20.494v3.972h2.831l-0.029,7.989c0,0.795-0.025,1.524-0.079,2.189
		c-0.053,0.665-0.164,1.26-0.328,1.782c-0.164,0.523-0.405,0.966-0.726,1.323c-0.318,0.361-0.744,0.641-1.279,0.846h-2.411v9.021
		h4.823v-5.063h13.35v5.063h4.821v-9.021H126.989L126.989,32.287z M122.181,32.287h-7.438c0.534-0.961,0.898-2.049,1.097-3.26
		c0.198-1.213,0.297-2.492,0.297-3.842v-7.027h6.043V32.287L122.181,32.287z"/>
	<path fill="#212529" d="M218.582,18.317c-0.386-0.786-0.925-1.48-1.611-2.082c-0.688-0.602-1.506-1.079-2.456-1.434
		c-0.948-0.353-1.989-0.529-3.122-0.529h-10.167v4h2.279v14.071h-2.279v3.987h9.122v-3.987h-2.02V28.14h3.064
		c1.338,0,2.494-0.192,3.472-0.576c0.979-0.382,1.787-0.905,2.426-1.564c0.64-0.659,1.111-1.438,1.415-2.335
		c0.307-0.896,0.458-1.86,0.458-2.888C219.163,19.922,218.971,19.103,218.582,18.317z M212.947,23.498
		c-0.65,0.465-1.525,0.697-2.63,0.697h-1.99v-5.922h1.99c1.18,0,2.079,0.267,2.688,0.801c0.609,0.533,0.916,1.271,0.916,2.21
		C213.921,22.294,213.596,23.031,212.947,23.498z"/>
	<path fill="#212529" d="M269.07,32.235l-5.87-18.071h-5.824l-5.999,18.071h-1.642v3.988h8.353v-3.988h-2.325l0.987-3.173h6.77
		l0.99,3.173h-2.194v3.988h8.353v-3.988H269.07z M257.898,25.34l2.209-7.176l2.235,7.176H257.898z"/>
	<path fill="#212529" d="M344.53,32.235l-5.868-18.071h-5.825l-5.999,18.071h-1.642v3.988h8.353v-3.988h-2.325l0.987-3.173h6.771
		l0.989,3.173h-2.194v3.988h8.352v-3.988H344.53z M333.359,25.34l2.209-7.176l2.235,7.176H333.359z"/>
	<polygon fill="#212529" points="320.233,18.134 323.123,18.134 323.123,14.133 313.304,14.133 313.304,18.134 315.249,18.134 
		308.639,24.293 308.639,20.329 308.639,18.134 311.104,18.134 311.104,14.133 301.285,14.133 301.285,18.134 303.801,18.134 
		303.801,20.329 303.801,30.059 303.801,32.254 301.285,32.254 301.285,36.256 311.104,36.256 311.104,32.254 308.639,32.254 
		308.639,30.059 308.639,24.563 315.197,32.254 313.304,32.254 313.304,36.256 323.123,36.256 323.123,32.254 320.557,32.254 
		313.679,24.404 	"/>
</g>
</svg>
