<?xml version="1.0" standalone="no"?>
<!DOCTYPE svg PUBLIC "-//W3C//DTD SVG 20010904//EN"
 "http://www.w3.org/TR/2001/REC-SVG-20010904/DTD/svg10.dtd">
<svg version="1.0" xmlns="http://www.w3.org/2000/svg"
 width="260.000000pt" height="260.000000pt" viewBox="0 0 260.000000 260.000000"
 preserveAspectRatio="xMidYMid meet">
<metadata>
Created by potrace 1.11, written by Peter Selinger 2001-2013
</metadata>
<g transform="translate(0.000000,260.000000) scale(0.100000,-0.100000)"
fill="#000000" stroke="none">
<path d="M1202 2195 c-39 -43 -71 -113 -106 -228 l-27 -88 35 -64 c39 -69 43
-85 22 -85 -8 0 -27 21 -42 48 -163 279 -320 453 -371 411 -13 -11 -14 -29 -9
-111 4 -54 9 -104 11 -111 2 -6 7 -29 10 -49 13 -90 19 -122 57 -288 45 -200
49 -248 19 -286 -92 -117 -218 -212 -401 -304 -91 -46 -275 -119 -352 -140
l-48 -13 0 -443 0 -444 519 0 520 0 35 58 c59 97 105 209 122 297 2 11 5 71 6
133 3 179 42 326 106 403 23 27 79 56 127 64 22 4 49 10 60 12 11 3 169 4 350
4 323 -1 332 -1 400 22 83 28 166 69 184 90 6 9 14 30 17 49 7 43 -11 60 -98
86 -36 12 -88 32 -115 45 -26 13 -104 46 -173 72 -157 59 -232 96 -288 142
-54 44 -146 80 -319 124 l-133 34 -1 35 c-3 203 -9 376 -14 425 -6 68 -22 125
-35 125 -5 0 -15 2 -23 6 -8 3 -27 -9 -45 -31z"/>
</g>
</svg>
