<svg xmlns="http://www.w3.org/2000/svg" viewBox="0 0 559 242"><style type="text/css">  
	.st0{fill:#EB1701;}
	.st1{fill:#FFFFFF;}
	.st2{fill:none;stroke:#FFFFFF;stroke-width:0.4837;}
</style><path class="st0" d="M0 0h559v242H0V0z"/><path class="st1" d="M164.3 87.6c-3.9-10.1-17.5-13.9-31-13.9 -8.4 0-19.3 2.2-19.3 9.4 0 4.5 4.5 6.5 9.7 8.2 6.6 2.2 13.6 3.7 20.4 5.4 7.6 2 15.4 3.9 22.8 5.7 22.6 5.6 40.9 20 40.9 37.9 0 34.3-44.8 50.1-87.6 50.1s-78.2-10.1-94.8-40l57.9-7.9c7 12.5 20.8 15 38.2 15 9 0 22.2-2.6 22.2-10.5 0-7.7-15.6-10.1-23.2-12 -32.7-8.6-71-15-71-45.6 0-34 40.1-46.8 82.1-46.8 36.4 0 71 9.4 84.2 35.7L164.3 87.6z"/><path class="st1" d="M351.4 188.3h-53.5l4.8-19.8c-12.3 14.7-25.5 22.6-50.2 22.6 -19.9 0-39.7-9.3-39.7-24.6 0-6 1.5-12.2 3.1-18.1l15.4-66.2h57.2l-14.5 60.6c-0.9 3.4-1.8 6.8-1.8 10.3 0 4.8 3.3 7.9 10.3 7.9 17.5 0 23.2-17 25.3-26.4l12.3-52.4h56.2L351.4 188.3z"/><path class="st1" d="M524.8 115.8l-16.9 72.5h-56.2l14.8-63.7c0.6-2.8 1.5-5.7 1.5-8.6 0-6.2-6-8.4-13.8-8.4 -13.6 0-18.9 8.6-21 17l-15 63.7H363l24.9-105.9h51.8l-4.2 17.2c9-14.4 27.1-20.4 48.4-20.4 22.2 0 42.4 8.8 42.4 26C526.3 108.7 525.6 112.2 524.8 115.8z"/><line class="st2" x1="243.8" y1="42.6" x2="245.7" y2="48"/><line class="st2" x1="257.8" y1="42.8" x2="255.7" y2="48.1"/><line class="st2" x1="256.1" y1="42.3" x2="254.5" y2="47.8"/><line class="st2" x1="245.5" y1="42.2" x2="247.1" y2="47.8"/><line class="st2" x1="254.3" y1="41.8" x2="253.3" y2="47.5"/><line class="st2" x1="252.7" y1="41.7" x2="252.1" y2="47.4"/><line class="st2" x1="247.2" y1="41.8" x2="248.3" y2="47.5"/><line class="st2" x1="249.1" y1="41.5" x2="249.6" y2="47.4"/><line class="st2" x1="250.8" y1="41.5" x2="250.8" y2="47.3"/><path class="st1" d="M252.2 48.1c0.1 0.1 0.1 0.2 0.1 0.2 -0.1 0.7-0.9-0.1-0.9-0.1 -0.4-0.4-0.7-0.4-0.7-0.4 -0.4 0-0.6 0.4-0.6 0.4 -0.2 0.1-0.6 0.4-0.6 0.4 -0.7 0.1-0.4-0.6-0.4-0.6 -0.6 0-0.7 0.2-0.7 0.2 -0.7 0.2-0.5-0.2-0.5-0.2 -0.4 0-0.7 0.6-0.7 0.6 -0.6 0.4-0.4-0.2-0.4-0.2 -0.6 0.1-1 1-1 1 -0.5 0.9-0.6 0.1-0.6 0.1 -1 0.6-1.1 1.6-1.1 1.6 -0.5 0.9-0.7-0.2-0.7-0.2 -0.7 0.5-0.7 2-0.7 2C242.4 54 242 53 242 53c-0.7 0.9-0.5 2.3-0.5 2.3 0.2 1.1-0.6 0.4-0.6 0.4 -0.4 1.5 0.6 3.2 0.6 3.2 0.2 0.9-0.4 0.4-0.4 0.4 0.4 3.4 6.2 6.1 6.2 6.1 1.8 1 1.6 2.6 1.6 2.6V76c-1.8-0.4-1.5-3.7-1.5-3.7 0-3.7-1.5-3.2-1.5-3.2 0.7 1.5-0.1 1.3-0.1 1.3 -2.3 0.1-1.7-3.3-1.7-3.3 0.1-3.9-2.2-4.5-2.2-4.5s1.1 2.2-0.4 2.3c0 0-0.7 0.2-1.1-1.5 0 0-0.6-3.2-2.9-4.2 0 0 1.2 2.2-0.1 2 0 0-2.1 0.4-2.9-3.3 0 0-1.7 0.7-1 4 0 0 0.1 1.6-1.7-0.2 0 0-0.6 2 1 4 0 0 0.9 0.9 1.5 1.5 0 0 0.6 0.5 0.2 1 0 0-0.9 1.1-2.3-1.1 0 0-0.7 2.8 3.5 4.6 0 0 0.9 0.2 1.6 0.4 0 0 1.3 0.2 1.5 1.3 0 0 0 1.6-2.8-0.1 0 0-0.5 2.3 3.2 3.8 0 0 4.2 1.8 8.4 1.2 0 0 1.5-0.6 2.6-0.6 0 0 1.1-0.1 2.4 0.6 0 0 2.9 0.6 7-0.7 0 0 4.2-0.7 4.8-4.2 0 0-2.3 1.6-2.9 0.4 0 0-0.4-1.1 2.3-1.8 0 0 3.7 0 4.4-4.6 0 0-1.8 1.7-2.6 1.1 0 0-0.5-0.4 0.5-1.3 0 0 2.3-1.6 2.2-5.1 0 0-0.7 1-1.5 0.9 0 0-0.5 0-0.2-1.2 0 0 0.5-2-0.9-3.4 0 0-1.5 3.2-3.1 3.3 0 0-1 0.1-0.1-2 0 0-1.7 0.6-2.4 2.8 0 0-0.5 3.2-1.6 2.7 0 0-1.3-0.9-0.1-2.2 0 0-2.1 0.1-2.7 3.9 0 0 0.4 4-1.1 3.7 0 0-1.5 0.4-0.5-1.3 0 0-1.3 0.1-1.5 2.8 0 0 0.2 3.7-1.1 3.9 -1.2 0.2 0 0 0 0v-8.2c0 0 0-1.5 1.7-2.6 0 0 5.4-2.1 6.2-6 0 0-0.2 0.4-0.5 0.2 0 0-0.2-0.1 0.1-0.7 0 0 0.7-1.5 0.6-2.9 0 0-0.2 0.4-0.5 0.1 0 0-0.2-0.2-0.1-0.9 0 0 0.1-1.1-0.4-2 0 0-0.4 0.6-0.6-0.2 0 0 0.1-1.3-0.7-2.3 0 0 0 0.9-0.6 0.1 0 0-0.4-1.1-1-1.5 0 0 0.1 0.7-0.5 0.4 0 0-0.5-0.7-1.1-1.3 0 0 0.1 0.9-0.5 0.4 0 0-0.1-0.4-0.6-0.6 0 0 0.2 0.7-0.4 0.5C253.3 48.5 252.9 48 252.2 48.1z"/><path class="st1" d="M292.5 52.4h-6L283 67.3H275l3.5-14.9h-5.9l1.1-4.4h19.7L292.5 52.4z"/><path class="st1" d="M313.5 67.2h-7.9l1.8-7.7h-7.2l-1.8 7.7h-7.9l4.6-19.2h7.9l-1.7 7.1h7.1l1.7-7.1h7.9L313.5 67.2z"/><path class="st1" d="M338.9 52.2h-11.7l-0.7 3.1h9.9l-1 4.2h-9.9l-0.9 3.4h12.2l-1.1 4.4h-20.2l4.6-19.2h19.7L338.9 52.2z"/><path class="st1" d="M368.5 53.8c-0.5-1.3-2.4-1.8-4.3-1.8 -1.1 0-2.7 0.2-2.7 1.2 0 0.6 0.6 0.9 1.3 1.1 0.9 0.2 1.8 0.5 2.8 0.7s2.1 0.5 3.2 0.7c3.1 0.7 5.6 2.7 5.6 5 0 4.6-6.1 6.7-12 6.7s-10.8-1.3-13-5.4l7.9-1.1c1 1.7 2.8 2.1 5.3 2.1 1.2 0 3.1-0.4 3.1-1.5 0-1-2.2-1.3-3.2-1.6 -4.5-1.1-9.7-2.1-9.7-6.1 0-4.5 5.5-6.2 11.2-6.2 5 0 9.7 1.2 11.5 4.8L368.5 53.8z"/><path class="st1" d="M393.1 55.5c0-1.7-0.4-3.5-3.3-3.5 -2.3 0-3.3 1.3-3.9 2.6 -0.7 1.5-1.3 4.2-1.3 5.6 0 1.6 0.9 2.8 3.4 2.8 2.7 0 3.7-1.7 4.3-3.3l7.3 0.6c-1.8 4.2-5.6 7.2-12.2 7.2 -7.3 0-11.2-3.9-11.2-8.8 0-5.6 5.1-11.2 13.9-11.2 6.7 0 10.6 2.8 11 7.5L393.1 55.5z"/><path class="st1" d="M413.6 67.7c-7.5 0-12-3.7-12-8.7 0-5.9 5.4-11.5 14.4-11.5 7.2 0 11.9 3.5 11.9 8.6C427.9 61.9 422.8 67.7 413.6 67.7zM415.9 52c-2.2 0-3.3 1.1-4.2 2.4 -0.9 1.5-1.5 4.5-1.5 6.1s1.1 2.8 3.4 2.8c2.4 0 3.4-1.2 4.2-2.6 0.7-1.3 1.5-4.4 1.5-5.7C419.3 53.4 418.1 52 415.9 52z"/><path class="st1" d="M448.5 52.4h-6L439 67.3h-7.9l3.5-14.9h-5.9l1.1-4.4h19.8L448.5 52.4z"/><path class="st1" d="M469.8 52.4h-6l-3.5 14.9h-7.9l3.5-14.9h-6L451 48h19.8L469.8 52.4z"/><path class="st1" d="M475.5 67.2h-7.8l4.6-19.2h7.8L475.5 67.2z"/><path class="st1" d="M498 53.8c-0.5-1.3-2.4-1.8-4.3-1.8 -1.1 0-2.7 0.2-2.7 1.2 0 0.6 0.6 0.9 1.3 1.1 0.9 0.2 1.8 0.5 2.8 0.7s2.1 0.5 3.2 0.7c3.1 0.7 5.6 2.7 5.6 5 0 4.6-6.1 6.7-12 6.7s-10.8-1.3-13-5.4L487 61c1 1.7 2.8 2.1 5.3 2.1 1.2 0 3.1-0.4 3.1-1.5 0-1-2.2-1.3-3.2-1.6 -4.5-1.1-9.7-2.1-9.7-6.1 0-4.5 5.5-6.2 11.2-6.2 5 0 9.7 1.2 11.5 4.8L498 53.8z"/><path class="st1" d="M527.5 67.2h-7.9l1.8-7.7h-7.2l-1.8 7.7h-7.9L509 48h7.9l-1.7 7.1h7.1l1.7-7.1h7.9L527.5 67.2z"/></svg>