<?xml version="1.0" encoding="utf-8"?>
<!-- Generator: Adobe Illustrator 17.1.0, SVG Export Plug-In . SVG Version: 6.00 Build 0)  -->
<svg version="1.2" baseProfile="tiny" id="Слой_1"
	 xmlns="http://www.w3.org/2000/svg" xmlns:xlink="http://www.w3.org/1999/xlink" x="0px" y="0px" viewBox="-0.3 74.7 512.4 362.5"
	 overflow="scroll" xml:space="preserve">
<path fill="#3C4665" d="M11.1,381.3c10.5,37.1,42.4,43.9,44.6,45.2c52.6,14.3,347.6,14.4,401,0c36.6-10.6,43.3-43,44.6-45.2
	c13.9-74.1,14.8-170.7-0.6-254.8l0.6,4.2c-10.5-37.1-42.4-43.9-44.6-45.2c-51.9-14.1-347.7-14.6-401,0c-36.6,10.6-43.3,43-44.6,45.2
	C-3.8,208.6-4.5,297.9,11.1,381.3z M205,333.9V178.3l133.7,77.9L205,333.9z"/>
</svg>
