<?xml version="1.0" standalone="no"?>
<!DOCTYPE svg PUBLIC "-//W3C//DTD SVG 20010904//EN"
 "http://www.w3.org/TR/2001/REC-SVG-20010904/DTD/svg10.dtd">
<svg version="1.0" xmlns="http://www.w3.org/2000/svg"
 width="260.000000pt" height="260.000000pt" viewBox="0 0 260.000000 260.000000"
 preserveAspectRatio="xMidYMid meet">
<metadata>
Created by potrace 1.11, written by Peter Selinger 2001-2013
</metadata>
<g transform="translate(0.000000,260.000000) scale(0.100000,-0.100000)"
fill="#000000" stroke="none">
<path d="M0 1300 l0 -1300 1300 0 1300 0 0 1300 0 1300 -1300 0 -1300 0 0
-1300z m190 0 l0 -390 -55 0 -55 0 0 390 0 390 55 0 55 0 0 -390z m330 386 c0
-3 -43 -76 -95 -163 -52 -87 -95 -163 -95 -169 0 -6 43 -104 95 -219 52 -115
95 -213 95 -217 0 -13 -107 -9 -118 5 -5 6 -44 88 -86 181 -74 164 -76 172
-76 247 l0 77 78 131 77 130 63 1 c34 0 62 -2 62 -4z m1058 -383 l-3 -388 -55
0 -55 0 -3 388 -2 387 60 0 60 0 -2 -387z m327 332 l0 -50 -137 -3 -138 -3 0
56 0 56 138 -3 137 -3 0 -50z m272 -250 c62 -165 113 -308 113 -318 0 -16 -8
-18 -57 -15 l-56 3 -93 250 c-52 138 -105 281 -119 318 l-25 68 63 -3 62 -3
112 -300z m343 293 c0 -6 -44 -128 -97 -270 -67 -180 -99 -254 -105 -244 -5 9
-19 44 -32 78 l-24 63 64 170 c35 94 68 180 74 193 8 19 17 22 65 22 35 0 55
-4 55 -12z m-1860 -418 l0 -350 -50 0 -50 0 0 350 0 350 50 0 50 0 0 -350z
m298 303 l-3 -48 -122 -3 -123 -3 0 51 0 50 126 0 125 0 -3 -47z m289 -298
c79 -187 143 -343 143 -347 0 -5 -22 -8 -50 -8 -44 0 -51 3 -63 28 -8 15 -74
169 -147 342 -73 173 -134 319 -137 323 -3 4 21 7 53 5 l58 -3 143 -340z m143
68 c0 -152 -2 -274 -4 -272 -3 3 -25 53 -50 111 l-46 107 0 165 0 166 50 0 50
0 0 -277z m618 37 l53 -139 -3 -158 -3 -158 -55 0 -55 0 -3 298 c-1 163 1 297
5 297 5 0 32 -63 61 -140z m520 -157 l-3 -298 -57 -3 -58 -3 0 163 0 163 52
138 c28 75 55 137 60 137 5 0 7 -134 6 -297z m-1480 144 l42 -103 0 -172 0
-173 -47 3 -48 3 -3 273 c-1 149 1 272 5 272 5 0 27 -47 51 -103z m770 -54 l3
-53 -95 0 -96 0 0 55 0 56 93 -3 92 -3 3 -52z m-938 -43 l0 -50 -85 0 -85 0 0
50 0 50 85 0 85 0 0 -50z m78 -297 l-3 -48 -122 -3 -123 -3 0 51 0 50 126 0
125 0 -3 -47z"/>
</g>
</svg>
