<?xml version="1.0" standalone="no"?>
<!DOCTYPE svg PUBLIC "-//W3C//DTD SVG 20010904//EN"
 "http://www.w3.org/TR/2001/REC-SVG-20010904/DTD/svg10.dtd">
<svg version="1.0" xmlns="http://www.w3.org/2000/svg"
 width="500.000000pt" height="500.000000pt" viewBox="0 0 500.000000 500.000000"
 preserveAspectRatio="xMidYMid meet">
<metadata>
Created by potrace 1.11, written by Peter Selinger 2001-2013
</metadata>
<g transform="translate(0.000000,500.000000) scale(0.100000,-0.100000)"
fill="#000000" stroke="none">
<path d="M0 2500 l0 -2500 2500 0 2500 0 0 2500 0 2500 -2500 0 -2500 0 0
-2500z m2841 1910 c295 -30 580 -132 824 -294 101 -68 246 -187 304 -249 l24
-27 -25 -19 c-14 -11 -139 -115 -279 -232 -140 -116 -259 -214 -266 -216 -6
-3 -36 15 -65 39 -117 95 -270 172 -424 214 -133 36 -355 45 -489 19 -163 -30
-320 -94 -459 -187 -93 -62 -262 -240 -325 -342 -292 -472 -215 -1074 186
-1456 200 -190 428 -294 701 -319 104 -10 243 -2 338 19 196 43 389 148 531
289 l62 62 283 -231 c156 -128 284 -238 286 -246 5 -22 -222 -241 -328 -317
-108 -76 -333 -192 -461 -236 -693 -238 -1477 -47 -1991 486 -684 712 -721
1809 -86 2568 405 484 1031 738 1659 675z m1399 -1930 l0 -380 -910 0 -910 0
0 380 0 380 910 0 910 0 0 -380z"/>
</g>
</svg>
