<svg xmlns="http://www.w3.org/2000/svg" width="302" height="302" viewBox="0 0 302 302"><g fill="none"><path fill="#000" d="M302,151 C302,234.394469 234.394469,302 151,302 C67.6055312,302 0,234.394469 0,151 C0,67.6055312 67.6055312,0 151,0 C234.394469,0 302,67.6055312 302,151"/><path fill="#FFF" d="M230.808219,179.128469 L229.968281,180.780031 C212.754281,214.887156 194.506875,237.603219 161.404844,237.603219 C122.645031,237.603219 100.419719,208.332813 100.419719,157.290094 C100.419719,127.297719 108.535969,76.9769688 162.929,76.9769688 C188.495187,76.9769688 204.015156,87.9480625 229.369,123.914375 L230.341062,125.296969 L238.348781,122.753562 L232.120031,75.16025 L230.860125,74.6836562 C221.526437,71.1445937 196.531219,62.9150937 166.217969,62.9150937 C107.327969,62.9150937 62.9150938,103.491625 62.9150938,157.290094 C62.9150938,212.858094 103.420844,251.665094 161.404844,251.665094 C196.276406,251.665094 227.231406,237.579625 232.417312,233.795188 L233.200625,233.228938 L239.084906,181.322688 L230.808219,179.128469 Z"/></g></svg>
