<?xml version="1.0" standalone="no"?>
<!DOCTYPE svg PUBLIC "-//W3C//DTD SVG 20010904//EN"
 "http://www.w3.org/TR/2001/REC-SVG-20010904/DTD/svg10.dtd">
<svg version="1.0" xmlns="http://www.w3.org/2000/svg"
 width="1200.000000pt" height="1200.000000pt" viewBox="0 0 1200.000000 1200.000000"
 preserveAspectRatio="xMidYMid meet">
<metadata>
Created by potrace 1.11, written by Peter Selinger 2001-2013
</metadata>
<g transform="translate(0.000000,1200.000000) scale(0.100000,-0.100000)"
fill="#000000" stroke="none">
<path d="M676 11764 c-218 -53 -389 -225 -440 -444 -14 -58 -16 -643 -16
-5320 0 -5775 -5 -5325 60 -5457 39 -80 97 -153 159 -200 42 -33 106 -74 121
-78 3 -1 21 -8 40 -17 20 -8 65 -20 101 -27 49 -8 1428 -11 5321 -11 l5256 0
80 23 c212 62 373 232 417 442 13 61 15 740 15 5330 0 4743 -2 5266 -16 5320
-52 200 -201 362 -393 427 l-66 23 -5290 2 c-4567 1 -5298 -1 -5349 -13z"/>
</g>
</svg>
