<?xml version="1.0" encoding="utf-8"?>
<!-- Generator: Adobe Illustrator 16.0.0, SVG Export Plug-In . SVG Version: 6.00 Build 0)  -->
<!DOCTYPE svg PUBLIC "-//W3C//DTD SVG 1.1//EN" "http://www.w3.org/Graphics/SVG/1.1/DTD/svg11.dtd">
<svg version="1.1" id="Capa_1" xmlns="http://www.w3.org/2000/svg" xmlns:xlink="http://www.w3.org/1999/xlink" x="0px" y="0px"
	 width="500px" height="500px" viewBox="0 0 500 500" enable-background="new 0 0 500 500" xml:space="preserve">
<path fill="#FFFFFF" d="M187.5,41.667c-80.295,0-145.833,65.539-145.833,145.833S107.205,333.334,187.5,333.334
	c36.417,0,69.688-13.584,95.297-35.809l8.869,8.871v26.938l125.001,125l41.666-41.668l-124.999-125h-26.938l-8.871-8.869
	c22.225-25.609,35.809-58.88,35.809-95.297C333.334,107.205,267.795,41.667,187.5,41.667z M187.5,83.333
	c57.776,0,104.166,46.39,104.166,104.167S245.276,291.666,187.5,291.666S83.333,245.276,83.333,187.5S129.724,83.333,187.5,83.333z"
	/>
</svg>
