<?xml version="1.0" standalone="no"?>
<!DOCTYPE svg PUBLIC "-//W3C//DTD SVG 20010904//EN"
 "http://www.w3.org/TR/2001/REC-SVG-20010904/DTD/svg10.dtd">
<svg version="1.0" xmlns="http://www.w3.org/2000/svg"
 width="700.000000pt" height="700.000000pt" viewBox="0 0 700.000000 700.000000"
 preserveAspectRatio="xMidYMid meet">
<metadata>
Created by potrace 1.11, written by Peter Selinger 2001-2013
</metadata>
<g transform="translate(0.000000,700.000000) scale(0.100000,-0.100000)"
fill="#000000" stroke="none">
<path d="M242 6980 c-105 -38 -165 -91 -211 -190 l-26 -55 0 -3235 0 -3235 27
-57 c34 -73 98 -137 174 -174 l59 -29 3235 0 3235 0 58 28 c95 47 169 135 196
232 4 11 6 1471 6 3245 l0 3225 -33 67 c-39 77 -92 129 -172 167 l-55 26
-3220 2 c-3141 2 -3221 2 -3273 -17z"/>
</g>
</svg>
