<?xml version="1.0" encoding="utf-8"?>
<!-- Generator: Adobe Illustrator 23.0.1, SVG Export Plug-In . SVG Version: 6.00 Build 0)  -->
<svg version="1.1" id="Layer_1" xmlns="http://www.w3.org/2000/svg" xmlns:xlink="http://www.w3.org/1999/xlink" x="0px" y="0px"
	 viewBox="0 0 291.3 53.9" style="enable-background:new 0 0 291.3 53.9;" xml:space="preserve">
<g>
	<g id="TAP_Logo">
		<polygon points="13.2,5.4 13.2,1.6 1,1.6 1,5.4 5.3,5.4 5.3,52.3 9.3,52.3 9.3,5.4 		"/>
		<polygon points="27,52.3 27,1.6 23.1,1.6 23.1,24.9 18.2,24.9 18.2,1.6 14.2,1.6 14.2,52.3 18.2,52.3 18.2,28.7 23.1,28.7 
			23.1,52.3 		"/>
		<polygon points="40.6,52.3 40.6,48.5 33.8,48.5 33.8,28.8 38.7,28.8 38.7,25 33.8,25 33.8,5.3 40.6,5.3 40.6,1.6 29.9,1.6 
			29.9,52.3 		"/>
		<path d="M60.5,52.3L55.3,1.5h-4.2l-5.4,50.8h3.6l1.2-11h4.7l1,11H60.5L60.5,52.3z M54.8,37.4h-3.6l2.1-25.1L54.8,37.4L54.8,37.4z"
			/>
		<path d="M146.1,52.3l-5.1-50.8h-4.2l-5.4,50.8h3.6l1.2-11h4.7l1,11H146.1L146.1,52.3z M140.4,37.4h-3.6l2.1-25.1L140.4,37.4
			L140.4,37.4z"/>
		<polygon points="80.5,52.3 80.5,1.6 74.9,1.6 72.1,28.6 71.4,41.1 70.7,28.6 67.8,1.6 62,1.6 62,52.3 65.4,52.3 65.4,12.7 
			66.2,20 69.4,52.3 72.9,52.3 76.1,20 76.7,12.7 76.7,52.3 		"/>
		<polygon points="94.4,52.3 94.4,48.5 87.7,48.5 87.7,28.8 92.5,28.8 92.5,25 87.7,25 87.7,5.3 94.4,5.3 94.4,1.6 83.7,1.6 
			83.7,52.3 		"/>
		<path d="M109.5,52.4V50c-0.7,0-0.8-0.5-0.8-1.7V32.4c0-2.6-0.8-4.6-2.8-5.5c2.1-0.9,2.7-2.9,2.7-5.6V8.4c0-5.6-3.3-6.9-5.8-6.9H96
			v50.8h4V28.7h2.4c1.4,0,2.3,1.1,2.3,2.9v16.7c0,3.3,1,4.1,3.3,4.1H109.5L109.5,52.4z M104.5,22c0,1.8-0.9,2.9-2.3,2.9h-2.3V5.6
			h2.6c1.1,0,1.9,0.7,1.9,2.5V22L104.5,22z"/>
		<polygon points="115.4,52.3 115.4,1.6 111.4,1.6 111.4,52.3 		"/>
		<path d="M130.8,45.1v-8.4h-3.4V46c0,1.5-0.9,2.7-2.5,2.7c-1.7,0-2.6-1.2-2.6-2.7V7.8c0-1.4,0.9-2.7,2.6-2.7c1.6,0,2.5,1.3,2.5,2.7
			V17h3.4V8.5c0-4.4-2.6-7.5-6.2-7.5c-3.6,0-6.4,3.1-6.4,7.5v36.6c0,4.5,2.8,7.5,6.4,7.5C128.2,52.7,130.8,49.6,130.8,45.1
			L130.8,45.1z"/>
		<polygon points="161.3,52.3 161.3,1.6 157.5,1.6 157.5,31.4 156.3,24.5 151.3,1.6 147.4,1.6 147.4,52.3 151.2,52.3 151.2,16.2 
			152.5,22.8 158.3,52.3 		"/>
		<path d="M182.6,21.8V8.4c0-5.6-3.3-6.9-5.9-6.9h-6.6v50.8h3.9V28.7h2.7C179.3,28.8,182.6,27.4,182.6,21.8L182.6,21.8z M178.6,22.4
			c0,1.7-0.7,2.5-1.8,2.5h-2.7V5.5h2.7c1.1,0,1.8,0.7,1.8,2.5V22.4L178.6,22.4z"/>
		<path d="M198,52.4V50c-0.7,0-0.8-0.5-0.8-1.7V32.4c0-2.6-0.8-4.6-2.8-5.5c2.1-0.9,2.7-2.9,2.7-5.6V8.4c0-5.6-3.3-6.9-5.8-6.9h-6.7
			v50.8h4V28.7h2.4c1.4,0,2.3,1.1,2.3,2.9v16.7c0,3.3,1,4.1,3.3,4.1H198L198,52.4z M193,22c0,1.8-0.9,2.9-2.3,2.9h-2.3V5.6h2.6
			c1.1,0,1.9,0.7,1.9,2.5V22L193,22z"/>
		<path d="M212.6,45.1V8.5c0-4.4-3-7.5-6.6-7.5c-3.6,0-6.6,3.1-6.6,7.5v36.6c0,4.5,3,7.5,6.6,7.5C209.7,52.7,212.6,49.6,212.6,45.1
			L212.6,45.1z M208.7,45.9c0,1.5-1,2.7-2.6,2.7c-1.7,0-2.6-1.2-2.6-2.7V7.7c0-1.4,0.9-2.7,2.6-2.7c1.6,0,2.6,1.3,2.6,2.7V45.9
			L208.7,45.9z"/>
		<path d="M227.4,44.2c0-4.6-2.3-14-4.6-19.3c-2.6-5.9-4.3-11.5-4.3-16.6c0-2.4,1.1-3.5,2.8-3.5c1.4,0,2.3,1.3,2.3,3.9V15h3.8V8.5
			c0-4.5-2.3-7.5-5.9-7.5c-4.7,0-6.7,3.6-6.7,8.7c0,4.6,3,13,5,17.9c2.4,5.1,3.9,13.3,3.9,17.8c0,2.4-0.8,3.8-2.8,3.8
			c-1.5,0-2.6-1.7-2.6-3.8v-6.2h-3.8v5.9c0,4.4,2.4,7.4,6.6,7.4C223.5,52.7,227.4,51.1,227.4,44.2L227.4,44.2z"/>
		<path d="M241.8,21.8V8.4c0-5.6-3.3-6.9-5.9-6.9h-6.6v50.8h3.9V28.7h2.7C238.5,28.8,241.8,27.4,241.8,21.8L241.8,21.8z M237.8,22.4
			c0,1.7-0.7,2.5-1.8,2.5h-2.7V5.5h2.7c1.1,0,1.8,0.7,1.8,2.5V22.4L237.8,22.4z"/>
		<polygon points="254.1,52.3 254.1,48.5 247.4,48.5 247.4,28.8 252.2,28.8 252.2,25 247.4,25 247.4,5.3 254.1,5.3 254.1,1.6 
			243.4,1.6 243.4,52.3 		"/>
		<path d="M268.1,45.1v-8.4h-3.4V46c0,1.5-0.9,2.7-2.5,2.7c-1.7,0-2.6-1.2-2.6-2.7V7.8c0-1.4,0.9-2.7,2.6-2.7c1.6,0,2.5,1.3,2.5,2.7
			V17h3.4V8.5c0-4.4-2.6-7.5-6.1-7.5s-6.4,3.1-6.4,7.5v36.6c0,4.5,2.8,7.5,6.4,7.5C265.5,52.7,268.1,49.6,268.1,45.1L268.1,45.1z"/>
		<polygon points="281,5.4 281,1.6 268.8,1.6 268.8,5.4 273.1,5.4 273.1,52.3 277.1,52.3 277.1,5.4 		"/>
	</g>
</g>
</svg>
