<svg viewBox="0 0 312 106" fill="none" aria-label="CREW logo" xmlns="http://www.w3.org/2000/svg"><title>C.R.E.W.</title><g class="logo" fill="#6C95B6"><path d="M20.803 53.108c.255 1.606.56 8.388.56 11.371 0 4.564-.331 7.394-1.095 9.23-.84 1.963-2.215 2.906-4.278 2.906-1.553 0-3.819-.459-4.634-1.326-.815-.892-1.197-2.218-1.197-3.977v-59.15c0-2.015.408-3.468 1.274-4.437.84-.943 3.08-1.402 4.685-1.402 4.456 0 5.245 3.748 5.245 11.703 0 2.753-.153 9.688-.458 11.804l7.206 1.479c.305-2.065.585-10.122.585-14.89 0-6.195-1.146-10.478-3.514-13.028C23.044 1.071 18.792 0 14.106 0 4.481 0 0 4.487 0 14.1v54.815c0 4.64 1.146 8.184 3.412 10.48 2.317 2.32 5.958 3.492 10.822 3.492 4.685 0 9.904-1.045 11.967-3.263 2.393-2.601 3.565-7.063 3.565-13.64 0-3.417-.255-12.162-.79-14.763l-8.173 1.887z"/><path d="M58.31 42.63l.814-.23c4.023-1.097 6.086-3.315 7.282-5.864 1.273-2.627 1.808-6.808 1.808-14.38 0-8.363-1.375-13.972-4.201-17.108-2.445-2.728-6.162-3.926-12.07-3.926H38.55v80.006h10.033V46.173h2.877c4.303 0 5.169 2.244 5.398 14.15l.254 11.983c0 1.76.586 7.776.892 8.77h12.4c-1.68-2.166-2.75-4.155-3.489-13.537l-.203-5.38c0-5.354-.077-9.688-1.12-12.748-1.044-3.034-2.954-5.507-6.366-6.145l-.891-.178v-.459h-.026zm-7.029-2.806h-2.724V7.343h2.877c2.088 0 4.202.408 5.475 3.136 1.018 2.243 1.451 6.068 1.451 12.773-.025 13.156-1.477 16.573-7.078 16.573z"/><path d="M87.693 73.53V42.068H98.03l.79-6.374H87.693V7.47h12.884l.789-6.374H77.559v80.006h26.073l.79-7.572h-16.73z"/><path d="M146.74 1.096l-5.092 52.547H140.4l-5.169-52.547h-5.984l-5.907 52.445h-1.375l-4.838-52.445h-9.65l7.766 80.006h10.287l6.238-44.439h.331l5.729 44.44h9.396l8.326-80.007h-8.81z"/><path d="M153.737 95.294H0v10.566h153.737V95.294z"/></g><g class="tagline" fill="#6C95B6"><path d="M178.568 65.612c1.694 0 2.753-.876 2.897-2.498l-1.402-.189c-.164 1.15-.745 1.473-1.525 1.473-1.118 0-1.65-.831-1.65-2.115 0-1.284.532-2.114 1.65-2.114.78 0 1.366.358 1.525 1.472l1.402-.189c-.124-1.622-1.203-2.497-2.897-2.497-2.023 0-3.176 1.353-3.176 3.328 0 1.975 1.153 3.329 3.176 3.329z"/><path d="M183.963 65.517h1.451V59.05h-1.451v6.468z"/><path d="M189.466 65.517h1.451v-5.224h1.645v-1.244h-4.741v1.244h1.645v5.224z"/><path d="M194.962 65.517h1.451V59.05h-1.451v6.468z"/><path d="M200.683 64.333l3.225-4.398v-.886h-4.805v1.184h3.041l-3.225 4.399v.885h5.029v-1.184h-3.265z"/><path d="M206.553 65.517h4.373v-1.244h-2.922v-1.502h2.435v-1.14h-2.435v-1.338h2.823v-1.244h-4.274v6.468z"/><path d="M217.458 59.05v3.094c0 .378.015.761.035 1.15a15.554 15.554 0 00-.562-1.09l-1.789-3.155h-1.575v6.468h1.411v-3.094c0-.379-.01-.762-.035-1.15.199.413.383.761.567 1.09l1.784 3.154h1.575V59.05h-1.411z"/><path d="M224.11 65.607c1.446 0 2.416-.746 2.416-1.97 0-1.145-.806-1.573-2.023-1.901-1.138-.304-1.491-.473-1.491-.92 0-.384.298-.662.914-.662.766 0 1.168.403 1.263 1.194l1.277-.17c-.109-1.502-.989-2.218-2.549-2.218-1.322 0-2.361.671-2.361 1.955 0 1.204.815 1.657 2.177 1.99.944.234 1.327.388 1.327.836 0 .438-.324.667-.955.667-.864 0-1.302-.383-1.346-1.214l-1.367.149c.065 1.627 1.247 2.264 2.718 2.264z"/><path d="M232.405 65.517h1.451v-2.672h2.435v-1.139h-2.435v-1.413h2.822v-1.244h-4.273v6.468z"/><path d="M241.935 65.612c2.082 0 3.225-1.373 3.225-3.329 0-1.955-1.143-3.328-3.225-3.328s-3.23 1.373-3.23 3.328c0 1.956 1.148 3.329 3.23 3.329zm0-1.224c-1.138 0-1.734-.831-1.734-2.105 0-1.273.596-2.104 1.734-2.104 1.133 0 1.73.83 1.73 2.104s-.597 2.105-1.73 2.105z"/><path d="M252.992 65.517l-1.635-2.567c.85-.274 1.337-.94 1.337-1.86 0-1.38-.855-2.04-2.261-2.04h-2.778v6.467h1.451V63.09h.686l1.476 2.428h1.724zm-3.886-5.304h1.207c.627 0 .92.264.92.861 0 .627-.288.93-.929.93h-1.198v-1.79z"/><path d="M181.132 85.42l-1.635-2.568c.85-.274 1.337-.94 1.337-1.86 0-1.38-.855-2.04-2.261-2.04h-2.778v6.467h1.451v-2.428h.686l1.475 2.428h1.725zm-3.886-5.305h1.207c.626 0 .92.264.92.861 0 .627-.289.93-.93.93h-1.197v-1.79z"/><path d="M183.565 85.42h4.374v-1.245h-2.923v-1.502h2.436v-1.14h-2.436v-1.338h2.823v-1.244h-4.274v6.468z"/><path d="M192.925 85.509c1.446 0 2.415-.746 2.415-1.97 0-1.145-.805-1.573-2.023-1.901-1.138-.304-1.491-.473-1.491-.92 0-.384.298-.662.915-.662.765 0 1.168.403 1.262 1.194l1.277-.17c-.109-1.502-.989-2.218-2.549-2.218-1.322 0-2.361.671-2.361 1.955 0 1.204.815 1.657 2.177 1.99.944.234 1.327.388 1.327.836 0 .438-.323.667-.954.667-.865 0-1.302-.383-1.347-1.214l-1.367.149c.065 1.627 1.248 2.264 2.719 2.264z"/><path d="M197.893 85.42h1.447v-2.245h1.068c1.471 0 2.271-.766 2.271-2.154 0-1.353-.79-2.075-2.256-2.075h-2.53v6.473zm1.447-3.33v-1.98h.954c.626 0 .954.304.954.956 0 .662-.293 1.025-.959 1.025h-.949z"/><path d="M208.075 85.514c2.082 0 3.225-1.373 3.225-3.329 0-1.955-1.143-3.328-3.225-3.328-2.083 0-3.231 1.373-3.231 3.328 0 1.956 1.148 3.329 3.231 3.329zm0-1.224c-1.139 0-1.735-.831-1.735-2.105 0-1.273.596-2.104 1.735-2.104 1.133 0 1.729.83 1.729 2.104s-.596 2.105-1.729 2.105z"/><path d="M217.685 78.951v3.095c0 .378.015.761.035 1.15a15.535 15.535 0 00-.562-1.09l-1.789-3.155h-1.575v6.468h1.411v-3.094c0-.379-.01-.762-.034-1.15.198.413.382.761.566 1.09l1.784 3.154h1.576v-6.468h-1.412z"/><path d="M224.337 85.509c1.447 0 2.416-.746 2.416-1.97 0-1.145-.805-1.573-2.023-1.901-1.138-.304-1.491-.473-1.491-.92 0-.384.298-.662.915-.662.765 0 1.167.403 1.262 1.194l1.277-.17c-.109-1.502-.989-2.218-2.549-2.218-1.322 0-2.361.671-2.361 1.955 0 1.204.815 1.657 2.177 1.99.944.234 1.327.388 1.327.836 0 .438-.323.667-.955.667-.864 0-1.302-.383-1.346-1.214l-1.367.149c.065 1.627 1.247 2.264 2.718 2.264z"/><path d="M229.306 85.42h1.451v-6.47h-1.451v6.468z"/><path d="M237.448 81.996c.75-.189 1.103-.652 1.103-1.527 0-.946-.651-1.518-2.043-1.518h-2.857v6.468h3.116c1.297 0 2.171-.706 2.171-1.751 0-.89-.467-1.498-1.49-1.672zm-2.346-1.89h1.153c.497 0 .86.169.86.716 0 .537-.368.751-.865.751h-1.148v-1.467zm1.446 4.159h-1.446v-1.677h1.332c.73 0 1.053.249 1.053.866 0 .537-.308.811-.939.811z"/><path d="M241.431 85.42h1.451v-6.47h-1.451v6.468z"/><path d="M245.776 85.42h4.07v-1.215h-2.619v-5.254h-1.451v6.468z"/><path d="M252.246 85.42h1.451v-6.47h-1.451v6.468z"/><path d="M257.748 85.42h1.451v-5.225h1.645v-1.244h-4.741v1.244h1.645v5.224z"/><path d="M266.694 78.951l-1.213 3.005-1.213-3.005h-1.615l2.102 4.299v2.17h1.452v-2.17l2.102-4.299h-1.615z"/><path d="M279.534 84.772l-.855-.756c.328-.502.517-1.1.517-1.756 0-.294-.035-.602-.119-.916l-1.124-.134c.08.284.115.557.115.806 0 .478-.095.886-.264 1.224l-1.272-1.13c.696-.373 1.272-.865 1.277-1.661.01-.95-.74-1.587-1.928-1.587-1.118 0-1.983.617-1.983 1.617 0 .482.249.96.761 1.457-.726.354-1.273.767-1.278 1.637-.009 1.175.994 1.936 2.381 1.936.815 0 1.55-.249 2.132-.672l.83.746.81-.81zm-3.643-4.85c.393 0 .646.198.646.562 0 .418-.333.696-.78.935-.338-.313-.527-.622-.527-.906 0-.383.273-.592.661-.592zm-.025 4.443c-.75 0-1.113-.364-1.113-.831 0-.393.239-.632.696-.881l1.585 1.418a2.3 2.3 0 01-1.168.294z"/><path d="M175.795 105.321h4.373v-1.243h-2.922v-1.503h2.435v-1.139h-2.435v-1.339h2.822v-1.244h-4.273v6.468z"/><path d="M183.966 105.321h1.451v-5.224h1.645v-1.244h-4.741v1.244h1.645v5.224z"/><path d="M189.463 105.321h1.451v-2.681h2.385v2.681h1.451v-6.468h-1.451v2.543h-2.385v-2.543h-1.451v6.468z"/><path d="M197.641 105.321h1.451v-6.468h-1.451v6.468z"/><path d="M204.759 105.416c1.694 0 2.753-.876 2.897-2.498l-1.402-.189c-.164 1.149-.745 1.473-1.525 1.473-1.118 0-1.65-.831-1.65-2.115 0-1.283.532-2.114 1.65-2.114.78 0 1.366.358 1.525 1.472l1.402-.189c-.124-1.622-1.203-2.497-2.897-2.497-2.023 0-3.176 1.353-3.176 3.328 0 1.976 1.153 3.329 3.176 3.329z"/><path d="M212.5 105.411c1.446 0 2.415-.746 2.415-1.97 0-1.145-.805-1.573-2.023-1.901-1.138-.304-1.49-.473-1.49-.92 0-.384.298-.662.914-.662.765 0 1.168.403 1.262 1.194l1.277-.169c-.109-1.503-.989-2.22-2.549-2.22-1.322 0-2.36.672-2.36 1.956 0 1.204.815 1.657 2.176 1.99.944.234 1.327.388 1.327.836 0 .438-.323.667-.954.667-.865 0-1.302-.383-1.347-1.214l-1.366.149c.064 1.627 1.247 2.264 2.718 2.264z"/><path d="M220.794 105.321h1.451v-6.468h-1.451v6.468z"/><path d="M229.03 98.853v3.095c0 .378.015.761.034 1.149a15.026 15.026 0 00-.561-1.089l-1.789-3.155h-1.575v6.468h1.411v-3.094c0-.379-.01-.762-.035-1.15.199.413.383.762.567 1.09l1.784 3.154h1.575v-6.468h-1.411z"/><path d="M243.405 98.853l-.73 3.846c-.105.538-.184 1.03-.249 1.548a26.777 26.777 0 00-.278-1.548l-.825-3.846h-1.62l-.815 3.846a24.438 24.438 0 00-.283 1.553 28.262 28.262 0 00-.244-1.553l-.73-3.846h-1.526l1.476 6.468h2.042l.716-3.607c.07-.353.124-.667.174-.98.05.313.104.637.174.975l.716 3.612h2.052l1.486-6.468h-1.536z"/><path d="M251.211 105.321h1.6l-2.142-6.468h-2.191l-2.137 6.468h1.595l.408-1.328h2.46l.407 1.328zm-2.544-2.383l.909-2.975.905 2.975h-1.814z"/><path d="M257.48 105.411c1.446 0 2.415-.746 2.415-1.97 0-1.145-.805-1.573-2.022-1.901-1.138-.304-1.491-.473-1.491-.92 0-.384.298-.662.914-.662.765 0 1.168.403 1.262 1.194l1.277-.169c-.109-1.503-.988-2.22-2.549-2.22-1.322 0-2.36.672-2.36 1.956 0 1.204.815 1.657 2.176 1.99.944.234 1.327.388 1.327.836 0 .438-.323.667-.954.667-.865 0-1.302-.383-1.347-1.214l-1.366.149c.064 1.627 1.247 2.264 2.718 2.264z"/><path d="M262.449 105.321h1.451v-2.681h2.385v2.681h1.451v-6.468h-1.451v2.543H263.9v-2.543h-1.451v6.468z"/><path d="M270.627 105.321h1.451v-6.468h-1.451v6.468z"/><path d="M278.863 98.853v3.095c0 .378.015.761.035 1.149a15.42 15.42 0 00-.562-1.089l-1.789-3.155h-1.575v6.468h1.411v-3.094c0-.379-.01-.762-.035-1.15.199.413.383.762.567 1.09l1.784 3.154h1.575v-6.468h-1.411z"/><path d="M285.853 101.873v1.065h1.615c-.134.876-.711 1.264-1.481 1.264-1.138 0-1.734-.836-1.734-2.14 0-1.343.616-2.08 1.67-2.08.79 0 1.307.369 1.461 1.329l1.436-.239c-.244-1.582-1.277-2.313-2.853-2.313-1.992 0-3.2 1.313-3.2 3.328 0 1.981 1.158 3.329 2.937 3.329 1.014 0 1.734-.418 2.042-1.214l.035 1.119h1.064v-3.448h-2.992z"/><path d="M292.768 105.321h1.451v-5.224h1.645v-1.244h-4.741v1.244h1.645v5.224z"/><path d="M300.82 105.416c2.083 0 3.226-1.373 3.226-3.329 0-1.955-1.143-3.328-3.226-3.328-2.082 0-3.23 1.373-3.23 3.328 0 1.956 1.148 3.329 3.23 3.329zm0-1.224c-1.138 0-1.734-.831-1.734-2.105 0-1.273.596-2.104 1.734-2.104 1.133 0 1.73.831 1.73 2.104 0 1.274-.597 2.105-1.73 2.105z"/><path d="M310.431 98.853v3.095c0 .378.015.761.035 1.149a15.42 15.42 0 00-.562-1.089l-1.789-3.155h-1.575v6.468h1.411v-3.094c0-.379-.01-.762-.035-1.15.199.413.383.762.567 1.09l1.784 3.154h1.575v-6.468h-1.411z"/></g></svg>