<svg aria-label="CREW logo" xmlns="http://www.w3.org/2000/svg" viewBox="0 0 155.6 105.9"><style>.st0{fill:#012d55}</style><path class="st0" d="M20.8 53.1c.3 1.6.6 8.4.6 11.4 0 4.6-.3 7.4-1.1 9.2-.8 2-2.2 2.9-4.3 2.9-1.6 0-3.8-.5-4.6-1.3-.8-.9-1.2-2.2-1.2-4V12.2c0-2 .4-3.5 1.3-4.4.8-.9 3.1-1.4 4.7-1.4 4.5 0 5.2 3.7 5.2 11.7 0 2.8-.2 9.7-.5 11.8l7.2 1.5c.3-2.1.6-10.1.6-14.9 0-6.2-1.1-10.5-3.5-13C23 1.1 18.8 0 14.1 0 4.5 0 0 4.5 0 14.1v54.8c0 4.6 1.1 8.2 3.4 10.5 2.3 2.3 6 3.5 10.8 3.5 4.7 0 9.9-1 12-3.3 2.4-2.6 3.6-7.1 3.6-13.6 0-3.4-.3-12.2-.8-14.8l-8.2 1.9z"/><path class="st0" d="M58.3 42.6l.8-.2c4-1.1 6.1-3.3 7.3-5.9 1.3-2.6 1.8-6.8 1.8-14.4 0-8.4-1.4-14-4.2-17.1-2.4-2.7-6.2-3.9-12.1-3.9H38.6v80h10V46.2h2.9c4.3 0 5.2 2.2 5.4 14.2l.3 12c0 1.8.6 7.8.9 8.8h12.4C68.8 79 67.8 77 67 67.7l-.2-5.4c0-5.4-.1-9.7-1.1-12.7s-3-5.5-6.4-6.1l-.9-.2-.1-.7zm-7-2.8h-2.7V7.3h2.9c2.1 0 4.2.4 5.5 3.1 1 2.2 1.5 6.1 1.5 12.8-.2 13.2-1.6 16.6-7.2 16.6z"/><path class="st0" d="M87.7 73.5V42.1H98l.8-6.4H87.7V7.5h12.9l.8-6.4H77.6v80h26.1l.8-7.6H87.7z"/><path class="st0" d="M146.7 1.1l-5.1 52.5h-1.2l-5.2-52.5h-6l-5.9 52.4H122l-4.8-52.4h-9.7l7.8 80h10.3l6.2-44.4h.3l5.7 44.4h9.4l8.3-80h-8.8z"/><path class="st0" d="M153.7 95.3H0v10.6h153.7V95.3z"/></svg>