<svg width="213" height="64" viewBox="0 0 213 64" version="1.1" xmlns="http://www.w3.org/2000/svg"><title>Google Play</title><g id="Download-Buttons" stroke="none" stroke-width="1" fill="none" fill-rule="evenodd" transform="translate(-294 -170)"><g id="Google-Play" transform="translate(294 170)"><rect id="button" fill="#000" x="0" y="0" width="213" height="64" rx="10"/><path d="M70.166 22V11.336h3.01c.928 0 1.748.205 2.46.615a4.16 4.16 0 0 1 1.652 1.75c.389.757.585 1.627.59 2.608v.681c0 1.006-.194 1.887-.582 2.644a4.096 4.096 0 0 1-1.663 1.743c-.72.406-1.559.613-2.516.623h-2.951zm1.406-9.507v8.357h1.48c1.083 0 1.927-.337 2.53-1.01.603-.674.904-1.634.904-2.88v-.622c0-1.21-.284-2.152-.853-2.823-.569-.671-1.376-1.012-2.42-1.022h-1.641zm9.059 5.471c0-.776.152-1.474.458-2.094.305-.62.73-1.099 1.274-1.436.544-.337 1.166-.505 1.864-.505 1.08 0 1.952.373 2.618 1.12.667.747 1 1.741 1 2.981v.095c0 .772-.148 1.464-.443 2.077a3.365 3.365 0 0 1-1.267 1.432c-.55.342-1.18.512-1.893.512-1.075 0-1.945-.373-2.611-1.12-.667-.747-1-1.736-1-2.966v-.096zm1.362.161c0 .88.204 1.585.612 2.117.407.532.953.799 1.637.799.688 0 1.235-.27 1.64-.81.406-.54.608-1.295.608-2.267 0-.869-.206-1.573-.619-2.113-.412-.54-.96-.809-1.644-.809-.669 0-1.209.266-1.619.798-.41.533-.615 1.294-.615 2.285zm15.768 2.007l1.523-6.057h1.355L98.332 22h-1.098l-1.927-6.006L93.432 22h-1.098l-2.3-7.925h1.348l1.56 5.933 1.845-5.933h1.092l1.882 6.057zm6.737-6.057l.044.996c.605-.761 1.397-1.142 2.373-1.142 1.675 0 2.52.945 2.534 2.834V22h-1.355v-5.244c-.005-.571-.135-.994-.392-1.267-.256-.274-.655-.41-1.197-.41-.44 0-.825.117-1.157.351a2.397 2.397 0 0 0-.777.923V22h-1.355v-7.925h1.282zM114.165 22h-1.355V10.75h1.355V22zm3.009-4.036c0-.776.153-1.474.458-2.094.305-.62.73-1.099 1.274-1.436.545-.337 1.166-.505 1.864-.505 1.08 0 1.952.373 2.619 1.12.666.747 1 1.741 1 2.981v.095c0 .772-.148 1.464-.444 2.077a3.365 3.365 0 0 1-1.267 1.432c-.55.342-1.18.512-1.893.512-1.074 0-1.945-.373-2.611-1.12-.667-.747-1-1.736-1-2.966v-.096zm1.362.161c0 .88.204 1.585.612 2.117.408.532.953.799 1.637.799.688 0 1.235-.27 1.64-.81.406-.54.608-1.295.608-2.267 0-.869-.206-1.573-.619-2.113-.412-.54-.96-.809-1.644-.809-.669 0-1.208.266-1.618.798-.41.533-.616 1.294-.616 2.285zM132.18 22c-.078-.156-.141-.435-.19-.835-.63.654-1.382.981-2.256.981-.781 0-1.422-.22-1.923-.662-.5-.442-.75-1.003-.75-1.681 0-.825.313-1.466.94-1.923.628-.456 1.51-.685 2.648-.685h1.319v-.622c0-.474-.142-.851-.425-1.132-.283-.28-.7-.421-1.253-.421-.483 0-.888.122-1.215.366-.328.244-.491.54-.491.886h-1.362c0-.395.14-.777.42-1.146.282-.368.662-.66 1.143-.875a3.844 3.844 0 0 1 1.586-.322c.913 0 1.628.228 2.146.685.518.456.786 1.085.806 1.886v3.647c0 .728.092 1.306.278 1.736V22h-1.42zm-2.248-1.033c.424 0 .827-.11 1.208-.33.38-.219.657-.505.828-.856v-1.626h-1.062c-1.66 0-2.49.486-2.49 1.457 0 .425.141.757.424.996.283.24.647.36 1.092.36zm6.385-2.995c0-1.216.288-2.194.864-2.934.577-.74 1.33-1.11 2.264-1.11.927 0 1.662.318 2.204.953V10.75h1.355V22h-1.245l-.066-.85c-.542.664-1.296.996-2.263.996-.918 0-1.666-.375-2.245-1.127-.579-.752-.868-1.734-.868-2.945v-.102zm1.355.153c0 .899.186 1.602.557 2.11.37.508.884.762 1.538.762.86 0 1.487-.386 1.882-1.158V16.2c-.405-.747-1.028-1.12-1.868-1.12-.664 0-1.181.256-1.552.769-.371.512-.557 1.272-.557 2.277zm13.189-.16c0-.777.152-1.475.457-2.095.306-.62.73-1.099 1.275-1.436.544-.337 1.166-.505 1.864-.505 1.079 0 1.952.373 2.618 1.12.667.747 1 1.741 1 2.981v.095c0 .772-.148 1.464-.443 2.077a3.365 3.365 0 0 1-1.267 1.432c-.55.342-1.18.512-1.893.512-1.075 0-1.945-.373-2.612-1.12-.666-.747-1-1.736-1-2.966v-.096zm1.362.16c0 .88.204 1.585.612 2.117.407.532.953.799 1.637.799.688 0 1.235-.27 1.64-.81.405-.54.608-1.295.608-2.267 0-.869-.206-1.573-.619-2.113-.412-.54-.96-.809-1.644-.809-.67 0-1.209.266-1.619.798-.41.533-.615 1.294-.615 2.285zm10.033-4.05l.044.996c.605-.761 1.396-1.142 2.373-1.142 1.675 0 2.52.945 2.534 2.834V22h-1.355v-5.244c-.005-.571-.135-.994-.392-1.267-.256-.274-.655-.41-1.197-.41-.44 0-.825.117-1.157.351a2.397 2.397 0 0 0-.777.923V22h-1.355v-7.925h1.282z" id="Download-on" fill="#FFF"/><path d="M158.023 43.79c0 1.976-.437 3.544-1.312 4.704-.875 1.16-2.047 1.74-3.516 1.74-1.734 0-3.062-.609-3.984-1.828v6.469h-1.395V37.32h1.301l.07 1.793c.915-1.351 2.239-2.027 3.973-2.027 1.516 0 2.705.574 3.569 1.723.863 1.148 1.294 2.742 1.294 4.78v.2zm-1.406-.247c0-1.617-.332-2.895-.996-3.832-.664-.938-1.59-1.406-2.777-1.406-.86 0-1.598.207-2.215.62-.617.415-1.09 1.016-1.418 1.805v6.083c.336.726.816 1.28 1.441 1.664.625.382 1.364.574 2.215.574 1.18 0 2.1-.47 2.76-1.412.66-.942.99-2.307.99-4.096zM162.7 50h-1.406V32h1.406v18zm11.813 0c-.14-.398-.23-.988-.27-1.77a4.89 4.89 0 0 1-1.88 1.483 5.76 5.76 0 0 1-2.42.521c-1.22 0-2.206-.34-2.96-1.02-.753-.679-1.13-1.538-1.13-2.577 0-1.235.513-2.211 1.54-2.93 1.028-.719 2.46-1.078 4.296-1.078h2.542v-1.441c0-.907-.279-1.62-.837-2.14-.559-.519-1.373-.778-2.444-.778-.976 0-1.785.25-2.426.75-.64.5-.96 1.101-.96 1.804l-1.407-.011c0-1.008.469-1.881 1.406-2.62.938-.738 2.09-1.107 3.458-1.107 1.414 0 2.529.353 3.345 1.06.817.708 1.237 1.694 1.26 2.96v6c0 1.226.129 2.144.387 2.753V50h-1.5zm-4.407-1.008c.938 0 1.776-.226 2.514-.68.738-.453 1.276-1.058 1.611-1.816v-2.789h-2.507c-1.399.016-2.493.272-3.282.768-.789.496-1.183 1.177-1.183 2.045 0 .71.263 1.3.79 1.77.528.468 1.214.702 2.057.702zm13.278-1.008l3.703-10.664h1.512l-5.414 14.836-.282.657c-.695 1.539-1.77 2.308-3.222 2.308-.336 0-.696-.055-1.078-.164l-.012-1.16.726.07c.688 0 1.245-.17 1.67-.51.426-.34.787-.923 1.084-1.752l.621-1.71-4.78-12.575h1.534l3.938 10.664z" id="play" fill="#FFF"/><g id="Google_2015_logo" transform="translate(69 32)" fill="#FFF" fill-rule="nonzero"><path d="M30.438 12.407c0 3.358-2.627 5.832-5.851 5.832s-5.85-2.474-5.85-5.832c0-3.382 2.626-5.833 5.85-5.833 3.224 0 5.851 2.45 5.851 5.833zm-2.561 0c0-2.099-1.523-3.535-3.29-3.535-1.767 0-3.29 1.436-3.29 3.535 0 2.077 1.523 3.534 3.29 3.534 1.767 0 3.29-1.46 3.29-3.534zm15.183 0c0 3.358-2.627 5.832-5.85 5.832-3.225 0-5.852-2.474-5.852-5.832 0-3.38 2.627-5.833 5.851-5.833s5.851 2.45 5.851 5.833zm-2.561 0c0-2.099-1.523-3.535-3.29-3.535-1.767 0-3.29 1.436-3.29 3.535 0 2.077 1.523 3.534 3.29 3.534 1.767 0 3.29-1.46 3.29-3.534zm14.657-5.481v10.472c0 4.307-2.54 6.066-5.543 6.066-2.827 0-4.528-1.89-5.17-3.437l2.23-.928c.397.95 1.37 2.07 2.938 2.07 1.922 0 3.113-1.186 3.113-3.419v-.839h-.09c-.573.708-1.677 1.325-3.07 1.325-2.917 0-5.589-2.54-5.589-5.808 0-3.293 2.672-5.854 5.588-5.854 1.391 0 2.496.618 3.072 1.304h.09V6.93h2.431v-.003zm-2.25 5.502c0-2.054-1.37-3.556-3.114-3.556-1.767 0-3.248 1.502-3.248 3.556 0 2.032 1.48 3.513 3.248 3.513 1.743 0 3.114-1.48 3.114-3.513zM59.167.789V17.88h-2.498V.79zm9.735 13.537l1.988 1.326c-.642.949-2.188 2.584-4.86 2.584-3.313 0-5.788-2.56-5.788-5.832 0-3.469 2.496-5.833 5.501-5.833 3.027 0 4.508 2.41 4.991 3.71l.266.664-7.797 3.229c.597 1.17 1.525 1.767 2.827 1.767 1.304 0 2.209-.642 2.872-1.615zm-6.12-2.098l5.212-2.164c-.286-.729-1.149-1.236-2.164-1.236-1.302 0-3.113 1.149-3.048 3.4zM9.28 10.89V8.414h8.339c.081.431.123.941.123 1.493 0 1.857-.507 4.153-2.143 5.788-1.591 1.657-3.624 2.54-6.316 2.54-4.991 0-9.188-4.065-9.188-9.056 0-4.99 4.197-9.055 9.188-9.055 2.76 0 4.728 1.083 6.206 2.495l-1.747 1.746c-1.06-.994-2.495-1.767-4.462-1.767-3.645 0-6.495 2.937-6.495 6.582s2.85 6.582 6.495 6.582c2.364 0 3.71-.95 4.573-1.812.7-.7 1.16-1.699 1.341-3.063l-5.914.002z" id="Shape"/></g><path d="M16 49.264V14.74c0-1.204.698-2.246 1.712-2.74l19.97 19.996L17.704 52A3.046 3.046 0 0 1 16 49.264zM44.018 38.34L22.182 50.963 39.403 33.72l4.615 4.62zm6.787-8.758A3.043 3.043 0 0 1 52 32.002c0 .972-.454 1.837-1.162 2.395L46.2 37.078l-5.076-5.082 5.072-5.079 4.61 2.665zm-28.61-16.54l21.82 12.614-4.612 4.617-17.209-17.231z" id="logo" fill="#FFF" fill-rule="nonzero"/></g></g></svg>