<svg xmlns="http://www.w3.org/2000/svg" viewBox="0 0 512 512">
  <path d="M297.3 197.4c16.3 2.7 25.2 7.5 30 16.3 1.8 3.2 2.2 5.5 2.1 12.2 0 14.5-4.7 24-14.8 30.6-8.9 5.9-11.9 6.3-46.1 6.9-22 .5-31.7 1-33.2 1.8-2.6 1.4-4.7 5-5.8 9.6l-.7 3.2h42.6c40.7 0 42.6.1 42.6 1.7 0 3.5-4 16.9-6 19.9-3.8 6-2.1 5.9-64.2 6.2-52.3.3-56.8.1-56.8-1.4 0-3.3 7.1-37.8 9.1-44.1 1.4-4.8 3.2-7.8 6.2-11 8.9-9.4 16-10.9 54.8-11.8 26.3-.5 28.9-.8 30.8-2.4 2.9-2.5 2.8-6.9-.2-8.8-2.1-1.4-12.4-1.4-89.1-1.3l-86.8.3-1.9 2.3c-2.5 3-2.4 4.5.6 7.3 2.4 2.4 2.6 2.4 21.7 2.4 29.8.1 38.5 2 46 10.6 4.6 5.1 5.8 9.5 5.8 20.4-.1 15-4.9 24-15.7 29.5-11.9 6.2-13.7 6.4-67.5 6.8-26.9.4-48.8.2-48.8-.2 0-2.8 4-16 5.6-18.7 1.1-1.9 3.8-4.1 6.4-5.5 4.3-2 5.2-2.1 37.2-2.1 35.7 0 41.9-.6 44.4-4.4 2-2.9 1.2-6.7-1.9-8.3-1.5-.9-9.7-1.4-27.7-1.7l-25.5-.5-6.9-3.3c-8.2-3.9-12.1-9-13.2-17.1-.7-5.4 2.5-24.9 5.1-30.9 3.3-7.7 11.8-13.1 23.3-14.8 3.1-.5 47.2-.9 97.8-1 77.7-.1 93.5.1 100.7 1.3z"/>
  <path d="M453 252.9c-4.9 0-9-.1-9-.3 0-.2 2.5-12.6 5.5-27.8 3-15.1 5.5-27.7 5.5-28.2 0-.4-9.6-.7-21.3-.7h-21.3L371.9 222c-22.2 14.4-42.1 27.7-44.2 29.6-5.1 4.7-7.1 8.8-9.1 17.9-.9 4.1-1.6 7.7-1.6 7.9s18.9.4 42 .4c32.9 0 42 .3 42 1.2 0 .7-1.2 6.7-2.5 13.3-1.4 6.7-2.5 12.4-2.5 12.7 0 .5 8.3.8 18.4.8 16.7 0 18.5-.2 19-1.7.2-.9 1.4-6.5 2.6-12.3 1.2-5.9 2.4-11.4 2.6-12.4.5-1.4 1.8-1.6 9.4-1.6 8.5 0 9-.1 9.5-2.2 1.1-4.3 4.5-21.2 4.5-22 0-.3-4-.7-9-.7zm-43.9-13l-2.5 13h-20c-10.9 0-19.7-.2-19.5-.4.2-.2 10.3-6.1 22.4-13 12.1-6.9 22-12.6 22.1-12.6 0 0-1.1 5.9-2.5 13z"/>
</svg>
