<?xml version="1.0" encoding="utf-8"?>
<!-- Generator: Adobe Illustrator 22.0.0, SVG Export Plug-In . SVG Version: 6.00 Build 0)  -->
<svg version="1.1" id="Layer_1" xmlns="http://www.w3.org/2000/svg" xmlns:xlink="http://www.w3.org/1999/xlink" x="0px" y="0px"
	 viewBox="0 0 265 90" style="enable-background:new 0 0 265 90;" xml:space="preserve">
<style type="text/css">
	.st0{fill:#373A3B;}
	.st1{clip-path:url(#SVGID_2_);fill:#373A3B;}
	.st2{clip-path:url(#SVGID_4_);fill:#373A3B;}
	.st3{clip-path:url(#SVGID_6_);fill:#373A3B;}
	.st4{clip-path:url(#SVGID_8_);fill:#373A3B;}
	.st5{clip-path:url(#SVGID_10_);fill:#373A3B;}
	.st6{clip-path:url(#SVGID_12_);fill:#373A3B;}
	.st7{clip-path:url(#SVGID_14_);fill:#373A3B;}
	.st8{clip-path:url(#SVGID_16_);fill:#373A3B;}
	.st9{clip-path:url(#SVGID_18_);fill:#373A3B;}
	.st10{clip-path:url(#SVGID_20_);fill:#373A3B;}
	.st11{clip-path:url(#SVGID_22_);fill:url(#SVGID_23_);}
	.st12{clip-path:url(#SVGID_25_);fill:url(#SVGID_26_);}
</style>
<g>
	<rect x="113.2" y="32.7" class="st0" width="6" height="25"/>
	<g>
		<g>
			<defs>
				<rect id="SVGID_1_" x="2" y="0.8" width="261.9" height="88.8"/>
			</defs>
			<clipPath id="SVGID_2_">
				<use xlink:href="#SVGID_1_"  style="overflow:visible;"/>
			</clipPath>
			<path class="st1" d="M151,45.2c0-2.3-0.8-4.1-2.4-5.5c-1.5-1.2-3.3-1.8-5.6-1.8h-1.9v14.6h1.9c2.3,0,4.1-0.6,5.6-1.8
				C150.2,49.3,151,47.5,151,45.2 M157.1,45.2c0,3.8-1.3,6.8-4,9.2c-2.5,2.2-5.6,3.3-9.3,3.3h-8.3v-25h8.3c3.7,0,6.8,1.1,9.3,3.3
				C155.7,38.3,157.1,41.4,157.1,45.2"/>
		</g>
		<g>
			<defs>
				<rect id="SVGID_3_" x="2" y="0.8" width="261.9" height="88.8"/>
			</defs>
			<clipPath id="SVGID_4_">
				<use xlink:href="#SVGID_3_"  style="overflow:visible;"/>
			</clipPath>
			<path class="st2" d="M174.4,47.9l-1.8-5c-0.3-0.8-0.6-1.7-0.7-2.6h-0.1c-0.2,0.7-0.4,1.5-0.7,2.6l-1.8,5H174.4z M183.8,57.7h-5.9
				l-1.9-5.2h-8.2l-1.9,5.2h-5.7l9.7-25.2h4.1L183.8,57.7z"/>
		</g>
		<g>
			<defs>
				<rect id="SVGID_5_" x="2" y="0.8" width="261.9" height="88.8"/>
			</defs>
			<clipPath id="SVGID_6_">
				<use xlink:href="#SVGID_5_"  style="overflow:visible;"/>
			</clipPath>
			<path class="st3" d="M212.6,58h-3.1l-9.7-10.6c-1.3-1.4-2.9-3.3-4.6-5.5l-0.1,0.1c0.1,1.7,0.1,3.5,0.1,5.3v10.6h-6v-25h4.9
				l8.4,9.3c1.6,1.7,2.9,3.4,4,4.8h0.1c-0.1-1.5-0.1-3.1-0.1-4.6v-9.4h6L212.6,58L212.6,58z"/>
		</g>
		<g>
			<defs>
				<rect id="SVGID_7_" x="2" y="0.8" width="261.9" height="88.8"/>
			</defs>
			<clipPath id="SVGID_8_">
				<use xlink:href="#SVGID_7_"  style="overflow:visible;"/>
			</clipPath>
			<path class="st4" d="M240.3,33.6l-0.4,5.3c-1.7-1.1-3.6-1.6-5.9-1.6c-2.3,0-4.2,0.7-5.8,2.1c-1.6,1.5-2.3,3.3-2.3,5.7
				c0,2.3,0.8,4.2,2.4,5.6c1.6,1.4,3.5,2.1,5.9,2.1c2.6,0,4.6-0.5,6.1-1.5l-0.5,5.4c-1.5,0.9-3.6,1.3-6.5,1.3
				c-3.5,0-6.6-1.1-9.2-3.3c-2.9-2.5-4.3-5.7-4.3-9.7s1.4-7.3,4.3-9.8c2.6-2.2,5.7-3.3,9.2-3.3C236.3,32.1,238.6,32.6,240.3,33.6"/>
		</g>
	</g>
	<polygon class="st0" points="248.4,32.7 248.4,57.7 264,57.7 264,52.7 254.4,52.7 254.4,47.7 261.4,47.7 261.4,42.6 254.4,42.6 
		254.4,37.7 262.8,37.7 262.8,32.7 	"/>
	<polygon class="st0" points="124.6,84.4 123.1,84.4 123.1,77.6 114.6,77.6 114.7,84.4 113.2,84.4 113.2,69.6 114.6,69.6 
		114.6,76.3 123.1,76.3 123.1,69.6 124.6,69.6 	"/>
	<g>
		<g>
			<defs>
				<rect id="SVGID_9_" x="2" y="0.8" width="261.9" height="88.8"/>
			</defs>
			<clipPath id="SVGID_10_">
				<use xlink:href="#SVGID_9_"  style="overflow:visible;"/>
			</clipPath>
			<path class="st5" d="M146.9,79.2c0,1.7-0.5,3-1.6,4c-1.1,1-2.4,1.5-4.1,1.5c-1.7,0-3.1-0.5-4.1-1.5c-1.1-1-1.6-2.3-1.6-4v-9.7
				h1.6v9.6c0,1.3,0.3,2.3,1.1,3.1c0.7,0.7,1.7,1.1,3.1,1.1c1.3,0,2.3-0.3,3.1-1.1c0.7-0.7,1.1-1.7,1.1-3.1v-9.6h1.5L146.9,79.2z"/>
		</g>
		<g>
			<defs>
				<rect id="SVGID_11_" x="2" y="0.8" width="261.9" height="88.8"/>
			</defs>
			<clipPath id="SVGID_12_">
				<use xlink:href="#SVGID_11_"  style="overflow:visible;"/>
			</clipPath>
			<path class="st6" d="M169.9,84.6h-0.4l-7.3-8.3c-1-1.2-2.2-2.6-3.6-4.3h-0.1c0,0.9,0.1,2.3,0.1,4.1v8.2h-1.6V69.5h1.1l6.8,7.8
				c1.4,1.7,2.6,3,3.4,4h0.1c0-0.9-0.1-2.2-0.1-4v-7.9h1.6V84.6z"/>
		</g>
		<g>
			<defs>
				<rect id="SVGID_13_" x="2" y="0.8" width="261.9" height="88.8"/>
			</defs>
			<clipPath id="SVGID_14_">
				<use xlink:href="#SVGID_13_"  style="overflow:visible;"/>
			</clipPath>
			<path class="st7" d="M192.2,82.8c-1.4,1.1-3.1,1.6-5.4,1.7c-2.1,0-4-0.7-5.4-2.1c-1.6-1.4-2.4-3.3-2.4-5.6s0.8-4.2,2.4-5.6
				c1.5-1.3,3.3-2.1,5.4-2.1c1.9,0,3.5,0.4,4.6,1.2l-0.3,1.4c-1.2-0.7-2.6-1.2-4.1-1.2c-1.7,0-3.2,0.6-4.5,1.7
				c-1.3,1.2-1.9,2.7-1.9,4.6c0,1.9,0.7,3.4,1.9,4.6c1.2,1.1,2.7,1.7,4.5,1.7c1.6,0,2.9-0.3,3.8-1v-3.6h-3.9v-1.2h5.4V82.8z"/>
		</g>
		<g>
			<defs>
				<rect id="SVGID_15_" x="2" y="0.8" width="261.9" height="88.8"/>
			</defs>
			<clipPath id="SVGID_16_">
				<use xlink:href="#SVGID_15_"  style="overflow:visible;"/>
			</clipPath>
			<path class="st8" d="M208.7,79l-1.7-4.5c-0.3-0.8-0.6-1.6-0.8-2.3h-0.1c-0.2,0.6-0.4,1.3-0.8,2.3l-1.7,4.5H208.7z M212.5,84.5
				h-1.6l-1.7-4.1h-6.2l-1.7,4.1H200l6-15.1h0.5L212.5,84.5z"/>
		</g>
		<g>
			<defs>
				<rect id="SVGID_17_" x="2" y="0.8" width="261.9" height="88.8"/>
			</defs>
			<clipPath id="SVGID_18_">
				<use xlink:href="#SVGID_17_"  style="overflow:visible;"/>
			</clipPath>
			<path class="st9" d="M228.1,73.4c0-0.8-0.3-1.5-0.9-2c-0.6-0.5-1.2-0.7-2.1-0.7h-2.4v5.4h2.5c0.8,0,1.5-0.2,2.1-0.7
				C227.9,74.9,228.1,74.2,228.1,73.4 M232,84.2h-1.8l-4.9-6.8h-2.6v6.8h-1.6V69.4h4.2c1.2,0,2.1,0.3,3,1.1c0.9,0.7,1.3,1.7,1.3,3
				c0,0.9-0.2,1.7-0.8,2.4c-0.5,0.7-1.2,1.2-2.1,1.4L232,84.2z"/>
		</g>
		<g>
			<defs>
				<rect id="SVGID_19_" x="2" y="0.8" width="261.9" height="88.8"/>
			</defs>
			<clipPath id="SVGID_20_">
				<use xlink:href="#SVGID_19_"  style="overflow:visible;"/>
			</clipPath>
			<path class="st10" d="M250.7,69.4l-5.6,8v6.8h-1.5v-6.8l-5.6-7.9h1.7L243,74c0.6,0.8,1.1,1.6,1.5,2.2h0.1c0.5-0.7,1-1.5,1.5-2.2
				l3.2-4.5L250.7,69.4z"/>
		</g>
	</g>
	<g>
		<g>
			<defs>
				<path id="SVGID_21_" d="M2.2,34.3C2,34.5,2,34.7,2.1,34.9c12,16.3,22.3,18.8,30,15.6c-0.2,1.3-0.3,2.6-0.3,4.1
					C31.8,70,46.5,87.7,48,89.5c0.1,0,0.1,0.1,0.2,0.1l0,0c0.1,0,0.1,0,0.2-0.1c1.6-1.9,16.3-19.9,16.3-34.9c0-1.6-0.2-3-0.4-4.3
					c7.8,3.4,18.1,1,30-14.9c0.2-0.3-0.1-0.7-0.4-0.7c-9.6,1.7-19.2-2.4-29.7-6.4c-8.8-3.4-18.2-6.8-28.6-6.8
					C25.4,21.5,14.5,24.7,2.2,34.3"/>
			</defs>
			<clipPath id="SVGID_22_">
				<use xlink:href="#SVGID_21_"  style="overflow:visible;"/>
			</clipPath>
			
				<linearGradient id="SVGID_23_" gradientUnits="userSpaceOnUse" x1="-15.4319" y1="-719.5517" x2="-14.6067" y2="-719.5517" gradientTransform="matrix(-41.9897 46.6343 -46.6343 -41.9897 -34133.2461 -29463.2891)">
				<stop  offset="0" style="stop-color:#93130A"/>
				<stop  offset="1" style="stop-color:#E63423"/>
			</linearGradient>
			<polygon class="st11" points="128.3,52 53.1,135.6 -31.9,59.1 43.4,-24.5 			"/>
		</g>
	</g>
	<g>
		<g>
			<defs>
				<ellipse id="SVGID_24_" cx="58" cy="8.9" rx="8" ry="8.1"/>
			</defs>
			<clipPath id="SVGID_25_">
				<use xlink:href="#SVGID_24_"  style="overflow:visible;"/>
			</clipPath>
			
				<linearGradient id="SVGID_26_" gradientUnits="userSpaceOnUse" x1="-9.7363" y1="-718.5348" x2="-8.9111" y2="-718.5348" gradientTransform="matrix(-75.5944 25.1469 -25.1469 -75.5944 -18728.3223 -54069.668)">
				<stop  offset="0" style="stop-color:#93130A"/>
				<stop  offset="1" style="stop-color:#E63423"/>
			</linearGradient>
			<polygon class="st12" points="70.9,15.3 51.7,21.8 45.2,2.4 64.5,-4 			"/>
		</g>
	</g>
</g>
</svg>
