<?xml version="1.0" encoding="utf-8"?>
<!-- Generator: Adobe Illustrator 22.1.0, SVG Export Plug-In . SVG Version: 6.00 Build 0)  -->
<svg version="1.1" id="Layer_1" xmlns="http://www.w3.org/2000/svg" xmlns:xlink="http://www.w3.org/1999/xlink" x="0px" y="0px"
	 viewBox="0 0 480 480" style="enable-background:new 0 0 480 480;" xml:space="preserve">
<style type="text/css">
	.st0{fill:#FFFC00;}
</style>
<path class="st0" d="M376,96h-32V24c0-13.3-10.7-24-24-24H72C58.7,0,48,10.7,48,24v432c0,13.3,10.7,24,24,24h248
	c13.3,0,24-10.7,24-24V336h32c30.9,0,56-25.1,56-56V152C432,121.1,406.9,96,376,96z M64,24c0-4.4,3.6-8,8-8h248c4.4,0,8,3.6,8,8v40
	H64V24z M328,456c0,4.4-3.6,8-8,8H72c-4.4,0-8-3.6-8-8v-40h264V456z M328,400H64V80h264v16H168c-30.9,0-56,25.1-56,56v224
	c0,4.4,3.6,8,8,8s8-3.6,8-8c0-22.1,17.9-40,40-40h160V400z M416,280c0,22.1-17.9,40-40,40H168c-15.1,0-29.5,6.1-40,16.8V152
	c0-22.1,17.9-40,40-40h208c22.1,0,40,17.9,40,40V280z"/>
<path class="st0" d="M340,211.3c-3.6-2.1-7.8-3.3-12-3.3c-4.4,0-8-3.6-8-8v-22.3c0.3-25.1-18.4-46.4-43.3-49.5
	c-13.5-1.3-26.9,3.1-36.9,12.2c-10,9.1-15.8,22-15.8,35.6v24c0,4.4-3.6,8-8,8c-13.3,0-24,10.7-24,24s10.7,24,24,24h112
	c4.2,0,8.4-1.2,12-3.3c7.4-4.3,12-12.2,12-20.7S347.4,215.6,340,211.3z M332,238.9c-1.2,0.7-2.6,1.1-4,1.1H216c-4.4,0-8-3.6-8-8
	s3.6-8,8-8c13.3,0,24-10.7,24-24v-24c0-9,3.8-17.7,10.5-23.7c6.7-6.1,15.7-9,24.7-8.1c16.8,2.2,29.2,16.7,28.8,33.6V200
	c0,13.3,10.7,24,24,24c1.4,0,2.8,0.4,4,1.1c2.5,1.4,4,4,4,6.9S334.5,237.5,332,238.9z"/>
<path class="st0" d="M272,288c-8.8,0-16-7.2-16-16h-16c0,17.7,14.3,32,32,32s32-14.3,32-32h-16C288,280.8,280.8,288,272,288z"/>
<path class="st0" d="M152,32h48v16h-48V32z"/>
<path class="st0" d="M216,32h16v16h-16V32z"/>
<path class="st0" d="M152,432h80v16h-80V432z"/>
</svg>
