<?xml version="1.0" standalone="no"?>
<!DOCTYPE svg PUBLIC "-//W3C//DTD SVG 20010904//EN"
 "http://www.w3.org/TR/2001/REC-SVG-20010904/DTD/svg10.dtd">
<svg version="1.0" xmlns="http://www.w3.org/2000/svg"
 width="700.000000pt" height="700.000000pt" viewBox="0 0 700.000000 700.000000"
 preserveAspectRatio="xMidYMid meet">
<metadata>
Created by potrace 1.11, written by Peter Selinger 2001-2013
</metadata>
<g transform="translate(0.000000,700.000000) scale(0.100000,-0.100000)"
fill="#000000" stroke="none">
<path d="M0 3500 l0 -3500 3500 0 3500 0 0 3500 0 3500 -3500 0 -3500 0 0
-3500z m3810 1778 c258 -53 405 -121 546 -252 131 -121 214 -275 249 -461 26
-138 17 -389 -19 -509 -72 -240 -202 -399 -423 -513 -51 -26 -93 -51 -93 -54
0 -3 24 -11 52 -19 139 -35 319 -161 412 -288 54 -75 105 -185 133 -290 23
-86 26 -116 27 -272 0 -144 -4 -191 -21 -266 -53 -226 -167 -405 -347 -541
-77 -58 -237 -135 -341 -163 -168 -45 -249 -50 -937 -50 l-648 0 0 1851 0
1850 668 -4 c546 -3 681 -7 742 -19z"/>
<path d="M2832 4288 l3 -603 290 -3 c355 -4 540 8 661 44 120 34 177 67 255
144 109 108 152 229 151 430 -2 304 -136 483 -419 562 -73 21 -103 22 -511 26
l-432 3 2 -603z"/>
<path d="M2830 2644 l0 -635 453 3 c429 4 456 5 530 26 219 61 350 183 412
382 25 82 31 295 11 390 -35 165 -133 299 -271 372 -164 85 -262 98 -747 98
l-388 0 0 -636z"/>
</g>
</svg>
