<svg xmlns="http://www.w3.org/2000/svg" xmlns:xlink="http://www.w3.org/1999/xlink" viewBox="0 0 702.52 117.6"><defs><style>.a{fill:none;}.b{clip-path:url(#a);}.c{fill:#deb703;}.d{fill:#0c85bd;}.e{fill:#973e6c;}.f{fill:#dae5ef;}.g{clip-path:url(#b);}.h{fill:#211915;}</style><clipPath id="a" transform="translate(0.09 -3.2)"><rect class="a" x="-59.81" y="-53.2" width="822.05" height="1048.82"/></clipPath><clipPath id="b" transform="translate(0.09 -3.2)"><rect class="a" width="702.43" height="93.6"/></clipPath></defs><title>Diario de Sevilla</title><g class="b"><rect class="c" x="0.09" y="100.8" width="702.42" height="16.8"/><rect class="d" x="0.09" y="100.8" width="48.5" height="16.8"/><rect class="e" x="48.59" y="100.8" width="48.5" height="16.8"/><rect class="f" x="97.09" y="100.8" width="48.5" height="16.8"/></g><g class="g"><path class="h" d="M66.07,47.43c0-29.87-17.3-40.86-40.59-40.86H-0.09V88.3H24.31c21,0,41.76-12.16,41.76-40.86m-16.84,0c0,14.93-7.8,25-24.92,25h-8V22.47h8.62C42.13,22.47,49.23,30.75,49.23,47.43Z" transform="translate(0.09 -3.2)"/><path class="h" d="M71.48,88.3V26.91H87.62V88.3H71.48m8.07-66.42a9.32,9.32,0,0,1-9.24-9.22,9.24,9.24,0,0,1,18.47,0A9.32,9.32,0,0,1,79.55,21.88Z" transform="translate(0.09 -3.2)"/><path class="h" d="M144.86,88.34V47.26c0-13.85-10.06-21.55-24.87-21.55-9.89,0-15.85,2.1-23,6.18l6.2,11.24C108.82,40.06,112.66,39,120,39c5.82,0,8.73,3.54,8.73,7.9v3A25.37,25.37,0,0,0,117,47.49c-13.87,0-24.87,6.74-24.87,20.29,0,14.84,11.46,21.84,22.89,21.84a19.49,19.49,0,0,0,13.73-5.36v4.08h16.14m-16.14-18C127,73.29,122.78,76,117.55,76c-6.87,0-9.31-3.87-9.31-8.2,0-4.92,3.26-7.73,9.31-7.73,5.7,0,8.38.82,11.17,2.58v7.73Z" transform="translate(0.09 -3.2)"/><path class="h" d="M186.15,45.82a13.91,13.91,0,0,0-9.34-4c-6.31,0-10.4,2.68-10.4,13.29V88.3H150.27V27h16.14V31.1A17,17,0,0,1,179,25.72,15.67,15.67,0,0,1,190.35,30l-4.21,15.77" transform="translate(0.09 -3.2)"/><path class="h" d="M192.8,88.3V26.91h16.14V88.3H192.8m8.07-66.42a9.32,9.32,0,0,1-9.24-9.22,9.24,9.24,0,0,1,18.47,0A9.32,9.32,0,0,1,200.87,21.88Z" transform="translate(0.09 -3.2)"/><path class="h" d="M269.53,57.73c0-18.81-11.81-32-27.81-32s-27.7,13.2-27.7,32,11.69,31.89,27.7,31.89,27.81-13.08,27.81-31.89m-16.37,0c0,8.53-3.74,16.35-11.44,16.35s-11.33-6.89-11.33-16.35S234,41.25,241.72,41.25,253.16,48.38,253.16,57.73Z" transform="translate(0.09 -3.2)"/><path class="h" d="M335.74,88.33V3.2L319.6,11.25V30.51a19.33,19.33,0,0,0-12.92-4.79c-15.17,0-23.82,12.85-23.82,31.19,0,22.89,10.76,32.71,23.82,32.71a18.8,18.8,0,0,0,12.92-5.14v3.86h16.14m-16.14-19c-2.33,3-4.89,5.14-9.9,5.14-6.29,0-10.47-5.26-10.47-17.87,0-10.28,3.37-15.65,9.54-15.65a12.77,12.77,0,0,1,10.83,5.26V69.29Z" transform="translate(0.09 -3.2)"/><path class="h" d="M392,57.7c0-17.53-9.46-32-25.79-32-15.52,0-27.33,13.17-27.33,32,0,19.41,11.23,31.91,28.84,31.91,8.16,0,17-3.62,21.94-9.93l-11.45-9.6a13.63,13.63,0,0,1-10.49,4.34c-5.83,0-12-3.17-12.59-11.61h36.63A50.25,50.25,0,0,0,392,57.7m-15.65-7h-21c0.58-6.21,4.2-11,10-11C372.57,39.7,375.84,45.21,376.3,50.73Z" transform="translate(0.09 -3.2)"/><path class="h" d="M436.88,89.61c-13.68,0-25.56-5.73-31.74-14.85l11.77-10.51c5.7,6.66,13.06,9.34,20.91,9.34,9.71,0,14.28-2.69,14.28-8.88,0-5.26-2.81-7.59-18.26-11.1-15.06-3.5-25.54-8.29-25.54-24.41,0-14.84,13-24,29.17-24,12.76,0,22.08,4.79,29.76,12.86L455.47,29.56c-5.25-5.37-11.1-8.41-18.59-8.41-8.78,0-11.7,3.74-11.7,7.36,0,5.14,3.51,6.77,16.5,9.81S469,45.8,469,63.55c0,15.54-9.78,26.06-32.1,26.06" transform="translate(0.09 -3.2)"/><path class="h" d="M524.39,57.7c0-17.53-9.46-32-25.79-32-15.52,0-27.33,13.17-27.33,32,0,19.41,11.23,31.91,28.84,31.91,8.16,0,17-3.62,21.94-9.93l-11.45-9.6a13.62,13.62,0,0,1-10.49,4.34c-5.83,0-12-3.17-12.59-11.61h36.63a50.25,50.25,0,0,0,.23-5.12m-15.65-7h-21c0.58-6.21,4.2-11,10-11C505,39.7,508.27,45.21,508.74,50.73Z" transform="translate(0.09 -3.2)"/><path class="h" d="M559.26,88.3H542.67L520.59,27h17.76l9,28.35c1.52,4.67,3.15,10.5,3.85,13.41,0.7-3,2.34-8.63,3.86-13.41L564,27h17.29L559.26,88.3" transform="translate(0.09 -3.2)"/><path class="h" d="M584.58,88.3V26.91h16.14V88.3H584.58m8.07-66.42a9.32,9.32,0,0,1-9.24-9.22,9.24,9.24,0,0,1,18.47,0A9.32,9.32,0,0,1,592.65,21.88Z" transform="translate(0.09 -3.2)"/><polyline class="h" points="607.17 85.1 607.17 8.05 623.31 0 623.31 85.1 607.17 85.1"/><polyline class="h" points="628.86 85.1 628.86 8.05 645 0 645 85.1 628.86 85.1"/><path class="h" d="M700.54,88.34V47.26c0-13.85-10.06-21.55-24.87-21.55-9.89,0-15.85,2.1-23,6.18l6.2,11.24c5.61-3.07,9.45-4.13,16.78-4.13,5.82,0,8.73,3.54,8.73,7.9v3a25.36,25.36,0,0,0-11.75-2.44c-13.87,0-24.87,6.74-24.87,20.29,0,14.84,11.46,21.84,22.89,21.84a19.49,19.49,0,0,0,13.73-5.36v4.08h16.14m-16.14-18c-1.75,2.93-5.94,5.62-11.17,5.62-6.87,0-9.31-3.87-9.31-8.2,0-4.92,3.26-7.73,9.31-7.73,5.7,0,8.38.82,11.17,2.58v7.73Z" transform="translate(0.09 -3.2)"/></g></svg>